<svg width="1000.000000" height="562.000000" viewBox="0 0 1000 562" fill="none" xmlns="http://www.w3.org/2000/svg" xmlns:xlink="http://www.w3.org/1999/xlink">
	<desc>
			Created with Pixso.
	</desc>
	<defs>
		<clipPath id="clip263_510">
			<rect id="length" width="1000.000000" height="562.000000" fill="white" fill-opacity="0"/>
		</clipPath>
	</defs>
	<rect id="length" width="1000.000000" height="562.000000" fill="#71AE78" fill-opacity="1.000000"/>
	<g clip-path="url(#clip263_510)">
		<path id="Lorem ipsum dolor sit amet" d="M267.05 289.94L250.82 289.94L250.82 265.04L245.53 265.04L245.53 295L267.05 295L267.05 289.94ZM380.49 270.18L385.69 270.18L385.69 265.04L380.49 265.04L380.49 270.18ZM505.97 294.43Q507.49 295 509.43 295L519.46 295L519.46 265.04L514.53 265.04L514.53 273.12Q513.03 272.6 511.19 272.6L509.43 272.6Q507.49 272.6 505.97 273.2Q504.53 273.76 503.48 274.74Q503.42 274.79 503.37 274.84Q503.21 275 503.06 275.16Q502.21 276.12 501.72 277.4Q501.15 278.89 501.15 280.78L501.15 286.81Q501.15 288.66 501.72 290.18Q502.19 291.44 503.01 292.39Q503.18 292.59 503.37 292.78Q503.56 292.97 503.76 293.14Q504.72 293.96 505.97 294.43ZM548.98 265.04L543.79 265.04L543.79 295L548.98 295L548.98 265.04ZM626.08 270.18L631.28 270.18L631.28 265.04L626.08 265.04L626.08 270.18ZM638.14 272.6L634 272.6L634 277.66L638.14 277.66L638.14 295L643.33 295L643.33 277.66L647.46 277.66L647.46 272.6L643.33 272.6L643.33 265.04L638.14 265.04L638.14 272.6ZM744.98 272.6L740.85 272.6L740.85 277.66L744.98 277.66L744.98 295L750.17 295L750.17 277.66L754.31 277.66L754.31 272.6L750.17 272.6L750.17 265.04L744.98 265.04L744.98 272.6ZM417.24 276.96L425.99 276.96L425.99 272.38L416.13 272.38Q414.68 272.38 413.53 272.91Q412.81 273.24 412.24 273.74Q411.9 274.03 411.62 274.38Q411.6 274.4 411.59 274.42Q410.85 275.35 410.46 276.56Q410.37 276.85 410.29 277.15Q410.06 278.1 410.06 279.11Q410.06 280.14 410.23 281.14Q410.27 281.38 410.32 281.62Q410.52 282.57 410.99 283.35Q411.14 283.6 411.31 283.82Q412.04 284.79 413.3 285.4Q414.55 286.01 416.49 286.01L420.45 286.01Q420.98 286.01 421.46 286.15Q421.76 286.23 422.03 286.38Q422.19 286.46 422.34 286.57Q422.49 286.68 422.61 286.8Q422.82 287.01 422.97 287.29Q423.21 287.72 423.22 288.36Q423.19 289.06 422.85 289.55Q422.65 289.85 422.32 290.06Q421.84 290.38 421.31 290.52Q420.89 290.63 420.45 290.63L411.3 290.63L411.3 295L421.94 295Q422.84 295 423.68 294.76Q424.02 294.65 424.36 294.51Q425.36 294.09 426.11 293.41Q426.23 293.3 426.34 293.19Q426.42 293.1 426.51 293.01Q427.22 292.23 427.64 291.17Q428.1 289.98 428.1 288.53L428.1 288.4Q428.1 286.94 427.72 285.67Q427.36 284.39 426.58 283.47Q426.44 283.29 426.28 283.13Q425.59 282.45 424.64 282.02Q423.48 281.49 421.94 281.49L417.01 281.49Q416.74 281.49 416.49 281.41Q416.03 281.26 415.67 280.82Q415.34 280.4 415.2 279.92Q415.12 279.62 415.12 279.29Q415.12 278.89 415.25 278.47Q415.36 278.15 415.53 277.88Q415.59 277.79 415.65 277.71Q415.88 277.4 416.2 277.21Q416.24 277.19 416.28 277.16Q416.66 276.96 417.24 276.96ZM611.87 276.96L620.63 276.96L620.63 272.38L610.77 272.38Q609.31 272.38 608.17 272.91Q607.45 273.24 606.87 273.74Q606.54 274.03 606.25 274.38Q606.24 274.4 606.22 274.42Q605.48 275.35 605.09 276.56Q605 276.85 604.93 277.15Q604.7 278.1 604.7 279.11Q604.7 280.14 604.86 281.14Q604.9 281.38 604.95 281.62Q605.16 282.57 605.63 283.35Q605.77 283.6 605.94 283.82Q606.67 284.79 607.93 285.4Q609.19 286.01 611.12 286.01L615.08 286.01Q615.61 286.01 616.09 286.15Q616.39 286.23 616.66 286.38Q616.82 286.46 616.97 286.57Q617.12 286.68 617.24 286.8Q617.46 287.01 617.61 287.29Q617.85 287.72 617.85 288.36L617.85 288.36Q617.83 289.06 617.49 289.55Q617.28 289.85 616.95 290.06Q616.47 290.38 615.94 290.52Q615.53 290.63 615.08 290.63L605.93 290.63L605.93 295L616.58 295Q617.48 295 618.31 294.76Q618.66 294.65 618.99 294.51Q619.99 294.09 620.74 293.41Q620.86 293.3 620.97 293.19Q621.06 293.1 621.14 293.01Q621.86 292.23 622.27 291.17Q622.73 289.98 622.73 288.53L622.73 288.4Q622.73 286.94 622.36 285.67Q621.99 284.39 621.22 283.47Q621.07 283.29 620.91 283.13Q620.22 282.45 619.27 282.02Q618.11 281.49 616.58 281.49L611.65 281.49Q611.37 281.49 611.13 281.41Q610.67 281.26 610.3 280.82Q609.97 280.4 609.84 279.92Q609.76 279.62 609.76 279.29Q609.76 278.89 609.88 278.47Q609.99 278.15 610.17 277.88Q610.22 277.79 610.28 277.71Q610.52 277.4 610.83 277.21Q610.87 277.19 610.92 277.16Q611.29 276.96 611.87 276.96ZM298.26 275.4Q297.23 276.16 296.62 277.17L296.62 272.43L291.16 272.43L291.16 295L296.62 295L296.62 285.67Q296.62 284.39 297.48 283.11Q298.34 281.84 299.72 280.81Q299.86 280.71 299.99 280.61Q301.27 279.71 302.77 279.14Q304.45 278.5 306.04 278.5L306.61 278.5L306.61 273.04L306.04 273.04Q304.63 273.04 303.21 273.31Q301.81 273.56 300.55 274.1Q299.3 274.63 298.26 275.4ZM581.2 275.4Q580.17 276.16 579.56 277.17L579.56 272.43L574.1 272.43L574.1 295L579.56 295L579.56 285.67Q579.56 284.39 580.42 283.11Q581.28 281.84 582.66 280.81Q582.8 280.71 582.94 280.61Q584.21 279.71 585.71 279.14Q587.39 278.5 588.98 278.5L589.55 278.5L589.55 273.04L588.98 273.04Q587.57 273.04 586.15 273.31Q584.75 273.56 583.49 274.1Q582.25 274.63 581.2 275.4ZM283.04 273.2Q281.53 272.6 279.6 272.6L277.79 272.6Q275.9 272.6 274.35 273.2Q272.82 273.79 271.73 274.84Q271.53 275.04 271.35 275.26Q270.55 276.18 270.11 277.4Q269.56 278.89 269.56 280.78L269.56 286.81Q269.56 288.66 270.11 290.18Q270.54 291.37 271.29 292.3Q271.5 292.55 271.73 292.78Q271.86 292.91 271.99 293.02Q272.99 293.92 274.35 294.43Q275.9 295 277.79 295L279.6 295Q281.53 295 283.04 294.43Q284.38 293.93 285.37 293.04Q285.51 292.92 285.64 292.78Q285.83 292.59 286 292.39Q286.82 291.44 287.29 290.18Q287.87 288.66 287.87 286.81L287.87 280.78Q287.87 278.89 287.29 277.4Q286.8 276.12 285.95 275.16Q285.8 275 285.64 274.84Q285.64 274.84 285.63 274.84Q284.56 273.79 283.04 273.2ZM309.77 278.09Q309.38 279.26 309.38 280.57L309.38 287.38Q309.38 289.06 309.95 290.46Q310.51 291.83 311.46 292.83Q311.49 292.86 311.52 292.89Q311.84 293.22 312.2 293.51Q312.94 294.09 313.83 294.49Q314.25 294.68 314.7 294.81Q315.63 295.08 316.64 295.08L328.04 295.08L328.04 290.15L317.78 290.15Q316.33 290.15 315.45 289.5Q315.36 289.43 315.28 289.36Q314.57 288.68 314.57 287.25L314.57 286.07L328.83 286.07L328.83 280.39Q328.83 279.06 328.32 277.68Q327.94 276.65 327.34 275.76Q327.14 275.46 326.91 275.18Q326.75 274.98 326.58 274.79Q325.77 273.92 324.66 273.33Q324.63 273.31 324.59 273.29Q323.29 272.6 321.61 272.6L316.6 272.6Q315.28 272.6 313.95 273.24Q313.49 273.46 313.07 273.74Q312.28 274.26 311.62 274.98Q311.52 275.09 311.43 275.2Q310.55 276.22 309.99 277.51Q309.87 277.79 309.77 278.09ZM352.8 277.9Q353.51 277.61 354.65 277.61L355.76 277.61Q356.9 277.61 357.6 277.9Q358.3 278.18 358.7 278.67Q358.73 278.7 358.76 278.74Q359.11 279.2 359.23 279.84Q359.37 280.51 359.37 281.31L359.37 295L364.47 295L364.47 280.26Q364.47 280.1 364.46 279.94Q364.41 278.69 363.96 277.46Q363.67 276.68 363.23 275.99Q362.89 275.47 362.46 275Q361.47 273.92 359.98 273.26Q358.49 272.6 356.54 272.6L354.26 272.6Q352.5 272.6 351.09 273.12Q349.68 273.65 348.63 274.57Q347.66 273.65 346.3 273.12Q344.93 272.6 343.17 272.6L341.24 272.6Q339.6 272.6 338.11 273.08Q337.84 273.16 337.58 273.26L337.58 272.6L332.44 272.6L332.44 295L337.58 295L337.58 281.31Q337.58 280.51 337.73 279.84Q337.89 279.15 338.28 278.67Q338.68 278.18 339.41 277.9Q340.14 277.61 341.28 277.61L342.33 277.61Q343.52 277.61 344.22 277.9Q344.93 278.18 345.31 278.67Q345.68 279.15 345.81 279.84Q345.94 280.51 345.94 281.31L345.94 295L351.1 295L351.1 281.27Q351.1 280.47 351.23 279.82Q351.35 279.18 351.69 278.72Q351.71 278.69 351.73 278.67Q352.11 278.18 352.8 277.9ZM380.49 295L385.69 295L385.69 272.6L380.49 272.6L380.49 295ZM402.6 273.2Q401.08 272.6 399.15 272.6L389.12 272.6L389.12 302.65L394.22 302.65L394.22 294.38Q395.81 295 397.74 295L399.15 295Q401.08 295 402.6 294.43Q403.93 293.93 404.92 293.04Q405.06 292.92 405.2 292.78Q405.42 292.56 405.62 292.32Q406.4 291.38 406.85 290.18Q407.42 288.66 407.42 286.81L407.42 280.78Q407.42 278.89 406.85 277.4Q406.38 276.17 405.57 275.24Q405.39 275.03 405.2 274.84L405.19 274.84Q404.12 273.79 402.6 273.2ZM442.86 289.72Q442.19 289.98 441.08 289.98L440.11 289.98Q438.93 289.98 438.22 289.7Q437.51 289.41 437.12 288.9Q437.03 288.79 436.95 288.66Q436.7 288.25 436.59 287.74Q436.46 287.08 436.46 286.28L436.46 272.6L431.36 272.6L431.36 287.34Q431.36 287.5 431.37 287.67Q431.42 288.91 431.86 290.13Q432.17 290.97 432.64 291.69Q432.95 292.17 433.33 292.6Q434.3 293.67 435.77 294.34Q437.26 295 439.23 295L441.48 295Q442.4 295 443.22 294.87Q444.03 294.73 444.73 294.43L444.73 295L449.88 295L449.88 272.6L444.73 272.6L444.73 286.64Q444.73 287.34 444.55 287.96Q444.43 288.38 444.19 288.73Q444.09 288.88 443.96 289.01Q443.55 289.45 442.86 289.72ZM474.08 277.9Q474.79 277.61 475.93 277.61L477.03 277.61Q478.17 277.61 478.87 277.9Q479.58 278.18 479.98 278.67Q480.01 278.7 480.03 278.74Q480.38 279.2 480.5 279.84Q480.64 280.51 480.64 281.31L480.64 295L485.75 295L485.75 280.26Q485.75 280.1 485.74 279.94Q485.69 278.69 485.23 277.46Q484.94 276.68 484.5 275.99Q484.16 275.47 483.74 275Q482.75 273.92 481.26 273.26Q479.76 272.6 477.82 272.6L475.53 272.6Q473.78 272.6 472.36 273.12Q470.95 273.65 469.9 274.57Q468.93 273.65 467.57 273.12Q466.21 272.6 464.44 272.6L462.51 272.6Q460.87 272.6 459.38 273.08Q459.12 273.16 458.86 273.26L458.86 272.6L453.71 272.6L453.71 295L458.86 295L458.86 281.31Q458.86 280.51 459.01 279.84Q459.17 279.15 459.56 278.67Q459.95 278.18 460.68 277.9Q461.41 277.61 462.55 277.61L463.61 277.61Q464.8 277.61 465.5 277.9Q466.21 278.18 466.58 278.67Q466.96 279.15 467.09 279.84Q467.22 280.51 467.22 281.31L467.22 295L472.37 295L472.37 281.27Q472.37 280.47 472.5 279.82Q472.62 279.18 472.97 278.72Q472.99 278.69 473.01 278.67Q473.38 278.18 474.08 277.9ZM535.54 273.2Q534.02 272.6 532.09 272.6L530.28 272.6Q528.39 272.6 526.85 273.2Q525.31 273.79 524.23 274.84Q524.02 275.04 523.84 275.26Q523.05 276.18 522.6 277.4Q522.06 278.89 522.06 280.78L522.06 286.81Q522.06 288.66 522.6 290.18Q523.03 291.37 523.79 292.3Q523.99 292.55 524.23 292.78Q524.35 292.91 524.48 293.02Q525.49 293.92 526.85 294.43Q528.39 295 530.28 295L532.09 295Q534.02 295 535.54 294.43Q536.87 293.93 537.86 293.04Q538 292.92 538.14 292.78Q538.32 292.59 538.49 292.39Q539.31 291.44 539.78 290.18Q540.36 288.66 540.36 286.81L540.36 280.78Q540.36 278.89 539.78 277.4Q539.29 276.12 538.44 275.16Q538.29 275 538.14 274.84L538.13 274.84Q537.06 273.79 535.54 273.2ZM565.99 273.2Q564.47 272.6 562.54 272.6L560.73 272.6Q558.84 272.6 557.29 273.2Q555.76 273.79 554.67 274.84Q554.47 275.04 554.29 275.26Q553.5 276.18 553.05 277.4Q552.5 278.89 552.5 280.78L552.5 286.81Q552.5 288.66 553.05 290.18Q553.48 291.37 554.24 292.3Q554.44 292.55 554.67 292.78Q554.8 292.91 554.93 293.02Q555.94 293.92 557.29 294.43Q558.84 295 560.73 295L562.54 295Q564.47 295 565.99 294.43Q567.32 293.93 568.31 293.04Q568.45 292.92 568.58 292.78Q568.77 292.59 568.94 292.39Q569.76 291.44 570.23 290.18Q570.81 288.66 570.81 286.81L570.81 280.78Q570.81 278.89 570.23 277.4Q569.74 276.12 568.89 275.16Q568.74 275 568.58 274.84L568.58 274.84Q567.5 273.79 565.99 273.2ZM626.08 295L631.28 295L631.28 272.6L626.08 272.6L626.08 295ZM662.35 277.41Q661.97 278.5 661.86 279.69L666.97 279.69Q667.2 278.76 667.8 278.26Q667.88 278.18 667.98 278.12Q668.73 277.61 670.49 277.61L671.59 277.61Q672.78 277.61 673.48 277.9Q674.19 278.18 674.53 278.67Q674.88 279.15 675.01 279.84Q675.15 280.51 675.15 281.31L675.15 281.75L667.62 281.75Q666.22 281.75 665.09 282.26Q664.1 282.7 663.4 283.43Q663.31 283.52 663.22 283.62Q662.48 284.48 662.08 285.67Q661.68 286.85 661.68 288.22Q661.68 289.62 662.06 290.86Q662.43 292.1 663.2 293Q663.31 293.13 663.43 293.25Q664.13 293.98 665.11 294.45Q666.26 295 667.72 295L680.21 295L680.21 280.26Q680.21 280.07 680.2 279.89Q680.15 278.67 679.73 277.46Q679.44 276.63 678.98 275.92Q678.67 275.44 678.28 275Q677.31 273.92 675.83 273.26Q674.36 272.6 672.38 272.6L669.74 272.6Q667.85 272.6 666.4 273.2Q664.95 273.79 663.97 274.76Q663.52 275.21 663.17 275.73Q662.77 276.32 662.5 277Q662.42 277.2 662.35 277.41ZM704.41 277.9Q705.12 277.61 706.26 277.61L707.36 277.61Q708.5 277.61 709.2 277.9Q709.91 278.18 710.31 278.67Q710.33 278.7 710.36 278.74Q710.71 279.2 710.83 279.84Q710.97 280.51 710.97 281.31L710.97 295L716.07 295L716.07 280.26Q716.07 280.1 716.07 279.94Q716.02 278.69 715.56 277.46Q715.27 276.68 714.83 275.99Q714.49 275.47 714.07 275Q713.08 273.92 711.58 273.26Q710.09 272.6 708.15 272.6L705.86 272.6Q704.11 272.6 702.69 273.12Q701.28 273.65 700.23 274.57Q699.26 273.65 697.9 273.12Q696.53 272.6 694.77 272.6L692.84 272.6Q691.2 272.6 689.71 273.08Q689.45 273.16 689.19 273.26L689.19 272.6L684.04 272.6L684.04 295L689.19 295L689.19 281.31Q689.19 280.51 689.34 279.84Q689.5 279.15 689.89 278.67Q690.28 278.18 691.01 277.9Q691.74 277.61 692.88 277.61L693.94 277.61Q695.13 277.61 695.83 277.9Q696.53 278.18 696.91 278.67Q697.29 279.15 697.42 279.84Q697.54 280.51 697.54 281.31L697.54 295L702.7 295L702.7 281.27Q702.7 280.47 702.83 279.82Q702.95 279.18 703.3 278.72Q703.32 278.69 703.33 278.67Q703.71 278.18 704.41 277.9ZM719.59 278.09Q719.19 279.26 719.19 280.57L719.19 287.38Q719.19 289.06 719.76 290.46Q720.33 291.83 721.28 292.83Q721.3 292.86 721.33 292.89Q721.66 293.22 722.02 293.51Q722.75 294.09 723.64 294.49Q724.07 294.68 724.51 294.81Q725.44 295.08 726.46 295.08L737.85 295.08L737.85 290.15L727.6 290.15Q726.14 290.15 725.26 289.5Q725.18 289.43 725.1 289.36Q724.38 288.68 724.38 287.25L724.38 286.07L738.65 286.07L738.65 280.39Q738.65 279.06 738.13 277.68Q737.76 276.65 737.16 275.76Q736.96 275.46 736.73 275.18Q736.57 274.98 736.4 274.79Q735.59 273.92 734.48 273.33Q734.44 273.31 734.41 273.29Q733.1 272.6 731.43 272.6L726.41 272.6Q725.09 272.6 723.77 273.24Q723.31 273.46 722.88 273.74Q722.1 274.26 721.44 274.98Q721.34 275.09 721.24 275.2Q720.37 276.22 719.81 277.51Q719.68 277.79 719.59 278.09ZM276.35 277.96Q277 277.66 277.79 277.66L279.6 277.66Q280.53 277.66 281.24 278.06Q281.6 278.26 281.9 278.56Q282.16 278.82 282.35 279.12Q282.81 279.88 282.81 280.91L282.81 286.64Q282.81 287.65 282.37 288.41Q282.18 288.73 281.9 289.01Q281.58 289.34 281.19 289.56Q280.5 289.94 279.6 289.94L277.79 289.94Q277.03 289.94 276.4 289.65Q275.9 289.42 275.48 289.01Q275.15 288.69 274.94 288.31Q274.54 287.58 274.54 286.64L274.54 280.91Q274.54 279.95 274.95 279.22Q275.16 278.86 275.48 278.56Q275.88 278.18 276.35 277.96ZM394.22 286.64L394.22 277.66L399.15 277.66Q400.06 277.66 400.77 278.04Q401.16 278.24 401.48 278.56Q401.77 278.84 401.97 279.17Q402.4 279.91 402.4 280.91L402.4 286.64Q402.4 287.62 401.98 288.36Q401.78 288.71 401.48 289.01Q401.13 289.36 400.72 289.57Q400.03 289.94 399.15 289.94L397.39 289.94Q396.47 289.94 395.77 289.54Q395.4 289.33 395.1 289.01Q394.86 288.76 394.68 288.46Q394.22 287.69 394.22 286.64ZM514.53 280.91L514.53 289.94L509.43 289.94Q508.62 289.94 507.95 289.63Q507.45 289.41 507.03 289.01Q506.64 288.65 506.41 288.21Q506.04 287.52 506.04 286.64L506.04 280.91Q506.04 280.01 506.43 279.32Q506.66 278.9 507.03 278.56Q507.43 278.2 507.9 277.98Q508.59 277.66 509.43 277.66L511.19 277.66Q512.05 277.66 512.75 278Q513.19 278.21 513.56 278.56Q513.91 278.88 514.13 279.27Q514.53 279.98 514.53 280.91ZM528.85 277.96Q529.5 277.66 530.28 277.66L532.09 277.66Q533.02 277.66 533.74 278.06Q534.09 278.26 534.4 278.56Q534.66 278.82 534.84 279.12Q535.3 279.88 535.3 280.91L535.3 286.64Q535.3 287.65 534.86 288.41Q534.67 288.73 534.4 289.01Q534.07 289.34 533.69 289.56Q532.99 289.94 532.09 289.94L530.28 289.94Q529.53 289.94 528.9 289.65Q528.39 289.42 527.97 289.01Q527.65 288.69 527.43 288.31Q527.03 287.58 527.03 286.64L527.03 280.91Q527.03 279.95 527.45 279.22Q527.66 278.86 527.97 278.56Q528.37 278.18 528.85 277.96ZM559.3 277.96Q559.94 277.66 560.73 277.66L562.54 277.66Q563.47 277.66 564.18 278.06Q564.54 278.26 564.85 278.56Q565.11 278.82 565.29 279.12Q565.75 279.88 565.75 280.91L565.75 286.64Q565.75 287.65 565.31 288.41Q565.12 288.73 564.85 289.01Q564.52 289.34 564.13 289.56Q563.44 289.94 562.54 289.94L560.73 289.94Q559.97 289.94 559.34 289.65Q558.84 289.42 558.42 289.01Q558.09 288.69 557.88 288.31Q557.48 287.58 557.48 286.64L557.48 280.91Q557.48 279.95 557.9 279.22Q558.11 278.86 558.42 278.56Q558.82 278.18 559.3 277.96ZM323.72 281.88L314.61 281.88L314.61 281.66Q314.61 280.95 314.81 280.3Q314.83 280.22 314.86 280.15Q315.1 279.42 315.49 278.89Q315.69 278.63 315.93 278.41Q316.17 278.2 316.46 278.03Q316.65 277.92 316.86 277.85Q317.27 277.7 317.74 277.7L320.46 277.7Q321.32 277.7 321.97 278.07Q322.46 278.34 322.84 278.83Q322.92 278.93 322.99 279.04Q323.72 280.1 323.72 281.66L323.72 281.88ZM733.54 281.88L724.43 281.88L724.43 281.66Q724.43 280.95 724.62 280.3Q724.65 280.22 724.67 280.15Q724.92 279.42 725.31 278.89Q725.51 278.63 725.75 278.41Q725.99 278.2 726.27 278.03Q726.47 277.92 726.68 277.85Q727.09 277.7 727.55 277.7L730.28 277.7Q731.14 277.7 731.79 278.07Q732.28 278.34 732.65 278.83Q732.74 278.93 732.81 279.04Q733.54 280.1 733.54 281.66L733.54 281.88ZM666.86 289.91Q666.4 289.37 666.4 288.22Q666.4 287.12 666.86 286.55Q667.24 286.07 667.69 285.99Q667.79 285.97 667.89 285.97L675.15 285.97L675.15 290.46L667.89 290.46Q667.78 290.46 667.67 290.44Q667.23 290.35 666.86 289.91Z" fill="#333333" fill-opacity="1.000000" fill-rule="evenodd"/>
		<path id="фрейм 3" d="M669 205L702 205C708.62 205 714 210.37 714 217L714 243C714 249.62 708.62 255 702 255L657 255L657 217C657 210.37 662.37 205 669 205Z" fill="#92D899" fill-opacity="1.000000" fill-rule="evenodd"/>
		<path id="25" d="M676.94 230.73Q675.37 232.1 673.69 233.37L673.69 237L683.89 237L683.89 234.55L676.45 234.55Q677.99 233.44 679.49 232.16Q680.99 230.88 682.35 229.55Q682.93 229 683.3 228.51Q683.68 228.02 683.86 227.48Q684.06 226.94 684.12 226.34Q684.18 225.74 684.18 225.02L684.18 224.66Q684.18 223.97 683.98 223.35Q683.92 223.17 683.84 222.99Q683.59 222.4 683.2 221.93Q683.07 221.78 682.93 221.64Q682.79 221.5 682.64 221.37Q682.16 220.98 681.57 220.72Q681.39 220.64 681.19 220.58Q680.58 220.39 679.91 220.39L677.82 220.39Q677.14 220.39 676.53 220.58Q676.34 220.64 676.15 220.72Q675.63 220.95 675.2 221.28Q674.98 221.45 674.78 221.64Q674.63 221.79 674.5 221.95Q674.11 222.41 673.86 222.99Q673.79 223.15 673.74 223.31Q673.52 223.95 673.52 224.66L673.52 225.72L676.17 225.72L676.17 225.14Q676.17 225.03 676.18 224.92Q676.21 224.65 676.32 224.39Q676.48 224.01 676.74 223.75Q676.8 223.69 676.86 223.64Q677.08 223.45 677.36 223.33Q677.47 223.28 677.58 223.25Q677.84 223.17 678.13 223.17L679.48 223.17Q679.67 223.17 679.86 223.21Q680.03 223.25 680.2 223.33Q680.39 223.41 680.56 223.53Q680.7 223.63 680.83 223.75Q680.89 223.8 680.94 223.86Q681.14 224.09 681.25 224.39Q681.35 224.64 681.38 224.9Q681.4 225.02 681.4 225.14Q681.4 225.69 681.31 226.07Q681.23 226.44 681.06 226.75Q680.89 227.06 680.61 227.36Q680.34 227.66 679.96 228.02Q678.52 229.36 676.94 230.73ZM693.33 226.52Q692.29 226.15 690.99 226.15Q690.35 226.15 689.69 226.26Q689.02 226.36 688.67 226.6L688.67 223.6L695.77 223.6L695.77 220.75L685.64 220.75L685.64 229.7L688.45 229.7Q689.12 228.96 690.66 228.96Q691.31 228.96 691.86 229.1Q692.36 229.23 692.74 229.51Q692.78 229.54 692.83 229.57Q692.89 229.62 692.94 229.67Q693.28 229.97 693.48 230.43Q693.71 230.97 693.71 231.76Q693.71 232.9 693.16 233.6Q693.04 233.75 692.9 233.88Q692.8 233.97 692.69 234.05Q691.93 234.62 690.75 234.62Q689.29 234.62 688.64 233.91Q688.53 233.79 688.44 233.66Q687.99 233.01 687.99 232.05L685.26 232.05Q685.26 233.4 685.66 234.39Q686.03 235.33 686.7 235.96Q686.74 236 686.78 236.04Q687.51 236.68 688.56 237.01Q689.6 237.33 690.85 237.33Q693.63 237.33 695.05 235.94Q695.1 235.89 695.15 235.84Q695.29 235.69 695.42 235.52Q696.57 234.08 696.57 231.74Q696.57 230.42 696.18 229.37Q695.8 228.31 695.08 227.6Q695.02 227.55 694.96 227.49Q694.27 226.86 693.33 226.52Z" fill="#FFFFFF" fill-opacity="1.000000" fill-rule="evenodd"/>
		<path id="Многоугольник 1" d="M657 267L668.78 255L657 255L657 267Z" fill="#92D899" fill-opacity="1.000000" fill-rule="evenodd"/>
	</g>
</svg>
