<svg width="1000.000000" height="562.000000" viewBox="0 0 1000 562" fill="none" xmlns="http://www.w3.org/2000/svg" xmlns:xlink="http://www.w3.org/1999/xlink">
	<desc>
			Created with Pixso.
	</desc>
	<defs>
		<clipPath id="clip263_488">
			<rect id="scroll" width="1000.000000" height="562.000000" fill="white" fill-opacity="0"/>
		</clipPath>
	</defs>
	<rect id="scroll" width="1000.000000" height="562.000000" fill="#C4A66D" fill-opacity="1.000000"/>
	<g clip-path="url(#clip263_488)">
		<rect id="фрейм 15" width="800.000000" height="216.012512" transform="translate(100.000000 176.000000)" fill="#FFFFFF" fill-opacity="0"/>
		<rect id="фрейм 14" width="55.000000" height="96.012497" transform="translate(472.500000 296.000000)" fill="#FFFFFF" fill-opacity="0"/>
		<path id="path" d="M519.09 374.15L502.12 391.12C500.93 392.31 499.07 392.31 497.88 391.12L480.91 374.15C479.72 372.96 479.72 371.1 480.91 369.91C482.1 368.72 483.96 368.72 485.15 369.91L497 381.76L497 349C497 347.32 498.32 346 500 346C501.68 346 503 347.32 503 349L503 381.76L514.84 369.91C516.03 368.72 517.9 368.72 519.09 369.91C520.28 371.1 520.28 372.96 519.09 374.15Z" fill="#D4B57C" fill-opacity="1.000000" fill-rule="evenodd"/>
		<path id="scroll" d="M520.3 301.65L517.47 301.65L517.47 318L520.3 318L520.3 301.65ZM525.49 301.65L522.66 301.65L522.66 318L525.49 318L525.49 301.65ZM477.18 308.16L481.95 308.16L481.95 305.66L476.57 305.66Q475.78 305.66 475.16 305.95Q474.76 306.13 474.45 306.4Q474.27 306.56 474.11 306.75Q474.1 306.76 474.1 306.77Q473.69 307.28 473.48 307.94Q473.43 308.1 473.39 308.26Q473.26 308.78 473.26 309.33Q473.26 309.89 473.35 310.44Q473.38 310.57 473.4 310.7Q473.52 311.22 473.77 311.64Q473.85 311.78 473.94 311.9Q474.34 312.43 475.03 312.76Q475.71 313.1 476.77 313.1L478.93 313.1Q479.22 313.1 479.48 313.17Q479.64 313.22 479.79 313.29Q479.88 313.34 479.96 313.4Q480.04 313.46 480.11 313.53Q480.22 313.64 480.31 313.79Q480.44 314.03 480.44 314.38Q480.43 314.76 480.24 315.02Q480.13 315.19 479.95 315.31Q479.69 315.48 479.4 315.56Q479.17 315.62 478.93 315.62L473.94 315.62L473.94 318L479.74 318Q480.24 318 480.69 317.86Q480.88 317.81 481.06 317.73Q481.61 317.5 482.02 317.13Q482.08 317.07 482.14 317.01Q482.19 316.96 482.23 316.91Q482.62 316.49 482.85 315.91Q483.1 315.26 483.1 314.47L483.1 314.4Q483.1 313.6 482.9 312.91Q482.7 312.21 482.27 311.71Q482.19 311.61 482.11 311.53Q481.73 311.15 481.21 310.92Q480.58 310.63 479.74 310.63L477.05 310.63Q476.91 310.63 476.77 310.59Q476.52 310.5 476.32 310.26Q476.14 310.03 476.07 309.77Q476.02 309.61 476.02 309.43Q476.02 309.21 476.09 308.98Q476.15 308.81 476.25 308.66Q476.28 308.61 476.31 308.57Q476.44 308.4 476.61 308.29Q476.63 308.28 476.66 308.27Q476.86 308.16 477.18 308.16ZM499.62 307.31Q499.06 307.72 498.73 308.27L498.73 305.68L495.75 305.68L495.75 318L498.73 318L498.73 312.91Q498.73 312.21 499.2 311.51Q499.66 310.82 500.42 310.26Q500.49 310.2 500.57 310.15Q501.26 309.66 502.08 309.35Q503 309 503.87 309L504.18 309L504.18 306.02L503.87 306.02Q503.1 306.02 502.32 306.17Q501.56 306.31 500.87 306.6Q500.19 306.89 499.62 307.31ZM490.83 315Q490.44 315.24 489.92 315.24L488.93 315.24Q488.44 315.24 488.06 315.03Q487.85 314.91 487.67 314.73Q487.53 314.58 487.42 314.4Q487.18 313.99 487.18 313.44L487.18 310.31Q487.18 309.75 487.43 309.34Q487.53 309.17 487.67 309.03Q487.84 308.87 488.04 308.76Q488.42 308.54 488.93 308.54L489.92 308.54Q490.55 308.54 490.93 308.82Q491 308.88 491.07 308.95Q491.34 309.22 491.45 309.65L494.29 309.65Q494.15 308.18 493.38 307.23Q493.2 307.01 492.99 306.81Q492.9 306.73 492.8 306.65Q491.71 305.78 489.92 305.78L488.93 305.78Q487.9 305.78 487.06 306.11Q486.22 306.43 485.65 307Q485.07 307.58 484.74 308.4Q484.42 309.21 484.42 310.24L484.42 313.53Q484.42 314.54 484.74 315.37Q485.07 316.18 485.62 316.76Q485.63 316.78 485.65 316.79Q485.69 316.83 485.73 316.87Q486.28 317.4 487.06 317.68Q487.9 318 488.93 318L489.92 318Q491.6 318 492.67 317.19Q492.81 317.08 492.94 316.96Q493.21 316.72 493.43 316.43Q494.12 315.52 494.29 314.2L491.43 314.2Q491.37 314.45 491.24 314.64Q491.11 314.82 490.9 314.96Q490.87 314.98 490.83 315ZM512.97 306.11Q512.14 305.78 511.09 305.78L510.11 305.78Q509.07 305.78 508.23 306.11Q507.39 306.43 506.8 307Q506.69 307.11 506.59 307.23Q506.16 307.73 505.92 308.4Q505.62 309.21 505.62 310.24L505.62 313.53Q505.62 314.54 505.92 315.37Q506.15 316.02 506.56 316.52Q506.67 316.66 506.8 316.79Q506.87 316.86 506.94 316.92Q507.49 317.41 508.23 317.68Q509.07 318 510.11 318L511.09 318Q512.14 318 512.97 317.68Q513.7 317.41 514.24 316.93Q514.31 316.86 514.39 316.79Q514.49 316.69 514.58 316.58Q515.03 316.05 515.28 315.37Q515.6 314.54 515.6 313.53L515.6 310.24Q515.6 309.21 515.28 308.4Q515.02 307.7 514.55 307.18Q514.47 307.09 514.39 307L514.38 307Q513.8 306.43 512.97 306.11ZM509.32 308.7Q509.68 308.54 510.11 308.54L511.09 308.54Q511.6 308.54 511.99 308.76Q512.18 308.87 512.35 309.03Q512.49 309.17 512.59 309.34Q512.84 309.75 512.84 310.31L512.84 313.44Q512.84 313.99 512.6 314.4Q512.5 314.58 512.35 314.73Q512.17 314.91 511.96 315.03Q511.58 315.24 511.09 315.24L510.11 315.24Q509.69 315.24 509.35 315.08Q509.07 314.96 508.85 314.73Q508.67 314.56 508.55 314.35Q508.33 313.95 508.33 313.44L508.33 310.31Q508.33 309.79 508.56 309.39Q508.67 309.2 508.85 309.03Q509.06 308.82 509.32 308.7Z" fill="#D4B57C" fill-opacity="1.000000" fill-rule="evenodd"/>
		<rect id="Прямоугольник 6" x="100.000000" y="176.000000" rx="12.000000" width="800.000000" height="80.000000" fill="#FFFFFF" fill-opacity="1.000000"/>
		<path id="Header" d="M452.29 230L457.83 230L457.83 200.04L452.29 200.04L452.29 212.49L442.65 212.49L442.65 200.04L437.07 200.04L437.07 230L442.65 230L442.65 217.5L452.29 217.5L452.29 230ZM509.64 229.43Q511.16 230 513.1 230L523.13 230L523.13 200.04L518.2 200.04L518.2 208.12Q516.71 207.6 514.86 207.6L513.1 207.6Q511.16 207.6 509.64 208.2Q508.2 208.76 507.15 209.74Q507.09 209.79 507.04 209.84Q506.88 210 506.73 210.16Q505.88 211.12 505.39 212.4Q504.82 213.89 504.82 215.78L504.82 221.81Q504.82 223.66 505.39 225.18Q505.86 226.44 506.68 227.39Q506.85 227.59 507.04 227.78Q507.23 227.97 507.43 228.14Q508.39 228.96 509.64 229.43ZM555.75 210.4Q554.71 211.16 554.1 212.17L554.1 207.43L548.65 207.43L548.65 230L554.1 230L554.1 220.67Q554.1 219.39 554.96 218.11Q555.82 216.84 557.21 215.81Q557.34 215.71 557.48 215.61Q558.75 214.71 560.26 214.14Q561.93 213.5 563.52 213.5L564.09 213.5L564.09 208.04L563.52 208.04Q562.12 208.04 560.7 208.31Q559.29 208.56 558.03 209.1Q556.79 209.63 555.75 210.4ZM461.74 213.09Q461.35 214.26 461.35 215.57L461.35 222.38Q461.35 224.06 461.92 225.46Q462.48 226.83 463.43 227.83Q463.46 227.86 463.49 227.89Q463.81 228.22 464.17 228.51Q464.91 229.09 465.8 229.49Q466.22 229.68 466.67 229.81Q467.6 230.08 468.61 230.08L480.01 230.08L480.01 225.15L469.75 225.15Q468.3 225.15 467.42 224.5Q467.33 224.43 467.25 224.36Q466.54 223.68 466.54 222.25L466.54 221.07L480.8 221.07L480.8 215.39Q480.8 214.06 480.29 212.68Q479.91 211.65 479.32 210.76Q479.11 210.46 478.88 210.18Q478.72 209.98 478.55 209.79Q477.75 208.92 476.64 208.33Q476.6 208.31 476.56 208.29Q475.26 207.6 473.59 207.6L468.57 207.6Q467.25 207.6 465.93 208.24Q465.46 208.46 465.04 208.74Q464.25 209.26 463.6 209.98Q463.5 210.09 463.4 210.2Q462.52 211.22 461.96 212.51Q461.84 212.79 461.74 213.09ZM484.01 212.41Q483.64 213.5 483.53 214.69L488.63 214.69Q488.87 213.76 489.46 213.26Q489.55 213.18 489.64 213.12Q490.39 212.61 492.15 212.61L493.25 212.61Q494.44 212.61 495.14 212.9Q495.85 213.18 496.19 213.67Q496.55 214.15 496.68 214.84Q496.82 215.52 496.82 216.31L496.82 216.75L489.29 216.75Q487.88 216.75 486.75 217.26Q485.76 217.7 485.06 218.43Q484.97 218.52 484.88 218.62Q484.14 219.48 483.74 220.67Q483.35 221.85 483.35 223.22Q483.35 224.62 483.72 225.86Q484.1 227.1 484.86 228Q484.97 228.13 485.09 228.25Q485.8 228.98 486.77 229.45Q487.92 230 489.38 230L501.88 230L501.88 215.26Q501.88 215.08 501.87 214.89Q501.81 213.67 501.39 212.46Q501.1 211.63 500.64 210.92Q500.33 210.44 499.94 210Q498.98 208.92 497.49 208.26Q496.02 207.6 494.05 207.6L491.4 207.6Q489.51 207.6 488.06 208.2Q486.61 208.79 485.63 209.76Q485.18 210.21 484.83 210.73Q484.43 211.32 484.16 212Q484.08 212.2 484.01 212.41ZM526.25 213.09Q525.85 214.26 525.85 215.57L525.85 222.38Q525.85 224.06 526.42 225.46Q526.99 226.83 527.94 227.83Q527.96 227.86 527.99 227.89Q528.32 228.22 528.68 228.51Q529.41 229.09 530.3 229.49Q530.73 229.68 531.17 229.81Q532.1 230.08 533.12 230.08L544.51 230.08L544.51 225.15L534.26 225.15Q532.8 225.15 531.92 224.5Q531.84 224.43 531.76 224.36Q531.04 223.68 531.04 222.25L531.04 221.07L545.31 221.07L545.31 215.39Q545.31 214.06 544.79 212.68Q544.42 211.65 543.82 210.76Q543.62 210.46 543.39 210.18Q543.23 209.98 543.06 209.79Q542.25 208.92 541.14 208.33Q541.1 208.31 541.07 208.29Q539.76 207.6 538.09 207.6L533.07 207.6Q531.75 207.6 530.43 208.24Q529.97 208.46 529.54 208.74Q528.76 209.26 528.1 209.98Q528 210.09 527.9 210.2Q527.03 211.22 526.47 212.51Q526.34 212.79 526.25 213.09ZM518.2 215.91L518.2 224.94L513.1 224.94Q512.29 224.94 511.62 224.63Q511.12 224.41 510.7 224.01Q510.31 223.65 510.08 223.21Q509.71 222.52 509.71 221.64L509.71 215.91Q509.71 215.01 510.1 214.32Q510.33 213.9 510.7 213.56Q511.1 213.2 511.57 212.98Q512.26 212.66 513.1 212.66L514.86 212.66Q515.72 212.66 516.42 213Q516.86 213.21 517.23 213.56Q517.58 213.88 517.8 214.27Q518.2 214.98 518.2 215.91ZM475.69 216.88L466.58 216.88L466.58 216.66Q466.58 215.95 466.78 215.3Q466.8 215.22 466.83 215.15Q467.08 214.42 467.46 213.89Q467.66 213.63 467.9 213.41Q468.15 213.2 468.43 213.03Q468.63 212.92 468.84 212.85Q469.25 212.7 469.71 212.7L472.44 212.7Q473.29 212.7 473.94 213.07Q474.44 213.34 474.81 213.83Q474.89 213.93 474.96 214.04Q475.69 215.1 475.69 216.66L475.69 216.88ZM540.2 216.88L531.09 216.88L531.09 216.66Q531.09 215.95 531.28 215.3Q531.31 215.22 531.33 215.15Q531.58 214.42 531.97 213.89Q532.17 213.63 532.41 213.41Q532.65 213.2 532.93 213.03Q533.13 212.92 533.34 212.85Q533.75 212.7 534.21 212.7L536.94 212.7Q537.8 212.7 538.45 213.07Q538.94 213.34 539.31 213.83Q539.4 213.93 539.47 214.04Q540.2 215.1 540.2 216.66L540.2 216.88ZM488.52 224.91Q488.06 224.37 488.06 223.22Q488.06 222.12 488.52 221.55Q488.9 221.07 489.36 220.99Q489.46 220.97 489.56 220.97L496.82 220.97L496.82 225.46L489.56 225.46Q489.44 225.46 489.34 225.44Q488.9 225.35 488.52 224.91Z" fill="#333333" fill-opacity="1.000000" fill-rule="evenodd"/>
	</g>
</svg>
