<svg width="1000.000000" height="562.000000" viewBox="0 0 1000 562" fill="none" xmlns="http://www.w3.org/2000/svg" xmlns:xlink="http://www.w3.org/1999/xlink">
	<desc>
			Created with Pixso.
	</desc>
	<defs>
		<clipPath id="clip263_380">
			<rect id="select" width="1000.000000" height="562.000000" fill="white" fill-opacity="0"/>
		</clipPath>
	</defs>
	<rect id="select" width="1000.000000" height="562.000000" fill="#FFB5D4" fill-opacity="1.000000"/>
	<g clip-path="url(#clip263_380)">
		<rect id="фрейм 17" rx="16.000000" width="549.820923" height="79.000000" transform="translate(225.000000 241.000000)" fill="#FFFFFF" fill-opacity="1.000000"/>
		<path id="path" d="M741.91 282.55L750.94 273.64C751.36 273.22 751.9 273.01 752.56 273.01C753.21 273.01 753.76 273.22 754.18 273.64C754.6 274.06 754.82 274.59 754.82 275.24C754.82 275.89 754.6 276.42 754.18 276.84L743.53 287.35C743.3 287.58 743.04 287.74 742.77 287.84C742.5 287.93 742.21 287.98 741.91 287.98C741.6 287.98 741.31 287.93 741.04 287.84C740.77 287.74 740.52 287.58 740.28 287.35L729.63 276.84C729.21 276.42 729 275.89 729 275.24C729 274.59 729.21 274.06 729.63 273.64C730.06 273.22 730.6 273.01 731.25 273.01C731.91 273.01 732.45 273.22 732.87 273.64L741.91 282.55Z" fill="#E688AF" fill-opacity="1.000000" fill-rule="nonzero"/>
		<path id="Select" d="M263.4 275.89Q262.07 275.42 260.57 275.42L255.16 275.42Q254.16 275.42 253.48 274.95Q253.29 274.82 253.13 274.66Q252.79 274.3 252.6 273.88Q252.39 273.38 252.39 272.79Q252.39 271.82 252.69 271.25Q252.87 270.91 253.15 270.67Q253.34 270.51 253.57 270.39Q254.15 270.1 254.89 270Q255.64 269.88 256.52 269.88L266.6 269.88L266.6 264.04L254.23 264.04Q252.62 264.04 251.27 264.63Q251.14 264.68 251.02 264.74Q249.95 265.26 249.12 266.04Q248.82 266.31 248.56 266.61Q247.55 267.77 246.97 269.32Q246.64 270.21 246.5 271.13Q246.4 271.8 246.4 272.48Q246.4 274.81 247.1 276.49Q247.72 277.94 248.77 278.93Q248.92 279.08 249.09 279.21Q250.37 280.27 252.21 280.75Q254.06 281.23 256.31 281.23L259.86 281.23Q261.12 281.23 262.06 281.78Q262.38 281.96 262.66 282.2Q262.99 282.49 263.23 282.84Q263.78 283.68 263.78 284.89Q263.78 285.81 263.43 286.48Q263.18 286.93 262.83 287.29Q262.68 287.44 262.51 287.57Q261.94 288.01 261.12 288.24Q260.3 288.45 259.42 288.45L247.37 288.45L247.37 294L261.01 294Q262.86 294 264.35 293.3Q265.32 292.84 266.11 292.18Q266.56 291.82 266.95 291.39Q268.05 290.17 268.64 288.5Q269.24 286.82 269.24 284.89Q269.24 282.82 268.6 281.08Q267.98 279.39 266.85 278.16Q266.82 278.13 266.79 278.1Q266.41 277.69 265.98 277.33Q265.1 276.61 264.02 276.13Q263.72 276 263.4 275.89ZM300.17 264.04L294.98 264.04L294.98 294L300.17 294L300.17 264.04ZM349.45 271.6L345.32 271.6L345.32 276.66L349.45 276.66L349.45 294L354.64 294L354.64 276.66L358.78 276.66L358.78 271.6L354.64 271.6L354.64 264.04L349.45 264.04L349.45 271.6ZM272.45 277.09Q272.05 278.26 272.05 279.57L272.05 286.38Q272.05 288.06 272.62 289.46Q273.19 290.83 274.14 291.83Q274.16 291.86 274.19 291.89Q274.52 292.22 274.88 292.51Q275.61 293.09 276.5 293.49Q276.93 293.68 277.37 293.81Q278.3 294.08 279.32 294.08L290.71 294.08L290.71 289.15L280.46 289.15Q279 289.15 278.12 288.5Q278.04 288.43 277.96 288.36Q277.24 287.68 277.24 286.25L277.24 285.07L291.51 285.07L291.51 279.39Q291.51 278.06 290.99 276.68Q290.62 275.65 290.02 274.76Q289.82 274.46 289.59 274.18Q289.43 273.98 289.26 273.79Q288.45 272.92 287.34 272.33Q287.3 272.31 287.27 272.29Q285.96 271.6 284.29 271.6L279.27 271.6Q277.95 271.6 276.63 272.24Q276.17 272.46 275.74 272.74Q274.96 273.26 274.3 273.98Q274.2 274.09 274.1 274.2Q273.23 275.22 272.67 276.51Q272.54 276.79 272.45 277.09ZM304.21 277.09Q303.82 278.26 303.82 279.57L303.82 286.38Q303.82 288.06 304.39 289.46Q304.96 290.83 305.91 291.83Q305.93 291.86 305.96 291.89Q306.28 292.22 306.64 292.51Q307.38 293.09 308.27 293.49Q308.7 293.68 309.14 293.81Q310.07 294.08 311.08 294.08L322.48 294.08L322.48 289.15L312.22 289.15Q310.77 289.15 309.89 288.5Q309.8 288.43 309.73 288.36Q309.01 287.68 309.01 286.25L309.01 285.07L323.28 285.07L323.28 279.39Q323.28 278.06 322.76 276.68Q322.38 275.65 321.79 274.76Q321.58 274.46 321.35 274.18Q321.2 273.98 321.03 273.79Q320.22 272.92 319.11 272.33Q319.07 272.31 319.04 272.29Q317.73 271.6 316.06 271.6L311.04 271.6Q309.72 271.6 308.4 272.24Q307.94 272.46 307.51 272.74Q306.72 273.26 306.07 273.98Q305.97 274.09 305.87 274.2Q305 275.22 304.44 276.51Q304.31 276.79 304.21 277.09ZM337.44 288.51Q336.73 288.94 335.77 288.94L333.96 288.94Q333.06 288.94 332.36 288.56Q331.98 288.34 331.65 288.01Q331.38 287.73 331.19 287.41Q330.75 286.65 330.75 285.64L330.75 279.91Q330.75 278.88 331.21 278.12Q331.39 277.82 331.65 277.56Q331.95 277.26 332.31 277.06Q333.03 276.66 333.96 276.66L335.77 276.66Q336.91 276.66 337.61 277.18Q337.76 277.29 337.88 277.42Q338.37 277.91 338.58 278.69L343.78 278.69Q343.53 276.01 342.12 274.26Q341.79 273.85 341.39 273.49Q341.23 273.34 341.05 273.19Q339.04 271.6 335.77 271.6L333.96 271.6Q332.07 271.6 330.52 272.2Q328.99 272.79 327.93 273.84Q326.88 274.9 326.28 276.4Q325.69 277.89 325.69 279.78L325.69 285.81Q325.69 287.66 326.28 289.18Q326.87 290.66 327.89 291.73Q327.91 291.76 327.93 291.78Q328.01 291.86 328.08 291.93Q329.09 292.9 330.52 293.43Q332.07 294 333.96 294L335.77 294Q338.84 294 340.81 292.52Q341.07 292.32 341.31 292.1Q341.8 291.65 342.2 291.13Q343.48 289.46 343.78 287.04L338.54 287.04Q338.43 287.49 338.19 287.83Q337.94 288.18 337.57 288.43Q337.51 288.47 337.44 288.51ZM286.4 280.88L277.29 280.88L277.29 280.66Q277.29 279.95 277.48 279.3Q277.51 279.22 277.53 279.15Q277.78 278.42 278.17 277.89Q278.37 277.63 278.61 277.41Q278.85 277.2 279.13 277.03Q279.33 276.92 279.54 276.85Q279.95 276.7 280.41 276.7L283.14 276.7Q284 276.7 284.65 277.07Q285.14 277.34 285.51 277.83Q285.6 277.93 285.67 278.04Q286.4 279.1 286.4 280.66L286.4 280.88ZM318.16 280.88L309.05 280.88L309.05 280.66Q309.05 279.95 309.25 279.3Q309.28 279.22 309.3 279.15Q309.55 278.42 309.94 277.89Q310.13 277.63 310.38 277.41Q310.62 277.2 310.9 277.03Q311.1 276.92 311.31 276.85Q311.72 276.7 312.18 276.7L314.91 276.7Q315.76 276.7 316.42 277.07Q316.91 277.34 317.28 277.83Q317.36 277.93 317.44 278.04Q318.16 279.1 318.16 280.66L318.16 280.88Z" fill="#333333" fill-opacity="1.000000" fill-rule="evenodd"/>
		<rect id="фрейм 17" rx="16.000000" width="549.820923" height="79.000000" transform="translate(225.000000 241.000000)" stroke="#E688AF" stroke-opacity="1.000000" stroke-width="8.000000"/>
	</g>
</svg>
