<svg width="1000.000000" height="562.000000" viewBox="0 0 1000 562" fill="none" xmlns="http://www.w3.org/2000/svg" xmlns:xlink="http://www.w3.org/1999/xlink">
	<desc>
			Created with Pixso.
	</desc>
	<defs>
		<clipPath id="clip263_450">
			<rect id="table" width="1000.000000" height="562.000000" fill="white" fill-opacity="0"/>
		</clipPath>
	</defs>
	<rect id="table" width="1000.000000" height="562.000000" fill="#6CAC94" fill-opacity="1.000000"/>
	<g clip-path="url(#clip263_450)">
		<rect id="фрейм 13" width="626.000000" height="252.000000" transform="translate(187.000000 155.000000)" fill="#FFFFFF" fill-opacity="0"/>
		<rect id="фрейм 16" width="626.000000" height="189.000000" transform="translate(187.000000 218.000000)" fill="#78BAA1" fill-opacity="0"/>
		<path id="tory@mail.com" d="M568.47 369.22L565.56 369.22L565.56 372.78L568.47 372.78L568.47 385L572.12 385L572.12 372.78L575.04 372.78L575.04 369.22L572.12 369.22L572.12 363.89L568.47 363.89L568.47 369.22ZM680.69 367.51L684.35 367.51L684.35 363.89L680.69 363.89L680.69 367.51ZM690.83 363.89L687.17 363.89L687.17 385L690.83 385L690.83 363.89ZM635.01 381.54Q635.53 381.56 636.08 381.21Q636.76 380.78 637.13 380.36Q637.35 380.12 637.5 379.83Q637.6 379.62 637.66 379.4Q637.82 378.86 637.86 378.13Q637.91 377.4 637.91 376.34L637.91 372.29Q637.91 371.44 637.72 370.64Q637.55 369.92 637.23 369.22Q636.83 368.36 636.26 367.63Q635.86 367.12 635.38 366.68Q635.12 366.44 634.85 366.22Q633.88 365.45 632.68 364.97Q632.24 364.79 631.79 364.66Q630.66 364.35 629.45 364.35L626.96 364.35Q626.32 364.35 625.69 364.44Q624.68 364.59 623.71 364.97Q622.4 365.48 621.35 366.31Q621.13 366.49 620.92 366.68Q620.32 367.22 619.84 367.85Q619.35 368.49 619 369.22Q618.63 369.98 618.45 370.77Q618.28 371.51 618.28 372.29L618.28 377.59Q618.28 379.02 618.72 380.31Q618.79 380.49 618.86 380.67Q619.33 381.86 620.09 382.8Q620.26 383.01 620.44 383.2Q620.65 383.43 620.88 383.63Q621.74 384.41 622.87 384.9Q623 384.96 623.12 385.01Q624.45 385.53 625.97 385.53L635.96 385.53L635.96 382.64L629.69 382.67L626.4 382.67Q625.88 382.67 625.37 382.56Q624.96 382.48 624.56 382.32Q623.96 382.07 623.47 381.7Q623.24 381.52 623.03 381.31Q623 381.28 622.98 381.26Q622.36 380.62 621.98 379.76Q621.6 378.86 621.6 377.75L621.6 372.72Q621.6 372.38 621.65 372.05Q621.74 371.41 622.02 370.8Q622.32 370.12 622.77 369.56Q622.94 369.35 623.14 369.15Q623.39 368.89 623.68 368.67Q624.17 368.29 624.75 368.01Q625.32 367.74 625.92 367.64Q626.28 367.57 626.65 367.57L629.72 367.57Q630.31 367.57 630.86 367.71Q631.28 367.82 631.67 368Q632.38 368.31 632.96 368.8Q633.13 368.94 633.3 369.11Q633.5 369.31 633.68 369.52Q634.12 370.07 634.42 370.74Q634.55 371.04 634.64 371.35Q634.84 372.01 634.84 372.72L634.84 377.84Q634.74 378.05 634.62 378.07Q634.58 378.08 634.54 378.07Q634.37 378.02 634.25 377.93Q633.78 377.62 633.34 377.2Q632.91 376.78 632.91 376.47L632.91 370.06L630.44 370.06L630.44 370.92Q630.25 370.68 629.73 370.52Q629.23 370.37 628.55 370.37L626.71 370.37Q625.94 370.37 625.34 370.69Q625.29 370.71 625.25 370.74Q624.69 371.06 624.28 371.52Q624.23 371.59 624.17 371.65Q623.95 371.94 623.78 372.25Q623.63 372.53 623.52 372.84Q623.31 373.49 623.31 374.02L623.31 376.62Q623.31 377.39 623.55 378.07Q623.57 378.11 623.58 378.15Q623.85 378.82 624.29 379.35Q624.32 379.38 624.34 379.4Q624.59 379.68 624.89 379.9Q625.16 380.1 625.47 380.25Q625.67 380.34 625.88 380.41Q626.35 380.56 626.87 380.56L629.35 380.56Q629.55 380.56 629.74 380.54Q630.77 380.41 631.71 379.6Q632.05 379.91 632.44 380.19Q632.82 380.47 633.22 380.72Q634.09 381.34 634.75 381.5Q634.87 381.53 635.01 381.54ZM596.66 371.19Q595.93 371.73 595.5 372.44L595.5 369.09L591.65 369.09L591.65 385L595.5 385L595.5 378.43Q595.5 377.53 596.1 376.62Q596.71 375.72 597.69 375Q597.78 374.93 597.88 374.86Q598.78 374.23 599.84 373.82Q601.02 373.37 602.14 373.37L602.54 373.37L602.54 369.53L602.14 369.53Q601.14 369.53 600.15 369.71Q599.15 369.9 598.27 370.28Q597.39 370.65 596.66 371.19ZM585.93 369.64Q584.87 369.22 583.5 369.22L582.23 369.22Q580.9 369.22 579.81 369.64Q578.73 370.06 577.96 370.8Q577.82 370.94 577.69 371.09Q577.14 371.74 576.82 372.6Q576.44 373.65 576.44 374.98L576.44 379.23Q576.44 380.53 576.82 381.6Q577.13 382.44 577.66 383.09Q577.8 383.27 577.96 383.44Q578.05 383.52 578.15 383.61Q578.85 384.24 579.81 384.59Q580.9 385 582.23 385L583.5 385Q584.87 385 585.93 384.59Q586.87 384.24 587.57 383.62Q587.67 383.53 587.77 383.44Q587.9 383.3 588.02 383.16Q588.59 382.49 588.92 381.6Q589.33 380.53 589.33 379.23L589.33 374.98Q589.33 373.65 588.92 372.6Q588.58 371.69 587.98 371.02Q587.88 370.91 587.77 370.8Q587.76 370.79 587.76 370.79Q587 370.05 585.93 369.64ZM607.25 390.39L610.66 390.39L616.95 369.22L613.48 369.22L610.51 379.29L607.49 369.22L604.06 369.22L608.83 384.93L607.25 390.39ZM654.89 372.95Q655.39 372.75 656.2 372.75L656.97 372.75Q657.78 372.75 658.27 372.95Q658.77 373.15 659.05 373.49Q659.07 373.52 659.09 373.54Q659.34 373.87 659.42 374.32Q659.52 374.79 659.52 375.35L659.52 385L663.11 385L663.11 374.61Q663.11 374.5 663.11 374.39Q663.07 373.51 662.75 372.64Q662.55 372.09 662.24 371.61Q662 371.24 661.7 370.91Q661 370.15 659.95 369.68Q658.9 369.22 657.53 369.22L655.92 369.22Q654.68 369.22 653.68 369.59Q652.69 369.96 651.95 370.61Q651.27 369.96 650.31 369.59Q649.35 369.22 648.1 369.22L646.74 369.22Q645.59 369.22 644.54 369.55Q644.35 369.61 644.17 369.68L644.17 369.22L640.54 369.22L640.54 385L644.17 385L644.17 375.35Q644.17 374.79 644.28 374.32Q644.39 373.83 644.66 373.49Q644.94 373.15 645.46 372.95Q645.97 372.75 646.77 372.75L647.51 372.75Q648.35 372.75 648.85 372.95Q649.35 373.15 649.61 373.49Q649.88 373.83 649.97 374.32Q650.06 374.79 650.06 375.35L650.06 385L653.69 385L653.69 375.32Q653.69 374.76 653.78 374.3Q653.87 373.86 654.11 373.53Q654.12 373.51 654.14 373.49Q654.4 373.15 654.89 372.95ZM665.59 372.61Q665.33 373.38 665.25 374.21L668.85 374.21Q669.01 373.56 669.43 373.2Q669.49 373.15 669.56 373.11Q670.09 372.75 671.33 372.75L672.1 372.75Q672.94 372.75 673.43 372.95Q673.93 373.15 674.17 373.49Q674.42 373.83 674.51 374.32Q674.61 374.79 674.61 375.35L674.61 375.66L669.31 375.66Q668.32 375.66 667.52 376.02Q666.82 376.33 666.33 376.84Q666.27 376.91 666.2 376.98Q665.68 377.59 665.4 378.43Q665.12 379.26 665.12 380.22Q665.12 381.21 665.39 382.08Q665.65 382.95 666.19 383.59Q666.27 383.68 666.35 383.77Q666.85 384.28 667.54 384.61Q668.35 385 669.38 385L678.18 385L678.18 374.61Q678.18 374.48 678.17 374.36Q678.13 373.49 677.84 372.64Q677.63 372.06 677.31 371.55Q677.09 371.21 676.81 370.91Q676.13 370.15 675.09 369.68Q674.05 369.22 672.66 369.22L670.8 369.22Q669.47 369.22 668.44 369.64Q667.42 370.06 666.73 370.74Q666.41 371.06 666.17 371.42Q665.89 371.84 665.7 372.32Q665.64 372.46 665.59 372.61ZM680.69 385L684.35 385L684.35 369.22L680.69 369.22L680.69 385ZM707.6 381.13Q707.1 381.43 706.42 381.43L705.14 381.43Q704.51 381.43 704.02 381.16Q703.75 381.01 703.52 380.78Q703.33 380.58 703.19 380.36Q702.88 379.82 702.88 379.11L702.88 375.07Q702.88 374.34 703.2 373.81Q703.33 373.6 703.52 373.42Q703.73 373.2 703.98 373.06Q704.49 372.78 705.14 372.78L706.42 372.78Q707.23 372.78 707.72 373.15Q707.82 373.23 707.91 373.31Q708.25 373.66 708.4 374.21L712.06 374.21Q711.88 372.32 710.89 371.09Q710.66 370.8 710.38 370.55Q710.26 370.44 710.14 370.34Q708.73 369.22 706.42 369.22L705.14 369.22Q703.81 369.22 702.72 369.64Q701.64 370.06 700.9 370.8Q700.16 371.54 699.73 372.6Q699.32 373.65 699.32 374.98L699.32 379.23Q699.32 380.53 699.73 381.6Q700.15 382.65 700.87 383.4Q700.88 383.42 700.9 383.44Q700.95 383.49 701 383.54Q701.71 384.22 702.72 384.59Q703.81 385 705.14 385L706.42 385Q708.58 385 709.97 383.96Q710.15 383.82 710.32 383.66Q710.67 383.35 710.95 382.98Q711.85 381.8 712.06 380.1L708.37 380.1Q708.29 380.41 708.12 380.66Q707.95 380.9 707.69 381.08Q707.64 381.1 707.6 381.13ZM722.99 369.64Q721.92 369.22 720.56 369.22L719.28 369.22Q717.95 369.22 716.86 369.64Q715.78 370.06 715.02 370.8Q714.87 370.94 714.74 371.09Q714.19 371.74 713.87 372.6Q713.49 373.65 713.49 374.98L713.49 379.23Q713.49 380.53 713.87 381.6Q714.18 382.44 714.71 383.09Q714.85 383.27 715.02 383.44Q715.1 383.52 715.2 383.61Q715.91 384.24 716.86 384.59Q717.95 385 719.28 385L720.56 385Q721.92 385 722.99 384.59Q723.92 384.24 724.62 383.62Q724.72 383.53 724.82 383.44Q724.95 383.3 725.07 383.16Q725.64 382.49 725.97 381.6Q726.38 380.53 726.38 379.23L726.38 374.98Q726.38 373.65 725.97 372.6Q725.63 371.69 725.03 371.02Q724.93 370.91 724.82 370.8L724.81 370.79Q724.06 370.05 722.99 369.64ZM743.24 372.95Q743.74 372.75 744.55 372.75L745.32 372.75Q746.13 372.75 746.62 372.95Q747.12 373.15 747.4 373.49Q747.42 373.52 747.44 373.54Q747.69 373.87 747.77 374.32Q747.87 374.79 747.87 375.35L747.87 385L751.46 385L751.46 374.61Q751.46 374.5 751.46 374.39Q751.42 373.51 751.1 372.64Q750.9 372.09 750.59 371.61Q750.35 371.24 750.05 370.91Q749.35 370.15 748.3 369.68Q747.25 369.22 745.88 369.22L744.27 369.22Q743.03 369.22 742.03 369.59Q741.04 369.96 740.3 370.61Q739.62 369.96 738.66 369.59Q737.7 369.22 736.45 369.22L735.09 369.22Q733.94 369.22 732.89 369.55Q732.7 369.61 732.52 369.68L732.52 369.22L728.89 369.22L728.89 385L732.52 385L732.52 375.35Q732.52 374.79 732.63 374.32Q732.74 373.83 733.01 373.49Q733.29 373.15 733.81 372.95Q734.32 372.75 735.12 372.75L735.86 372.75Q736.7 372.75 737.2 372.95Q737.7 373.15 737.96 373.49Q738.23 373.83 738.32 374.32Q738.41 374.79 738.41 375.35L738.41 385L742.04 385L742.04 375.32Q742.04 374.76 742.13 374.3Q742.22 373.86 742.46 373.53Q742.47 373.51 742.49 373.49Q742.75 373.15 743.24 372.95ZM581.22 372.99Q581.68 372.78 582.23 372.78L583.5 372.78Q584.16 372.78 584.67 373.06Q584.92 373.2 585.13 373.42Q585.31 373.6 585.44 373.81Q585.77 374.34 585.77 375.07L585.77 379.11Q585.77 379.82 585.46 380.36Q585.32 380.58 585.13 380.78Q584.9 381.01 584.63 381.16Q584.14 381.43 583.5 381.43L582.23 381.43Q581.7 381.43 581.26 381.23Q580.9 381.07 580.61 380.78Q580.37 380.55 580.22 380.28Q579.94 379.77 579.94 379.11L579.94 375.07Q579.94 374.39 580.24 373.88Q580.38 373.63 580.61 373.42Q580.89 373.15 581.22 372.99ZM718.27 372.99Q718.73 372.78 719.28 372.78L720.56 372.78Q721.21 372.78 721.72 373.06Q721.97 373.2 722.18 373.42Q722.37 373.6 722.5 373.81Q722.82 374.34 722.82 375.07L722.82 379.11Q722.82 379.82 722.51 380.36Q722.37 380.58 722.18 380.78Q721.95 381.01 721.68 381.16Q721.19 381.43 720.56 381.43L719.28 381.43Q718.75 381.43 718.31 381.23Q717.95 381.07 717.66 380.78Q717.43 380.55 717.27 380.28Q716.99 379.77 716.99 379.11L716.99 375.07Q716.99 374.39 717.29 373.88Q717.43 373.63 717.66 373.42Q717.94 373.15 718.27 372.99ZM629.85 373.56Q630.13 374.02 630.13 374.64L630.13 376.13Q630.13 376.34 630.06 376.64Q630.02 376.83 629.94 377Q629.9 377.09 629.84 377.18Q629.69 377.43 629.41 377.61Q629.4 377.61 629.4 377.62Q629.13 377.78 628.77 377.78L627.52 377.78Q627.06 377.78 626.78 377.62Q626.63 377.54 626.5 377.42Q626.4 377.33 626.31 377.22Q626.19 377.05 626.11 376.86Q626.07 376.77 626.05 376.67Q625.97 376.38 625.97 376.13L625.97 374.64Q625.97 374.06 626.22 373.63Q626.31 373.49 626.42 373.36Q626.62 373.13 626.88 373Q627.19 372.84 627.59 372.84L628.42 372.84Q629.15 372.84 629.56 373.2Q629.64 373.27 629.7 373.36Q629.78 373.45 629.85 373.56ZM668.77 381.42Q668.44 381.03 668.44 380.22Q668.44 379.45 668.77 379.05Q669.04 378.71 669.36 378.65Q669.43 378.64 669.5 378.64L674.61 378.64L674.61 381.8L669.5 381.8Q669.42 381.8 669.34 381.79Q669.03 381.73 668.77 381.42ZM693.87 382.14L693.87 385.71L697.55 385.71L697.55 382.14L693.87 382.14Z" fill="#2B5E4B" fill-opacity="1.000000" fill-rule="evenodd"/>
		<line id="Линия 4" x1="187.000000" y1="404.000000" x2="813.000000" y2="404.000000" stroke="#94DDC1" stroke-opacity="1.000000" stroke-width="1.000000"/>
		<path id="23" d="M474.77 376.9Q472.74 378.67 470.57 380.32L470.57 385L483.74 385L483.74 381.83L474.13 381.83Q476.11 380.41 478.05 378.75Q479.99 377.09 481.75 375.38Q482.5 374.67 482.98 374.04Q483.46 373.4 483.71 372.7Q483.96 372.01 484.03 371.24Q484.11 370.46 484.11 369.53L484.11 369.06Q484.11 368.17 483.85 367.37Q483.77 367.13 483.68 366.91Q483.35 366.15 482.84 365.54Q482.68 365.34 482.49 365.16Q482.31 364.98 482.12 364.81Q481.51 364.3 480.75 363.98Q480.51 363.87 480.26 363.8Q479.47 363.55 478.6 363.55L475.89 363.55Q475.03 363.55 474.23 363.8Q473.99 363.87 473.75 363.98Q473.07 364.27 472.51 364.7Q472.23 364.91 471.97 365.16Q471.78 365.35 471.61 365.56Q471.1 366.16 470.78 366.91Q470.69 367.11 470.62 367.32Q470.35 368.14 470.35 369.06L470.35 370.43L473.76 370.43L473.76 369.68Q473.76 369.54 473.78 369.4Q473.82 369.05 473.96 368.71Q474.16 368.22 474.5 367.88Q474.58 367.81 474.66 367.74Q474.94 367.5 475.3 367.35Q475.44 367.29 475.59 367.24Q475.93 367.14 476.3 367.14L478.04 367.14Q478.29 367.14 478.53 367.19Q478.76 367.25 478.98 367.35Q479.22 367.45 479.44 367.6Q479.62 367.73 479.78 367.88Q479.86 367.96 479.93 368.03Q480.18 368.33 480.33 368.71Q480.46 369.04 480.5 369.37Q480.52 369.53 480.52 369.68Q480.52 370.4 480.41 370.88Q480.3 371.36 480.08 371.76Q479.87 372.16 479.5 372.55Q479.15 372.94 478.66 373.4Q476.8 375.13 474.77 376.9ZM499.71 370.15Q499.82 368.86 499.36 367.51Q499.12 366.8 498.65 366.15Q498.19 365.51 497.61 365.01Q497.6 365 497.6 365Q497.07 364.54 496.37 364.21Q495.68 363.89 494.99 363.73Q494.62 363.67 494.23 363.64Q493.84 363.61 493.47 363.58L493.4 363.58Q493.32 363.58 493.13 363.56Q492.94 363.55 492.59 363.55L491.64 363.55Q491.56 363.55 491.48 363.55Q490.39 363.57 489.3 363.9Q488.15 364.26 487.24 364.94Q487.01 365.12 486.79 365.33Q486.2 365.9 485.78 366.66Q485.23 367.69 485.23 369.03L485.23 369.68L488.58 369.68Q488.58 369.01 488.88 368.52Q488.91 368.47 488.95 368.41Q489.08 368.22 489.24 368.06Q489.53 367.77 489.91 367.57Q490.5 367.26 491.24 367.16Q491.98 367.04 492.68 367.08Q493.38 367.11 493.99 367.3Q494.59 367.48 494.93 367.79Q495.37 368.19 495.56 368.68Q495.71 369.01 495.74 369.36Q495.76 369.5 495.75 369.65Q495.75 369.83 495.71 370Q495.66 370.31 495.52 370.6Q495.39 370.88 495.19 371.1Q495.08 371.24 494.93 371.36Q494.4 371.79 493.47 371.91Q492.73 372.1 491.49 372.1L490.41 372.1L490.41 375.29L491.49 375.29Q492.73 375.29 493.47 375.48Q494.61 375.69 495.21 376.37Q495.6 376.8 495.77 377.43Q495.86 377.78 495.89 378.14Q495.94 378.72 495.81 379.32Q495.66 380.05 495.23 380.53Q495.1 380.68 494.93 380.81Q494.61 381.04 494.24 381.19Q493.98 381.29 493.71 381.34Q493.04 381.46 492.39 381.52Q491.92 381.55 491.36 381.51Q491.18 381.49 491 381.46Q490.63 381.4 490.28 381.28Q489.76 381.09 489.35 380.78Q489.28 380.72 489.21 380.66Q488.91 380.37 488.76 379.94Q488.58 379.51 488.58 378.98L485.23 378.98L485.23 379.6Q485.23 380.36 485.43 381.08Q485.52 381.41 485.65 381.73Q485.92 382.39 486.34 382.95Q486.55 383.24 486.81 383.5Q487.1 383.8 487.43 384.04Q487.95 384.42 488.55 384.69Q488.87 384.83 489.21 384.92Q489.9 385.12 490.65 385.12Q491.43 385.12 492.14 385.13Q492.32 385.14 492.5 385.14Q493.03 385.14 493.56 385.1Q493.68 385.09 493.79 385.08Q494.4 385.03 494.99 384.92Q495.71 384.78 496.42 384.44Q496.8 384.26 497.14 384.04Q497.67 383.69 498.11 383.22Q498.54 382.75 498.85 382.21Q499.08 381.84 499.24 381.43Q499.83 380.02 499.83 378.61Q499.83 377.2 499.24 375.78Q498.84 374.76 498 373.9L497.82 373.71L498 373.49Q499.04 372.55 499.45 371.39Q499.56 371.06 499.63 370.72Q499.68 370.44 499.71 370.15Z" fill="#333333" fill-opacity="1.000000" fill-rule="evenodd"/>
		<path id="Tory" d="M215.56 367.79L220.94 367.79L220.94 385L224.73 385L224.73 367.79L230.19 367.79L230.19 363.89L215.56 363.89L215.56 367.79ZM251.8 371.19Q251.08 371.73 250.64 372.44L250.64 369.09L246.8 369.09L246.8 385L250.64 385L250.64 378.43Q250.64 377.53 251.25 376.62Q251.86 375.72 252.83 375Q252.93 374.93 253.02 374.86Q253.92 374.23 254.98 373.82Q256.16 373.37 257.28 373.37L257.68 373.37L257.68 369.53L257.28 369.53Q256.29 369.53 255.29 369.71Q254.3 369.9 253.41 370.28Q252.54 370.65 251.8 371.19ZM241.08 369.64Q240.01 369.22 238.65 369.22L237.38 369.22Q236.05 369.22 234.96 369.64Q233.88 370.06 233.11 370.8Q232.97 370.94 232.84 371.09Q232.28 371.74 231.97 372.6Q231.58 373.65 231.58 374.98L231.58 379.23Q231.58 380.53 231.97 381.6Q232.27 382.44 232.8 383.09Q232.95 383.27 233.11 383.44Q233.2 383.52 233.29 383.61Q234 384.24 234.96 384.59Q236.05 385 237.38 385L238.65 385Q240.01 385 241.08 384.59Q242.02 384.24 242.72 383.62Q242.82 383.53 242.91 383.44Q243.04 383.3 243.16 383.16Q243.74 382.49 244.07 381.6Q244.48 380.53 244.48 379.23L244.48 374.98Q244.48 373.65 244.07 372.6Q243.73 371.69 243.13 371.02Q243.02 370.91 242.91 370.8Q242.91 370.79 242.91 370.79Q242.15 370.05 241.08 369.64ZM262.4 390.39L265.8 390.39L272.1 369.22L268.63 369.22L265.65 379.29L262.64 369.22L259.2 369.22L263.98 384.93L262.4 390.39ZM236.37 372.99Q236.82 372.78 237.38 372.78L238.65 372.78Q239.31 372.78 239.81 373.06Q240.06 373.2 240.28 373.42Q240.46 373.6 240.59 373.81Q240.91 374.34 240.91 375.07L240.91 379.11Q240.91 379.82 240.6 380.36Q240.47 380.58 240.28 380.78Q240.05 381.01 239.78 381.16Q239.29 381.43 238.65 381.43L237.38 381.43Q236.85 381.43 236.4 381.23Q236.05 381.07 235.75 380.78Q235.52 380.55 235.37 380.28Q235.09 379.77 235.09 379.11L235.09 375.07Q235.09 374.39 235.38 373.88Q235.53 373.63 235.75 373.42Q236.03 373.15 236.37 372.99Z" fill="#333333" fill-opacity="1.000000" fill-rule="evenodd"/>
		<path id="tata@mail.com" d="M568.47 306.22L565.56 306.22L565.56 309.78L568.47 309.78L568.47 322L572.12 322L572.12 309.78L575.04 309.78L575.04 306.22L572.12 306.22L572.12 300.89L568.47 300.89L568.47 306.22ZM594.01 306.22L591.1 306.22L591.1 309.78L594.01 309.78L594.01 322L597.67 322L597.67 309.78L600.58 309.78L600.58 306.22L597.67 306.22L597.67 300.89L594.01 300.89L594.01 306.22ZM679.48 304.51L683.14 304.51L683.14 300.89L679.48 300.89L679.48 304.51ZM689.62 300.89L685.96 300.89L685.96 322L689.62 322L689.62 300.89ZM633.8 318.54Q634.32 318.56 634.87 318.21Q635.55 317.78 635.92 317.36Q636.14 317.12 636.29 316.83Q636.39 316.62 636.45 316.4Q636.61 315.86 636.65 315.13Q636.7 314.4 636.7 313.34L636.7 309.29Q636.7 308.44 636.51 307.64Q636.34 306.92 636.02 306.22Q635.62 305.36 635.05 304.63Q634.65 304.12 634.17 303.68Q633.91 303.44 633.64 303.22Q632.67 302.45 631.47 301.97Q631.03 301.79 630.58 301.66Q629.45 301.35 628.24 301.35L625.76 301.35Q625.11 301.35 624.48 301.44Q623.47 301.59 622.5 301.97Q621.2 302.48 620.14 303.31Q619.92 303.49 619.71 303.68Q619.11 304.22 618.63 304.85Q618.14 305.49 617.79 306.22Q617.42 306.98 617.24 307.77Q617.07 308.51 617.07 309.29L617.07 314.59Q617.07 316.02 617.51 317.31Q617.58 317.49 617.65 317.67Q618.12 318.85 618.89 319.8Q619.05 320.01 619.23 320.2Q619.44 320.43 619.67 320.63Q620.53 321.41 621.66 321.9Q621.79 321.96 621.91 322.01Q623.24 322.53 624.76 322.53L634.75 322.53L634.75 319.64L628.48 319.67L625.2 319.67Q624.67 319.67 624.16 319.56Q623.75 319.48 623.35 319.32Q622.75 319.07 622.26 318.7Q622.03 318.52 621.82 318.31Q621.8 318.28 621.77 318.26Q621.15 317.62 620.78 316.76Q620.39 315.86 620.39 314.75L620.39 309.72Q620.39 309.38 620.44 309.05Q620.53 308.41 620.81 307.8Q621.11 307.12 621.56 306.56Q621.74 306.35 621.93 306.15Q622.18 305.89 622.47 305.67Q622.96 305.29 623.54 305.01Q624.11 304.74 624.71 304.64Q625.07 304.57 625.45 304.57L628.51 304.57Q629.1 304.57 629.65 304.71Q630.07 304.82 630.46 305Q631.17 305.31 631.75 305.79Q631.93 305.94 632.09 306.11Q632.29 306.31 632.47 306.52Q632.91 307.07 633.21 307.74Q633.34 308.04 633.44 308.35Q633.63 309.01 633.63 309.72L633.63 314.84Q633.53 315.05 633.41 315.07Q633.37 315.08 633.33 315.07Q633.17 315.02 633.04 314.93Q632.57 314.62 632.14 314.2Q631.7 313.78 631.7 313.47L631.7 307.06L629.23 307.06L629.23 307.92Q629.04 307.68 628.53 307.52Q628.02 307.37 627.34 307.37L625.51 307.37Q624.73 307.37 624.13 307.69Q624.08 307.71 624.04 307.74Q623.48 308.06 623.07 308.52Q623.02 308.59 622.96 308.65Q622.74 308.94 622.57 309.25Q622.42 309.53 622.31 309.84Q622.1 310.49 622.1 311.02L622.1 313.62Q622.1 314.39 622.34 315.07Q622.36 315.11 622.37 315.15Q622.64 315.82 623.09 316.35Q623.11 316.38 623.13 316.4Q623.38 316.68 623.68 316.9Q623.95 317.1 624.26 317.25Q624.46 317.34 624.67 317.41Q625.14 317.56 625.67 317.56L628.14 317.56Q628.34 317.56 628.53 317.54Q629.56 317.41 630.5 316.6Q630.84 316.91 631.23 317.19Q631.61 317.47 632.01 317.72Q632.89 318.34 633.54 318.5Q633.67 318.53 633.8 318.54ZM576.81 309.61Q576.54 310.38 576.47 311.21L580.06 311.21Q580.23 310.56 580.64 310.2Q580.71 310.15 580.77 310.1Q581.3 309.75 582.54 309.75L583.32 309.75Q584.15 309.75 584.65 309.95Q585.15 310.15 585.39 310.49Q585.64 310.83 585.73 311.32Q585.83 311.79 585.83 312.35L585.83 312.66L580.52 312.66Q579.53 312.66 578.74 313.02Q578.04 313.33 577.55 313.84Q577.48 313.91 577.42 313.98Q576.9 314.59 576.62 315.43Q576.34 316.26 576.34 317.22Q576.34 318.21 576.6 319.08Q576.87 319.95 577.4 320.59Q577.48 320.68 577.57 320.77Q578.07 321.28 578.75 321.61Q579.56 322 580.59 322L589.39 322L589.39 311.61Q589.39 311.48 589.39 311.35Q589.35 310.49 589.05 309.64Q588.85 309.06 588.52 308.55Q588.3 308.21 588.03 307.91Q587.35 307.15 586.31 306.68Q585.27 306.22 583.88 306.22L582.01 306.22Q580.68 306.22 579.66 306.64Q578.64 307.06 577.95 307.74Q577.63 308.06 577.38 308.42Q577.1 308.84 576.91 309.32Q576.86 309.46 576.81 309.61ZM602.35 309.61Q602.09 310.38 602.01 311.21L605.61 311.21Q605.77 310.56 606.19 310.2Q606.25 310.15 606.32 310.1Q606.85 309.75 608.09 309.75L608.86 309.75Q609.7 309.75 610.19 309.95Q610.69 310.15 610.93 310.49Q611.18 310.83 611.27 311.32Q611.37 311.79 611.37 312.35L611.37 312.66L606.07 312.66Q605.08 312.66 604.28 313.02Q603.58 313.33 603.09 313.84Q603.03 313.91 602.96 313.98Q602.44 314.59 602.16 315.43Q601.88 316.26 601.88 317.22Q601.88 318.21 602.15 319.08Q602.41 319.95 602.95 320.59Q603.03 320.68 603.11 320.77Q603.61 321.28 604.3 321.61Q605.11 322 606.14 322L614.94 322L614.94 311.61Q614.94 311.48 614.93 311.35Q614.89 310.49 614.6 309.64Q614.39 309.06 614.07 308.55Q613.85 308.21 613.57 307.91Q612.89 307.15 611.85 306.68Q610.81 306.22 609.42 306.22L607.56 306.22Q606.23 306.22 605.2 306.64Q604.18 307.06 603.49 307.74Q603.17 308.06 602.93 308.42Q602.65 308.84 602.46 309.32Q602.4 309.46 602.35 309.61ZM653.68 309.95Q654.18 309.75 654.99 309.75L655.77 309.75Q656.57 309.75 657.06 309.95Q657.56 310.15 657.84 310.49Q657.86 310.51 657.88 310.54Q658.13 310.87 658.21 311.32Q658.31 311.79 658.31 312.35L658.31 322L661.9 322L661.9 311.61Q661.9 311.5 661.9 311.39Q661.86 310.51 661.54 309.64Q661.34 309.09 661.03 308.61Q660.79 308.24 660.49 307.91Q659.79 307.15 658.74 306.68Q657.69 306.22 656.32 306.22L654.71 306.22Q653.47 306.22 652.47 306.59Q651.48 306.96 650.74 307.61Q650.06 306.96 649.1 306.59Q648.14 306.22 646.9 306.22L645.53 306.22Q644.38 306.22 643.33 306.55Q643.14 306.61 642.96 306.68L642.96 306.22L639.33 306.22L639.33 322L642.96 322L642.96 312.35Q642.96 311.79 643.07 311.32Q643.18 310.83 643.45 310.49Q643.73 310.15 644.25 309.95Q644.76 309.75 645.56 309.75L646.31 309.75Q647.15 309.75 647.64 309.95Q648.14 310.15 648.4 310.49Q648.67 310.83 648.76 311.32Q648.85 311.79 648.85 312.35L648.85 322L652.48 322L652.48 312.32Q652.48 311.76 652.57 311.3Q652.66 310.85 652.9 310.53Q652.91 310.51 652.93 310.49Q653.19 310.15 653.68 309.95ZM664.38 309.61Q664.12 310.38 664.04 311.21L667.64 311.21Q667.8 310.56 668.22 310.2Q668.28 310.15 668.35 310.1Q668.88 309.75 670.12 309.75L670.89 309.75Q671.73 309.75 672.22 309.95Q672.72 310.15 672.96 310.49Q673.21 310.83 673.31 311.32Q673.4 311.79 673.4 312.35L673.4 312.66L668.1 312.66Q667.11 312.66 666.31 313.02Q665.62 313.33 665.12 313.84Q665.06 313.91 665 313.98Q664.47 314.59 664.19 315.43Q663.91 316.26 663.91 317.22Q663.91 318.21 664.18 319.08Q664.44 319.95 664.98 320.59Q665.06 320.68 665.14 320.77Q665.64 321.28 666.33 321.61Q667.14 322 668.17 322L676.97 322L676.97 311.61Q676.97 311.48 676.96 311.35Q676.92 310.49 676.63 309.64Q676.42 309.06 676.1 308.55Q675.88 308.21 675.61 307.91Q674.92 307.15 673.88 306.68Q672.84 306.22 671.45 306.22L669.59 306.22Q668.26 306.22 667.24 306.64Q666.21 307.06 665.52 307.74Q665.21 308.06 664.96 308.42Q664.68 308.84 664.49 309.32Q664.43 309.46 664.38 309.61ZM679.48 322L683.14 322L683.14 306.22L679.48 306.22L679.48 322ZM706.39 318.13Q705.89 318.43 705.21 318.43L703.94 318.43Q703.3 318.43 702.81 318.16Q702.54 318.01 702.31 317.78Q702.12 317.58 701.98 317.35Q701.67 316.82 701.67 316.11L701.67 312.07Q701.67 311.34 702 310.81Q702.13 310.6 702.31 310.42Q702.52 310.2 702.77 310.06Q703.28 309.78 703.94 309.78L705.21 309.78Q706.02 309.78 706.51 310.15Q706.61 310.23 706.7 310.31Q707.05 310.66 707.19 311.21L710.85 311.21Q710.68 309.32 709.68 308.09Q709.45 307.8 709.17 307.55Q709.06 307.44 708.93 307.34Q707.52 306.22 705.21 306.22L703.94 306.22Q702.6 306.22 701.51 306.64Q700.43 307.06 699.69 307.8Q698.95 308.54 698.52 309.6Q698.11 310.65 698.11 311.98L698.11 316.23Q698.11 317.53 698.52 318.6Q698.94 319.65 699.66 320.4Q699.67 320.42 699.69 320.44Q699.74 320.49 699.79 320.54Q700.51 321.22 701.51 321.59Q702.6 322 703.94 322L705.21 322Q707.37 322 708.76 320.96Q708.94 320.82 709.11 320.66Q709.46 320.35 709.74 319.98Q710.64 318.8 710.85 317.1L707.16 317.1Q707.08 317.41 706.91 317.66Q706.74 317.9 706.48 318.07Q706.43 318.1 706.39 318.13ZM721.78 306.64Q720.71 306.22 719.35 306.22L718.08 306.22Q716.74 306.22 715.65 306.64Q714.57 307.06 713.81 307.8Q713.66 307.94 713.54 308.09Q712.98 308.74 712.66 309.6Q712.28 310.65 712.28 311.98L712.28 316.23Q712.28 317.53 712.66 318.6Q712.97 319.44 713.5 320.09Q713.64 320.27 713.81 320.44Q713.9 320.52 713.99 320.61Q714.7 321.24 715.65 321.59Q716.74 322 718.08 322L719.35 322Q720.71 322 721.78 321.59Q722.72 321.24 723.41 320.62Q723.51 320.53 723.61 320.44Q723.74 320.3 723.86 320.16Q724.43 319.49 724.77 318.6Q725.17 317.53 725.17 316.23L725.17 311.98Q725.17 310.65 724.77 309.6Q724.42 308.69 723.82 308.02Q723.72 307.91 723.61 307.8L723.6 307.79Q722.85 307.05 721.78 306.64ZM742.03 309.95Q742.53 309.75 743.34 309.75L744.12 309.75Q744.92 309.75 745.41 309.95Q745.91 310.15 746.19 310.49Q746.21 310.51 746.23 310.54Q746.48 310.87 746.56 311.32Q746.66 311.79 746.66 312.35L746.66 322L750.25 322L750.25 311.61Q750.25 311.5 750.25 311.39Q750.21 310.51 749.89 309.64Q749.69 309.09 749.38 308.61Q749.14 308.24 748.84 307.91Q748.14 307.15 747.09 306.68Q746.04 306.22 744.67 306.22L743.06 306.22Q741.82 306.22 740.82 306.59Q739.83 306.96 739.09 307.61Q738.41 306.96 737.45 306.59Q736.49 306.22 735.25 306.22L733.88 306.22Q732.73 306.22 731.68 306.55Q731.49 306.61 731.31 306.68L731.31 306.22L727.69 306.22L727.69 322L731.31 322L731.31 312.35Q731.31 311.79 731.42 311.32Q731.53 310.83 731.8 310.49Q732.08 310.15 732.6 309.95Q733.11 309.75 733.91 309.75L734.66 309.75Q735.5 309.75 735.99 309.95Q736.49 310.15 736.75 310.49Q737.02 310.83 737.11 311.32Q737.2 311.79 737.2 312.35L737.2 322L740.83 322L740.83 312.32Q740.83 311.76 740.92 311.3Q741.01 310.85 741.25 310.53Q741.26 310.51 741.28 310.49Q741.54 310.15 742.03 309.95ZM717.06 309.99Q717.52 309.78 718.08 309.78L719.35 309.78Q720.01 309.78 720.51 310.06Q720.76 310.2 720.97 310.42Q721.16 310.6 721.29 310.81Q721.61 311.34 721.61 312.07L721.61 316.11Q721.61 316.82 721.3 317.35Q721.17 317.58 720.97 317.78Q720.75 318.01 720.47 318.16Q719.98 318.43 719.35 318.43L718.08 318.43Q717.54 318.43 717.1 318.23Q716.74 318.07 716.45 317.78Q716.22 317.55 716.07 317.28Q715.78 316.77 715.78 316.11L715.78 312.07Q715.78 311.39 716.08 310.88Q716.23 310.63 716.45 310.42Q716.73 310.15 717.06 309.99ZM628.64 310.56Q628.92 311.02 628.92 311.64L628.92 313.13Q628.92 313.34 628.85 313.64Q628.81 313.83 628.73 314Q628.69 314.09 628.63 314.18Q628.48 314.43 628.2 314.61Q628.19 314.61 628.19 314.62Q627.92 314.78 627.56 314.78L626.32 314.78Q625.85 314.78 625.57 314.62Q625.42 314.54 625.3 314.42Q625.19 314.33 625.1 314.22Q624.98 314.04 624.9 313.85Q624.86 313.76 624.84 313.67Q624.76 313.38 624.76 313.13L624.76 311.64Q624.76 311.06 625.01 310.63Q625.1 310.49 625.21 310.35Q625.41 310.13 625.67 310Q625.98 309.84 626.38 309.84L627.21 309.84Q627.94 309.84 628.35 310.2Q628.43 310.27 628.5 310.35Q628.58 310.45 628.64 310.56ZM579.99 318.42Q579.66 318.03 579.66 317.22Q579.66 316.45 579.99 316.05Q580.25 315.71 580.57 315.65Q580.64 315.64 580.71 315.64L585.83 315.64L585.83 318.8L580.71 318.8Q580.63 318.8 580.56 318.79Q580.25 318.73 579.99 318.42ZM605.53 318.42Q605.2 318.03 605.2 317.22Q605.2 316.45 605.53 316.05Q605.8 315.71 606.12 315.65Q606.19 315.64 606.26 315.64L611.37 315.64L611.37 318.8L606.26 318.8Q606.18 318.8 606.1 318.79Q605.79 318.73 605.53 318.42ZM667.56 318.42Q667.24 318.03 667.24 317.22Q667.24 316.45 667.56 316.05Q667.83 315.71 668.15 315.65Q668.22 315.64 668.29 315.64L673.4 315.64L673.4 318.8L668.29 318.8Q668.21 318.8 668.13 318.79Q667.82 318.73 667.56 318.42ZM692.66 319.14L692.66 322.71L696.34 322.71L696.34 319.14L692.66 319.14Z" fill="#2B5E4B" fill-opacity="1.000000" fill-rule="evenodd"/>
		<path id="23" d="M474.77 313.9Q472.74 315.67 470.57 317.32L470.57 322L483.74 322L483.74 318.83L474.13 318.83Q476.11 317.41 478.05 315.75Q479.99 314.09 481.75 312.38Q482.5 311.67 482.98 311.04Q483.46 310.4 483.71 309.7Q483.96 309.01 484.03 308.24Q484.11 307.46 484.11 306.53L484.11 306.06Q484.11 305.17 483.85 304.37Q483.77 304.13 483.68 303.91Q483.35 303.15 482.84 302.54Q482.68 302.34 482.49 302.16Q482.31 301.98 482.12 301.81Q481.51 301.3 480.75 300.98Q480.51 300.87 480.26 300.8Q479.47 300.55 478.6 300.55L475.89 300.55Q475.03 300.55 474.23 300.8Q473.99 300.87 473.75 300.98Q473.07 301.27 472.51 301.7Q472.23 301.91 471.97 302.16Q471.78 302.35 471.61 302.56Q471.1 303.16 470.78 303.91Q470.69 304.11 470.62 304.32Q470.35 305.14 470.35 306.06L470.35 307.43L473.76 307.43L473.76 306.68Q473.76 306.54 473.78 306.4Q473.82 306.05 473.96 305.71Q474.16 305.22 474.5 304.88Q474.58 304.81 474.66 304.74Q474.94 304.5 475.3 304.35Q475.44 304.29 475.59 304.24Q475.93 304.14 476.3 304.14L478.04 304.14Q478.29 304.14 478.53 304.19Q478.76 304.25 478.98 304.35Q479.22 304.45 479.44 304.6Q479.62 304.73 479.78 304.88Q479.86 304.96 479.93 305.03Q480.18 305.33 480.33 305.71Q480.46 306.04 480.5 306.37Q480.52 306.53 480.52 306.68Q480.52 307.4 480.41 307.88Q480.3 308.36 480.08 308.76Q479.87 309.16 479.5 309.55Q479.15 309.94 478.66 310.4Q476.8 312.13 474.77 313.9ZM499.71 307.15Q499.82 305.86 499.36 304.51Q499.12 303.8 498.65 303.15Q498.19 302.51 497.61 302.01Q497.6 302 497.6 302Q497.07 301.54 496.37 301.21Q495.68 300.89 494.99 300.73Q494.62 300.67 494.23 300.64Q493.84 300.61 493.47 300.58L493.4 300.58Q493.32 300.58 493.13 300.56Q492.94 300.55 492.59 300.55L491.64 300.55Q491.56 300.55 491.48 300.55Q490.39 300.57 489.3 300.9Q488.15 301.26 487.24 301.94Q487.01 302.12 486.79 302.33Q486.2 302.9 485.78 303.66Q485.23 304.69 485.23 306.03L485.23 306.68L488.58 306.68Q488.58 306.01 488.88 305.52Q488.91 305.47 488.95 305.41Q489.08 305.22 489.24 305.06Q489.53 304.77 489.91 304.57Q490.5 304.26 491.24 304.16Q491.98 304.04 492.68 304.08Q493.38 304.11 493.99 304.3Q494.59 304.48 494.93 304.79Q495.37 305.19 495.56 305.68Q495.71 306.01 495.74 306.35Q495.76 306.5 495.75 306.65Q495.75 306.83 495.71 307Q495.66 307.31 495.52 307.6Q495.39 307.88 495.19 308.1Q495.08 308.24 494.93 308.36Q494.4 308.79 493.47 308.91Q492.73 309.1 491.49 309.1L490.41 309.1L490.41 312.29L491.49 312.29Q492.73 312.29 493.47 312.48Q494.61 312.69 495.21 313.37Q495.6 313.8 495.77 314.43Q495.86 314.78 495.89 315.14Q495.94 315.72 495.81 316.32Q495.66 317.05 495.23 317.53Q495.1 317.68 494.93 317.81Q494.61 318.04 494.24 318.19Q493.98 318.29 493.71 318.34Q493.04 318.46 492.39 318.52Q491.92 318.55 491.36 318.51Q491.18 318.49 491 318.46Q490.63 318.4 490.28 318.28Q489.76 318.09 489.35 317.78Q489.28 317.72 489.21 317.66Q488.91 317.37 488.76 316.94Q488.58 316.51 488.58 315.98L485.23 315.98L485.23 316.6Q485.23 317.36 485.43 318.08Q485.52 318.41 485.65 318.73Q485.92 319.39 486.34 319.95Q486.55 320.24 486.81 320.5Q487.1 320.79 487.43 321.04Q487.95 321.42 488.55 321.69Q488.87 321.83 489.21 321.92Q489.9 322.12 490.65 322.12Q491.43 322.12 492.14 322.13Q492.32 322.14 492.5 322.14Q493.03 322.14 493.56 322.1Q493.68 322.09 493.79 322.08Q494.4 322.03 494.99 321.92Q495.71 321.78 496.42 321.44Q496.8 321.26 497.14 321.04Q497.67 320.69 498.11 320.22Q498.54 319.75 498.85 319.21Q499.08 318.84 499.24 318.43Q499.83 317.02 499.83 315.61Q499.83 314.2 499.24 312.78Q498.84 311.76 498 310.9L497.82 310.71L498 310.49Q499.04 309.55 499.45 308.39Q499.56 308.06 499.63 307.72Q499.68 307.44 499.71 307.15Z" fill="#333333" fill-opacity="1.000000" fill-rule="evenodd"/>
		<path id="Tatyana" d="M215.56 304.79L220.94 304.79L220.94 322L224.73 322L224.73 304.79L230.19 304.79L230.19 300.89L215.56 300.89L215.56 304.79ZM249.16 306.22L246.25 306.22L246.25 309.78L249.16 309.78L249.16 322L252.81 322L252.81 309.78L255.73 309.78L255.73 306.22L252.81 306.22L252.81 300.89L249.16 300.89L249.16 306.22ZM231.95 309.61Q231.69 310.38 231.61 311.21L235.21 311.21Q235.37 310.56 235.79 310.2Q235.85 310.15 235.92 310.1Q236.45 309.75 237.69 309.75L238.46 309.75Q239.3 309.75 239.79 309.95Q240.29 310.15 240.54 310.49Q240.79 310.83 240.88 311.32Q240.97 311.79 240.97 312.35L240.97 312.66L235.67 312.66Q234.68 312.66 233.88 313.02Q233.19 313.33 232.69 313.84Q232.63 313.91 232.57 313.98Q232.04 314.59 231.76 315.43Q231.48 316.26 231.48 317.22Q231.48 318.21 231.75 319.08Q232.01 319.95 232.55 320.59Q232.63 320.68 232.71 320.77Q233.21 321.28 233.9 321.61Q234.71 322 235.74 322L244.54 322L244.54 311.61Q244.54 311.48 244.53 311.35Q244.5 310.49 244.2 309.64Q243.99 309.06 243.67 308.55Q243.45 308.21 243.18 307.91Q242.5 307.15 241.45 306.68Q240.41 306.22 239.02 306.22L237.16 306.22Q235.83 306.22 234.81 306.64Q233.78 307.06 233.1 307.74Q232.78 308.06 232.53 308.42Q232.25 308.84 232.06 309.32Q232 309.46 231.95 309.61ZM259.98 327.39L263.39 327.39L269.68 306.22L266.21 306.22L263.23 316.29L260.22 306.22L256.79 306.22L261.56 321.93L259.98 327.39ZM271.29 309.61Q271.03 310.38 270.95 311.21L274.55 311.21Q274.71 310.56 275.13 310.2Q275.19 310.15 275.26 310.1Q275.79 309.75 277.03 309.75L277.8 309.75Q278.64 309.75 279.13 309.95Q279.63 310.15 279.87 310.49Q280.12 310.83 280.22 311.32Q280.31 311.79 280.31 312.35L280.31 312.66L275.01 312.66Q274.02 312.66 273.22 313.02Q272.53 313.33 272.03 313.84Q271.97 313.91 271.91 313.98Q271.38 314.59 271.1 315.43Q270.82 316.26 270.82 317.22Q270.82 318.21 271.09 319.08Q271.35 319.95 271.89 320.59Q271.97 320.68 272.05 320.77Q272.55 321.28 273.24 321.61Q274.05 322 275.08 322L283.88 322L283.88 311.61Q283.88 311.48 283.87 311.35Q283.83 310.49 283.54 309.64Q283.33 309.06 283.01 308.55Q282.79 308.21 282.51 307.91Q281.83 307.15 280.79 306.68Q279.75 306.22 278.36 306.22L276.5 306.22Q275.17 306.22 274.15 306.64Q273.12 307.06 272.43 307.74Q272.12 308.06 271.87 308.42Q271.59 308.84 271.4 309.32Q271.34 309.46 271.29 309.61ZM291.49 309.95Q292 309.75 292.8 309.75L293.55 309.75Q294.39 309.75 294.88 309.95Q295.38 310.15 295.64 310.49Q295.91 310.83 296 311.32Q296.09 311.79 296.09 312.35L296.09 322L299.72 322L299.72 311.61Q299.72 311.5 299.72 311.39Q299.68 310.51 299.36 309.64Q299.16 309.09 298.85 308.61Q298.61 308.24 298.31 307.91Q297.61 307.15 296.55 306.68Q295.5 306.22 294.14 306.22L292.52 306.22Q291.28 306.22 290.2 306.62L290.2 306.22L286.58 306.22L286.58 322L290.2 322L290.2 312.35Q290.2 311.79 290.31 311.32Q290.42 310.83 290.69 310.49Q290.97 310.15 291.49 309.95ZM301.98 309.61Q301.72 310.38 301.64 311.21L305.24 311.21Q305.4 310.56 305.82 310.2Q305.88 310.15 305.95 310.1Q306.48 309.75 307.72 309.75L308.49 309.75Q309.33 309.75 309.82 309.95Q310.32 310.15 310.56 310.49Q310.81 310.83 310.91 311.32Q311 311.79 311 312.35L311 312.66L305.7 312.66Q304.71 312.66 303.91 313.02Q303.22 313.33 302.72 313.84Q302.66 313.91 302.6 313.98Q302.07 314.59 301.79 315.43Q301.51 316.26 301.51 317.22Q301.51 318.21 301.78 319.08Q302.04 319.95 302.58 320.59Q302.66 320.68 302.74 320.77Q303.24 321.28 303.93 321.61Q304.74 322 305.77 322L314.57 322L314.57 311.61Q314.57 311.48 314.56 311.35Q314.52 310.49 314.23 309.64Q314.02 309.06 313.7 308.55Q313.48 308.21 313.21 307.91Q312.52 307.15 311.48 306.68Q310.44 306.22 309.05 306.22L307.19 306.22Q305.86 306.22 304.84 306.64Q303.81 307.06 303.12 307.74Q302.81 308.06 302.56 308.42Q302.28 308.84 302.09 309.32Q302.03 309.46 301.98 309.61ZM235.13 318.42Q234.81 318.03 234.81 317.22Q234.81 316.45 235.13 316.05Q235.4 315.71 235.72 315.65Q235.79 315.64 235.86 315.64L240.97 315.64L240.97 318.8L235.86 318.8Q235.78 318.8 235.7 318.79Q235.39 318.73 235.13 318.42ZM274.47 318.42Q274.15 318.03 274.15 317.22Q274.15 316.45 274.47 316.05Q274.74 315.71 275.06 315.65Q275.13 315.64 275.2 315.64L280.31 315.64L280.31 318.8L275.2 318.8Q275.12 318.8 275.04 318.79Q274.73 318.73 274.47 318.42ZM305.16 318.42Q304.84 318.03 304.84 317.22Q304.84 316.45 305.16 316.05Q305.43 315.71 305.75 315.65Q305.82 315.64 305.89 315.64L311 315.64L311 318.8L305.89 318.8Q305.81 318.8 305.73 318.79Q305.42 318.73 305.16 318.42Z" fill="#333333" fill-opacity="1.000000" fill-rule="evenodd"/>
		<line id="Линия 4" x1="187.000000" y1="341.000000" x2="813.000000" y2="341.000000" stroke="#94DDC1" stroke-opacity="1.000000" stroke-width="1.000000"/>
		<path id="alex@mail.com" d="M585.12 237.89L581.46 237.89L581.46 259L585.12 259L585.12 237.89ZM679.85 241.51L683.51 241.51L683.51 237.89L679.85 237.89L679.85 241.51ZM689.99 237.89L686.33 237.89L686.33 259L689.99 259L689.99 237.89ZM634.17 255.54Q634.69 255.56 635.24 255.21Q635.92 254.78 636.29 254.36Q636.51 254.12 636.66 253.83Q636.76 253.62 636.82 253.4Q636.98 252.86 637.03 252.13Q637.07 251.4 637.07 250.34L637.07 246.29Q637.07 245.44 636.88 244.64Q636.71 243.92 636.39 243.22Q635.99 242.36 635.42 241.63Q635.02 241.12 634.54 240.68Q634.28 240.44 634.01 240.22Q633.04 239.45 631.84 238.97Q631.4 238.79 630.95 238.66Q629.83 238.35 628.61 238.35L626.13 238.35Q625.48 238.35 624.85 238.44Q623.84 238.59 622.87 238.97Q621.57 239.48 620.51 240.31Q620.29 240.49 620.08 240.68Q619.48 241.22 619 241.85Q618.52 242.49 618.16 243.22Q617.79 243.98 617.61 244.77Q617.45 245.51 617.45 246.29L617.45 251.59Q617.45 253.02 617.89 254.31Q617.95 254.49 618.02 254.67Q618.49 255.86 619.26 256.8Q619.42 257.01 619.6 257.2Q619.81 257.43 620.04 257.63Q620.91 258.41 622.03 258.9Q622.16 258.96 622.28 259.01Q623.61 259.53 625.14 259.53L635.12 259.53L635.12 256.64L628.85 256.67L625.57 256.67Q625.04 256.67 624.53 256.56Q624.12 256.48 623.72 256.32Q623.12 256.07 622.63 255.7Q622.4 255.52 622.19 255.31Q622.17 255.28 622.14 255.26Q621.53 254.62 621.15 253.76Q620.76 252.86 620.76 251.75L620.76 246.72Q620.76 246.38 620.81 246.05Q620.9 245.41 621.18 244.8Q621.49 244.12 621.94 243.56Q622.11 243.35 622.3 243.15Q622.55 242.89 622.84 242.67Q623.33 242.29 623.91 242.01Q624.48 241.74 625.08 241.64Q625.44 241.57 625.82 241.57L628.88 241.57Q629.47 241.57 630.02 241.71Q630.44 241.82 630.84 242Q631.55 242.31 632.12 242.8Q632.3 242.94 632.46 243.11Q632.66 243.31 632.84 243.52Q633.28 244.07 633.58 244.74Q633.72 245.04 633.81 245.35Q634 246.01 634 246.72L634 251.84Q633.9 252.05 633.78 252.07Q633.74 252.08 633.7 252.07Q633.54 252.02 633.42 251.93Q632.95 251.62 632.51 251.2Q632.08 250.78 632.08 250.47L632.08 244.06L629.6 244.06L629.6 244.92Q629.41 244.68 628.9 244.52Q628.39 244.37 627.71 244.37L625.88 244.37Q625.1 244.37 624.5 244.69Q624.45 244.71 624.41 244.74Q623.85 245.06 623.45 245.52Q623.39 245.59 623.34 245.65Q623.11 245.94 622.94 246.25Q622.79 246.53 622.68 246.84Q622.47 247.49 622.47 248.02L622.47 250.62Q622.47 251.39 622.72 252.07Q622.73 252.11 622.74 252.15Q623.01 252.82 623.46 253.35Q623.48 253.38 623.5 253.4Q623.75 253.68 624.05 253.9Q624.33 254.1 624.64 254.25Q624.83 254.34 625.04 254.41Q625.52 254.56 626.04 254.56L628.51 254.56Q628.71 254.56 628.91 254.54Q629.93 254.41 630.87 253.6Q631.21 253.91 631.6 254.19Q631.99 254.47 632.39 254.72Q633.26 255.34 633.91 255.5Q634.04 255.53 634.17 255.54ZM566.27 246.61Q566 247.38 565.93 248.21L569.52 248.21Q569.69 247.56 570.1 247.2Q570.17 247.15 570.23 247.11Q570.76 246.75 572 246.75L572.78 246.75Q573.62 246.75 574.11 246.95Q574.61 247.15 574.85 247.49Q575.1 247.83 575.19 248.32Q575.29 248.79 575.29 249.35L575.29 249.66L569.98 249.66Q568.99 249.66 568.2 250.02Q567.5 250.33 567.01 250.84Q566.94 250.91 566.88 250.98Q566.36 251.59 566.08 252.43Q565.8 253.26 565.8 254.22Q565.8 255.21 566.06 256.08Q566.33 256.95 566.86 257.59Q566.94 257.68 567.03 257.77Q567.53 258.28 568.21 258.61Q569.02 259 570.05 259L578.85 259L578.85 248.61Q578.85 248.48 578.85 248.36Q578.81 247.49 578.51 246.64Q578.31 246.06 577.98 245.55Q577.76 245.21 577.49 244.91Q576.81 244.15 575.77 243.68Q574.73 243.22 573.34 243.22L571.47 243.22Q570.14 243.22 569.12 243.64Q568.1 244.06 567.41 244.74Q567.09 245.06 566.84 245.42Q566.56 245.84 566.37 246.32Q566.32 246.46 566.27 246.61ZM587.96 247.08Q587.69 247.91 587.69 248.83L587.69 253.63Q587.69 254.81 588.09 255.8Q588.49 256.76 589.15 257.47Q589.17 257.49 589.19 257.51Q589.42 257.75 589.68 257.95Q590.19 258.36 590.82 258.64Q591.12 258.77 591.43 258.86Q592.09 259.06 592.8 259.06L600.83 259.06L600.83 255.58L593.61 255.58Q592.58 255.58 591.96 255.12Q591.9 255.07 591.85 255.02Q591.34 254.55 591.34 253.54L591.34 252.71L601.39 252.71L601.39 248.7Q601.39 247.77 601.03 246.8Q600.76 246.07 600.34 245.45Q600.2 245.23 600.04 245.03Q599.93 244.89 599.81 244.76Q599.24 244.15 598.46 243.73Q598.43 243.72 598.4 243.7Q597.49 243.22 596.31 243.22L592.77 243.22Q591.84 243.22 590.91 243.67Q590.59 243.83 590.29 244.02Q589.73 244.39 589.27 244.9Q589.2 244.97 589.13 245.05Q588.51 245.77 588.12 246.67Q588.03 246.88 587.96 247.08ZM613.7 255.06Q612.58 253.08 611.49 251.12L615.9 243.22L612.14 243.22L609.42 248.73L606.69 243.22L602.97 243.22L607.16 251.18L602.97 259L606.69 259L609.42 253.63L612.14 259L615.87 259Q614.81 257.04 613.7 255.06ZM654.06 246.95Q654.56 246.75 655.36 246.75L656.14 246.75Q656.94 246.75 657.43 246.95Q657.93 247.15 658.21 247.49Q658.23 247.52 658.25 247.54Q658.5 247.87 658.58 248.32Q658.68 248.79 658.68 249.35L658.68 259L662.28 259L662.28 248.61Q662.28 248.5 662.27 248.39Q662.23 247.51 661.91 246.64Q661.71 246.09 661.4 245.61Q661.16 245.24 660.86 244.91Q660.16 244.15 659.11 243.68Q658.06 243.22 656.69 243.22L655.08 243.22Q653.84 243.22 652.84 243.59Q651.85 243.96 651.11 244.61Q650.43 243.96 649.47 243.59Q648.51 243.22 647.27 243.22L645.9 243.22Q644.75 243.22 643.7 243.55Q643.52 243.61 643.33 243.68L643.33 243.22L639.71 243.22L639.71 259L643.33 259L643.33 249.35Q643.33 248.79 643.44 248.32Q643.55 247.83 643.82 247.49Q644.1 247.15 644.62 246.95Q645.13 246.75 645.94 246.75L646.68 246.75Q647.52 246.75 648.01 246.95Q648.51 247.15 648.77 247.49Q649.04 247.83 649.13 248.32Q649.22 248.79 649.22 249.35L649.22 259L652.85 259L652.85 249.32Q652.85 248.76 652.94 248.3Q653.03 247.86 653.27 247.53Q653.29 247.51 653.3 247.49Q653.56 247.15 654.06 246.95ZM664.75 246.61Q664.49 247.38 664.41 248.21L668.01 248.21Q668.17 247.56 668.59 247.2Q668.65 247.15 668.72 247.11Q669.25 246.75 670.49 246.75L671.26 246.75Q672.1 246.75 672.59 246.95Q673.09 247.15 673.34 247.49Q673.59 247.83 673.68 248.32Q673.78 248.79 673.78 249.35L673.78 249.66L668.47 249.66Q667.48 249.66 666.68 250.02Q665.99 250.33 665.49 250.84Q665.43 250.91 665.37 250.98Q664.84 251.59 664.56 252.43Q664.28 253.26 664.28 254.22Q664.28 255.21 664.55 256.08Q664.81 256.95 665.35 257.59Q665.43 257.68 665.51 257.77Q666.01 258.28 666.7 258.61Q667.51 259 668.54 259L677.34 259L677.34 248.61Q677.34 248.48 677.33 248.36Q677.3 247.49 677 246.64Q676.8 246.06 676.47 245.55Q676.25 245.21 675.98 244.91Q675.3 244.15 674.25 243.68Q673.22 243.22 671.82 243.22L669.96 243.22Q668.63 243.22 667.61 243.64Q666.59 244.06 665.9 244.74Q665.58 245.06 665.33 245.42Q665.05 245.84 664.86 246.32Q664.8 246.46 664.75 246.61ZM679.85 259L683.51 259L683.51 243.22L679.85 243.22L679.85 259ZM706.76 255.13Q706.26 255.43 705.58 255.43L704.31 255.43Q703.67 255.43 703.18 255.16Q702.91 255.01 702.68 254.78Q702.49 254.58 702.36 254.36Q702.04 253.82 702.04 253.11L702.04 249.07Q702.04 248.34 702.37 247.81Q702.5 247.6 702.68 247.42Q702.89 247.2 703.15 247.06Q703.65 246.78 704.31 246.78L705.58 246.78Q706.39 246.78 706.88 247.15Q706.98 247.23 707.07 247.31Q707.42 247.66 707.56 248.21L711.23 248.21Q711.05 246.32 710.06 245.09Q709.82 244.8 709.54 244.55Q709.43 244.44 709.3 244.34Q707.89 243.22 705.58 243.22L704.31 243.22Q702.98 243.22 701.89 243.64Q700.8 244.06 700.06 244.8Q699.32 245.54 698.9 246.6Q698.48 247.65 698.48 248.98L698.48 253.23Q698.48 254.53 698.9 255.6Q699.31 256.65 700.03 257.4Q700.04 257.42 700.06 257.44Q700.11 257.49 700.16 257.54Q700.88 258.22 701.89 258.59Q702.98 259 704.31 259L705.58 259Q707.75 259 709.13 257.96Q709.32 257.82 709.48 257.66Q709.83 257.35 710.11 256.98Q711.01 255.8 711.23 254.1L707.53 254.1Q707.46 254.41 707.28 254.66Q707.11 254.9 706.85 255.08Q706.81 255.1 706.76 255.13ZM722.15 243.64Q721.08 243.22 719.72 243.22L718.45 243.22Q717.12 243.22 716.03 243.64Q714.94 244.06 714.18 244.8Q714.04 244.94 713.91 245.09Q713.35 245.74 713.04 246.6Q712.65 247.65 712.65 248.98L712.65 253.23Q712.65 254.53 713.04 255.6Q713.34 256.44 713.87 257.09Q714.02 257.27 714.18 257.44Q714.27 257.52 714.36 257.61Q715.07 258.24 716.03 258.59Q717.12 259 718.45 259L719.72 259Q721.08 259 722.15 258.59Q723.09 258.24 723.78 257.62Q723.88 257.53 723.98 257.44Q724.11 257.3 724.23 257.16Q724.81 256.49 725.14 255.6Q725.55 254.53 725.55 253.23L725.55 248.98Q725.55 247.65 725.14 246.6Q724.8 245.69 724.19 245.02Q724.09 244.91 723.98 244.8L723.97 244.79Q723.22 244.05 722.15 243.64ZM742.41 246.95Q742.91 246.75 743.71 246.75L744.49 246.75Q745.29 246.75 745.78 246.95Q746.28 247.15 746.56 247.49Q746.58 247.52 746.6 247.54Q746.85 247.87 746.93 248.32Q747.03 248.79 747.03 249.35L747.03 259L750.63 259L750.63 248.61Q750.63 248.5 750.62 248.39Q750.58 247.51 750.26 246.64Q750.06 246.09 749.75 245.61Q749.51 245.24 749.21 244.91Q748.51 244.15 747.46 243.68Q746.41 243.22 745.04 243.22L743.43 243.22Q742.19 243.22 741.2 243.59Q740.2 243.96 739.46 244.61Q738.78 243.96 737.82 243.59Q736.86 243.22 735.62 243.22L734.26 243.22Q733.1 243.22 732.05 243.55Q731.87 243.61 731.68 243.68L731.68 243.22L728.06 243.22L728.06 259L731.68 259L731.68 249.35Q731.68 248.79 731.79 248.32Q731.9 247.83 732.17 247.49Q732.45 247.15 732.97 246.95Q733.48 246.75 734.29 246.75L735.03 246.75Q735.87 246.75 736.36 246.95Q736.86 247.15 737.12 247.49Q737.39 247.83 737.48 248.32Q737.57 248.79 737.57 249.35L737.57 259L741.2 259L741.2 249.32Q741.2 248.76 741.29 248.3Q741.38 247.86 741.62 247.53Q741.64 247.51 741.65 247.49Q741.91 247.15 742.41 246.95ZM717.44 246.99Q717.89 246.78 718.45 246.78L719.72 246.78Q720.38 246.78 720.88 247.06Q721.13 247.2 721.35 247.42Q721.53 247.6 721.66 247.81Q721.98 248.34 721.98 249.07L721.98 253.11Q721.98 253.82 721.67 254.36Q721.54 254.58 721.35 254.78Q721.12 255.01 720.84 255.16Q720.35 255.43 719.72 255.43L718.45 255.43Q717.91 255.43 717.47 255.23Q717.12 255.07 716.82 254.78Q716.59 254.55 716.44 254.28Q716.15 253.77 716.15 253.11L716.15 249.07Q716.15 248.39 716.45 247.88Q716.6 247.63 716.82 247.42Q717.1 247.15 717.44 246.99ZM597.79 249.75L591.37 249.75L591.37 249.6Q591.37 249.1 591.51 248.64Q591.53 248.59 591.55 248.54Q591.72 248.02 591.99 247.65Q592.13 247.47 592.3 247.31Q592.47 247.16 592.67 247.05Q592.81 246.97 592.96 246.91Q593.25 246.81 593.58 246.81L595.5 246.81Q596.1 246.81 596.56 247.07Q596.91 247.26 597.17 247.61Q597.23 247.68 597.28 247.75Q597.79 248.5 597.79 249.6L597.79 249.75ZM629.01 247.56Q629.29 248.02 629.29 248.64L629.29 250.13Q629.29 250.34 629.22 250.64Q629.18 250.83 629.11 251Q629.06 251.09 629 251.18Q628.85 251.43 628.57 251.61Q628.57 251.61 628.56 251.62Q628.29 251.78 627.93 251.78L626.69 251.78Q626.22 251.78 625.94 251.62Q625.79 251.54 625.67 251.42Q625.56 251.33 625.48 251.22Q625.35 251.05 625.27 250.86Q625.24 250.77 625.21 250.67Q625.14 250.38 625.14 250.13L625.14 248.64Q625.14 248.06 625.39 247.63Q625.47 247.49 625.58 247.36Q625.78 247.13 626.04 247Q626.36 246.84 626.75 246.84L627.58 246.84Q628.31 246.84 628.72 247.2Q628.8 247.27 628.87 247.36Q628.95 247.45 629.01 247.56ZM569.45 255.42Q569.12 255.03 569.12 254.22Q569.12 253.45 569.45 253.05Q569.71 252.71 570.03 252.65Q570.1 252.64 570.17 252.64L575.29 252.64L575.29 255.8L570.17 255.8Q570.09 255.8 570.02 255.79Q569.71 255.73 569.45 255.42ZM667.93 255.42Q667.61 255.03 667.61 254.22Q667.61 253.45 667.93 253.05Q668.2 252.71 668.52 252.65Q668.59 252.64 668.66 252.64L673.78 252.64L673.78 255.8L668.66 255.8Q668.58 255.8 668.5 255.79Q668.19 255.73 667.93 255.42ZM693.03 256.14L693.03 259.71L696.71 259.71L696.71 256.14L693.03 256.14Z" fill="#2B5E4B" fill-opacity="1.000000" fill-rule="evenodd"/>
		<path id="25" d="M474.41 250.9Q472.38 252.67 470.21 254.32L470.21 259L483.39 259L483.39 255.83L473.77 255.83Q475.76 254.41 477.7 252.75Q479.63 251.09 481.4 249.38Q482.15 248.67 482.62 248.04Q483.11 247.4 483.35 246.7Q483.6 246.01 483.67 245.24Q483.76 244.46 483.76 243.53L483.76 243.06Q483.76 242.17 483.49 241.37Q483.42 241.13 483.32 240.91Q482.99 240.15 482.48 239.54Q482.32 239.34 482.14 239.16Q481.96 238.98 481.76 238.81Q481.15 238.3 480.39 237.98Q480.15 237.87 479.9 237.8Q479.11 237.55 478.24 237.55L475.54 237.55Q474.67 237.55 473.88 237.8Q473.63 237.87 473.39 237.98Q472.72 238.27 472.15 238.7Q471.87 238.91 471.62 239.16Q471.42 239.35 471.25 239.56Q470.75 240.16 470.42 240.91Q470.34 241.11 470.27 241.32Q469.99 242.14 469.99 243.06L469.99 244.43L473.4 244.43L473.4 243.68Q473.4 243.54 473.42 243.4Q473.46 243.05 473.6 242.71Q473.81 242.22 474.15 241.88Q474.22 241.81 474.3 241.74Q474.59 241.5 474.95 241.35Q475.09 241.29 475.23 241.24Q475.57 241.14 475.95 241.14L477.68 241.14Q477.93 241.14 478.17 241.19Q478.4 241.25 478.62 241.35Q478.86 241.45 479.08 241.6Q479.26 241.73 479.43 241.88Q479.5 241.96 479.57 242.03Q479.82 242.33 479.97 242.71Q480.1 243.04 480.14 243.37Q480.16 243.53 480.16 243.68Q480.16 244.4 480.05 244.88Q479.94 245.36 479.72 245.76Q479.51 246.16 479.15 246.55Q478.79 246.94 478.3 247.4Q476.44 249.13 474.41 250.9ZM495.57 245.47Q494.24 244.99 492.56 244.99Q491.72 244.99 490.87 245.12Q490.01 245.26 489.55 245.57L489.55 241.69L498.73 241.69L498.73 238.01L485.65 238.01L485.65 249.57L489.27 249.57Q490.14 248.61 492.13 248.61Q492.97 248.61 493.68 248.8Q494.32 248.96 494.81 249.32Q494.87 249.36 494.93 249.41Q495 249.46 495.07 249.53Q495.51 249.92 495.77 250.52Q496.06 251.22 496.06 252.24Q496.06 253.7 495.35 254.62Q495.2 254.8 495.02 254.97Q494.89 255.09 494.75 255.2Q493.76 255.92 492.25 255.92Q490.36 255.92 489.52 255.01Q489.38 254.86 489.26 254.68Q488.68 253.84 488.68 252.61L485.15 252.61Q485.15 254.35 485.66 255.64Q486.15 256.84 487 257.66Q487.06 257.71 487.12 257.76Q488.06 258.59 489.41 259.01Q490.76 259.43 492.38 259.43Q495.97 259.43 497.8 257.63Q497.86 257.57 497.92 257.5Q498.11 257.31 498.28 257.09Q499.75 255.24 499.75 252.21Q499.75 250.5 499.25 249.14Q498.76 247.77 497.83 246.86Q497.76 246.79 497.68 246.72Q496.79 245.91 495.57 245.47Z" fill="#333333" fill-opacity="1.000000" fill-rule="evenodd"/>
		<path id="Alex" d="M220.33 255.77L226 255.77L226.74 259L230.47 259L225.26 237.89L221.22 237.89L215.8 259L219.55 259L220.33 255.77ZM236.67 237.89L233.01 237.89L233.01 259L236.67 259L236.67 237.89ZM239.51 247.08Q239.24 247.91 239.24 248.83L239.24 253.63Q239.24 254.81 239.64 255.8Q240.04 256.76 240.7 257.47Q240.72 257.49 240.74 257.51Q240.97 257.75 241.23 257.95Q241.74 258.36 242.37 258.64Q242.67 258.77 242.98 258.86Q243.64 259.06 244.35 259.06L252.38 259.06L252.38 255.58L245.16 255.58Q244.13 255.58 243.51 255.12Q243.45 255.07 243.4 255.02Q242.89 254.55 242.89 253.54L242.89 252.71L252.94 252.71L252.94 248.7Q252.94 247.77 252.58 246.8Q252.31 246.07 251.89 245.45Q251.75 245.23 251.59 245.03Q251.48 244.89 251.36 244.76Q250.79 244.15 250.01 243.73Q249.98 243.72 249.96 243.7Q249.04 243.22 247.86 243.22L244.32 243.22Q243.39 243.22 242.46 243.67Q242.14 243.83 241.84 244.02Q241.28 244.39 240.82 244.9Q240.75 244.97 240.68 245.05Q240.06 245.77 239.67 246.67Q239.58 246.88 239.51 247.08ZM265.25 255.06Q264.13 253.08 263.04 251.12L267.45 243.22L263.69 243.22L260.97 248.73L258.24 243.22L254.52 243.22L258.71 251.18L254.52 259L258.24 259L260.97 253.63L263.69 259L267.42 259Q266.36 257.04 265.25 255.06ZM225.29 252.64L221.07 252.64L223.12 244.03L223.34 244.03L225.29 252.64ZM249.34 249.75L242.92 249.75L242.92 249.6Q242.92 249.1 243.06 248.64Q243.08 248.59 243.1 248.54Q243.27 248.02 243.54 247.65Q243.68 247.47 243.85 247.31Q244.02 247.16 244.22 247.05Q244.36 246.97 244.51 246.91Q244.8 246.81 245.13 246.81L247.05 246.81Q247.65 246.81 248.11 247.07Q248.46 247.26 248.72 247.61Q248.78 247.68 248.83 247.75Q249.34 248.5 249.34 249.6L249.34 249.75Z" fill="#333333" fill-opacity="1.000000" fill-rule="evenodd"/>
		<line id="Линия 4" x1="187.000000" y1="278.000000" x2="813.000000" y2="278.000000" stroke="#94DDC1" stroke-opacity="1.000000" stroke-width="1.000000"/>
		<rect id="фрейм 8" rx="20.000000" width="626.000000" height="63.000000" transform="translate(187.000000 155.000000)" fill="#9BE5C9" fill-opacity="1.000000"/>
		<path id="MAIL" d="M589.09 192.77L594.75 192.77L595.5 196L599.22 196L594.01 174.89L589.98 174.89L584.55 196L588.31 196L589.09 192.77ZM605.82 174.89L601.89 174.89L601.89 196L605.82 196L605.82 174.89ZM623.65 192.43L612.21 192.43L612.21 174.89L608.49 174.89L608.49 196L623.65 196L623.65 192.43ZM574.61 190.14L574.39 190.14L571.01 174.92L566.58 174.92L566.58 196L569.64 196L569.64 182.33L569.86 182.33L572.75 196.03L576.12 196Q576.84 192.58 577.64 189.16Q578.45 185.73 579.19 182.3L579.38 182.3L579.38 196L582.42 196L582.42 174.92L577.98 174.92Q577.15 178.73 576.3 182.53Q575.44 186.32 574.61 190.14ZM594.04 189.64L589.83 189.64L591.87 181.03L592.09 181.03L594.04 189.64Z" fill="#333333" fill-opacity="1.000000" fill-rule="evenodd"/>
		<path id="AGE" d="M464.54 192.77L470.21 192.77L470.95 196L474.67 196L469.47 174.89L465.43 174.89L460.01 196L463.76 196L464.54 192.77ZM487.18 192.03Q486.7 192.34 486.02 192.34L483.29 192.34Q482.94 192.34 482.62 192.24Q482.46 192.19 482.31 192.12Q482.01 191.97 481.78 191.76Q481.66 191.65 481.55 191.53Q481.52 191.49 481.49 191.45Q481.23 191.11 481.07 190.68Q480.9 190.2 480.9 189.64L480.9 181.24Q480.9 180.68 481.07 180.21Q481.24 179.73 481.55 179.36L481.55 179.35Q481.71 179.16 481.91 179.01Q482.09 178.87 482.31 178.78Q482.42 178.73 482.53 178.69Q482.89 178.57 483.29 178.57L485.89 178.57Q486.66 178.57 487.1 178.95Q487.19 179.03 487.27 179.13Q487.72 179.69 487.94 180.5L491.76 180.5Q491.63 179.31 491.16 178.29Q490.76 177.42 490.15 176.74Q490.05 176.62 489.94 176.51Q489.74 176.31 489.53 176.14Q488.91 175.64 488.15 175.32Q487.13 174.89 485.92 174.89L483.26 174.89Q482.51 174.89 481.81 175.06Q481.34 175.18 480.9 175.37Q480.2 175.67 479.6 176.12Q479.25 176.38 478.94 176.69Q478.8 176.84 478.66 176.99Q478.03 177.72 477.63 178.66Q477.5 178.95 477.41 179.26Q477.15 180.12 477.15 181.06L477.15 189.86Q477.15 190.84 477.43 191.72Q477.52 191.99 477.63 192.25Q477.96 193.01 478.46 193.65Q478.68 193.94 478.94 194.2Q479.21 194.46 479.49 194.69Q480.13 195.19 480.9 195.52Q481.32 195.7 481.76 195.81Q482.49 196 483.26 196L485.4 196Q485.7 196 485.99 195.97Q486.43 195.93 486.87 195.83Q487.6 195.65 488.22 195.31L488.22 196L491.79 196L491.79 183.66L484.72 183.66L484.72 186.97L488.22 186.97L488.22 190.48Q488.12 190.91 487.9 191.27Q487.72 191.55 487.47 191.8Q487.34 191.93 487.18 192.03ZM509.21 192.43L498.7 192.43L498.7 187.19L509.21 187.19L509.21 183.66L498.7 183.66L498.7 178.45L509.21 178.45L509.21 174.89L494.7 174.89L494.7 196L509.21 196L509.21 192.43ZM469.5 189.64L465.28 189.64L467.32 181.03L467.54 181.03L469.5 189.64Z" fill="#333333" fill-opacity="1.000000" fill-rule="evenodd"/>
		<path id="NAME" d="M220.36 196L220.36 182.17L227.52 196L231.21 196L231.21 174.89L227.52 174.89L227.52 188.84L220.36 174.89L216.58 174.89L216.58 196L220.36 196ZM237.85 192.77L243.51 192.77L244.26 196L247.98 196L242.77 174.89L238.74 174.89L233.31 196L237.07 196L237.85 192.77ZM283.91 192.43L273.4 192.43L273.4 187.19L283.91 187.19L283.91 183.66L273.4 183.66L273.4 178.45L283.91 178.45L283.91 174.89L269.4 174.89L269.4 196L283.91 196L283.91 192.43ZM258.68 190.14L258.46 190.14L255.08 174.92L250.65 174.92L250.65 196L253.71 196L253.71 182.33L253.93 182.33L256.81 196.03L260.19 196Q260.91 192.58 261.71 189.16Q262.52 185.73 263.26 182.3L263.45 182.3L263.45 196L266.49 196L266.49 174.92L262.05 174.92Q261.22 178.73 260.36 182.53Q259.51 186.32 258.68 190.14ZM242.8 189.64L238.59 189.64L240.63 181.03L240.85 181.03L242.8 189.64Z" fill="#333333" fill-opacity="1.000000" fill-rule="evenodd"/>
	</g>
</svg>
