<svg width="1000.000000" height="562.000000" viewBox="0 0 1000 562" fill="none" xmlns="http://www.w3.org/2000/svg" xmlns:xlink="http://www.w3.org/1999/xlink">
	<desc>
			Created with Pixso.
	</desc>
	<defs>
		<clipPath id="clip71_349">
			<rect id="tabs" width="1000.000000" height="562.000000" fill="white" fill-opacity="0"/>
		</clipPath>
	</defs>
	<rect id="tabs" width="1000.000000" height="562.000000" fill="#D9B5FF" fill-opacity="1.000000"/>
	<g clip-path="url(#clip71_349)">
		<rect id="фрейм 8" width="466.000000" height="55.000000" transform="translate(267.000000 142.000000)" fill="#FFFFFF" fill-opacity="0"/>
		<path id="HTML" d="M289.838 183L284.295 183L284.295 170.507L274.659 170.507L274.659 183L269.073 183L269.073 153.04L274.659 153.04L274.659 165.49L284.295 165.49L284.295 153.04L289.838 153.04L289.838 183ZM300.391 158.583L292.743 158.583L292.743 153.04L313.508 153.04L313.508 158.583L305.762 158.583L305.762 183L300.391 183L300.391 158.583ZM327.543 174.686L327.855 174.686Q329.036 169.271 330.25 163.89Q331.464 158.497 332.646 153.083L338.941 153.083L338.941 183L334.633 183L334.633 163.557L334.364 163.557Q333.312 168.434 332.162 173.3Q331.024 178.155 330.003 183L325.212 183.043L321.119 163.6L320.808 163.6L320.808 183L316.457 183L316.457 153.083L322.752 153.083L327.543 174.686ZM347.653 177.94L363.885 177.94L363.885 183L342.368 183L342.368 153.04L347.653 153.04L347.653 177.94Z" fill="#333333" fill-opacity="1.000000" fill-rule="evenodd"/>
		<g opacity="0.320000">
			<path id="SCSS" d="M441.576 164.427Q443.424 164.427 445.024 165.136Q446.636 165.845 447.796 167.102Q448.967 168.348 449.601 170.088Q450.245 171.828 450.245 173.891Q450.245 175.824 449.644 177.5Q449.053 179.176 447.957 180.39Q446.861 181.593 445.357 182.302Q443.864 183 442.017 183L428.374 183L428.374 177.457L440.427 177.457Q441.308 177.457 442.124 177.242Q442.94 177.017 443.51 176.576Q444.079 176.136 444.434 175.48Q444.788 174.814 444.788 173.891Q444.788 172.172 443.66 171.205Q442.543 170.238 440.867 170.238L437.312 170.238Q435.066 170.238 433.219 169.755Q431.371 169.271 430.093 168.219Q428.814 167.155 428.105 165.49Q427.407 163.814 427.407 161.483Q427.407 159.861 427.977 158.325Q428.557 156.778 429.566 155.618Q430.576 154.447 432.026 153.749Q433.477 153.04 435.238 153.04L447.603 153.04L447.603 158.884L437.526 158.884Q436.646 158.884 435.894 159.002Q435.152 159.109 434.572 159.399Q434.003 159.679 433.691 160.259Q433.391 160.828 433.391 161.795Q433.391 162.891 434.132 163.664Q434.884 164.427 436.162 164.427L441.576 164.427ZM466.036 177.812Q467.314 177.812 467.905 177.038Q468.507 176.265 468.807 175.169L474.361 175.169Q474.178 176.791 473.512 178.23Q472.857 179.659 471.783 180.712Q470.709 181.765 469.226 182.388Q467.755 183 466.079 183L462.298 183Q460.536 183 458.946 182.323Q457.367 181.636 456.174 180.454Q454.993 179.262 454.305 177.683Q453.629 176.093 453.629 174.288L453.629 161.795Q453.629 159.99 454.305 158.39Q454.993 156.778 456.174 155.597Q457.367 154.404 458.946 153.728Q460.536 153.04 462.298 153.04L466.079 153.04Q467.798 153.04 469.248 153.652Q470.709 154.265 471.783 155.35Q472.857 156.424 473.512 157.874Q474.178 159.324 474.361 161L468.807 161Q468.592 159.861 467.969 159.066Q467.357 158.271 466.036 158.271L462.34 158.271Q460.804 158.271 459.902 159.378Q459 160.474 459 162.053L459 173.977Q459 175.566 459.902 176.694Q460.804 177.812 462.34 177.812L466.036 177.812ZM491.428 164.427Q493.276 164.427 494.876 165.136Q496.488 165.845 497.648 167.102Q498.819 168.348 499.453 170.088Q500.097 171.828 500.097 173.891Q500.097 175.824 499.496 177.5Q498.905 179.176 497.809 180.39Q496.713 181.593 495.209 182.302Q493.716 183 491.869 183L478.226 183L478.226 177.457L490.279 177.457Q491.16 177.457 491.976 177.242Q492.792 177.017 493.362 176.576Q493.931 176.136 494.286 175.48Q494.64 174.814 494.64 173.891Q494.64 172.172 493.512 171.205Q492.395 170.238 490.719 170.238L487.164 170.238Q484.918 170.238 483.071 169.755Q481.223 169.271 479.945 168.219Q478.666 167.155 477.957 165.49Q477.259 163.814 477.259 161.483Q477.259 159.861 477.829 158.325Q478.409 156.778 479.418 155.618Q480.428 154.447 481.878 153.749Q483.329 153.04 485.09 153.04L497.455 153.04L497.455 158.884L487.378 158.884Q486.497 158.884 485.746 159.002Q485.004 159.109 484.424 159.399Q483.855 159.679 483.543 160.259Q483.243 160.828 483.243 161.795Q483.243 162.891 483.984 163.664Q484.736 164.427 486.014 164.427L491.428 164.427ZM517.08 164.427Q518.928 164.427 520.528 165.136Q522.14 165.845 523.3 167.102Q524.471 168.348 525.105 170.088Q525.749 171.828 525.749 173.891Q525.749 175.824 525.148 177.5Q524.557 179.176 523.461 180.39Q522.365 181.593 520.861 182.302Q519.368 183 517.521 183L503.878 183L503.878 177.457L515.931 177.457Q516.812 177.457 517.628 177.242Q518.444 177.017 519.014 176.576Q519.583 176.136 519.938 175.48Q520.292 174.814 520.292 173.891Q520.292 172.172 519.164 171.205Q518.047 170.238 516.371 170.238L512.816 170.238Q510.57 170.238 508.723 169.755Q506.875 169.271 505.597 168.219Q504.318 167.155 503.609 165.49Q502.911 163.814 502.911 161.483Q502.911 159.861 503.481 158.325Q504.061 156.778 505.07 155.618Q506.08 154.447 507.53 153.749Q508.981 153.04 510.742 153.04L523.107 153.04L523.107 158.884L513.03 158.884Q512.15 158.884 511.398 159.002Q510.656 159.109 510.076 159.399Q509.507 159.679 509.195 160.259Q508.895 160.828 508.895 161.795Q508.895 162.891 509.636 163.664Q510.388 164.427 511.666 164.427L517.08 164.427Z" fill="#333333" fill-opacity="1.000000" fill-rule="evenodd"/>
		</g>
		<g opacity="0.320000">
			<path id="JQUERY" d="M607.669 174.288Q607.669 176.093 606.981 177.683Q606.305 179.262 605.112 180.454Q603.931 181.636 602.341 182.323Q600.762 183 599 183L596.841 183Q595.133 183 593.693 182.388Q592.265 181.765 591.169 180.712Q590.073 179.659 589.407 178.23Q588.752 176.791 588.612 175.169L594.026 175.169Q594.295 176.265 594.972 177.038Q595.659 177.812 596.884 177.812L598.731 177.812Q599.526 177.812 600.139 177.5Q600.762 177.188 601.224 176.662Q601.686 176.136 601.943 175.459Q602.212 174.771 602.212 173.977L602.212 153.04L607.669 153.04L607.669 174.288ZM623.158 153.04Q624.963 153.04 626.542 153.728Q628.132 154.404 629.292 155.597Q630.463 156.778 631.139 158.39Q631.827 159.99 631.827 161.795L631.827 174.288Q631.827 175.341 631.558 176.34Q631.301 177.328 630.903 178.209L634.684 183L629.539 183L628.218 181.324Q627.165 182.119 625.886 182.56Q624.608 183 623.158 183L619.677 183Q617.916 183 616.326 182.323Q614.747 181.636 613.554 180.454Q612.373 179.262 611.685 177.683Q611.009 176.093 611.009 174.288L611.009 161.795Q611.009 159.99 611.685 158.39Q612.373 156.778 613.554 155.597Q614.747 154.404 616.326 153.728Q617.916 153.04 619.677 153.04L623.158 153.04ZM626.413 172.569L626.413 162.053Q626.413 161.269 626.187 160.592Q625.972 159.904 625.532 159.378Q625.092 158.841 624.469 158.562Q623.856 158.271 623.115 158.271L619.72 158.271Q618.184 158.271 617.282 159.378Q616.38 160.474 616.38 162.053L616.38 173.977Q616.38 175.566 617.282 176.694Q618.184 177.812 619.72 177.812L623.115 177.812Q624.125 177.812 624.92 177.231L618.979 169.798L624.254 169.798L626.413 172.569ZM658.045 174.288Q658.045 176.093 657.379 177.683Q656.723 179.262 655.531 180.454Q654.349 181.636 652.76 182.323Q651.18 183 649.376 183L645.992 183Q644.187 183 642.597 182.323Q641.018 181.636 639.805 180.454Q638.601 179.262 637.914 177.683Q637.237 176.093 637.237 174.288L637.237 153.04L642.651 153.04L642.651 173.977Q642.651 174.771 642.93 175.459Q643.221 176.136 643.725 176.662Q644.23 177.188 644.907 177.5Q645.595 177.812 646.346 177.812L648.989 177.812Q649.73 177.812 650.407 177.5Q651.095 177.188 651.578 176.662Q652.061 176.136 652.373 175.459Q652.684 174.771 652.684 173.977L652.684 153.04L658.045 153.04L658.045 174.288ZM667.769 177.94L682.69 177.94L682.69 183L662.097 183L662.097 153.04L682.69 153.04L682.69 158.1L667.769 158.1L667.769 165.49L682.69 165.49L682.69 170.507L667.769 170.507L667.769 177.94ZM692.763 170.904L692.763 183L687.177 183L687.177 153.04L700.025 153.04Q701.744 153.04 703.237 153.674Q704.73 154.308 705.804 155.414Q706.889 156.51 707.523 158.014Q708.167 159.507 708.167 161.172L708.167 162.493Q708.167 164.169 707.523 165.641Q706.889 167.112 705.804 168.24Q704.73 169.357 703.237 169.98Q701.744 170.593 700.025 170.593L698.532 170.593L708.694 183L702.313 183L692.763 170.904ZM692.763 158.271L692.763 165.361L699.144 165.361Q701.035 165.361 701.915 164.438Q702.796 163.503 702.796 161.838Q702.796 160.248 701.915 159.26Q701.035 158.271 699.144 158.271L692.763 158.271ZM718.193 169.357L710.631 153.04L716.303 153.04L720.922 162.579L721.19 162.579Q721.717 161.44 722.286 160.259Q722.856 159.066 723.479 157.831L725.767 153.04L731.396 153.04L723.565 169.4L723.565 183L718.193 183L718.193 169.357Z" fill="#333333" fill-opacity="1.000000" fill-rule="evenodd"/>
		</g>
		<rect id="Прямоугольник 10" x="267.000000" y="237.000000" rx="8.000000" width="144.000000" height="184.000000" fill="#EAD5FF" fill-opacity="1.000000"/>
		<rect id="фрейм 9" width="291.000000" height="128.000000" transform="translate(439.000000 237.000000)" fill="#FFFFFF" fill-opacity="0"/>
		<rect id="Прямоугольник 12" x="439.000000" y="237.000000" rx="8.000000" width="291.000000" height="16.000000" fill="#EAD5FF" fill-opacity="1.000000"/>
		<rect id="Прямоугольник 11" x="439.000000" y="265.000000" rx="8.000000" width="232.000000" height="16.000000" fill="#EAD5FF" fill-opacity="1.000000"/>
		<rect id="Прямоугольник 12" x="439.000000" y="293.000000" rx="8.000000" width="268.000000" height="16.000000" fill="#EAD5FF" fill-opacity="1.000000"/>
		<rect id="Прямоугольник 13" x="439.000000" y="321.000000" rx="8.000000" width="172.000000" height="16.000000" fill="#EAD5FF" fill-opacity="1.000000"/>
		<rect id="Прямоугольник 14" x="439.000000" y="349.000000" rx="8.000000" width="208.000000" height="16.000000" fill="#EAD5FF" fill-opacity="1.000000"/>
	</g>
</svg>
