<?xml version="1.0" encoding="utf-8"?>
<!-- Generator: Adobe Illustrator 17.0.0, SVG Export Plug-In . SVG Version: 6.00 Build 0)  -->
<!DOCTYPE svg PUBLIC "-//W3C//DTD SVG 1.1//EN" "http://www.w3.org/Graphics/SVG/1.1/DTD/svg11.dtd">
<svg version="1.1" id="Layer_1" xmlns="http://www.w3.org/2000/svg" xmlns:xlink="http://www.w3.org/1999/xlink" x="0px" y="0px"
	 width="60px" height="60px" viewBox="0 0 60 60" enable-background="new 0 0 60 60" xml:space="preserve">
<path fill="#E16B5A" d="M29.922,0.006c0,0,17.688-0.795,27.062,16.949c-4.952,0-28.566,0-28.566,0s-5.395-0.177-9.994,6.357
	c-1.327,2.737-2.741,5.562-1.149,11.123C14.976,30.551,5.07,13.336,5.07,13.336S12.057,0.712,29.922,0.006z"/>
<path fill="#FFD464" d="M56.063,45.057c0,0-8.156,15.686-28.238,14.914c2.477-4.28,14.287-24.692,14.287-24.692
	s2.851-4.575-0.516-11.818c-1.711-2.515-6.896-5.152-12.517-6.557c4.521-0.045,27.849,0.003,27.849,0.003
	S64.385,29.262,56.063,45.057z"/>
<path fill="#74B340" d="M3.906,45.176c0,0-9.53-14.895,1.181-31.869c2.475,4.282,14.278,24.697,14.278,24.697
	s2.542,4.752,10.51,5.463c3.037-0.221,6.196-0.409,10.226-4.565c-2.222,3.93-12.208,21.097-12.208,21.097
	S13.448,60.268,3.906,45.176z"/>
<circle fill="#FFFFFF" cx="29.85" cy="30.244" r="13.594"/>
<circle fill="#2995CC" cx="29.845" cy="30.244" r="10.781"/>
<path fill="#268CBF" d="M29.848,19.465c-0.215,0-0.427,0.008-0.638,0.02c5.657,0.33,10.143,5.021,10.143,10.761
	c0,5.74-4.486,10.432-10.143,10.762c0.211,0.012,0.424,0.02,0.638,0.02c5.954,0,10.781-4.828,10.781-10.782
	C40.629,24.292,35.802,19.465,29.848,19.465z"/>
</svg>
