<?xml version="1.0" encoding="utf-8"?>
<!-- Generator: Adobe Illustrator 17.0.0, SVG Export Plug-In . SVG Version: 6.00 Build 0)  -->
<!DOCTYPE svg PUBLIC "-//W3C//DTD SVG 1.1//EN" "http://www.w3.org/Graphics/SVG/1.1/DTD/svg11.dtd">
<svg version="1.1" id="Layer_1" xmlns="http://www.w3.org/2000/svg" xmlns:xlink="http://www.w3.org/1999/xlink" x="0px" y="0px"
	 width="60px" height="60px" viewBox="0 0 60 60" enable-background="new 0 0 60 60" xml:space="preserve">
<path fill="#00C8F6" d="M59.952,34.967c0.107-0.964,0-2.034,0-3.212c0-4.925-0.107-9.742-2.569-14.025
	c2.569-6.959,2.355-12.098-0.857-15.309c-1.606-1.499-4.282-2.141-8.136-1.927c-3.854,0.321-8.136,1.392-12.847,3.533
	C34.794,3.92,34.151,3.92,33.509,3.92c-6.423,0-11.241,2.355-17.129,5.888c-5.46,3.426-9.956,7.494-13.168,15.416
	c5.353-4.711,11.99-9.314,17.129-11.776c-0.535,0.535-1.499,1.606-3.64,3.747c-5.781,5.567-7.28,8.243-9.314,11.669
	c-2.676,4.389-4.496,8.243-5.674,11.883C0.535,44.281,0,47.6,0,50.491s0.642,5.032,2.248,6.316c3.854,3.854,10.17,3.64,18.949-0.642
	c3.854,1.927,8.136,2.891,12.526,2.891c5.888,0,11.241-1.82,16.059-5.246c4.818-3.426,8.136-8.136,10.063-13.596H44.857
	c-1.178,1.927-2.569,3.64-4.496,4.818s-4.068,1.713-6.316,1.713c-2.355,0-4.389-0.535-6.316-1.713s-3.426-2.677-4.496-4.604
	c-0.946-1.787-1.785-3.473-1.814-5.46h24.618H59.952z M5.353,54.131c-2.783-2.784-1.713-6.102,2.034-13.382
	c2.248,6.102,4.175,8.886,9.742,12.312C10.706,55.951,7.815,56.593,5.353,54.131z M51.709,4.991
	c1.178,0.642,2.248,1.606,2.783,2.891c0.535,1.071,0.321,2.034-0.964,5.567c-3.854-4.603-4.711-5.032-9.849-7.601
	C48.497,3.92,49.782,3.92,51.709,4.991z M21.519,27.366c0.214-2.998,1.82-5.567,4.068-7.708c2.248-2.141,4.818-2.998,7.922-2.998
	c2.998,0,5.674,0.856,7.922,2.998c2.248,2.034,3.319,4.711,3.533,7.708C44.964,27.366,21.519,27.366,21.519,27.366z"/>
</svg>
