<?xml version="1.0" encoding="utf-8"?>
<!-- Generator: Adobe Illustrator 17.0.0, SVG Export Plug-In . SVG Version: 6.00 Build 0)  -->
<!DOCTYPE svg PUBLIC "-//W3C//DTD SVG 1.1//EN" "http://www.w3.org/Graphics/SVG/1.1/DTD/svg11.dtd">
<svg version="1.1" id="Layer_1" xmlns="http://www.w3.org/2000/svg" xmlns:xlink="http://www.w3.org/1999/xlink" x="0px" y="0px"
	 width="60px" height="60px" viewBox="0 0 60 60" enable-background="new 0 0 60 60" xml:space="preserve">
<path fill="#F0563E" d="M50.121,8.172C44.845,2.69,38.121,0,29.948,0c-8.276,0-15,2.69-20.172,8.276
	C4.5,13.655,1.914,20.897,1.914,29.793C1.914,37.862,4.603,45,9.879,51c5.276,6,12,9,20.069,9c8.172,0,14.897-3,20.172-9.103
	c5.276-6,7.965-13.034,7.965-21.207C58.086,20.793,55.5,13.655,50.121,8.172z M40.293,34.552c0,1.552-0.207,3.31-0.414,5.379
	c-0.207,2.069-0.517,3.724-1.035,5.172c-0.414,1.345-1.035,2.793-1.759,4.138c-0.724,1.345-1.655,2.379-2.897,3.103
	c-1.241,0.724-2.586,1.035-4.138,1.035c-1.655,0-3-0.31-4.138-1.035c-1.241-0.724-2.172-1.759-2.897-3.103
	c-0.724-1.345-1.345-2.69-1.759-4.138c-0.414-1.345-0.724-3.103-0.931-5.172c-0.207-2.069-0.31-3.828-0.414-5.276
	c-0.104-1.448-0.104-3.31-0.104-5.379c0-3.414,0.103-6.207,0.31-8.586c0.207-2.379,0.724-4.655,1.345-7.035s1.655-4.138,3.104-5.379
	c1.345-1.241,3.207-1.862,5.379-1.862s3.931,0.621,5.379,1.862c1.448,1.345,2.483,3.104,3.207,5.276
	c0.724,2.379,1.241,4.759,1.448,7.138c0.207,2.483,0.31,5.276,0.414,8.586C40.397,31.345,40.293,33.103,40.293,34.552z"/>
</svg>
