<?xml version="1.0" encoding="utf-8"?>
<!-- Generator: Adobe Illustrator 17.0.0, SVG Export Plug-In . SVG Version: 6.00 Build 0)  -->
<!DOCTYPE svg PUBLIC "-//W3C//DTD SVG 1.1//EN" "http://www.w3.org/Graphics/SVG/1.1/DTD/svg11.dtd">
<svg version="1.1" id="Capa_1" xmlns="http://www.w3.org/2000/svg" xmlns:xlink="http://www.w3.org/1999/xlink" x="0px" y="0px"
	 width="60px" height="60px" viewBox="0 0 60 60" enable-background="new 0 0 60 60" xml:space="preserve">
<path fill="#51CAF3" d="M59.948,28.242c-0.236-4.123-1.303-8.088-3.121-11.701c-0.525-1.045-1.113-2.061-1.763-3.042
	c-1.11-1.678-2.396-3.257-3.852-4.712c-1.455-1.455-3.034-2.742-4.712-3.852c-0.981-0.649-1.997-1.238-3.042-1.763
	c-3.613-1.818-7.579-2.885-11.701-3.121C31.174,0.016,30.588,0,30,0s-1.174,0.016-1.758,0.052
	c-4.123,0.236-8.088,1.303-11.701,3.121c-1.045,0.525-2.061,1.113-3.042,1.763c-3.301,2.183-6.268,5.091-8.564,8.564
	c-0.649,0.981-1.238,1.997-1.763,3.042c-1.818,3.613-2.885,7.579-3.121,11.701C0.016,28.826,0,29.412,0,30
	c0,0.588,0.016,1.174,0.052,1.758c0.236,4.123,1.303,8.088,3.121,11.701c0.525,1.045,1.113,2.061,1.763,3.042
	c1.11,1.678,2.396,3.257,3.852,4.712c1.455,1.455,3.034,2.742,4.712,3.852c0.981,0.649,1.997,1.237,3.042,1.763
	c3.613,1.818,7.579,2.885,11.701,3.121C28.826,59.984,29.412,60,30,60c0.588,0,1.174-0.016,1.758-0.052
	c4.123-0.236,8.088-1.303,11.701-3.121c1.045-0.525,2.061-1.113,3.042-1.763c1.678-1.11,3.257-2.396,4.712-3.852
	c1.455-1.455,2.742-3.034,3.852-4.712c0.649-0.981,1.237-1.997,1.763-3.042c1.818-3.613,2.885-7.579,3.121-11.701
	C59.984,31.174,60,30.588,60,30S59.984,28.826,59.948,28.242z"/>
<path fill="#FE4234" d="M33.729,36.215l-9.944-9.944c-0.413-0.413-0.593-1.003-0.483-1.575c0.11-0.573,0.498-1.054,1.034-1.283
	l17.401-7.458c0.661-0.283,1.427-0.135,1.935,0.373c0.508,0.508,0.656,1.275,0.373,1.935l-7.458,17.401
	c-0.23,0.536-0.711,0.923-1.283,1.034C34.728,36.809,34.139,36.625,33.729,36.215z"/>
<path fill="#E33745" d="M28.757,31.243l4.972,4.972c0.409,0.409,0.997,0.594,1.575,0.483c0.573-0.11,1.053-0.498,1.283-1.034
	l7.458-17.401c0.283-0.661,0.135-1.427-0.373-1.935l0,0L28.757,31.243z"/>
<g>
	<path fill="#EEEEEE" d="M31.758,0.052v5.222c0,0.97-0.788,1.758-1.758,1.758s-1.758-0.788-1.758-1.758V0.052
		C28.826,0.016,29.412,0,30,0C30.588,0,31.174,0.016,31.758,0.052z"/>
	<path fill="#EEEEEE" d="M18.516,10.109c-0.841,0.484-1.915,0.198-2.401-0.643l-2.616-4.53c0.981-0.649,1.997-1.238,3.042-1.763
		l2.618,4.535C19.644,8.548,19.356,9.623,18.516,10.109z"/>
	<path fill="#EEEEEE" d="M10.109,18.516c-0.486,0.84-1.56,1.128-2.401,0.643l-4.535-2.618c0.525-1.045,1.113-2.061,1.763-3.042
		l4.53,2.616C10.305,16.6,10.594,17.675,10.109,18.516z"/>
	<path fill="#EEEEEE" d="M7.031,30c0,0.97-0.788,1.758-1.758,1.758H0.052C0.016,31.174,0,30.588,0,30s0.016-1.174,0.052-1.758h5.222
		C6.244,28.242,7.031,29.03,7.031,30z"/>
	<path fill="#EEEEEE" d="M9.465,43.886l-4.53,2.616c-0.649-0.981-1.238-1.997-1.763-3.042l4.535-2.618
		c0.84-0.485,1.916-0.197,2.401,0.643S10.305,43.4,9.465,43.886z"/>
	<path fill="#EEEEEE" d="M46.501,4.935l-2.616,4.53c-0.486,0.841-1.56,1.128-2.401,0.643c-0.84-0.485-1.129-1.561-0.643-2.401
		l2.618-4.535C44.504,3.697,45.52,4.286,46.501,4.935z"/>
	<path fill="#EEEEEE" d="M23.786,23.786c-0.156,0.156-0.284,0.341-0.374,0.55l-7.458,17.401c-0.283,0.661-0.136,1.427,0.373,1.935
		c0.508,0.508,1.274,0.656,1.935,0.373l17.402-7.458c0.208-0.089,0.394-0.218,0.55-0.374L23.786,23.786z"/>
</g>
<g>
	<path fill="#EEEEEE" d="M31.758,54.727v5.222C31.174,59.984,30.588,60,30,60s-1.174-0.016-1.758-0.052v-5.222
		c0-0.97,0.788-1.758,1.758-1.758S31.758,53.756,31.758,54.727z"/>
	<path fill="#EEEEEE" d="M46.501,55.065c-0.981,0.649-1.997,1.237-3.042,1.763l-2.618-4.535c-0.485-0.84-0.197-1.916,0.643-2.401
		c0.84-0.485,1.916-0.197,2.401,0.643L46.501,55.065z"/>
	<path fill="#EEEEEE" d="M56.828,43.459c-0.525,1.045-1.113,2.061-1.763,3.042l-4.53-2.616c-0.84-0.485-1.129-1.561-0.643-2.401
		c0.485-0.84,1.561-1.129,2.401-0.643L56.828,43.459z"/>
	<path fill="#EEEEEE" d="M60,30c0,0.588-0.016,1.174-0.052,1.758h-5.222c-0.97,0-1.758-0.788-1.758-1.758s0.787-1.758,1.758-1.758
		h5.222C59.984,28.826,60,29.412,60,30z"/>
	<path fill="#EEEEEE" d="M56.828,16.541l-4.535,2.618c-0.842,0.485-1.916,0.197-2.401-0.643c-0.485-0.84-0.197-1.916,0.643-2.401
		l4.53-2.616C55.714,14.48,56.303,15.496,56.828,16.541z"/>
	<path fill="#EEEEEE" d="M19.159,52.293l-2.618,4.535c-1.045-0.525-2.061-1.113-3.042-1.763l2.616-4.53
		c0.485-0.84,1.56-1.129,2.401-0.643C19.356,50.377,19.644,51.452,19.159,52.293z"/>
</g>
</svg>
