<svg width="32" height="32" viewBox="0 0 32 32" fill="none" xmlns="http://www.w3.org/2000/svg">
<path d="M11.1385 28H6.46154C5.78462 28 5.20513 27.759 4.72308 27.2769C4.24103 26.7949 4 26.2154 4 25.5385V20.8615C4.98462 20.8615 5.84615 20.5487 6.58462 19.9231C7.32308 19.2974 7.69231 18.5026 7.69231 17.5385C7.69231 16.5744 7.32308 15.7795 6.58462 15.1538C5.84615 14.5282 4.98462 14.2154 4 14.2154V9.53846C4 8.86154 4.24103 8.28205 4.72308 7.8C5.20513 7.31795 5.78462 7.07692 6.46154 7.07692H11.3846C11.3846 6.21538 11.6821 5.48718 12.2769 4.89231C12.8718 4.29744 13.6 4 14.4615 4C15.3231 4 16.0513 4.29744 16.6462 4.89231C17.241 5.48718 17.5385 6.21538 17.5385 7.07692H22.4615C23.1385 7.07692 23.7179 7.31795 24.2 7.8C24.6821 8.28205 24.9231 8.86154 24.9231 9.53846V14.4615C25.7846 14.4615 26.5128 14.759 27.1077 15.3538C27.7026 15.9487 28 16.6769 28 17.5385C28 18.4 27.7026 19.1282 27.1077 19.7231C26.5128 20.3179 25.7846 20.6154 24.9231 20.6154V25.5385C24.9231 26.2154 24.6821 26.7949 24.2 27.2769C23.7179 27.759 23.1385 28 22.4615 28H17.7846C17.7846 26.9744 17.4615 26.1026 16.8154 25.3846C16.1692 24.6667 15.3846 24.3077 14.4615 24.3077C13.5385 24.3077 12.7538 24.6667 12.1077 25.3846C11.4615 26.1026 11.1385 26.9744 11.1385 28ZM6.46154 25.5385H9.07692C9.56923 24.1846 10.359 23.2308 11.4462 22.6769C12.5333 22.1231 13.5385 21.8462 14.4615 21.8462C15.3846 21.8462 16.3897 22.1231 17.4769 22.6769C18.5641 23.2308 19.3538 24.1846 19.8462 25.5385H22.4615V18.1538H24.9231C25.0872 18.1538 25.2308 18.0923 25.3538 17.9692C25.4769 17.8462 25.5385 17.7026 25.5385 17.5385C25.5385 17.3744 25.4769 17.2308 25.3538 17.1077C25.2308 16.9846 25.0872 16.9231 24.9231 16.9231H22.4615V9.53846H15.0769V7.07692C15.0769 6.91282 15.0154 6.76923 14.8923 6.64615C14.7692 6.52308 14.6256 6.46154 14.4615 6.46154C14.2974 6.46154 14.1538 6.52308 14.0308 6.64615C13.9077 6.76923 13.8462 6.91282 13.8462 7.07692V9.53846H6.46154V12.2462C7.56923 12.6564 8.46154 13.3436 9.13846 14.3077C9.81538 15.2718 10.1538 16.3487 10.1538 17.5385C10.1538 18.7077 9.81538 19.7744 9.13846 20.7385C8.46154 21.7026 7.56923 22.4 6.46154 22.8308V25.5385Z" fill="#C1C1C1"/>
</svg>
