<svg width="1000.000000" height="562.000000" viewBox="0 0 1000 562" fill="none" xmlns="http://www.w3.org/2000/svg" xmlns:xlink="http://www.w3.org/1999/xlink">
	<desc>
			Created with Pixso.
	</desc>
	<defs>
		<clipPath id="clip71_436">
			<rect id="ancore" width="1000.000000" height="562.000000" fill="white" fill-opacity="0"/>
		</clipPath>
	</defs>
	<rect id="ancore" width="1000.000000" height="562.000000" fill="#FFFFB5" fill-opacity="1.000000"/>
	<g clip-path="url(#clip71_436)">
		<path id="path" d="M627.24 294.424C617.182 284.777 606.971 275.284 596.739 265.805C592.49 261.872 588.171 262.835 585.8 268.145C583.888 272.418 582.058 276.726 580.199 281.018C576.784 288.889 573.262 296.724 570.045 304.671C569.487 306.058 569.621 308.4 570.471 309.49C571.317 310.566 573.448 310.909 575.061 311.043C576.664 311.171 578.335 310.707 579.958 310.394C582.234 309.954 584.455 309.698 586.198 311.649C587.997 313.651 587.224 315.839 586.474 317.99C583.414 326.792 577.847 333.76 571.041 339.991C559.557 350.501 541.589 346.047 536.614 331.341C534.398 324.793 531.917 318.341 529.517 311.858C525.386 300.728 521.209 289.609 517.079 278.479C513.491 268.804 510.008 259.094 506.355 249.445C504.302 244.018 506.576 239.073 512.13 237.553C518.144 235.909 524.244 234.525 530.176 232.637C534.796 231.164 538.701 231.25 543.156 233.841C550.649 238.199 560.321 235.478 565.814 228.328C570.866 221.766 570.435 211.618 564.849 205.318C556.272 195.645 541.382 197.306 534.822 208.502C533.722 210.374 531.92 212.523 530.008 213.116C521.26 215.816 512.372 218.052 503.5 220.349C499.362 221.417 495.662 219.44 494.099 215.418C492.439 211.156 491.107 206.757 489.31 202.556C486.827 196.759 487.897 191.789 491.922 187.16C500.653 177.12 502.537 165.648 497.316 153.621C492.372 142.231 483.009 136.207 470.597 135.133C468.494 134.952 466.375 134.889 464.265 134.775L458.055 136.439C457.32 136.895 456.635 137.45 455.855 137.797C440.875 144.496 433.752 162.888 440.142 177.951C443.966 186.971 450.512 192.869 459.654 196.016C464.751 197.772 468.173 201.005 469.18 206.453C469.989 210.863 470.691 215.293 471.538 219.692C472.675 225.624 470.467 229.216 464.592 230.806C457.82 232.637 450.975 234.229 444.29 236.327C439.732 237.759 435.916 237.584 431.582 235.082C424.126 230.771 415.607 232.665 409.877 239.021C404.246 245.261 403.53 254.391 407.991 261.502C414.941 272.589 432.482 273.849 439.861 260.427C440.867 258.597 442.548 256.448 444.361 255.881C452.162 253.419 460.101 251.413 468.042 249.415C472.444 248.308 476.975 251.211 477.782 255.613C479.718 266.158 481.522 276.724 483.348 287.282C485.432 299.285 487.514 311.28 489.55 323.287C490.856 330.969 492.431 338.626 493.234 346.362C494.25 356.16 486.184 367.08 475.96 367.895C462.412 368.977 451.045 363.805 441.315 354.717C438.877 352.442 439.825 348.646 442.917 347.203C444.765 346.344 446.858 345.944 448.565 344.889C450.174 343.891 451.908 342.545 452.686 340.921C453.711 338.77 451.683 337.389 450.125 336.221C439.916 328.547 429.694 320.885 419.462 313.249C414.104 309.25 410.032 310.624 408.026 317.082C404.207 329.364 400.391 341.653 396.584 353.948C395.791 356.514 394.351 359.197 396.899 361.555C399.456 363.911 401.914 362.161 404.478 361.255C410.733 359.029 413.5 356.921 419.138 365.86C428.84 381.24 442.385 392.218 459.133 399.24C473.92 405.436 489.404 407.742 505.335 407.46C513.167 407.319 519.789 410.058 525.224 415.703C527.186 417.741 529.049 419.895 531.207 421.703C533.093 423.276 535.329 424.44 537.41 425.775L539.666 425.17C540.604 423.722 541.856 422.384 542.411 420.803C543.31 418.241 543.882 415.548 544.377 412.868C545.975 404.222 550.273 397.563 558.029 393.155C562.416 390.661 566.741 387.998 570.85 385.069C588.898 372.193 602.481 355.815 608.469 334.12C610.55 326.582 611.088 318.601 612.128 310.8C612.673 306.675 614.592 303.969 618.228 303.261C620.327 302.853 622.44 302.408 624.564 302.307C626.803 302.209 628.683 301.317 628.914 299.25C629.09 297.706 628.359 295.491 627.24 294.424ZM472.947 180.638C464.827 182.813 456.811 178.07 454.694 169.838C452.598 161.656 457.097 153.996 465.287 151.81C473.462 149.627 481.197 154.074 483.393 162.212C485.603 170.428 481.057 178.456 472.947 180.638Z" fill="#D0D064" fill-opacity="1.000000" fill-rule="nonzero"/>
	</g>
</svg>
