<svg width="1000.000000" height="562.000000" viewBox="0 0 1000 562" fill="none" xmlns="http://www.w3.org/2000/svg" xmlns:xlink="http://www.w3.org/1999/xlink">
	<desc>
			Created with Pixso.
	</desc>
	<defs>
		<clipPath id="clip19_334">
			<rect id="autocomplete" width="1000.000000" height="562.000000" fill="white" fill-opacity="0"/>
		</clipPath>
	</defs>
	<rect id="autocomplete" width="1000.000000" height="562.000000" fill="#AACCEE" fill-opacity="1.000000"/>
	<g clip-path="url(#clip19_334)">
		<rect id="фрейм 5" width="560.000000" height="80.000000" transform="translate(220.000000 241.000000)" fill="#FFFFFF" fill-opacity="0"/>
		<rect id="Прямоугольник 1" x="223.000000" y="244.000000" rx="8.000000" width="554.000000" height="74.000000" fill="#FAFFBD" fill-opacity="1.000000"/>
		<rect id="Прямоугольник 1" x="223.000000" y="244.000000" rx="8.000000" width="554.000000" height="74.000000" stroke="#7EA4C9" stroke-opacity="1.000000" stroke-width="6.000000"/>
		<path id="Autocomplete" d="M259.619 290.424L251.573 290.424L250.467 295L245.139 295L252.841 265.04L258.566 265.04L265.957 295L260.672 295L259.619 290.424ZM252.626 285.977L258.609 285.977L255.838 273.752L255.526 273.752L252.626 285.977ZM279.065 289.983Q280.172 289.983 280.849 289.726Q281.536 289.457 281.944 289.017Q282.363 288.576 282.535 287.964Q282.718 287.341 282.718 286.643L282.718 272.603L287.863 272.603L287.863 295L282.718 295L282.718 294.431Q282.019 294.731 281.203 294.871Q280.387 295 279.463 295L277.218 295Q275.241 295 273.759 294.345Q272.287 293.679 271.32 292.604Q270.353 291.52 269.849 290.134Q269.344 288.748 269.344 287.341L269.344 272.603L274.446 272.603L274.446 286.288Q274.446 287.083 274.575 287.749Q274.715 288.404 275.101 288.909Q275.499 289.414 276.208 289.704Q276.917 289.983 278.099 289.983L279.065 289.983ZM290.291 272.603L294.427 272.603L294.427 265.04L299.615 265.04L299.615 272.603L303.751 272.603L303.751 277.662L299.615 277.662L299.615 295L294.427 295L294.427 277.662L290.291 277.662L290.291 272.603ZM315.768 272.603Q317.701 272.603 319.216 273.204Q320.741 273.795 321.815 274.848Q322.89 275.9 323.459 277.404Q324.039 278.897 324.039 280.788L324.039 286.814Q324.039 288.662 323.459 290.188Q322.89 291.702 321.815 292.787Q320.741 293.861 319.216 294.431Q317.701 295 315.768 295L313.963 295Q312.072 295 310.525 294.431Q308.989 293.861 307.904 292.787Q306.83 291.702 306.282 290.188Q305.734 288.662 305.734 286.814L305.734 280.788Q305.734 278.897 306.282 277.404Q306.83 275.9 307.904 274.848Q308.989 273.795 310.525 273.204Q312.072 272.603 313.963 272.603L315.768 272.603ZM313.963 277.662Q312.599 277.662 311.653 278.564Q310.708 279.467 310.708 280.917L310.708 286.643Q310.708 288.093 311.653 289.017Q312.599 289.94 313.963 289.94L315.768 289.94Q317.175 289.94 318.077 289.017Q318.979 288.093 318.979 286.643L318.979 280.917Q318.979 279.467 318.077 278.564Q317.175 277.662 315.768 277.662L313.963 277.662ZM336.486 289.94Q337.539 289.94 338.291 289.436Q339.043 288.931 339.257 288.05L344.5 288.05Q344.102 291.219 342.029 293.109Q339.966 295 336.486 295L334.681 295Q332.791 295 331.244 294.431Q329.708 293.861 328.655 292.787Q327.602 291.702 327.001 290.188Q326.41 288.662 326.41 286.814L326.41 280.788Q326.41 278.897 327.001 277.404Q327.602 275.9 328.655 274.848Q329.708 273.795 331.244 273.204Q332.791 272.603 334.681 272.603L336.486 272.603Q340.052 272.603 342.115 274.493Q344.188 276.384 344.5 279.692L339.3 279.692Q339.043 278.715 338.334 278.188Q337.635 277.662 336.486 277.662L334.681 277.662Q333.274 277.662 332.372 278.564Q331.469 279.467 331.469 280.917L331.469 286.643Q331.469 288.093 332.372 289.017Q333.274 289.94 334.681 289.94L336.486 289.94ZM356.556 272.603Q358.489 272.603 360.004 273.204Q361.529 273.795 362.603 274.848Q363.678 275.9 364.247 277.404Q364.827 278.897 364.827 280.788L364.827 286.814Q364.827 288.662 364.247 290.188Q363.678 291.702 362.603 292.787Q361.529 293.861 360.004 294.431Q358.489 295 356.556 295L354.751 295Q352.86 295 351.313 294.431Q349.777 293.861 348.692 292.787Q347.618 291.702 347.07 290.188Q346.522 288.662 346.522 286.814L346.522 280.788Q346.522 278.897 347.07 277.404Q347.618 275.9 348.692 274.848Q349.777 273.795 351.313 273.204Q352.86 272.603 354.751 272.603L356.556 272.603ZM354.751 277.662Q353.387 277.662 352.441 278.564Q351.496 279.467 351.496 280.917L351.496 286.643Q351.496 288.093 352.441 289.017Q353.387 289.94 354.751 289.94L356.556 289.94Q357.963 289.94 358.865 289.017Q359.767 288.093 359.767 286.643L359.767 280.917Q359.767 279.467 358.865 278.564Q357.963 277.662 356.556 277.662L354.751 277.662ZM390.605 277.619Q389.466 277.619 388.757 277.909Q388.059 278.188 387.683 278.672Q387.307 279.155 387.178 279.821Q387.049 280.477 387.049 281.271L387.049 295L381.893 295L381.893 281.314Q381.893 280.52 381.764 279.843Q381.635 279.155 381.259 278.672Q380.883 278.188 380.174 277.909Q379.476 277.619 378.284 277.619L377.231 277.619Q376.092 277.619 375.362 277.909Q374.631 278.188 374.234 278.672Q373.847 279.155 373.686 279.843Q373.536 280.52 373.536 281.314L373.536 295L368.39 295L368.39 272.603L373.536 272.603L373.536 273.269Q375.254 272.603 377.188 272.603L379.122 272.603Q380.883 272.603 382.248 273.129Q383.612 273.655 384.579 274.579Q385.631 273.655 387.039 273.129Q388.457 272.603 390.208 272.603L392.496 272.603Q394.44 272.603 395.933 273.269Q397.426 273.924 398.415 275.009Q399.403 276.083 399.908 277.469Q400.423 278.854 400.423 280.262L400.423 295L395.321 295L395.321 281.314Q395.321 280.52 395.181 279.843Q395.052 279.155 394.655 278.672Q394.257 278.188 393.548 277.909Q392.85 277.619 391.711 277.619L390.605 277.619ZM413.662 272.603Q415.596 272.603 417.111 273.204Q418.636 273.795 419.71 274.848Q420.795 275.9 421.365 277.404Q421.934 278.897 421.934 280.788L421.934 286.814Q421.934 288.662 421.365 290.188Q420.795 291.702 419.71 292.787Q418.636 293.861 417.111 294.431Q415.596 295 413.662 295L412.255 295Q410.322 295 408.732 294.388L408.732 302.659L403.629 302.659L403.629 272.603L413.662 272.603ZM408.732 277.662L408.732 286.643Q408.732 288.093 409.613 289.017Q410.493 289.94 411.901 289.94L413.662 289.94Q415.07 289.94 415.993 289.017Q416.917 288.093 416.917 286.643L416.917 280.917Q416.917 279.467 415.993 278.564Q415.07 277.662 413.662 277.662L408.732 277.662ZM425.241 265.04L430.43 265.04L430.43 295L425.241 295L425.241 265.04ZM434.079 280.573Q434.079 278.94 434.692 277.512Q435.315 276.083 436.324 274.987Q437.334 273.881 438.655 273.247Q439.977 272.603 441.298 272.603L446.315 272.603Q448.033 272.603 449.365 273.333Q450.708 274.053 451.61 275.181Q452.513 276.298 453.018 277.684Q453.533 279.069 453.533 280.391L453.533 286.073L439.268 286.073L439.268 287.255Q439.268 288.845 440.149 289.5Q441.029 290.155 442.48 290.155L452.738 290.155L452.738 295.086L441.341 295.086Q439.848 295.086 438.526 294.495Q437.205 293.904 436.217 292.895Q435.229 291.874 434.649 290.467Q434.079 289.06 434.079 287.384L434.079 280.573ZM439.311 281.884L448.42 281.884L448.42 281.669Q448.42 279.95 447.539 278.833Q446.669 277.705 445.165 277.705L442.437 277.705Q441.738 277.705 441.158 278.038Q440.589 278.371 440.192 278.897Q439.805 279.424 439.558 280.154Q439.311 280.874 439.311 281.669L439.311 281.884ZM455.731 272.603L459.867 272.603L459.867 265.04L465.055 265.04L465.055 272.603L469.191 272.603L469.191 277.662L465.055 277.662L465.055 295L459.867 295L459.867 277.662L455.731 277.662L455.731 272.603ZM471.303 280.573Q471.303 278.94 471.916 277.512Q472.539 276.083 473.548 274.987Q474.558 273.881 475.879 273.247Q477.201 272.603 478.522 272.603L483.539 272.603Q485.257 272.603 486.589 273.333Q487.932 274.053 488.834 275.181Q489.737 276.298 490.242 277.684Q490.757 279.069 490.757 280.391L490.757 286.073L476.492 286.073L476.492 287.255Q476.492 288.845 477.373 289.5Q478.253 290.155 479.704 290.155L489.962 290.155L489.962 295.086L478.565 295.086Q477.072 295.086 475.75 294.495Q474.429 293.904 473.441 292.895Q472.453 291.874 471.873 290.467Q471.303 289.06 471.303 287.384L471.303 280.573ZM476.535 281.884L485.644 281.884L485.644 281.669Q485.644 279.95 484.763 278.833Q483.893 277.705 482.389 277.705L479.661 277.705Q478.962 277.705 478.382 278.038Q477.813 278.371 477.416 278.897Q477.029 279.424 476.782 280.154Q476.535 280.874 476.535 281.669L476.535 281.884Z" fill="#333333" fill-opacity="1.000000" fill-rule="evenodd"/>
	</g>
</svg>
