<svg width="1000.000000" height="562.000000" viewBox="0 0 1000 562" fill="none" xmlns="http://www.w3.org/2000/svg" xmlns:xlink="http://www.w3.org/1999/xlink">
	<desc>
			Created with Pixso.
	</desc>
	<defs>
		<clipPath id="clip71_449">
			<rect id="hover" width="1000.000000" height="562.000000" fill="white" fill-opacity="0"/>
		</clipPath>
	</defs>
	<rect id="hover" width="1000.000000" height="562.000000" fill="#5D6692" fill-opacity="1.000000"/>
	<g clip-path="url(#clip71_449)">
		<rect id="фрейм 6" rx="16.000000" width="239.000000" height="71.000000" transform="translate(380.000000 245.000000)" fill="#FF5E5E" fill-opacity="1.000000"/>
		<path id="Button" d="M462.269 273.805Q462.269 275.255 461.688 276.619Q461.119 277.983 460.152 278.993Q461.474 279.96 462.043 281.346Q462.612 282.731 462.612 284.235L462.612 286.083Q462.612 287.931 462.086 289.424Q461.56 290.917 460.614 291.938Q459.669 292.947 458.369 293.474Q457.069 294 455.49 294L441.848 294L441.848 264.04L455.093 264.04Q456.672 264.04 457.993 264.566Q459.314 265.093 460.26 266.06Q461.205 267.026 461.731 268.391Q462.269 269.755 462.269 271.388L462.269 273.805ZM447.036 276.49L454.169 276.49Q454.738 276.49 455.265 276.232Q455.791 275.964 456.21 275.523Q456.629 275.083 456.844 274.492Q457.069 273.891 457.069 273.235L457.069 272.795Q457.069 272.086 456.844 271.517Q456.629 270.947 456.21 270.485Q455.791 270.023 455.265 269.766Q454.738 269.497 454.169 269.497L447.036 269.497L447.036 276.49ZM457.467 284.848Q457.467 284.192 457.22 283.602Q456.983 283 456.586 282.56Q456.188 282.119 455.641 281.861Q455.093 281.593 454.523 281.593L447.036 281.593L447.036 288.457L454.523 288.457Q455.093 288.457 455.641 288.199Q456.188 287.931 456.586 287.49Q456.983 287.05 457.22 286.459Q457.467 285.857 457.467 285.159L457.467 284.848ZM474.977 288.983Q476.084 288.983 476.761 288.726Q477.448 288.457 477.856 288.017Q478.275 287.576 478.447 286.964Q478.63 286.341 478.63 285.643L478.63 271.603L483.775 271.603L483.775 294L478.63 294L478.63 293.431Q477.931 293.731 477.115 293.871Q476.299 294 475.375 294L473.13 294Q471.153 294 469.671 293.345Q468.199 292.679 467.232 291.604Q466.265 290.52 465.761 289.134Q465.256 287.748 465.256 286.341L465.256 271.603L470.358 271.603L470.358 285.288Q470.358 286.083 470.487 286.749Q470.627 287.404 471.013 287.909Q471.411 288.414 472.12 288.704Q472.829 288.983 474.011 288.983L474.977 288.983ZM486.203 271.603L490.339 271.603L490.339 264.04L495.527 264.04L495.527 271.603L499.663 271.603L499.663 276.662L495.527 276.662L495.527 294L490.339 294L490.339 276.662L486.203 276.662L486.203 271.603ZM501.163 271.603L505.299 271.603L505.299 264.04L510.487 264.04L510.487 271.603L514.623 271.603L514.623 276.662L510.487 276.662L510.487 294L505.299 294L505.299 276.662L501.163 276.662L501.163 271.603ZM526.64 271.603Q528.573 271.603 530.088 272.204Q531.613 272.795 532.687 273.848Q533.762 274.9 534.331 276.404Q534.911 277.897 534.911 279.788L534.911 285.814Q534.911 287.662 534.331 289.188Q533.762 290.702 532.687 291.787Q531.613 292.861 530.088 293.431Q528.573 294 526.64 294L524.835 294Q522.944 294 521.397 293.431Q519.861 292.861 518.776 291.787Q517.702 290.702 517.154 289.188Q516.606 287.662 516.606 285.814L516.606 279.788Q516.606 277.897 517.154 276.404Q517.702 274.9 518.776 273.848Q519.861 272.795 521.397 272.204Q522.944 271.603 524.835 271.603L526.64 271.603ZM524.835 276.662Q523.471 276.662 522.525 277.564Q521.58 278.467 521.58 279.917L521.58 285.643Q521.58 287.093 522.525 288.017Q523.471 288.94 524.835 288.94L526.64 288.94Q528.047 288.94 528.949 288.017Q529.851 287.093 529.851 285.643L529.851 279.917Q529.851 278.467 528.949 277.564Q528.047 276.662 526.64 276.662L524.835 276.662ZM547.315 276.619Q546.176 276.619 545.446 276.909Q544.715 277.188 544.318 277.672Q543.931 278.155 543.77 278.843Q543.62 279.52 543.62 280.314L543.62 294L538.474 294L538.474 271.603L543.62 271.603L543.62 272.172Q545.156 271.603 546.917 271.603L549.206 271.603Q551.139 271.603 552.632 272.269Q554.136 272.924 555.125 274.009Q556.113 275.083 556.618 276.469Q557.133 277.854 557.133 279.262L557.133 294L551.977 294L551.977 280.314Q551.977 279.52 551.848 278.843Q551.719 278.155 551.343 277.672Q550.967 277.188 550.258 276.909Q549.56 276.619 548.368 276.619L547.315 276.619Z" fill="#FFFFFF" fill-opacity="1.000000" fill-rule="evenodd"/>
	</g>
</svg>
