<svg width="1000.000000" height="562.000000" viewBox="0 0 1000 562" fill="none" xmlns="http://www.w3.org/2000/svg" xmlns:xlink="http://www.w3.org/1999/xlink">
	<desc>
			Created with Pixso.
	</desc>
	<defs>
		<clipPath id="clip17_325">
			<rect id="checkbox" width="1000.000000" height="562.000000" fill="white" fill-opacity="0"/>
		</clipPath>
	</defs>
	<rect id="checkbox" width="1000.000000" height="562.000000" fill="#D9B5FF" fill-opacity="1.000000"/>
	<g clip-path="url(#clip17_325)">
		<rect id="form" width="290.000000" height="220.000000" transform="translate(382.000000 171.000000)" fill="#FFFFFF" fill-opacity="0"/>
		<rect id="input 1" width="236.000000" height="60.000008" transform="translate(382.000000 171.000000)" fill="#FFFFFF" fill-opacity="0"/>
		<rect id="Прямоугольник 1" x="385.000000" y="174.000000" rx="8.000000" width="53.999996" height="54.000004" fill="#FFFFFF" fill-opacity="1.000000"/>
		<rect id="Прямоугольник 1" x="385.000000" y="174.000000" rx="8.000000" width="53.999996" height="54.000004" stroke="#BF80FA" stroke-opacity="1.000000" stroke-width="6.000000"/>
		<path id="path" d="M407 205L421.75 190.25C422.208 189.792 422.792 189.562 423.5 189.562C424.208 189.562 424.792 189.792 425.25 190.25C425.708 190.708 425.938 191.292 425.938 192C425.938 192.708 425.708 193.292 425.25 193.75L408.75 210.25C408.25 210.75 407.667 211 407 211C406.333 211 405.75 210.75 405.25 210.25L398.75 203.75C398.292 203.292 398.063 202.708 398.063 202C398.063 201.292 398.292 200.708 398.75 200.25C399.208 199.792 399.792 199.562 400.5 199.562C401.208 199.562 401.792 199.792 402.25 200.25L407 205Z" fill="#BF80FA" fill-opacity="1.000000" fill-rule="nonzero"/>
		<path id="Checked" d="M480.384 209.312Q481.662 209.312 482.253 208.538Q482.854 207.765 483.155 206.669L488.709 206.669Q488.526 208.291 487.86 209.73Q487.205 211.159 486.131 212.212Q485.057 213.265 483.574 213.888Q482.103 214.5 480.427 214.5L476.646 214.5Q474.884 214.5 473.294 213.823Q471.715 213.136 470.522 211.954Q469.341 210.762 468.653 209.183Q467.977 207.593 467.977 205.788L467.977 193.295Q467.977 191.49 468.653 189.89Q469.341 188.278 470.522 187.097Q471.715 185.904 473.294 185.228Q474.884 184.54 476.646 184.54L480.427 184.54Q482.146 184.54 483.596 185.152Q485.057 185.765 486.131 186.85Q487.205 187.924 487.86 189.374Q488.526 190.824 488.709 192.5L483.155 192.5Q482.94 191.361 482.317 190.566Q481.705 189.771 480.384 189.771L476.688 189.771Q475.152 189.771 474.25 190.878Q473.348 191.974 473.348 193.553L473.348 205.477Q473.348 207.066 474.25 208.194Q475.152 209.312 476.688 209.312L480.384 209.312ZM500.717 197.119Q499.567 197.119 498.837 197.409Q498.117 197.688 497.72 198.172Q497.333 198.655 497.172 199.343Q497.021 200.02 497.021 200.814L497.021 214.5L492.091 214.5L492.091 184.54L497.021 184.54L497.021 192.586Q497.677 192.371 498.396 192.242Q499.127 192.103 499.965 192.103L502.607 192.103Q504.541 192.103 506.013 192.769Q507.495 193.424 508.483 194.509Q509.471 195.583 509.955 196.969Q510.438 198.354 510.438 199.762L510.438 214.5L505.465 214.5L505.465 200.814Q505.465 200.02 505.336 199.343Q505.207 198.655 504.788 198.172Q504.369 197.688 503.66 197.409Q502.962 197.119 501.812 197.119L500.717 197.119ZM513.343 200.073Q513.343 198.44 513.956 197.012Q514.579 195.583 515.588 194.487Q516.598 193.381 517.919 192.747Q519.241 192.103 520.562 192.103L525.579 192.103Q527.297 192.103 528.629 192.833Q529.972 193.553 530.875 194.681Q531.777 195.798 532.282 197.184Q532.797 198.569 532.797 199.891L532.797 205.573L518.532 205.573L518.532 206.755Q518.532 208.345 519.413 209Q520.293 209.655 521.744 209.655L532.002 209.655L532.002 214.586L520.605 214.586Q519.112 214.586 517.79 213.995Q516.469 213.404 515.481 212.395Q514.493 211.374 513.913 209.967Q513.343 208.56 513.343 206.884L513.343 200.073ZM518.575 201.384L527.684 201.384L527.684 201.169Q527.684 199.45 526.803 198.333Q525.933 197.205 524.429 197.205L521.701 197.205Q521.002 197.205 520.422 197.538Q519.853 197.871 519.456 198.397Q519.069 198.924 518.822 199.654Q518.575 200.374 518.575 201.169L518.575 201.384ZM545.286 209.44Q546.339 209.44 547.091 208.936Q547.843 208.431 548.057 207.55L553.3 207.55Q552.902 210.719 550.829 212.609Q548.766 214.5 545.286 214.5L543.481 214.5Q541.591 214.5 540.044 213.931Q538.508 213.361 537.455 212.287Q536.402 211.202 535.801 209.688Q535.21 208.162 535.21 206.314L535.21 200.288Q535.21 198.397 535.801 196.904Q536.402 195.4 537.455 194.348Q538.508 193.295 540.044 192.704Q541.591 192.103 543.481 192.103L545.286 192.103Q548.852 192.103 550.915 193.993Q552.988 195.884 553.3 199.192L548.1 199.192Q547.843 198.215 547.134 197.688Q546.435 197.162 545.286 197.162L543.481 197.162Q542.074 197.162 541.172 198.064Q540.269 198.967 540.269 200.417L540.269 206.143Q540.269 207.593 541.172 208.517Q542.074 209.44 543.481 209.44L545.286 209.44ZM574.465 214.5L568.653 214.5L561.08 205.96L561.08 214.5L555.892 214.5L555.892 184.54L561.08 184.54L561.08 199.192L568.213 192.103L574.325 192.103L563.551 202.447L574.465 214.5ZM575.867 200.073Q575.867 198.44 576.48 197.012Q577.103 195.583 578.112 194.487Q579.122 193.381 580.443 192.747Q581.765 192.103 583.086 192.103L588.103 192.103Q589.821 192.103 591.153 192.833Q592.496 193.553 593.398 194.681Q594.301 195.798 594.806 197.184Q595.321 198.569 595.321 199.891L595.321 205.573L581.056 205.573L581.056 206.755Q581.056 208.345 581.937 209Q582.817 209.655 584.268 209.655L594.526 209.655L594.526 214.586L583.129 214.586Q581.636 214.586 580.315 213.995Q578.993 213.404 578.005 212.395Q577.017 211.374 576.437 209.967Q575.867 208.56 575.867 206.884L575.867 200.073ZM581.099 201.384L590.208 201.384L590.208 201.169Q590.208 199.45 589.327 198.333Q588.457 197.205 586.953 197.205L584.225 197.205Q583.526 197.205 582.946 197.538Q582.377 197.871 581.98 198.397Q581.593 198.924 581.346 199.654Q581.099 200.374 581.099 201.169L581.099 201.384ZM606.317 214.5Q604.383 214.5 602.858 213.931Q601.343 213.361 600.258 212.287Q599.184 211.202 598.615 209.688Q598.045 208.162 598.045 206.314L598.045 200.288Q598.045 198.397 598.615 196.904Q599.184 195.4 600.258 194.348Q601.343 193.295 602.858 192.704Q604.383 192.103 606.317 192.103L608.078 192.103Q609.926 192.103 611.419 192.629L611.419 184.54L616.35 184.54L616.35 214.5L606.317 214.5ZM611.419 209.44L611.419 200.417Q611.419 198.967 610.453 198.064Q609.486 197.162 608.078 197.162L606.317 197.162Q604.91 197.162 603.921 198.064Q602.933 198.967 602.933 200.417L602.933 206.143Q602.933 207.593 603.921 208.517Q604.91 209.44 606.317 209.44L611.419 209.44Z" fill="#333333" fill-opacity="1.000000" fill-rule="evenodd"/>
		<rect id="input 2" width="290.000000" height="60.000000" transform="translate(382.000000 251.000000)" fill="#FFFFFF" fill-opacity="0"/>
		<rect id="Прямоугольник 1" x="385.000000" y="254.000000" rx="8.000000" width="53.999996" height="54.000004" fill="#FFFFFF" fill-opacity="1.000000"/>
		<rect id="Прямоугольник 1" x="385.000000" y="254.000000" rx="8.000000" width="53.999996" height="54.000004" stroke="#BF80FA" stroke-opacity="1.000000" stroke-width="6.000000"/>
		<path id="No checked" d="M473.616 274.874L473.616 294.5L468.245 294.5L468.245 264.54L473.616 264.54L483.778 284.338L483.778 264.54L489.01 264.54L489.01 294.5L483.778 294.5L473.616 274.874ZM502.172 272.103Q504.105 272.103 505.62 272.704Q507.145 273.295 508.219 274.348Q509.294 275.4 509.863 276.904Q510.443 278.397 510.443 280.288L510.443 286.314Q510.443 288.162 509.863 289.688Q509.294 291.202 508.219 292.287Q507.145 293.361 505.62 293.931Q504.105 294.5 502.172 294.5L500.367 294.5Q498.476 294.5 496.929 293.931Q495.393 293.361 494.308 292.287Q493.234 291.202 492.686 289.688Q492.138 288.162 492.138 286.314L492.138 280.288Q492.138 278.397 492.686 276.904Q493.234 275.4 494.308 274.348Q495.393 273.295 496.929 272.704Q498.476 272.103 500.367 272.103L502.172 272.103ZM500.367 277.162Q499.003 277.162 498.057 278.064Q497.112 278.967 497.112 280.417L497.112 286.143Q497.112 287.593 498.057 288.517Q499.003 289.44 500.367 289.44L502.172 289.44Q503.579 289.44 504.481 288.517Q505.383 287.593 505.383 286.143L505.383 280.417Q505.383 278.967 504.481 278.064Q503.579 277.162 502.172 277.162L500.367 277.162ZM535.265 289.44Q536.318 289.44 537.07 288.936Q537.822 288.431 538.036 287.55L543.279 287.55Q542.881 290.719 540.808 292.609Q538.745 294.5 535.265 294.5L533.46 294.5Q531.57 294.5 530.023 293.931Q528.487 293.361 527.434 292.287Q526.381 291.202 525.78 289.688Q525.189 288.162 525.189 286.314L525.189 280.288Q525.189 278.397 525.78 276.904Q526.381 275.4 527.434 274.348Q528.487 273.295 530.023 272.704Q531.57 272.103 533.46 272.103L535.265 272.103Q538.831 272.103 540.894 273.993Q542.967 275.884 543.279 279.192L538.079 279.192Q537.822 278.215 537.113 277.688Q536.414 277.162 535.265 277.162L533.46 277.162Q532.053 277.162 531.151 278.064Q530.248 278.967 530.248 280.417L530.248 286.143Q530.248 287.593 531.151 288.517Q532.053 289.44 533.46 289.44L535.265 289.44ZM554.54 277.119Q553.39 277.119 552.66 277.409Q551.94 277.688 551.543 278.172Q551.156 278.655 550.995 279.343Q550.844 280.02 550.844 280.814L550.844 294.5L545.914 294.5L545.914 264.54L550.844 264.54L550.844 272.586Q551.5 272.371 552.219 272.242Q552.95 272.103 553.788 272.103L556.43 272.103Q558.364 272.103 559.836 272.769Q561.318 273.424 562.306 274.509Q563.294 275.583 563.778 276.969Q564.261 278.354 564.261 279.762L564.261 294.5L559.288 294.5L559.288 280.814Q559.288 280.02 559.159 279.343Q559.03 278.655 558.611 278.172Q558.192 277.688 557.483 277.409Q556.785 277.119 555.635 277.119L554.54 277.119ZM567.166 280.073Q567.166 278.44 567.779 277.012Q568.402 275.583 569.411 274.487Q570.421 273.381 571.742 272.747Q573.064 272.103 574.385 272.103L579.402 272.103Q581.12 272.103 582.452 272.833Q583.795 273.553 584.698 274.681Q585.6 275.798 586.105 277.184Q586.62 278.569 586.62 279.891L586.62 285.573L572.355 285.573L572.355 286.755Q572.355 288.345 573.236 289Q574.116 289.655 575.567 289.655L585.825 289.655L585.825 294.586L574.428 294.586Q572.935 294.586 571.614 293.995Q570.292 293.404 569.304 292.395Q568.316 291.374 567.736 289.967Q567.166 288.56 567.166 286.884L567.166 280.073ZM572.398 281.384L581.507 281.384L581.507 281.169Q581.507 279.45 580.626 278.333Q579.756 277.205 578.252 277.205L575.524 277.205Q574.825 277.205 574.245 277.538Q573.676 277.871 573.279 278.397Q572.892 278.924 572.645 279.654Q572.398 280.374 572.398 281.169L572.398 281.384ZM599.109 289.44Q600.162 289.44 600.914 288.936Q601.666 288.431 601.88 287.55L607.123 287.55Q606.725 290.719 604.652 292.609Q602.589 294.5 599.109 294.5L597.304 294.5Q595.414 294.5 593.867 293.931Q592.331 293.361 591.278 292.287Q590.225 291.202 589.624 289.688Q589.033 288.162 589.033 286.314L589.033 280.288Q589.033 278.397 589.624 276.904Q590.225 275.4 591.278 274.348Q592.331 273.295 593.867 272.704Q595.414 272.103 597.304 272.103L599.109 272.103Q602.675 272.103 604.738 273.993Q606.811 275.884 607.123 279.192L601.923 279.192Q601.666 278.215 600.957 277.688Q600.258 277.162 599.109 277.162L597.304 277.162Q595.897 277.162 594.995 278.064Q594.092 278.967 594.092 280.417L594.092 286.143Q594.092 287.593 594.995 288.517Q595.897 289.44 597.304 289.44L599.109 289.44ZM628.288 294.5L622.476 294.5L614.903 285.96L614.903 294.5L609.715 294.5L609.715 264.54L614.903 264.54L614.903 279.192L622.036 272.103L628.148 272.103L617.374 282.447L628.288 294.5ZM629.69 280.073Q629.69 278.44 630.303 277.012Q630.926 275.583 631.935 274.487Q632.945 273.381 634.266 272.747Q635.588 272.103 636.909 272.103L641.926 272.103Q643.644 272.103 644.976 272.833Q646.319 273.553 647.221 274.681Q648.124 275.798 648.629 277.184Q649.144 278.569 649.144 279.891L649.144 285.573L634.879 285.573L634.879 286.755Q634.879 288.345 635.76 289Q636.64 289.655 638.091 289.655L648.349 289.655L648.349 294.586L636.952 294.586Q635.459 294.586 634.138 293.995Q632.816 293.404 631.828 292.395Q630.84 291.374 630.26 289.967Q629.69 288.56 629.69 286.884L629.69 280.073ZM634.922 281.384L644.031 281.384L644.031 281.169Q644.031 279.45 643.15 278.333Q642.28 277.205 640.776 277.205L638.048 277.205Q637.349 277.205 636.769 277.538Q636.2 277.871 635.803 278.397Q635.416 278.924 635.169 279.654Q634.922 280.374 634.922 281.169L634.922 281.384ZM660.14 294.5Q658.206 294.5 656.681 293.931Q655.166 293.361 654.081 292.287Q653.007 291.202 652.438 289.688Q651.868 288.162 651.868 286.314L651.868 280.288Q651.868 278.397 652.438 276.904Q653.007 275.4 654.081 274.348Q655.166 273.295 656.681 272.704Q658.206 272.103 660.14 272.103L661.901 272.103Q663.749 272.103 665.242 272.629L665.242 264.54L670.173 264.54L670.173 294.5L660.14 294.5ZM665.242 289.44L665.242 280.417Q665.242 278.967 664.276 278.064Q663.309 277.162 661.901 277.162L660.14 277.162Q658.733 277.162 657.744 278.064Q656.756 278.967 656.756 280.417L656.756 286.143Q656.756 287.593 657.744 288.517Q658.733 289.44 660.14 289.44L665.242 289.44Z" fill="#333333" fill-opacity="1.000000" fill-rule="evenodd"/>
		<g opacity="0.230000">
			<rect id="input 3" width="235.000000" height="60.000000" transform="translate(382.000000 331.000000)" fill="#FFFFFF" fill-opacity="0"/>
			<rect id="Прямоугольник 1" x="385.000000" y="334.000000" rx="8.000000" width="53.999996" height="54.000004" fill="#FFFFFF" fill-opacity="1.000000"/>
			<rect id="Прямоугольник 1" x="385.000000" y="334.000000" rx="8.000000" width="53.999996" height="54.000004" stroke="#BF80FA" stroke-opacity="1.000000" stroke-width="6.000000"/>
			<path id="Disabled" d="M468.245 344.54L481.931 344.54Q483.381 344.54 484.681 345.152Q485.98 345.765 486.947 346.871Q487.914 347.967 488.462 349.396Q489.01 350.824 489.01 352.457L489.01 366.583Q489.01 368.248 488.462 369.666Q487.914 371.073 486.947 372.169Q485.98 373.265 484.681 373.888Q483.381 374.5 481.931 374.5L468.245 374.5L468.245 344.54ZM480.566 368.957Q481.222 368.957 481.748 368.699Q482.285 368.431 482.693 367.99Q483.112 367.55 483.327 366.959Q483.553 366.357 483.553 365.659L483.553 353.338Q483.553 352.672 483.327 352.081Q483.112 351.49 482.693 351.028Q482.285 350.566 481.748 350.309Q481.222 350.04 480.566 350.04L473.745 350.04L473.745 368.957L480.566 368.957ZM498.213 374.5L493.014 374.5L493.014 352.103L498.213 352.103L498.213 374.5ZM498.213 349.686L493.014 349.686L493.014 344.54L498.213 344.54L498.213 349.686ZM517.482 356.464L508.727 356.464Q508.147 356.464 507.771 356.668Q507.406 356.861 507.137 357.216Q506.879 357.56 506.74 357.979Q506.611 358.397 506.611 358.795Q506.611 359.633 507.159 360.32Q507.717 360.997 508.501 360.997L513.432 360.997Q514.968 360.997 516.128 361.523Q517.299 362.05 518.073 362.974Q518.846 363.897 519.211 365.176Q519.587 366.443 519.587 367.904L519.587 368.033Q519.587 369.483 519.125 370.676Q518.664 371.857 517.826 372.695Q516.998 373.533 515.849 374.017Q514.71 374.5 513.432 374.5L502.787 374.5L502.787 370.139L511.939 370.139Q512.949 370.139 513.808 369.569Q514.667 369 514.71 367.861L514.71 367.904Q514.71 367.238 514.463 366.798Q514.227 366.357 513.83 366.078Q513.432 365.788 512.949 365.659Q512.465 365.52 511.939 365.52L507.975 365.52Q506.041 365.52 504.785 364.907Q503.528 364.295 502.797 363.328Q502.078 362.361 501.809 361.126Q501.551 359.891 501.551 358.612Q501.551 357.291 501.949 356.066Q502.346 354.831 503.109 353.886Q503.882 352.94 505.021 352.414Q506.17 351.888 507.621 351.888L517.482 351.888L517.482 356.464ZM522.321 359.192Q522.45 357.785 522.955 356.507Q523.46 355.229 524.427 354.262Q525.404 353.295 526.854 352.704Q528.305 352.103 530.195 352.103L532.838 352.103Q534.814 352.103 536.286 352.769Q537.769 353.424 538.735 354.509Q539.702 355.583 540.186 356.969Q540.669 358.354 540.669 359.762L540.669 374.5L528.176 374.5Q526.715 374.5 525.565 373.952Q524.427 373.404 523.653 372.502Q522.891 371.6 522.515 370.364Q522.139 369.129 522.139 367.722Q522.139 366.357 522.536 365.176Q522.934 363.983 523.675 363.124Q524.427 362.265 525.544 361.76Q526.672 361.255 528.079 361.255L535.609 361.255L535.609 360.814Q535.609 360.02 535.47 359.343Q535.341 358.655 534.986 358.172Q534.643 357.688 533.934 357.409Q533.235 357.119 532.043 357.119L530.947 357.119Q529.186 357.119 528.434 357.624Q527.692 358.129 527.424 359.192L522.321 359.192ZM526.854 367.722Q526.854 368.871 527.316 369.419Q527.778 369.967 528.348 369.967L535.609 369.967L535.609 365.477L528.348 365.477Q527.778 365.477 527.316 366.057Q526.854 366.626 526.854 367.722ZM553.822 352.103Q555.756 352.103 557.271 352.704Q558.796 353.295 559.87 354.348Q560.955 355.4 561.525 356.904Q562.094 358.397 562.094 360.288L562.094 366.314Q562.094 368.162 561.525 369.688Q560.955 371.202 559.87 372.287Q558.796 373.361 557.271 373.931Q555.756 374.5 553.822 374.5L552.061 374.5Q550.127 374.5 548.602 373.931Q547.087 373.361 546.013 372.287Q544.939 371.202 544.359 369.688Q543.789 368.162 543.789 366.314L543.789 360.288L543.789 359.934L543.789 344.54L548.988 344.54L548.988 352.672Q550.61 352.103 552.415 352.103L553.822 352.103ZM552.061 357.162Q550.653 357.162 549.837 358.043Q549.031 358.924 548.988 360.288L548.988 366.143Q548.988 367.593 549.816 368.517Q550.653 369.44 552.061 369.44L553.822 369.44Q555.23 369.44 556.11 368.517Q556.991 367.593 556.991 366.143L556.991 360.417Q556.991 358.967 556.11 358.064Q555.23 357.162 553.822 357.162L552.061 357.162ZM565.753 344.54L570.942 344.54L570.942 374.5L565.753 374.5L565.753 344.54ZM574.591 360.073Q574.591 358.44 575.204 357.012Q575.827 355.583 576.836 354.487Q577.846 353.381 579.167 352.747Q580.489 352.103 581.81 352.103L586.827 352.103Q588.545 352.103 589.877 352.833Q591.22 353.553 592.122 354.681Q593.025 355.798 593.53 357.184Q594.045 358.569 594.045 359.891L594.045 365.573L579.78 365.573L579.78 366.755Q579.78 368.345 580.661 369Q581.541 369.655 582.992 369.655L593.25 369.655L593.25 374.586L581.853 374.586Q580.36 374.586 579.039 373.995Q577.717 373.404 576.729 372.395Q575.741 371.374 575.161 369.967Q574.591 368.56 574.591 366.884L574.591 360.073ZM579.823 361.384L588.932 361.384L588.932 361.169Q588.932 359.45 588.051 358.333Q587.181 357.205 585.677 357.205L582.949 357.205Q582.25 357.205 581.67 357.538Q581.101 357.871 580.704 358.397Q580.317 358.924 580.07 359.654Q579.823 360.374 579.823 361.169L579.823 361.384ZM605.041 374.5Q603.107 374.5 601.582 373.931Q600.067 373.361 598.982 372.287Q597.908 371.202 597.339 369.688Q596.769 368.162 596.769 366.314L596.769 360.288Q596.769 358.397 597.339 356.904Q597.908 355.4 598.982 354.348Q600.067 353.295 601.582 352.704Q603.107 352.103 605.041 352.103L606.802 352.103Q608.65 352.103 610.143 352.629L610.143 344.54L615.074 344.54L615.074 374.5L605.041 374.5ZM610.143 369.44L610.143 360.417Q610.143 358.967 609.177 358.064Q608.21 357.162 606.802 357.162L605.041 357.162Q603.634 357.162 602.645 358.064Q601.657 358.967 601.657 360.417L601.657 366.143Q601.657 367.593 602.645 368.517Q603.634 369.44 605.041 369.44L610.143 369.44Z" fill="#333333" fill-opacity="1.000000" fill-rule="evenodd"/>
		</g>
	</g>
</svg>
