<svg width="1000.000000" height="562.000000" viewBox="0 0 1000 562" fill="none" xmlns="http://www.w3.org/2000/svg" xmlns:xlink="http://www.w3.org/1999/xlink">
	<desc>
			Created with Pixso.
	</desc>
	<defs>
		<clipPath id="clip70_334">
			<rect id="dots" width="1000.000000" height="562.000000" fill="white" fill-opacity="0"/>
		</clipPath>
	</defs>
	<rect id="dots" width="1000.000000" height="562.000000" fill="#D4FFB5" fill-opacity="1.000000"/>
	<g clip-path="url(#clip70_334)">
		<path id="Lorem ipsum dolor sit am..." d="M255.821 289.94L272.053 289.94L272.053 295L250.536 295L250.536 265.04L255.821 265.04L255.821 289.94ZM284.6 272.603Q286.533 272.603 288.048 273.204Q289.573 273.795 290.647 274.848Q291.722 275.9 292.291 277.404Q292.871 278.897 292.871 280.788L292.871 286.814Q292.871 288.662 292.291 290.188Q291.722 291.702 290.647 292.787Q289.573 293.861 288.048 294.431Q286.533 295 284.6 295L282.795 295Q280.904 295 279.357 294.431Q277.821 293.861 276.736 292.787Q275.662 291.702 275.114 290.188Q274.566 288.662 274.566 286.814L274.566 280.788Q274.566 278.897 275.114 277.404Q275.662 275.9 276.736 274.848Q277.821 273.795 279.357 273.204Q280.904 272.603 282.795 272.603L284.6 272.603ZM282.795 277.662Q281.431 277.662 280.485 278.564Q279.54 279.467 279.54 280.917L279.54 286.643Q279.54 288.093 280.485 289.017Q281.431 289.94 282.795 289.94L284.6 289.94Q286.007 289.94 286.909 289.017Q287.811 288.093 287.811 286.643L287.811 280.917Q287.811 279.467 286.909 278.564Q286.007 277.662 284.6 277.662L282.795 277.662ZM301.623 277.179Q302.235 276.169 303.266 275.406Q304.308 274.633 305.554 274.106Q306.811 273.569 308.218 273.312Q309.636 273.043 311.044 273.043L311.613 273.043L311.613 278.5L311.044 278.5Q309.454 278.5 307.778 279.145Q306.113 279.778 304.727 280.81Q303.341 281.841 302.482 283.119Q301.623 284.397 301.623 285.676L301.623 295L296.166 295L296.166 272.431L301.623 272.431L301.623 277.179ZM314.383 280.573Q314.383 278.94 314.996 277.512Q315.619 276.083 316.628 274.987Q317.638 273.881 318.959 273.247Q320.281 272.603 321.602 272.603L326.619 272.603Q328.337 272.603 329.669 273.333Q331.012 274.053 331.914 275.181Q332.817 276.298 333.322 277.684Q333.837 279.069 333.837 280.391L333.837 286.073L319.572 286.073L319.572 287.255Q319.572 288.845 320.453 289.5Q321.333 290.155 322.784 290.155L333.042 290.155L333.042 295.086L321.645 295.086Q320.152 295.086 318.831 294.495Q317.509 293.904 316.521 292.895Q315.533 291.874 314.953 290.467Q314.383 289.06 314.383 287.384L314.383 280.573ZM319.615 281.884L328.724 281.884L328.724 281.669Q328.724 279.95 327.843 278.833Q326.973 277.705 325.469 277.705L322.741 277.705Q322.042 277.705 321.462 278.038Q320.893 278.371 320.496 278.897Q320.109 279.424 319.862 280.154Q319.615 280.874 319.615 281.669L319.615 281.884ZM359.657 277.619Q358.518 277.619 357.809 277.909Q357.111 278.188 356.735 278.672Q356.359 279.155 356.23 279.821Q356.101 280.477 356.101 281.271L356.101 295L350.945 295L350.945 281.314Q350.945 280.52 350.816 279.843Q350.687 279.155 350.311 278.672Q349.935 278.188 349.226 277.909Q348.528 277.619 347.336 277.619L346.283 277.619Q345.144 277.619 344.414 277.909Q343.683 278.188 343.286 278.672Q342.899 279.155 342.738 279.843Q342.588 280.52 342.588 281.314L342.588 295L337.442 295L337.442 272.603L342.588 272.603L342.588 273.269Q344.306 272.603 346.24 272.603L348.174 272.603Q349.935 272.603 351.3 273.129Q352.664 273.655 353.631 274.579Q354.683 273.655 356.091 273.129Q357.509 272.603 359.26 272.603L361.548 272.603Q363.492 272.603 364.985 273.269Q366.478 273.924 367.467 275.009Q368.455 276.083 368.96 277.469Q369.475 278.854 369.475 280.262L369.475 295L364.373 295L364.373 281.314Q364.373 280.52 364.233 279.843Q364.104 279.155 363.707 278.672Q363.309 278.188 362.6 277.909Q361.902 277.619 360.763 277.619L359.657 277.619ZM390.696 295L385.497 295L385.497 272.603L390.696 272.603L390.696 295ZM390.696 270.186L385.497 270.186L385.497 265.04L390.696 265.04L390.696 270.186ZM404.153 272.603Q406.087 272.603 407.602 273.204Q409.127 273.795 410.201 274.848Q411.286 275.9 411.856 277.404Q412.425 278.897 412.425 280.788L412.425 286.814Q412.425 288.662 411.856 290.188Q411.286 291.702 410.201 292.787Q409.127 293.861 407.602 294.431Q406.087 295 404.153 295L402.746 295Q400.813 295 399.223 294.388L399.223 302.659L394.12 302.659L394.12 272.603L404.153 272.603ZM399.223 277.662L399.223 286.643Q399.223 288.093 400.104 289.017Q400.984 289.94 402.392 289.94L404.153 289.94Q405.561 289.94 406.484 289.017Q407.408 288.093 407.408 286.643L407.408 280.917Q407.408 279.467 406.484 278.564Q405.561 277.662 404.153 277.662L399.223 277.662ZM430.997 276.964L422.242 276.964Q421.662 276.964 421.286 277.168Q420.921 277.361 420.652 277.716Q420.394 278.06 420.255 278.479Q420.126 278.897 420.126 279.295Q420.126 280.133 420.674 280.82Q421.232 281.497 422.016 281.497L426.947 281.497Q428.483 281.497 429.643 282.023Q430.814 282.55 431.588 283.474Q432.361 284.397 432.726 285.676Q433.102 286.943 433.102 288.404L433.102 288.533Q433.102 289.983 432.64 291.176Q432.179 292.357 431.341 293.195Q430.513 294.033 429.364 294.517Q428.225 295 426.947 295L416.302 295L416.302 290.639L425.454 290.639Q426.464 290.639 427.323 290.069Q428.182 289.5 428.225 288.361L428.225 288.404Q428.225 287.738 427.978 287.298Q427.742 286.857 427.345 286.578Q426.947 286.288 426.464 286.159Q425.98 286.02 425.454 286.02L421.49 286.02Q419.556 286.02 418.3 285.407Q417.043 284.795 416.312 283.828Q415.593 282.861 415.324 281.626Q415.066 280.391 415.066 279.112Q415.066 277.791 415.464 276.566Q415.861 275.331 416.624 274.386Q417.397 273.44 418.536 272.914Q419.685 272.388 421.136 272.388L430.997 272.388L430.997 276.964ZM446.084 289.983Q447.191 289.983 447.868 289.726Q448.555 289.457 448.963 289.017Q449.382 288.576 449.554 287.964Q449.737 287.341 449.737 286.643L449.737 272.603L454.882 272.603L454.882 295L449.737 295L449.737 294.431Q449.038 294.731 448.222 294.871Q447.406 295 446.482 295L444.237 295Q442.26 295 440.778 294.345Q439.306 293.679 438.339 292.604Q437.372 291.52 436.868 290.134Q436.363 288.748 436.363 287.341L436.363 272.603L441.465 272.603L441.465 286.288Q441.465 287.083 441.594 287.749Q441.734 288.404 442.12 288.909Q442.518 289.414 443.227 289.704Q443.936 289.983 445.118 289.983L446.084 289.983ZM480.932 277.619Q479.793 277.619 479.084 277.909Q478.386 278.188 478.01 278.672Q477.634 279.155 477.505 279.821Q477.376 280.477 477.376 281.271L477.376 295L472.22 295L472.22 281.314Q472.22 280.52 472.091 279.843Q471.962 279.155 471.586 278.672Q471.21 278.188 470.501 277.909Q469.803 277.619 468.611 277.619L467.558 277.619Q466.419 277.619 465.689 277.909Q464.958 278.188 464.561 278.672Q464.174 279.155 464.013 279.843Q463.863 280.52 463.863 281.314L463.863 295L458.717 295L458.717 272.603L463.863 272.603L463.863 273.269Q465.581 272.603 467.515 272.603L469.449 272.603Q471.21 272.603 472.575 273.129Q473.939 273.655 474.906 274.579Q475.958 273.655 477.366 273.129Q478.784 272.603 480.535 272.603L482.823 272.603Q484.767 272.603 486.26 273.269Q487.753 273.924 488.742 275.009Q489.73 276.083 490.235 277.469Q490.75 278.854 490.75 280.262L490.75 295L485.648 295L485.648 281.314Q485.648 280.52 485.508 279.843Q485.379 279.155 484.982 278.672Q484.584 278.188 483.875 277.909Q483.177 277.619 482.038 277.619L480.932 277.619ZM514.431 295Q512.497 295 510.972 294.431Q509.457 293.861 508.372 292.787Q507.298 291.702 506.729 290.188Q506.159 288.662 506.159 286.814L506.159 280.788Q506.159 278.897 506.729 277.404Q507.298 275.9 508.372 274.848Q509.457 273.795 510.972 273.204Q512.497 272.603 514.431 272.603L516.193 272.603Q518.04 272.603 519.533 273.129L519.533 265.04L524.464 265.04L524.464 295L514.431 295ZM519.533 289.94L519.533 280.917Q519.533 279.467 518.567 278.564Q517.6 277.662 516.193 277.662L514.431 277.662Q513.024 277.662 512.035 278.564Q511.047 279.467 511.047 280.917L511.047 286.643Q511.047 288.093 512.035 289.017Q513.024 289.94 514.431 289.94L519.533 289.94ZM537.094 272.603Q539.027 272.603 540.542 273.204Q542.067 273.795 543.141 274.848Q544.216 275.9 544.785 277.404Q545.365 278.897 545.365 280.788L545.365 286.814Q545.365 288.662 544.785 290.188Q544.216 291.702 543.141 292.787Q542.067 293.861 540.542 294.431Q539.027 295 537.094 295L535.289 295Q533.398 295 531.851 294.431Q530.315 293.861 529.23 292.787Q528.156 291.702 527.608 290.188Q527.06 288.662 527.06 286.814L527.06 280.788Q527.06 278.897 527.608 277.404Q528.156 275.9 529.23 274.848Q530.315 273.795 531.851 273.204Q533.398 272.603 535.289 272.603L537.094 272.603ZM535.289 277.662Q533.925 277.662 532.979 278.564Q532.034 279.467 532.034 280.917L532.034 286.643Q532.034 288.093 532.979 289.017Q533.925 289.94 535.289 289.94L537.094 289.94Q538.501 289.94 539.403 289.017Q540.305 288.093 540.305 286.643L540.305 280.917Q540.305 279.467 539.403 278.564Q538.501 277.662 537.094 277.662L535.289 277.662ZM548.799 265.04L553.988 265.04L553.988 295L548.799 295L548.799 265.04ZM567.542 272.603Q569.475 272.603 570.99 273.204Q572.515 273.795 573.589 274.848Q574.664 275.9 575.233 277.404Q575.813 278.897 575.813 280.788L575.813 286.814Q575.813 288.662 575.233 290.188Q574.664 291.702 573.589 292.787Q572.515 293.861 570.99 294.431Q569.475 295 567.542 295L565.737 295Q563.846 295 562.299 294.431Q560.763 293.861 559.678 292.787Q558.604 291.702 558.056 290.188Q557.508 288.662 557.508 286.814L557.508 280.788Q557.508 278.897 558.056 277.404Q558.604 275.9 559.678 274.848Q560.763 273.795 562.299 273.204Q563.846 272.603 565.737 272.603L567.542 272.603ZM565.737 277.662Q564.373 277.662 563.427 278.564Q562.482 279.467 562.482 280.917L562.482 286.643Q562.482 288.093 563.427 289.017Q564.373 289.94 565.737 289.94L567.542 289.94Q568.949 289.94 569.851 289.017Q570.753 288.093 570.753 286.643L570.753 280.917Q570.753 279.467 569.851 278.564Q568.949 277.662 567.542 277.662L565.737 277.662ZM584.565 277.179Q585.177 276.169 586.208 275.406Q587.25 274.633 588.496 274.106Q589.753 273.569 591.16 273.312Q592.578 273.043 593.985 273.043L594.555 273.043L594.555 278.5L593.985 278.5Q592.396 278.5 590.72 279.145Q589.055 279.778 587.669 280.81Q586.283 281.841 585.424 283.119Q584.565 284.397 584.565 285.676L584.565 295L579.108 295L579.108 272.431L584.565 272.431L584.565 277.179ZM625.631 276.964L616.876 276.964Q616.296 276.964 615.92 277.168Q615.555 277.361 615.286 277.716Q615.028 278.06 614.889 278.479Q614.76 278.897 614.76 279.295Q614.76 280.133 615.308 280.82Q615.866 281.497 616.65 281.497L621.581 281.497Q623.117 281.497 624.277 282.023Q625.448 282.55 626.222 283.474Q626.995 284.397 627.36 285.676Q627.736 286.943 627.736 288.404L627.736 288.533Q627.736 289.983 627.274 291.176Q626.812 292.357 625.975 293.195Q625.147 294.033 623.998 294.517Q622.859 295 621.581 295L610.936 295L610.936 290.639L620.088 290.639Q621.098 290.639 621.957 290.069Q622.816 289.5 622.859 288.361L622.859 288.404Q622.859 287.738 622.612 287.298Q622.376 286.857 621.979 286.578Q621.581 286.288 621.098 286.159Q620.614 286.02 620.088 286.02L616.124 286.02Q614.19 286.02 612.934 285.407Q611.677 284.795 610.946 283.828Q610.227 282.861 609.958 281.626Q609.7 280.391 609.7 279.112Q609.7 277.791 610.098 276.566Q610.495 275.331 611.258 274.386Q612.031 273.44 613.17 272.914Q614.319 272.388 615.77 272.388L625.631 272.388L625.631 276.964ZM636.282 295L631.083 295L631.083 272.603L636.282 272.603L636.282 295ZM636.282 270.186L631.083 270.186L631.083 265.04L636.282 265.04L636.282 270.186ZM639.008 272.603L643.144 272.603L643.144 265.04L648.332 265.04L648.332 272.603L652.468 272.603L652.468 277.662L648.332 277.662L648.332 295L643.144 295L643.144 277.662L639.008 277.662L639.008 272.603ZM666.869 279.692Q666.998 278.285 667.503 277.007Q668.008 275.729 668.975 274.762Q669.952 273.795 671.402 273.204Q672.853 272.603 674.743 272.603L677.386 272.603Q679.362 272.603 680.834 273.269Q682.317 273.924 683.283 275.009Q684.25 276.083 684.734 277.469Q685.217 278.854 685.217 280.262L685.217 295L672.724 295Q671.263 295 670.113 294.452Q668.975 293.904 668.201 293.002Q667.439 292.1 667.063 290.864Q666.687 289.629 666.687 288.222Q666.687 286.857 667.084 285.676Q667.482 284.483 668.223 283.624Q668.975 282.765 670.092 282.26Q671.22 281.755 672.627 281.755L680.157 281.755L680.157 281.314Q680.157 280.52 680.018 279.843Q679.889 279.155 679.534 278.672Q679.191 278.188 678.482 277.909Q677.783 277.619 676.591 277.619L675.495 277.619Q673.734 277.619 672.982 278.124Q672.24 278.629 671.972 279.692L666.869 279.692ZM671.402 288.222Q671.402 289.371 671.864 289.919Q672.326 290.467 672.896 290.467L680.157 290.467L680.157 285.977L672.896 285.977Q672.326 285.977 671.864 286.557Q671.402 287.126 671.402 288.222ZM711.261 277.619Q710.122 277.619 709.413 277.909Q708.715 278.188 708.339 278.672Q707.963 279.155 707.834 279.821Q707.705 280.477 707.705 281.271L707.705 295L702.549 295L702.549 281.314Q702.549 280.52 702.42 279.843Q702.291 279.155 701.915 278.672Q701.539 278.188 700.83 277.909Q700.132 277.619 698.94 277.619L697.887 277.619Q696.748 277.619 696.018 277.909Q695.287 278.188 694.89 278.672Q694.503 279.155 694.342 279.843Q694.192 280.52 694.192 281.314L694.192 295L689.046 295L689.046 272.603L694.192 272.603L694.192 273.269Q695.91 272.603 697.844 272.603L699.778 272.603Q701.539 272.603 702.904 273.129Q704.268 273.655 705.235 274.579Q706.287 273.655 707.695 273.129Q709.112 272.603 710.863 272.603L713.152 272.603Q715.096 272.603 716.589 273.269Q718.082 273.924 719.07 275.009Q720.059 276.083 720.564 277.469Q721.079 278.854 721.079 280.262L721.079 295L715.977 295L715.977 281.314Q715.977 280.52 715.837 279.843Q715.708 279.155 715.311 278.672Q714.913 278.188 714.204 277.909Q713.506 277.619 712.367 277.619L711.261 277.619ZM724.865 296.01L724.865 290.95L730.097 290.95L730.097 296.01L724.865 296.01ZM733.665 296.01L733.665 290.95L738.897 290.95L738.897 296.01L733.665 296.01ZM742.465 296.01L742.465 290.95L747.697 290.95L747.697 296.01L742.465 296.01Z" fill="#333333" fill-opacity="1.000000" fill-rule="evenodd"/>
	</g>
</svg>
