<svg width="1000.000000" height="562.000000" viewBox="0 0 1000 562" fill="none" xmlns="http://www.w3.org/2000/svg" xmlns:xlink="http://www.w3.org/1999/xlink">
	<desc>
			Created with Pixso.
	</desc>
	<defs>
		<clipPath id="clip68_321">
			<rect id="element" width="1000.000000" height="562.000000" fill="white" fill-opacity="0"/>
		</clipPath>
	</defs>
	<rect id="element" width="1000.000000" height="562.000000" fill="#FFE8B5" fill-opacity="1.000000"/>
	<g clip-path="url(#clip68_321)">
		<rect id="фрейм 7" rx="8.000000" width="120.000000" height="119.000000" transform="translate(440.000000 222.000000)" fill="#FFFFFF" fill-opacity="1.000000"/>
		<path id="25" d="M493.849 243.189Q494.689 242.551 495.475 241.868Q496.26 241.183 496.98 240.512Q497.171 240.333 497.309 240.184Q497.449 240.031 497.531 239.876Q497.616 239.721 497.657 239.536Q497.701 239.349 497.701 239.073Q497.701 238.88 497.628 238.695Q497.555 238.508 497.417 238.376Q497.279 238.244 497.104 238.168Q496.931 238.089 496.74 238.089L496.069 238.089Q495.864 238.089 495.683 238.168Q495.504 238.244 495.372 238.376Q495.24 238.508 495.161 238.695Q495.085 238.88 495.085 239.073L495.085 239.36L493.764 239.36L493.764 238.833Q493.764 238.388 493.931 237.998Q494.101 237.608 494.394 237.321Q494.689 237.031 495.079 236.864Q495.469 236.697 495.911 236.697L496.957 236.697Q497.399 236.697 497.789 236.864Q498.179 237.031 498.466 237.321Q498.756 237.608 498.923 237.998Q499.093 238.388 499.093 238.833L499.093 239.012Q499.093 239.372 499.061 239.674Q499.031 239.973 498.935 240.242Q498.841 240.512 498.653 240.758Q498.469 241.004 498.179 241.279Q497.496 241.941 496.746 242.583Q495.996 243.225 495.229 243.775L498.949 243.775L498.949 245L493.849 245L493.849 243.189ZM502.499 239.577Q503.149 239.577 503.665 239.765Q504.181 239.949 504.541 240.304Q504.901 240.655 505.092 241.186Q505.285 241.713 505.285 242.372Q505.285 243.679 504.576 244.423Q503.867 245.167 502.429 245.167Q501.805 245.167 501.28 245.006Q500.759 244.845 500.393 244.522Q500.029 244.197 499.83 243.699Q499.631 243.201 499.631 242.527L500.999 242.527Q500.999 243.104 501.324 243.459Q501.649 243.811 502.379 243.811Q503.053 243.811 503.454 243.441Q503.855 243.069 503.855 242.384Q503.855 241.988 503.741 241.719Q503.627 241.449 503.416 241.288Q503.208 241.124 502.933 241.054Q502.657 240.98 502.332 240.98Q501.564 240.98 501.228 241.353L499.824 241.353L499.824 236.876L504.887 236.876L504.887 238.303L501.336 238.303L501.336 239.803Q501.515 239.683 501.846 239.63Q502.177 239.577 502.499 239.577Z" fill="#333333" fill-opacity="1.000000" fill-rule="evenodd"/>
		<path id="El" d="M486.796 293.101L507.143 293.101L507.143 300L479.062 300L479.062 259.146L507.143 259.146L507.143 266.045L486.796 266.045L486.796 276.123L507.143 276.123L507.143 282.964L486.796 282.964L486.796 293.101ZM513.027 259.146L520.102 259.146L520.102 300L513.027 300L513.027 259.146Z" fill="#333333" fill-opacity="1.000000" fill-rule="evenodd"/>
		<path id="Element" d="M474.879 322.16L480.305 322.16L480.305 324L472.816 324L472.816 313.105L480.305 313.105L480.305 314.945L474.879 314.945L474.879 317.633L480.305 317.633L480.305 319.457L474.879 319.457L474.879 322.16ZM481.874 313.105L483.761 313.105L483.761 324L481.874 324L481.874 313.105ZM485.088 318.754Q485.088 318.16 485.31 317.641Q485.537 317.121 485.904 316.723Q486.271 316.32 486.752 316.09Q487.232 315.855 487.713 315.855L489.537 315.855Q490.162 315.855 490.646 316.121Q491.135 316.383 491.463 316.793Q491.791 317.199 491.974 317.703Q492.162 318.207 492.162 318.688L492.162 320.754L486.974 320.754L486.974 321.184Q486.974 321.762 487.295 322Q487.615 322.238 488.142 322.238L491.873 322.238L491.873 324.031L487.728 324.031Q487.185 324.031 486.705 323.816Q486.224 323.602 485.865 323.234Q485.506 322.863 485.295 322.352Q485.088 321.84 485.088 321.23L485.088 318.754ZM486.99 319.23L490.303 319.23L490.303 319.152Q490.303 318.527 489.982 318.121Q489.666 317.711 489.119 317.711L488.127 317.711Q487.873 317.711 487.662 317.832Q487.455 317.953 487.31 318.145Q487.17 318.336 487.08 318.602Q486.99 318.863 486.99 319.152L486.99 319.23ZM501.551 317.68Q501.137 317.68 500.879 317.785Q500.625 317.887 500.488 318.062Q500.352 318.238 500.305 318.48Q500.258 318.719 500.258 319.008L500.258 324L498.383 324L498.383 319.023Q498.383 318.734 498.336 318.488Q498.289 318.238 498.152 318.062Q498.016 317.887 497.758 317.785Q497.504 317.68 497.07 317.68L496.688 317.68Q496.274 317.68 496.008 317.785Q495.742 317.887 495.598 318.062Q495.457 318.238 495.399 318.488Q495.344 318.734 495.344 319.023L495.344 324L493.473 324L493.473 315.855L495.344 315.855L495.344 316.098Q495.969 315.855 496.672 315.855L497.375 315.855Q498.016 315.855 498.512 316.047Q499.008 316.238 499.359 316.574Q499.742 316.238 500.254 316.047Q500.77 315.855 501.406 315.855L502.238 315.855Q502.945 315.855 503.488 316.098Q504.031 316.336 504.391 316.73Q504.75 317.121 504.934 317.625Q505.121 318.129 505.121 318.641L505.121 324L503.266 324L503.266 319.023Q503.266 318.734 503.215 318.488Q503.168 318.238 503.024 318.062Q502.879 317.887 502.621 317.785Q502.367 317.68 501.953 317.68L501.551 317.68ZM506.256 318.754Q506.256 318.16 506.478 317.641Q506.705 317.121 507.072 316.723Q507.439 316.32 507.92 316.09Q508.4 315.855 508.881 315.855L510.705 315.855Q511.33 315.855 511.814 316.121Q512.303 316.383 512.631 316.793Q512.959 317.199 513.142 317.703Q513.33 318.207 513.33 318.688L513.33 320.754L508.142 320.754L508.142 321.184Q508.142 321.762 508.463 322Q508.783 322.238 509.31 322.238L513.041 322.238L513.041 324.031L508.896 324.031Q508.353 324.031 507.873 323.816Q507.392 323.602 507.033 323.234Q506.674 322.863 506.463 322.352Q506.256 321.84 506.256 321.23L506.256 318.754ZM508.158 319.23L511.471 319.23L511.471 319.152Q511.471 318.527 511.15 318.121Q510.834 317.711 510.287 317.711L509.295 317.711Q509.041 317.711 508.83 317.832Q508.623 317.953 508.478 318.145Q508.338 318.336 508.248 318.602Q508.158 318.863 508.158 319.152L508.158 319.23ZM517.856 317.68Q517.442 317.68 517.176 317.785Q516.91 317.887 516.766 318.062Q516.625 318.238 516.567 318.488Q516.512 318.734 516.512 319.023L516.512 324L514.641 324L514.641 315.855L516.512 315.855L516.512 316.062Q517.07 315.855 517.711 315.855L518.543 315.855Q519.246 315.855 519.789 316.098Q520.336 316.336 520.695 316.73Q521.055 317.121 521.238 317.625Q521.426 318.129 521.426 318.641L521.426 324L519.551 324L519.551 319.023Q519.551 318.734 519.504 318.488Q519.457 318.238 519.32 318.062Q519.184 317.887 518.926 317.785Q518.672 317.68 518.238 317.68L517.856 317.68ZM522.225 315.855L523.729 315.855L523.729 313.105L525.616 313.105L525.616 315.855L527.12 315.855L527.12 317.695L525.616 317.695L525.616 324L523.729 324L523.729 317.695L522.225 317.695L522.225 315.855Z" fill="#333333" fill-opacity="1.000000" fill-rule="evenodd"/>
		<line id="Линия 1" x1="500.000000" y1="381.000000" x2="500.000000" y2="519.000000" stroke="#DCC79A" stroke-opacity="1.000000" stroke-width="1.000000"/>
		<line id="Линия 2" x1="500.000000" y1="44.000000" x2="500.000000" y2="182.000000" stroke="#DCC79A" stroke-opacity="1.000000" stroke-width="1.000000"/>
		<line id="Линия 3" x1="600.000000" y1="281.000000" x2="738.000000" y2="281.000000" stroke="#DCC79A" stroke-opacity="1.000000" stroke-width="1.000000"/>
		<line id="Линия 1" x1="262.000000" y1="281.000000" x2="400.000000" y2="281.000000" stroke="#DCC79A" stroke-opacity="1.000000" stroke-width="1.000000"/>
	</g>
</svg>
