<svg width="1000.000000" height="562.000000" viewBox="0 0 1000 562" fill="none" xmlns="http://www.w3.org/2000/svg" xmlns:xlink="http://www.w3.org/1999/xlink">
	<desc>
			Created with Pixso.
	</desc>
	<defs>
		<clipPath id="clip17_355">
			<rect id="file" width="1000.000000" height="562.000000" fill="white" fill-opacity="0"/>
		</clipPath>
	</defs>
	<rect id="file" width="1000.000000" height="562.000000" fill="#E5FFB5" fill-opacity="1.000000"/>
	<g clip-path="url(#clip17_355)">
		<rect id="Прямоугольник 1" x="223.000000" y="244.000000" rx="8.000000" width="554.000000" height="74.000000" fill="#FFFFFF" fill-opacity="1.000000"/>
		<rect id="Прямоугольник 1" x="223.000000" y="244.000000" rx="8.000000" width="554.000000" height="74.000000" stroke="#BDDF7F" stroke-opacity="1.000000" stroke-width="6.000000"/>
		<path id="File" d="M251.305 295L246.245 295L246.245 265.04L266.838 265.04L266.838 270.1L251.176 270.1L251.176 277.49L266.881 277.49L266.881 282.507L251.305 282.507L251.305 295ZM275.421 295L270.222 295L270.222 272.603L275.421 272.603L275.421 295ZM275.421 270.186L270.222 270.186L270.222 265.04L275.421 265.04L275.421 270.186ZM279.425 265.04L284.614 265.04L284.614 295L279.425 295L279.425 265.04ZM288.263 280.573Q288.263 278.94 288.876 277.512Q289.499 276.083 290.508 274.987Q291.518 273.881 292.839 273.247Q294.161 272.603 295.482 272.603L300.499 272.603Q302.217 272.603 303.549 273.333Q304.892 274.053 305.794 275.181Q306.697 276.298 307.202 277.684Q307.717 279.069 307.717 280.391L307.717 286.073L293.452 286.073L293.452 287.255Q293.452 288.845 294.333 289.5Q295.213 290.155 296.664 290.155L306.922 290.155L306.922 295.086L295.525 295.086Q294.032 295.086 292.711 294.495Q291.389 293.904 290.401 292.895Q289.413 291.874 288.833 290.467Q288.263 289.06 288.263 287.384L288.263 280.573ZM293.495 281.884L302.604 281.884L302.604 281.669Q302.604 279.95 301.723 278.833Q300.853 277.705 299.349 277.705L296.621 277.705Q295.922 277.705 295.342 278.038Q294.773 278.371 294.376 278.897Q293.989 279.424 293.742 280.154Q293.495 280.874 293.495 281.669L293.495 281.884Z" fill="#333333" fill-opacity="1.000000" fill-rule="evenodd"/>
		<path id="path" d="M736.933 283.133L726.267 283.133C725.662 283.133 725.156 282.929 724.747 282.52C724.338 282.111 724.133 281.604 724.133 281C724.133 280.396 724.338 279.889 724.747 279.48C725.156 279.071 725.662 278.867 726.267 278.867L736.933 278.867L736.933 268.2C736.933 267.596 737.138 267.089 737.547 266.68C737.956 266.271 738.462 266.067 739.067 266.067C739.671 266.067 740.178 266.271 740.587 266.68C740.995 267.089 741.2 267.596 741.2 268.2L741.2 278.867L751.867 278.867C752.471 278.867 752.978 279.071 753.387 279.48C753.796 279.889 754 280.396 754 281C754 281.604 753.796 282.111 753.387 282.52C752.978 282.929 752.471 283.133 751.867 283.133L741.2 283.133L741.2 293.8C741.2 294.404 740.995 294.911 740.587 295.32C740.178 295.729 739.671 295.933 739.067 295.933C738.462 295.933 737.956 295.729 737.547 295.32C737.138 294.911 736.933 294.404 736.933 293.8L736.933 283.133Z" fill="#BDDF7F" fill-opacity="1.000000" fill-rule="nonzero"/>
	</g>
</svg>
