<svg width="1000.000000" height="562.000000" viewBox="0 0 1000 562" fill="none" xmlns="http://www.w3.org/2000/svg" xmlns:xlink="http://www.w3.org/1999/xlink">
	<desc>
			Created with Pixso.
	</desc>
	<defs>
		<clipPath id="clip51_291">
			<rect id="hover" width="1000.000000" height="562.000000" fill="white" fill-opacity="0"/>
		</clipPath>
	</defs>
	<rect id="hover" width="1000.000000" height="562.000000" fill="#FFB5B5" fill-opacity="1.000000"/>
	<g clip-path="url(#clip51_291)">
		<rect id="Прямоугольник 3" x="350.000000" y="37.000000" rx="20.000000" width="300.000000" height="488.000000" fill="#FFFFFF" fill-opacity="1.000000"/>
		<circle id="Эллипс 4" cx="500.000000" cy="485.000000" r="19.500000" stroke="#CCCCCC" stroke-opacity="1.000000" stroke-width="1.000000"/>
		<rect id="Прямоугольник 4" x="470.000000" y="49.000000" rx="3.000000" width="60.000000" height="6.000000" fill="#C4C4C4" fill-opacity="1.000000"/>
		<rect id="Прямоугольник 5" x="354.000000" y="67.000000" rx="1.000000" width="292.000000" height="378.000000" fill="#3D4362" fill-opacity="1.000000"/>
		<rect id="фрейм 6" rx="12.000000" width="94.000000" height="42.000000" transform="translate(453.000000 260.000000)" fill="#FF5353" fill-opacity="1.000000"/>
		<path id="Button" d="M483.122 277.82Q483.122 278.479 482.858 279.1Q482.6 279.72 482.16 280.179Q482.761 280.618 483.02 281.248Q483.278 281.878 483.278 282.562L483.278 283.401Q483.278 284.241 483.039 284.92Q482.8 285.599 482.37 286.062Q481.94 286.521 481.35 286.761Q480.759 287 480.041 287L473.84 287L473.84 273.382L479.86 273.382Q480.578 273.382 481.179 273.621Q481.779 273.86 482.209 274.3Q482.639 274.739 482.878 275.359Q483.122 275.979 483.122 276.722L483.122 277.82ZM476.198 279.041L479.44 279.041Q479.699 279.041 479.938 278.924Q480.178 278.802 480.368 278.602Q480.559 278.401 480.656 278.133Q480.759 277.859 480.759 277.562L480.759 277.361Q480.759 277.039 480.656 276.78Q480.559 276.521 480.368 276.312Q480.178 276.102 479.938 275.984Q479.699 275.862 479.44 275.862L476.198 275.862L476.198 279.041ZM480.939 282.84Q480.939 282.542 480.827 282.273Q480.72 282 480.539 281.8Q480.358 281.6 480.109 281.482Q479.86 281.36 479.602 281.36L476.198 281.36L476.198 284.48L479.602 284.48Q479.86 284.48 480.109 284.363Q480.358 284.241 480.539 284.041Q480.72 283.841 480.827 283.572Q480.939 283.299 480.939 282.981L480.939 282.84ZM488.899 284.72Q489.402 284.72 489.709 284.603Q490.022 284.48 490.207 284.28Q490.398 284.08 490.476 283.802Q490.559 283.519 490.559 283.201L490.559 276.819L492.898 276.819L492.898 287L490.559 287L490.559 286.741Q490.242 286.878 489.87 286.941Q489.499 287 489.079 287L488.059 287Q487.161 287 486.487 286.702Q485.818 286.399 485.378 285.911Q484.939 285.418 484.709 284.788Q484.48 284.158 484.48 283.519L484.48 276.819L486.799 276.819L486.799 283.04Q486.799 283.401 486.858 283.704Q486.921 284.002 487.097 284.231Q487.278 284.461 487.6 284.593Q487.922 284.72 488.459 284.72L488.899 284.72ZM494.001 276.819L495.881 276.819L495.881 273.382L498.24 273.382L498.24 276.819L500.12 276.819L500.12 279.119L498.24 279.119L498.24 287L495.881 287L495.881 279.119L494.001 279.119L494.001 276.819ZM500.801 276.819L502.681 276.819L502.681 273.382L505.04 273.382L505.04 276.819L506.919 276.819L506.919 279.119L505.04 279.119L505.04 287L502.681 287L502.681 279.119L500.801 279.119L500.801 276.819ZM512.382 276.819Q513.26 276.819 513.949 277.093Q514.642 277.361 515.131 277.84Q515.619 278.318 515.878 279.002Q516.141 279.681 516.141 280.54L516.141 283.279Q516.141 284.119 515.878 284.812Q515.619 285.501 515.131 285.994Q514.642 286.482 513.949 286.741Q513.26 287 512.382 287L511.561 287Q510.702 287 509.999 286.741Q509.301 286.482 508.807 285.994Q508.319 285.501 508.07 284.812Q507.821 284.119 507.821 283.279L507.821 280.54Q507.821 279.681 508.07 279.002Q508.319 278.318 508.807 277.84Q509.301 277.361 509.999 277.093Q510.702 276.819 511.561 276.819L512.382 276.819ZM511.561 279.119Q510.941 279.119 510.511 279.529Q510.082 279.939 510.082 280.599L510.082 283.201Q510.082 283.86 510.511 284.28Q510.941 284.7 511.561 284.7L512.382 284.7Q513.021 284.7 513.431 284.28Q513.842 283.86 513.842 283.201L513.842 280.599Q513.842 279.939 513.431 279.529Q513.021 279.119 512.382 279.119L511.561 279.119ZM521.78 279.1Q521.262 279.1 520.93 279.231Q520.598 279.358 520.417 279.578Q520.241 279.798 520.168 280.11Q520.1 280.418 520.1 280.779L520.1 287L517.761 287L517.761 276.819L520.1 276.819L520.1 277.078Q520.798 276.819 521.599 276.819L522.639 276.819Q523.518 276.819 524.197 277.122Q524.88 277.42 525.329 277.913Q525.779 278.401 526.008 279.031Q526.242 279.661 526.242 280.301L526.242 287L523.899 287L523.899 280.779Q523.899 280.418 523.84 280.11Q523.781 279.798 523.611 279.578Q523.44 279.358 523.117 279.231Q522.8 279.1 522.258 279.1L521.78 279.1Z" fill="#FFFFFF" fill-opacity="1.000000" fill-rule="evenodd"/>
		<g opacity="0.390000">
			<circle id="Эллипс 6" cx="539.000000" cy="294.000000" r="23.000000" stroke="#FFFFFF" stroke-opacity="1.000000" stroke-width="2.000000"/>
			<circle id="Эллипс 5" cx="539.000000" cy="294.000000" r="17.000000" fill="#FFFFFF" fill-opacity="1.000000"/>
		</g>
	</g>
</svg>
