<svg width="1000.000000" height="562.000000" viewBox="0 0 1000 562" fill="none" xmlns="http://www.w3.org/2000/svg" xmlns:xlink="http://www.w3.org/1999/xlink">
	<desc>
			Created with Pixso.
	</desc>
	<defs>
		<clipPath id="clip51_311">
			<rect id="link" width="1000.000000" height="562.000000" fill="white" fill-opacity="0"/>
		</clipPath>
	</defs>
	<rect id="link" width="1000.000000" height="562.000000" fill="#86D1FF" fill-opacity="1.000000"/>
	<g clip-path="url(#clip51_311)">
		<path id="path" d="M605.296 422.622L484.052 352.622C450.624 333.322 439.131 290.428 458.431 257C477.731 223.571 520.624 212.078 554.052 231.378L675.296 301.378C708.725 320.678 720.218 363.571 700.918 397C681.618 430.428 638.725 441.922 605.296 422.622ZM536.052 262.555C519.858 253.205 498.958 258.805 489.608 275C480.258 291.195 485.858 312.095 502.052 321.445L623.296 391.445C639.491 400.795 660.391 395.195 669.741 379C679.091 362.805 673.491 341.905 657.296 332.555L536.052 262.555Z" fill="#CB4747" fill-opacity="1.000000" fill-rule="nonzero"/>
		<path id="path" d="M445.947 330.622L324.704 260.622C291.275 241.322 279.782 198.429 299.082 165C318.382 131.571 361.275 120.078 394.704 139.378L515.947 209.378C549.376 228.678 560.869 271.571 541.569 305C522.269 338.429 479.376 349.922 445.947 330.622ZM376.704 170.555C360.509 161.205 339.609 166.805 330.259 183C320.909 199.195 326.509 220.095 342.704 229.445L463.947 299.445C480.142 308.795 501.042 303.195 510.392 287C519.742 270.805 514.142 249.905 497.947 240.555L376.704 170.555Z" fill="#364568" fill-opacity="1.000000" fill-rule="nonzero"/>
		<path id="path" d="M560.942 355.445L502.052 321.445C485.858 312.095 480.258 291.195 489.608 275L458.431 257C439.131 290.429 450.624 333.322 484.052 352.622L528.133 378.072L560.942 355.445Z" fill="#CB4747" fill-opacity="1.000000" fill-rule="nonzero"/>
	</g>
</svg>
