<svg width="1000.000000" height="562.000000" viewBox="0 0 1000 562" fill="none" xmlns="http://www.w3.org/2000/svg" xmlns:xlink="http://www.w3.org/1999/xlink">
	<desc>
			Created with Pixso.
	</desc>
	<defs>
		<clipPath id="clip17_349">
			<rect id="select" width="1000.000000" height="562.000000" fill="white" fill-opacity="0"/>
		</clipPath>
	</defs>
	<rect id="select" width="1000.000000" height="562.000000" fill="#FFB5D4" fill-opacity="1.000000"/>
	<g clip-path="url(#clip17_349)">
		<rect id="Прямоугольник 1" x="223.000000" y="244.000000" rx="8.000000" width="554.000000" height="74.000000" fill="#FFFFFF" fill-opacity="1.000000"/>
		<rect id="Прямоугольник 1" x="223.000000" y="244.000000" rx="8.000000" width="554.000000" height="74.000000" stroke="#E688AF" stroke-opacity="1.000000" stroke-width="6.000000"/>
		<path id="Select" d="M259.576 276.427Q261.424 276.427 263.024 277.136Q264.636 277.845 265.796 279.102Q266.967 280.348 267.601 282.088Q268.245 283.828 268.245 285.891Q268.245 287.824 267.644 289.5Q267.053 291.176 265.957 292.39Q264.861 293.593 263.357 294.302Q261.864 295 260.017 295L246.374 295L246.374 289.457L258.427 289.457Q259.308 289.457 260.124 289.242Q260.94 289.017 261.51 288.576Q262.079 288.136 262.434 287.48Q262.788 286.814 262.788 285.891Q262.788 284.172 261.66 283.205Q260.543 282.238 258.867 282.238L255.312 282.238Q253.066 282.238 251.219 281.755Q249.371 281.271 248.093 280.219Q246.814 279.155 246.105 277.49Q245.407 275.814 245.407 273.483Q245.407 271.861 245.977 270.325Q246.557 268.778 247.566 267.618Q248.576 266.447 250.026 265.749Q251.477 265.04 253.238 265.04L265.603 265.04L265.603 270.884L255.526 270.884Q254.646 270.884 253.894 271.002Q253.152 271.109 252.572 271.399Q252.003 271.679 251.691 272.259Q251.391 272.828 251.391 273.795Q251.391 274.891 252.132 275.664Q252.884 276.427 254.162 276.427L259.576 276.427ZM271.059 280.573Q271.059 278.94 271.672 277.512Q272.295 276.083 273.304 274.987Q274.314 273.881 275.635 273.247Q276.957 272.603 278.278 272.603L283.295 272.603Q285.013 272.603 286.345 273.333Q287.688 274.053 288.59 275.181Q289.493 276.298 289.998 277.684Q290.513 279.069 290.513 280.391L290.513 286.073L276.248 286.073L276.248 287.255Q276.248 288.845 277.129 289.5Q278.009 290.155 279.46 290.155L289.718 290.155L289.718 295.086L278.321 295.086Q276.828 295.086 275.507 294.495Q274.185 293.904 273.197 292.895Q272.209 291.874 271.629 290.467Q271.059 289.06 271.059 287.384L271.059 280.573ZM276.291 281.884L285.4 281.884L285.4 281.669Q285.4 279.95 284.519 278.833Q283.649 277.705 282.145 277.705L279.417 277.705Q278.718 277.705 278.138 278.038Q277.569 278.371 277.172 278.897Q276.785 279.424 276.538 280.154Q276.291 280.874 276.291 281.669L276.291 281.884ZM293.989 265.04L299.178 265.04L299.178 295L293.989 295L293.989 265.04ZM302.827 280.573Q302.827 278.94 303.44 277.512Q304.063 276.083 305.072 274.987Q306.082 273.881 307.403 273.247Q308.725 272.603 310.046 272.603L315.063 272.603Q316.781 272.603 318.113 273.333Q319.456 274.053 320.358 275.181Q321.261 276.298 321.766 277.684Q322.281 279.069 322.281 280.391L322.281 286.073L308.016 286.073L308.016 287.255Q308.016 288.845 308.897 289.5Q309.777 290.155 311.228 290.155L321.486 290.155L321.486 295.086L310.089 295.086Q308.596 295.086 307.274 294.495Q305.953 293.904 304.965 292.895Q303.977 291.874 303.397 290.467Q302.827 289.06 302.827 287.384L302.827 280.573ZM308.059 281.884L317.168 281.884L317.168 281.669Q317.168 279.95 316.287 278.833Q315.417 277.705 313.913 277.705L311.185 277.705Q310.486 277.705 309.906 278.038Q309.337 278.371 308.94 278.897Q308.553 279.424 308.306 280.154Q308.059 280.874 308.059 281.669L308.059 281.884ZM334.77 289.94Q335.823 289.94 336.575 289.436Q337.327 288.931 337.541 288.05L342.784 288.05Q342.386 291.219 340.313 293.109Q338.25 295 334.77 295L332.965 295Q331.075 295 329.528 294.431Q327.992 293.861 326.939 292.787Q325.886 291.702 325.285 290.188Q324.694 288.662 324.694 286.814L324.694 280.788Q324.694 278.897 325.285 277.404Q325.886 275.9 326.939 274.848Q327.992 273.795 329.528 273.204Q331.075 272.603 332.965 272.603L334.77 272.603Q338.336 272.603 340.399 274.493Q342.472 276.384 342.784 279.692L337.584 279.692Q337.327 278.715 336.618 278.188Q335.919 277.662 334.77 277.662L332.965 277.662Q331.558 277.662 330.656 278.564Q329.753 279.467 329.753 280.917L329.753 286.643Q329.753 288.093 330.656 289.017Q331.558 289.94 332.965 289.94L334.77 289.94ZM344.323 272.603L348.459 272.603L348.459 265.04L353.647 265.04L353.647 272.603L357.783 272.603L357.783 277.662L353.647 277.662L353.647 295L348.459 295L348.459 277.662L344.323 277.662L344.323 272.603Z" fill="#333333" fill-opacity="1.000000" fill-rule="evenodd"/>
		<path id="path" d="M740.911 283.543L749.942 274.629C750.367 274.21 750.907 274 751.563 274C752.219 274 752.76 274.21 753.184 274.629C753.609 275.048 753.821 275.581 753.821 276.229C753.821 276.876 753.609 277.41 753.184 277.829L742.532 288.343C742.3 288.571 742.049 288.733 741.779 288.829C741.509 288.924 741.219 288.971 740.911 288.971C740.602 288.971 740.312 288.924 740.042 288.829C739.772 288.733 739.521 288.571 739.289 288.343L728.637 277.829C728.212 277.41 728 276.876 728 276.229C728 275.581 728.212 275.048 728.637 274.629C729.061 274.21 729.602 274 730.258 274C730.914 274 731.454 274.21 731.879 274.629L740.911 283.543Z" fill="#E688AF" fill-opacity="1.000000" fill-rule="nonzero"/>
	</g>
</svg>
