<svg width="1000.000000" height="562.000000" viewBox="0 0 1000 562" fill="none" xmlns="http://www.w3.org/2000/svg" xmlns:xlink="http://www.w3.org/1999/xlink">
	<desc>
			Created with Pixso.
	</desc>
	<defs>
		<clipPath id="clip68_305">
			<rect id="sticky" width="1000.000000" height="562.000000" fill="white" fill-opacity="0"/>
		</clipPath>
	</defs>
	<rect id="sticky" width="1000.000000" height="562.000000" fill="#B5CEFF" fill-opacity="1.000000"/>
	<g clip-path="url(#clip68_305)">
		<path id="Прямоугольник 9" d="M329 133L648.22 110.678L664.962 350.093L590.737 435.479L351.322 452.22L329 133Z" fill="#FFEABD" fill-opacity="1.000000" fill-rule="evenodd"/>
		<path id="Форма 1" d="M590.738 435.479L585.157 355.674L664.962 350.093L590.738 435.479Z" fill="#EED9AC" fill-opacity="1.000000" fill-rule="evenodd"/>
		<path id="Sticky" d="M460.124 279.637Q461.968 279.508 463.614 280.104Q465.271 280.699 466.516 281.872Q467.771 283.033 468.524 284.725Q469.289 286.416 469.432 288.473Q469.567 290.402 469.084 292.116Q468.612 293.829 467.603 295.116Q466.594 296.393 465.143 297.205Q463.703 298.006 461.859 298.134L448.25 299.086L447.863 293.557L459.887 292.716Q460.766 292.654 461.565 292.383Q462.364 292.101 462.901 291.622Q463.438 291.143 463.746 290.465Q464.053 289.775 463.989 288.854Q463.869 287.139 462.676 286.254Q461.494 285.367 459.823 285.484L456.276 285.732Q454.036 285.889 452.159 285.535Q450.282 285.182 448.934 284.221Q447.584 283.249 446.761 281.638Q445.947 280.015 445.785 277.689Q445.672 276.071 446.132 274.499Q446.603 272.916 447.53 271.688Q448.455 270.449 449.853 269.652Q451.25 268.843 453.008 268.72L465.342 267.858L465.75 273.687L455.698 274.39Q454.819 274.452 454.077 274.622Q453.345 274.781 452.787 275.111Q452.238 275.429 451.968 276.029Q451.708 276.618 451.775 277.583Q451.852 278.676 452.645 279.396Q453.448 280.104 454.724 280.015L460.124 279.637ZM470.702 275.064L474.828 274.775L474.3 267.231L479.476 266.869L480.004 274.414L484.129 274.125L484.482 279.172L480.356 279.461L481.566 296.756L476.39 297.118L475.181 279.823L471.055 280.111L470.702 275.064ZM493.51 295.921L488.324 296.284L486.761 273.941L491.948 273.578L493.51 295.921ZM491.779 271.167L486.593 271.53L486.234 266.397L491.42 266.034L491.779 271.167ZM506.143 289.966Q507.193 289.892 507.908 289.336Q508.623 288.78 508.776 287.887L514.005 287.521Q513.83 290.71 511.893 292.74Q509.968 294.77 506.496 295.013L504.695 295.139Q502.809 295.271 501.227 294.811Q499.655 294.35 498.529 293.352Q497.404 292.343 496.698 290.874Q496.002 289.394 495.873 287.55L495.453 281.539Q495.321 279.653 495.806 278.122Q496.301 276.58 497.278 275.456Q498.255 274.333 499.746 273.636Q501.247 272.928 503.133 272.796L504.933 272.67Q508.491 272.421 510.68 274.164Q512.881 275.905 513.422 279.184L508.236 279.547Q507.91 278.589 507.166 278.114Q506.433 277.637 505.286 277.717L503.486 277.843Q502.082 277.942 501.245 278.905Q500.408 279.868 500.509 281.314L500.908 287.026Q501.01 288.473 501.974 289.331Q502.939 290.19 504.343 290.092L506.143 289.966ZM535.604 292.978L529.806 293.383L521.656 285.392L522.252 293.911L517.076 294.273L514.986 264.386L520.162 264.024L521.184 278.641L527.805 271.071L533.902 270.645L523.875 281.716L535.604 292.978ZM546.27 299.91L541.448 300.247L543.148 292.364L534.829 270.58L539.694 270.24L544.957 284.204L548.171 269.647L553.089 269.303L546.27 299.91Z" fill="#333333" fill-opacity="1.000000" fill-rule="evenodd"/>
	</g>
</svg>
