<svg width="1000.000000" height="562.000000" viewBox="0 0 1000 562" fill="none" xmlns="http://www.w3.org/2000/svg" xmlns:xlink="http://www.w3.org/1999/xlink">
	<desc>
			Created with Pixso.
	</desc>
	<defs>
		<clipPath id="clip71_373">
			<rect id="table" width="1000.000000" height="562.000000" fill="white" fill-opacity="0"/>
		</clipPath>
	</defs>
	<rect id="table" width="1000.000000" height="562.000000" fill="#B5FFE3" fill-opacity="1.000000"/>
	<g clip-path="url(#clip71_373)">
		<rect id="фрейм 13" width="626.000000" height="252.000000" transform="translate(187.000000 155.000000)" fill="#FFFFFF" fill-opacity="0"/>
		<rect id="фрейм 8" rx="20.000000" width="626.000000" height="63.000000" transform="translate(187.000000 155.000000)" fill="#9BE5C9" fill-opacity="1.000000"/>
		<path id="NAME" d="M220.366 182.173L220.366 196L216.582 196L216.582 174.892L220.366 174.892L227.526 188.84L227.526 174.892L231.211 174.892L231.211 196L227.526 196L220.366 182.173ZM243.519 192.776L237.851 192.776L237.071 196L233.317 196L238.744 174.892L242.778 174.892L247.985 196L244.261 196L243.519 192.776ZM238.592 189.643L242.808 189.643L240.855 181.03L240.636 181.03L238.592 189.643ZM258.461 190.142L258.681 190.142C259.236 187.599 259.798 185.064 260.369 182.536C260.939 180.003 261.501 177.465 262.056 174.922L266.491 174.922L266.491 196L263.456 196L263.456 182.301L263.267 182.301C262.773 184.592 262.256 186.88 261.716 189.166C261.181 191.446 260.674 193.724 260.194 196L256.819 196.03L253.935 182.332L253.716 182.332L253.716 196L250.651 196L250.651 174.922L255.086 174.922L258.461 190.142ZM273.402 192.435L283.914 192.435L283.914 196L269.406 196L269.406 174.892L283.914 174.892L283.914 178.457L273.402 178.457L273.402 183.664L283.914 183.664L283.914 187.198L273.402 187.198L273.402 192.435Z" fill="#333333" fill-opacity="1.000000" fill-rule="evenodd"/>
		<path id="AGE" d="M470.212 192.776L464.544 192.776L463.764 196L460.01 196L465.437 174.892L469.471 174.892L474.678 196L470.954 196L470.212 192.776ZM465.285 189.643L469.501 189.643L467.548 181.03L467.329 181.03L465.285 189.643ZM486.025 192.344C486.625 192.344 487.109 192.163 487.478 191.8C487.851 191.436 488.101 190.997 488.227 190.483L488.227 186.979L484.723 186.979L484.723 183.664L491.792 183.664L491.792 196L488.227 196L488.227 195.319C487.813 195.546 487.362 195.717 486.872 195.833C486.388 195.945 485.899 196 485.404 196L483.262 196C482.435 196 481.648 195.841 480.901 195.523C480.159 195.2 479.508 194.761 478.948 194.206C478.393 193.646 477.954 192.995 477.631 192.254C477.314 191.507 477.155 190.71 477.155 189.862L477.155 181.06C477.155 180.212 477.314 179.413 477.631 178.661C477.954 177.904 478.393 177.248 478.948 176.693C479.508 176.133 480.159 175.694 480.901 175.376C481.648 175.053 482.435 174.892 483.262 174.892L485.926 174.892C486.734 174.892 487.478 175.036 488.159 175.323C488.845 175.611 489.441 176.009 489.945 176.519C490.45 177.024 490.856 177.616 491.164 178.298C491.476 178.979 491.676 179.713 491.762 180.5L487.947 180.5C487.801 179.965 487.576 179.511 487.273 179.138C486.976 178.764 486.517 178.578 485.896 178.578L483.293 178.578C482.944 178.578 482.619 178.646 482.316 178.782C482.018 178.913 481.766 179.105 481.559 179.357C481.352 179.604 481.191 179.889 481.075 180.212C480.964 180.53 480.908 180.873 480.908 181.242L480.908 189.643C480.908 190.016 480.964 190.364 481.075 190.687C481.191 191.005 481.352 191.287 481.559 191.535C481.766 191.782 482.018 191.979 482.316 192.125C482.619 192.271 482.944 192.344 483.293 192.344L486.025 192.344ZM498.7 192.435L509.212 192.435L509.212 196L494.704 196L494.704 174.892L509.212 174.892L509.212 178.457L498.7 178.457L498.7 183.664L509.212 183.664L509.212 187.198L498.7 187.198L498.7 192.435Z" fill="#333333" fill-opacity="1.000000" fill-rule="evenodd"/>
		<path id="MAIL" d="M574.392 190.142L574.612 190.142C575.167 187.599 575.729 185.064 576.3 182.536C576.87 180.003 577.432 177.465 577.987 174.922L582.422 174.922L582.422 196L579.387 196L579.387 182.301L579.198 182.301C578.704 184.592 578.187 186.88 577.647 189.166C577.112 191.446 576.605 193.724 576.125 196L572.75 196.03L569.866 182.332L569.647 182.332L569.647 196L566.582 196L566.582 174.922L571.017 174.922L574.392 190.142ZM594.759 192.776L589.091 192.776L588.311 196L584.557 196L589.984 174.892L594.018 174.892L599.225 196L595.501 196L594.759 192.776ZM589.832 189.643L594.048 189.643L592.095 181.03L591.876 181.03L589.832 189.643ZM601.891 174.892L605.826 174.892L605.826 196L601.891 196L601.891 174.892ZM612.214 192.435L623.65 192.435L623.65 196L608.49 196L608.49 174.892L612.214 174.892L612.214 192.435Z" fill="#333333" fill-opacity="1.000000" fill-rule="evenodd"/>
		<path id="Alex" d="M226.004 255.776L220.336 255.776L219.556 259L215.802 259L221.229 237.892L225.263 237.892L230.47 259L226.746 259L226.004 255.776ZM221.077 252.643L225.293 252.643L223.34 244.03L223.121 244.03L221.077 252.643ZM233.015 237.892L236.67 237.892L236.67 259L233.015 259L233.015 237.892ZM239.241 248.836C239.241 248.069 239.385 247.35 239.673 246.679C239.965 246.008 240.349 245.415 240.823 244.9C241.298 244.38 241.845 243.972 242.466 243.674C243.086 243.371 243.707 243.22 244.327 243.22L247.862 243.22C248.669 243.22 249.386 243.392 250.011 243.735C250.642 244.073 251.169 244.507 251.593 245.036C252.017 245.561 252.347 246.149 252.584 246.8C252.827 247.451 252.948 248.086 252.948 248.707L252.948 252.711L242.897 252.711L242.897 253.543C242.897 254.29 243.104 254.817 243.518 255.125C243.931 255.433 244.479 255.587 245.16 255.587L252.388 255.587L252.388 259.061L244.358 259.061C243.656 259.061 242.995 258.922 242.375 258.644C241.754 258.367 241.212 257.991 240.748 257.517C240.283 257.037 239.915 256.467 239.643 255.806C239.375 255.145 239.241 254.421 239.241 253.634L239.241 248.836ZM242.927 249.759L249.345 249.759L249.345 249.608C249.345 248.8 249.138 248.134 248.725 247.61C248.316 247.08 247.758 246.815 247.052 246.815L245.13 246.815C244.802 246.815 244.501 246.893 244.229 247.05C243.962 247.206 243.735 247.408 243.548 247.655C243.366 247.902 243.217 248.197 243.101 248.541C242.985 248.879 242.927 249.234 242.927 249.608L242.927 249.759ZM263.048 251.129C263.775 252.431 264.509 253.743 265.251 255.064C265.992 256.386 266.716 257.698 267.423 259L263.699 259L260.975 253.634L258.242 259L254.526 259L258.712 251.189L254.526 243.22L258.242 243.22L260.975 248.737L263.699 243.22L267.453 243.22L263.048 251.129Z" fill="#333333" fill-opacity="1.000000" fill-rule="evenodd"/>
		<path id="25" d="M470.215 254.323C471.663 253.223 473.063 252.085 474.415 250.909C475.767 249.729 477.064 248.561 478.305 247.405C478.633 247.097 478.916 246.815 479.153 246.558C479.395 246.295 479.587 246.03 479.728 245.763C479.874 245.496 479.983 245.203 480.053 244.885C480.129 244.562 480.167 244.163 480.167 243.689C480.167 243.356 480.104 243.031 479.978 242.713C479.852 242.39 479.67 242.115 479.433 241.888C479.196 241.661 478.926 241.482 478.623 241.351C478.325 241.214 478.013 241.146 477.685 241.146L475.951 241.146C475.598 241.146 475.265 241.214 474.952 241.351C474.645 241.482 474.377 241.661 474.15 241.888C473.923 242.115 473.741 242.39 473.605 242.713C473.474 243.031 473.408 243.356 473.408 243.689L473.408 244.431L469.995 244.431L469.995 243.069C469.995 242.302 470.139 241.583 470.427 240.912C470.719 240.241 471.118 239.658 471.622 239.163C472.132 238.664 472.722 238.27 473.393 237.983C474.064 237.695 474.781 237.551 475.543 237.551L478.245 237.551C479.007 237.551 479.723 237.695 480.394 237.983C481.065 238.27 481.648 238.664 482.142 239.163C482.642 239.658 483.035 240.241 483.323 240.912C483.616 241.583 483.762 242.302 483.762 243.069L483.762 243.53C483.762 244.151 483.734 244.721 483.679 245.241C483.628 245.755 483.52 246.245 483.353 246.709C483.192 247.173 482.95 247.617 482.627 248.041C482.309 248.465 481.9 248.914 481.401 249.388C480.225 250.528 478.991 251.651 477.7 252.756C476.408 253.861 475.101 254.888 473.779 255.836L483.391 255.836L483.391 259L470.215 259L470.215 254.323ZM492.561 244.991C493.682 244.991 494.686 245.152 495.574 245.475C496.462 245.793 497.216 246.257 497.837 246.868C498.457 247.473 498.931 248.233 499.259 249.146C499.592 250.054 499.759 251.076 499.759 252.211C499.759 254.462 499.148 256.227 497.927 257.509C496.706 258.791 494.857 259.431 492.38 259.431C491.305 259.431 490.316 259.293 489.413 259.015C488.515 258.738 487.75 258.321 487.12 257.766C486.494 257.206 486.01 256.497 485.667 255.64C485.324 254.782 485.152 253.773 485.152 252.612L488.686 252.612C488.686 253.606 488.966 254.409 489.526 255.019C490.087 255.625 490.995 255.927 492.251 255.927C493.412 255.927 494.337 255.609 495.029 254.974C495.72 254.333 496.066 253.422 496.066 252.241C496.066 251.56 495.967 250.988 495.77 250.523C495.574 250.059 495.294 249.688 494.93 249.411C494.572 249.128 494.156 248.927 493.682 248.805C493.207 248.679 492.69 248.616 492.13 248.616C490.808 248.616 489.857 248.937 489.277 249.577L485.651 249.577L485.651 238.013L498.73 238.013L498.73 241.699L489.557 241.699L489.557 245.574C489.865 245.367 490.303 245.218 490.874 245.127C491.444 245.036 492.006 244.991 492.561 244.991Z" fill="#333333" fill-opacity="1.000000" fill-rule="evenodd"/>
		<path id="alex@mail.com" d="M565.931 248.215C565.991 247.554 566.14 246.923 566.377 246.323C566.615 245.723 566.96 245.195 567.414 244.741C567.873 244.287 568.444 243.921 569.125 243.644C569.806 243.361 570.591 243.22 571.479 243.22L573.34 243.22C574.269 243.22 575.079 243.376 575.77 243.689C576.466 243.997 577.041 244.406 577.495 244.915C577.949 245.42 578.29 245.998 578.517 246.648C578.744 247.299 578.858 247.955 578.858 248.616L578.858 259L570.056 259C569.369 259 568.756 258.871 568.217 258.614C567.682 258.357 567.233 258.016 566.869 257.592C566.511 257.168 566.244 256.666 566.067 256.086C565.891 255.506 565.802 254.885 565.802 254.224C565.802 253.584 565.896 252.986 566.082 252.431C566.269 251.871 566.536 251.389 566.885 250.985C567.238 250.581 567.677 250.261 568.201 250.024C568.731 249.787 569.327 249.668 569.988 249.668L575.293 249.668L575.293 249.358C575.293 248.985 575.26 248.639 575.195 248.321C575.134 247.998 575.021 247.723 574.854 247.496C574.693 247.269 574.445 247.09 574.112 246.959C573.784 246.823 573.34 246.754 572.78 246.754L572.008 246.754C571.181 246.754 570.591 246.873 570.237 247.11C569.889 247.347 569.652 247.716 569.526 248.215L565.931 248.215ZM569.125 254.224C569.125 254.764 569.233 255.163 569.45 255.42C569.667 255.677 569.909 255.806 570.177 255.806L575.293 255.806L575.293 252.643L570.177 252.643C569.909 252.643 569.667 252.779 569.45 253.051C569.233 253.319 569.125 253.71 569.125 254.224ZM581.465 237.892L585.12 237.892L585.12 259L581.465 259L581.465 237.892ZM587.691 248.836C587.691 248.069 587.835 247.35 588.123 246.679C588.415 246.008 588.799 245.415 589.273 244.9C589.747 244.38 590.295 243.972 590.916 243.674C591.536 243.371 592.157 243.22 592.777 243.22L596.312 243.22C597.119 243.22 597.836 243.392 598.461 243.735C599.092 244.073 599.619 244.507 600.043 245.036C600.467 245.561 600.797 246.149 601.034 246.8C601.277 247.451 601.398 248.086 601.398 248.707L601.398 252.711L591.347 252.711L591.347 253.543C591.347 254.29 591.554 254.817 591.968 255.125C592.381 255.433 592.929 255.587 593.61 255.587L600.838 255.587L600.838 259.061L592.808 259.061C592.106 259.061 591.445 258.922 590.825 258.644C590.204 258.367 589.662 257.991 589.198 257.517C588.733 257.037 588.365 256.467 588.093 255.806C587.825 255.145 587.691 254.421 587.691 253.634L587.691 248.836ZM591.377 249.759L597.795 249.759L597.795 249.608C597.795 248.8 597.588 248.134 597.175 247.61C596.766 247.08 596.208 246.815 595.502 246.815L593.58 246.815C593.252 246.815 592.951 246.893 592.679 247.05C592.412 247.206 592.185 247.408 591.998 247.655C591.816 247.902 591.667 248.197 591.551 248.541C591.435 248.879 591.377 249.234 591.377 249.608L591.377 249.759ZM611.498 251.129C612.225 252.431 612.959 253.743 613.701 255.064C614.442 256.386 615.166 257.698 615.873 259L612.149 259L609.425 253.634L606.692 259L602.976 259L607.162 251.189L602.976 243.22L606.692 243.22L609.425 248.737L612.149 243.22L615.903 243.22L611.498 251.129ZM635.245 255.216C634.791 255.508 634.347 255.604 633.913 255.503C633.479 255.397 632.972 255.138 632.391 254.724C632.124 254.557 631.862 254.381 631.604 254.194C631.347 254.007 631.105 253.811 630.878 253.604C630.131 254.245 629.344 254.565 628.516 254.565L626.042 254.565C625.542 254.565 625.075 254.462 624.641 254.255C624.207 254.048 623.829 253.765 623.506 253.407C623.188 253.044 622.936 252.625 622.749 252.151C622.568 251.676 622.477 251.169 622.477 250.629L622.477 248.026C622.477 247.673 622.547 247.279 622.689 246.845C622.835 246.411 623.052 246.015 623.34 245.657C623.632 245.294 623.991 244.988 624.414 244.741C624.838 244.494 625.328 244.37 625.883 244.37L627.714 244.37C628.168 244.37 628.564 244.423 628.902 244.529C629.245 244.63 629.48 244.761 629.606 244.923L629.606 244.06L632.081 244.06L632.081 250.478C632.081 250.685 632.225 250.927 632.513 251.205C632.805 251.482 633.108 251.724 633.421 251.931C633.501 251.992 633.597 252.04 633.708 252.075C633.824 252.105 633.923 252.027 634.003 251.84L634.003 246.724C634.003 246.023 633.865 245.362 633.587 244.741C633.31 244.121 632.936 243.578 632.467 243.114C632.003 242.65 631.461 242.279 630.84 242.001C630.224 241.719 629.573 241.578 628.887 241.578L625.822 241.578C625.161 241.578 624.525 241.724 623.915 242.017C623.304 242.304 622.767 242.685 622.303 243.159C621.839 243.634 621.465 244.181 621.183 244.802C620.905 245.422 620.766 246.063 620.766 246.724L620.766 251.75C620.766 252.491 620.895 253.162 621.152 253.763C621.415 254.363 621.763 254.88 622.197 255.314C622.631 255.748 623.14 256.084 623.726 256.321C624.316 256.558 624.932 256.677 625.572 256.677L628.857 256.677L635.124 256.646L635.124 259.53L625.141 259.53C624.026 259.53 622.992 259.323 622.038 258.909C621.089 258.495 620.279 257.928 619.608 257.206C618.937 256.48 618.41 255.637 618.027 254.678C617.643 253.715 617.451 252.685 617.451 251.591L617.451 246.293C617.451 245.218 617.689 244.196 618.163 243.228C618.637 242.254 619.278 241.406 620.085 240.685C620.893 239.958 621.823 239.388 622.878 238.974C623.932 238.56 625.017 238.354 626.132 238.354L628.615 238.354C629.75 238.354 630.827 238.56 631.846 238.974C632.871 239.388 633.771 239.958 634.548 240.685C635.325 241.406 635.941 242.254 636.395 243.228C636.849 244.196 637.076 245.218 637.076 246.293L637.076 250.349C637.076 251.051 637.061 251.646 637.031 252.135C637.001 252.62 636.932 253.044 636.826 253.407C636.726 253.765 636.549 254.086 636.297 254.368C636.049 254.646 635.699 254.928 635.245 255.216ZM629.296 248.646C629.296 248.132 629.155 247.703 628.872 247.36C628.595 247.017 628.166 246.845 627.586 246.845L626.753 246.845C626.279 246.845 625.89 247.017 625.587 247.36C625.29 247.703 625.141 248.132 625.141 248.646L625.141 250.137C625.141 250.299 625.166 250.478 625.217 250.675C625.267 250.872 625.355 251.053 625.482 251.22C625.608 251.386 625.762 251.522 625.943 251.628C626.13 251.729 626.38 251.78 626.692 251.78L627.934 251.78C628.181 251.78 628.395 251.724 628.577 251.613C628.764 251.497 628.907 251.356 629.008 251.189C629.114 251.023 629.187 250.841 629.228 250.645C629.273 250.448 629.296 250.279 629.296 250.137L629.296 248.646ZM655.363 246.754C654.828 246.754 654.394 246.823 654.061 246.959C653.733 247.09 653.481 247.269 653.304 247.496C653.128 247.723 653.009 247.993 652.949 248.306C652.888 248.614 652.858 248.954 652.858 249.328L652.858 259L649.225 259L649.225 249.358C649.225 248.985 649.195 248.639 649.134 248.321C649.074 247.998 648.955 247.723 648.778 247.496C648.602 247.269 648.347 247.09 648.014 246.959C647.686 246.823 647.242 246.754 646.682 246.754L645.94 246.754C645.405 246.754 644.966 246.823 644.623 246.959C644.28 247.09 644.015 247.269 643.829 247.496C643.647 247.723 643.518 247.998 643.443 248.321C643.372 248.639 643.337 248.985 643.337 249.358L643.337 259L639.711 259L639.711 243.22L643.337 243.22L643.337 243.689C644.144 243.376 645.002 243.22 645.91 243.22L647.272 243.22C648.1 243.22 648.834 243.344 649.475 243.591C650.115 243.838 650.663 244.179 651.117 244.613C651.612 244.179 652.189 243.838 652.85 243.591C653.516 243.344 654.26 243.22 655.083 243.22L656.695 243.22C657.608 243.22 658.415 243.376 659.117 243.689C659.818 243.997 660.401 244.406 660.865 244.915C661.329 245.42 661.68 245.998 661.917 246.648C662.159 247.299 662.28 247.955 662.28 248.616L662.28 259L658.685 259L658.685 249.358C658.685 248.985 658.653 248.639 658.587 248.321C658.526 247.998 658.403 247.723 658.216 247.496C658.029 247.269 657.77 247.09 657.437 246.959C657.109 246.823 656.677 246.754 656.142 246.754L655.363 246.754ZM664.418 248.215C664.478 247.554 664.627 246.923 664.864 246.323C665.102 245.723 665.447 245.195 665.901 244.741C666.36 244.287 666.931 243.921 667.612 243.644C668.293 243.361 669.078 243.22 669.966 243.22L671.827 243.22C672.756 243.22 673.566 243.376 674.257 243.689C674.953 243.997 675.528 244.406 675.982 244.915C676.436 245.42 676.777 245.998 677.004 246.648C677.231 247.299 677.345 247.955 677.345 248.616L677.345 259L668.543 259C667.856 259 667.243 258.871 666.704 258.614C666.169 258.357 665.72 258.016 665.356 257.592C664.998 257.168 664.731 256.666 664.554 256.086C664.378 255.506 664.289 254.885 664.289 254.224C664.289 253.584 664.383 252.986 664.569 252.431C664.756 251.871 665.023 251.389 665.372 250.985C665.725 250.581 666.164 250.261 666.688 250.024C667.218 249.787 667.814 249.668 668.475 249.668L673.78 249.668L673.78 249.358C673.78 248.985 673.747 248.639 673.682 248.321C673.621 247.998 673.508 247.723 673.341 247.496C673.18 247.269 672.932 247.09 672.599 246.959C672.271 246.823 671.827 246.754 671.267 246.754L670.495 246.754C669.668 246.754 669.078 246.873 668.724 247.11C668.376 247.347 668.139 247.716 668.013 248.215L664.418 248.215ZM667.612 254.224C667.612 254.764 667.72 255.163 667.937 255.42C668.154 255.677 668.396 255.806 668.664 255.806L673.78 255.806L673.78 252.643L668.664 252.643C668.396 252.643 668.154 252.779 667.937 253.051C667.72 253.319 667.612 253.71 667.612 254.224ZM683.516 259L679.853 259L679.853 243.22L683.516 243.22L683.516 259ZM683.516 241.517L679.853 241.517L679.853 237.892L683.516 237.892L683.516 241.517ZM686.338 237.892L689.993 237.892L689.993 259L686.338 259L686.338 237.892ZM693.034 259.711L693.034 256.147L696.719 256.147L696.719 259.711L693.034 259.711ZM705.584 255.435C706.078 255.435 706.502 255.317 706.855 255.08C707.208 254.842 707.435 254.517 707.536 254.103L711.23 254.103C711.043 255.592 710.463 256.78 709.489 257.668C708.52 258.556 707.218 259 705.584 259L704.312 259C703.424 259 702.617 258.866 701.89 258.599C701.169 258.331 700.561 257.945 700.066 257.441C699.572 256.931 699.183 256.321 698.901 255.609C698.623 254.893 698.484 254.101 698.484 253.233L698.484 248.987C698.484 248.099 698.623 247.304 698.901 246.603C699.183 245.897 699.572 245.296 700.066 244.802C700.561 244.307 701.169 243.921 701.89 243.644C702.617 243.361 703.424 243.22 704.312 243.22L705.584 243.22C707.259 243.22 708.581 243.664 709.549 244.552C710.523 245.44 711.083 246.661 711.23 248.215L707.566 248.215C707.445 247.756 707.218 247.403 706.885 247.156C706.557 246.908 706.123 246.785 705.584 246.785L704.312 246.785C703.651 246.785 703.109 246.997 702.685 247.42C702.261 247.844 702.049 248.397 702.049 249.078L702.049 253.112C702.049 253.793 702.261 254.351 702.685 254.784C703.109 255.218 703.651 255.435 704.312 255.435L705.584 255.435ZM719.724 243.22C720.632 243.22 721.442 243.361 722.153 243.644C722.869 243.921 723.48 244.307 723.984 244.802C724.489 245.296 724.875 245.897 725.142 246.603C725.415 247.304 725.551 248.099 725.551 248.987L725.551 253.233C725.551 254.101 725.415 254.893 725.142 255.609C724.875 256.321 724.489 256.931 723.984 257.441C723.48 257.945 722.869 258.331 722.153 258.599C721.442 258.866 720.632 259 719.724 259L718.452 259C717.564 259 716.757 258.866 716.03 258.599C715.309 258.331 714.693 257.945 714.183 257.441C713.679 256.931 713.298 256.321 713.041 255.609C712.783 254.893 712.655 254.101 712.655 253.233L712.655 248.987C712.655 248.099 712.783 247.304 713.041 246.603C713.298 245.897 713.679 245.296 714.183 244.802C714.693 244.307 715.309 243.921 716.03 243.644C716.757 243.361 717.564 243.22 718.452 243.22L719.724 243.22ZM718.452 246.785C717.811 246.785 717.269 246.997 716.825 247.42C716.381 247.844 716.159 248.397 716.159 249.078L716.159 253.112C716.159 253.793 716.381 254.351 716.825 254.784C717.269 255.218 717.811 255.435 718.452 255.435L719.724 255.435C720.384 255.435 720.927 255.218 721.351 254.784C721.775 254.351 721.986 253.793 721.986 253.112L721.986 249.078C721.986 248.397 721.775 247.844 721.351 247.42C720.927 246.997 720.384 246.785 719.724 246.785L718.452 246.785ZM743.713 246.754C743.178 246.754 742.744 246.823 742.411 246.959C742.083 247.09 741.831 247.269 741.654 247.496C741.478 247.723 741.359 247.993 741.299 248.306C741.238 248.614 741.208 248.954 741.208 249.328L741.208 259L737.575 259L737.575 249.358C737.575 248.985 737.545 248.639 737.484 248.321C737.424 247.998 737.305 247.723 737.128 247.496C736.952 247.269 736.697 247.09 736.364 246.959C736.036 246.823 735.592 246.754 735.032 246.754L734.29 246.754C733.755 246.754 733.316 246.823 732.973 246.959C732.63 247.09 732.365 247.269 732.179 247.496C731.997 247.723 731.868 247.998 731.793 248.321C731.722 248.639 731.687 248.985 731.687 249.358L731.687 259L728.062 259L728.062 243.22L731.687 243.22L731.687 243.689C732.494 243.376 733.352 243.22 734.26 243.22L735.622 243.22C736.45 243.22 737.184 243.344 737.825 243.591C738.465 243.838 739.013 244.179 739.467 244.613C739.961 244.179 740.539 243.838 741.2 243.591C741.866 243.344 742.61 243.22 743.433 243.22L745.045 243.22C745.958 243.22 746.765 243.376 747.467 243.689C748.168 243.997 748.751 244.406 749.215 244.915C749.679 245.42 750.03 245.998 750.267 246.648C750.509 247.299 750.63 247.955 750.63 248.616L750.63 259L747.035 259L747.035 249.358C747.035 248.985 747.003 248.639 746.937 248.321C746.876 247.998 746.753 247.723 746.566 247.496C746.379 247.269 746.12 247.09 745.787 246.959C745.459 246.823 745.027 246.754 744.492 246.754L743.713 246.754Z" fill="#69AE94" fill-opacity="1.000000" fill-rule="evenodd"/>
		<rect id="фрейм 11" width="625.000000" height="62.000000" transform="translate(187.500000 218.500000)" stroke="#9BE5C9" stroke-opacity="1.000000" stroke-width="1.000000"/>
		<path id="Tatyana" d="M220.949 304.797L215.56 304.797L215.56 300.892L230.19 300.892L230.19 304.797L224.733 304.797L224.733 322L220.949 322L220.949 304.797ZM231.617 311.215C231.677 310.554 231.826 309.923 232.063 309.323C232.301 308.723 232.646 308.195 233.1 307.741C233.559 307.287 234.13 306.921 234.811 306.644C235.492 306.361 236.276 306.22 237.165 306.22L239.026 306.22C239.955 306.22 240.765 306.376 241.456 306.689C242.152 306.997 242.727 307.406 243.181 307.915C243.635 308.42 243.976 308.998 244.203 309.648C244.43 310.299 244.544 310.955 244.544 311.616L244.544 322L235.742 322C235.055 322 234.442 321.871 233.903 321.614C233.368 321.357 232.919 321.016 232.555 320.592C232.197 320.168 231.93 319.666 231.753 319.086C231.577 318.506 231.488 317.885 231.488 317.224C231.488 316.584 231.582 315.986 231.768 315.431C231.955 314.871 232.222 314.389 232.571 313.985C232.924 313.581 233.363 313.261 233.887 313.024C234.417 312.787 235.013 312.668 235.674 312.668L240.979 312.668L240.979 312.358C240.979 311.985 240.946 311.639 240.881 311.321C240.82 310.998 240.707 310.723 240.54 310.496C240.379 310.269 240.131 310.09 239.798 309.959C239.47 309.823 239.026 309.754 238.466 309.754L237.694 309.754C236.867 309.754 236.276 309.873 235.923 310.11C235.575 310.347 235.338 310.716 235.212 311.215L231.617 311.215ZM234.811 317.224C234.811 317.764 234.919 318.163 235.136 318.42C235.353 318.677 235.595 318.806 235.863 318.806L240.979 318.806L240.979 315.643L235.863 315.643C235.595 315.643 235.353 315.779 235.136 316.051C234.919 316.319 234.811 316.71 234.811 317.224ZM246.25 306.22L249.164 306.22L249.164 300.892L252.819 300.892L252.819 306.22L255.733 306.22L255.733 309.785L252.819 309.785L252.819 322L249.164 322L249.164 309.785L246.25 309.785L246.25 306.22ZM263.39 327.396L259.984 327.396L261.566 321.939L256.79 306.22L260.226 306.22L263.238 316.293L266.213 306.22L269.687 306.22L263.39 327.396ZM270.956 311.215C271.016 310.554 271.165 309.923 271.402 309.323C271.64 308.723 271.985 308.195 272.439 307.741C272.898 307.287 273.469 306.921 274.15 306.644C274.831 306.361 275.616 306.22 276.504 306.22L278.365 306.22C279.294 306.22 280.104 306.376 280.795 306.689C281.491 306.997 282.066 307.406 282.52 307.915C282.974 308.42 283.315 308.998 283.542 309.648C283.769 310.299 283.883 310.955 283.883 311.616L283.883 322L275.081 322C274.394 322 273.781 321.871 273.242 321.614C272.707 321.357 272.258 321.016 271.894 320.592C271.536 320.168 271.269 319.666 271.092 319.086C270.916 318.506 270.827 317.885 270.827 317.224C270.827 316.584 270.921 315.986 271.107 315.431C271.294 314.871 271.561 314.389 271.91 313.985C272.263 313.581 272.702 313.261 273.226 313.024C273.756 312.787 274.352 312.668 275.013 312.668L280.318 312.668L280.318 312.358C280.318 311.985 280.285 311.639 280.22 311.321C280.159 310.998 280.046 310.723 279.879 310.496C279.718 310.269 279.47 310.09 279.137 309.959C278.809 309.823 278.365 309.754 277.805 309.754L277.033 309.754C276.206 309.754 275.616 309.873 275.262 310.11C274.914 310.347 274.677 310.716 274.551 311.215L270.956 311.215ZM274.15 317.224C274.15 317.764 274.258 318.163 274.475 318.42C274.692 318.677 274.934 318.806 275.202 318.806L280.318 318.806L280.318 315.643L275.202 315.643C274.934 315.643 274.692 315.779 274.475 316.051C274.258 316.319 274.15 316.71 274.15 317.224ZM292.809 309.754C292.274 309.754 291.835 309.823 291.492 309.959C291.149 310.09 290.884 310.269 290.698 310.496C290.516 310.723 290.387 310.998 290.312 311.321C290.241 311.639 290.206 311.985 290.206 312.358L290.206 322L286.581 322L286.581 306.22L290.206 306.22L290.206 306.621C290.927 306.354 291.702 306.22 292.529 306.22L294.141 306.22C295.049 306.22 295.854 306.376 296.556 306.689C297.262 306.997 297.847 307.406 298.311 307.915C298.776 308.42 299.126 308.998 299.363 309.648C299.606 310.299 299.727 310.955 299.727 311.616L299.727 322L296.094 322L296.094 312.358C296.094 311.985 296.064 311.639 296.003 311.321C295.943 310.998 295.824 310.723 295.647 310.496C295.471 310.269 295.216 310.09 294.883 309.959C294.555 309.823 294.111 309.754 293.551 309.754L292.809 309.754ZM301.646 311.215C301.706 310.554 301.855 309.923 302.092 309.323C302.33 308.723 302.675 308.195 303.129 307.741C303.588 307.287 304.159 306.921 304.84 306.644C305.521 306.361 306.305 306.22 307.194 306.22L309.055 306.22C309.984 306.22 310.794 306.376 311.485 306.689C312.181 306.997 312.756 307.406 313.21 307.915C313.664 308.42 314.005 308.998 314.232 309.648C314.459 310.299 314.573 310.955 314.573 311.616L314.573 322L305.771 322C305.084 322 304.471 321.871 303.932 321.614C303.397 321.357 302.948 321.016 302.584 320.592C302.226 320.168 301.959 319.666 301.782 319.086C301.606 318.506 301.517 317.885 301.517 317.224C301.517 316.584 301.611 315.986 301.797 315.431C301.984 314.871 302.251 314.389 302.6 313.985C302.953 313.581 303.392 313.261 303.916 313.024C304.446 312.787 305.042 312.668 305.703 312.668L311.008 312.668L311.008 312.358C311.008 311.985 310.975 311.639 310.91 311.321C310.849 310.998 310.736 310.723 310.569 310.496C310.408 310.269 310.16 310.09 309.827 309.959C309.499 309.823 309.055 309.754 308.495 309.754L307.723 309.754C306.896 309.754 306.305 309.873 305.952 310.11C305.604 310.347 305.367 310.716 305.241 311.215L301.646 311.215ZM304.84 317.224C304.84 317.764 304.948 318.163 305.165 318.42C305.382 318.677 305.624 318.806 305.892 318.806L311.008 318.806L311.008 315.643L305.892 315.643C305.624 315.643 305.382 315.779 305.165 316.051C304.948 316.319 304.84 316.71 304.84 317.224Z" fill="#333333" fill-opacity="1.000000" fill-rule="evenodd"/>
		<path id="23" d="M470.571 317.323C472.019 316.223 473.419 315.085 474.772 313.909C476.124 312.729 477.421 311.561 478.662 310.405C478.99 310.098 479.272 309.815 479.509 309.558C479.752 309.295 479.943 309.03 480.085 308.763C480.231 308.496 480.339 308.203 480.41 307.885C480.486 307.562 480.524 307.163 480.524 306.689C480.524 306.356 480.46 306.031 480.334 305.713C480.208 305.39 480.027 305.115 479.789 304.888C479.552 304.661 479.282 304.482 478.98 304.351C478.682 304.214 478.369 304.146 478.041 304.146L476.308 304.146C475.955 304.146 475.622 304.214 475.309 304.351C475.001 304.482 474.734 304.661 474.507 304.888C474.28 305.115 474.098 305.39 473.962 305.713C473.831 306.031 473.765 306.356 473.765 306.689L473.765 307.431L470.352 307.431L470.352 306.069C470.352 305.302 470.495 304.583 470.783 303.912C471.076 303.241 471.474 302.658 471.979 302.163C472.488 301.664 473.079 301.27 473.75 300.983C474.421 300.695 475.137 300.551 475.899 300.551L478.601 300.551C479.363 300.551 480.08 300.695 480.751 300.983C481.422 301.27 482.004 301.664 482.499 302.163C482.998 302.658 483.392 303.241 483.68 303.912C483.972 304.583 484.118 305.302 484.118 306.069L484.118 306.53C484.118 307.151 484.091 307.721 484.035 308.241C483.985 308.755 483.876 309.245 483.71 309.709C483.548 310.173 483.306 310.617 482.983 311.041C482.665 311.465 482.257 311.914 481.757 312.388C480.582 313.528 479.348 314.651 478.056 315.756C476.765 316.861 475.458 317.888 474.136 318.836L483.748 318.836L483.748 322L470.571 322L470.571 317.323ZM499.366 304.517C499.74 305.612 499.828 306.682 499.631 307.726C499.434 308.771 498.892 309.694 498.004 310.496L497.822 310.716L498.004 310.905C498.564 311.48 498.978 312.108 499.245 312.789C500.032 314.671 500.032 316.553 499.245 318.435C498.978 319.096 498.599 319.692 498.11 320.221C497.625 320.746 497.063 321.152 496.422 321.44C495.948 321.667 495.473 321.828 494.999 321.924C494.525 322.015 494.048 322.076 493.569 322.106C493.094 322.136 492.62 322.146 492.146 322.136C491.672 322.126 491.175 322.121 490.655 322.121C489.913 322.121 489.212 321.977 488.551 321.69C487.89 321.402 487.31 321.006 486.81 320.501C486.316 319.992 485.93 319.402 485.652 318.73C485.375 318.059 485.236 317.35 485.236 316.604L485.236 315.983L488.581 315.983C488.581 316.336 488.642 316.657 488.763 316.944C488.889 317.298 489.086 317.578 489.353 317.784C489.626 317.991 489.936 318.158 490.284 318.284C490.637 318.405 490.998 318.481 491.366 318.511C491.74 318.541 492.083 318.546 492.396 318.526C492.83 318.486 493.269 318.425 493.713 318.344C494.157 318.259 494.565 318.082 494.939 317.815C495.393 317.462 495.685 316.965 495.817 316.324C495.953 315.683 495.938 315.055 495.771 314.439C495.484 313.365 494.719 312.714 493.478 312.487C492.983 312.36 492.323 312.297 491.495 312.297L490.413 312.297L490.413 309.104L491.495 309.104C492.323 309.104 492.983 309.04 493.478 308.914C494.099 308.834 494.585 308.649 494.939 308.362C495.186 308.155 495.38 307.903 495.521 307.605C495.668 307.302 495.746 306.987 495.756 306.659C495.766 306.326 495.703 306 495.567 305.683C495.436 305.36 495.226 305.065 494.939 304.797C494.712 304.59 494.396 304.426 493.993 304.305C493.589 304.179 493.153 304.106 492.683 304.086C492.219 304.06 491.74 304.086 491.245 304.161C490.751 304.232 490.307 304.371 489.913 304.578C489.52 304.785 489.199 305.065 488.952 305.418C488.705 305.766 488.581 306.19 488.581 306.689L485.236 306.689L485.236 306.038C485.236 305.145 485.42 304.353 485.789 303.662C486.162 302.971 486.649 302.398 487.249 301.944C487.85 301.49 488.536 301.144 489.308 300.907C490.085 300.67 490.864 300.551 491.646 300.551C492.04 300.551 492.355 300.551 492.592 300.551C492.83 300.551 493.011 300.556 493.137 300.566C493.264 300.577 493.352 300.582 493.402 300.582C493.453 300.582 493.478 300.582 493.478 300.582C493.725 300.602 493.977 300.622 494.235 300.642C494.497 300.662 494.752 300.693 494.999 300.733C495.453 300.839 495.912 301 496.377 301.217C496.841 301.434 497.25 301.697 497.603 302.004C497.996 302.337 498.347 302.721 498.655 303.155C498.968 303.589 499.205 304.043 499.366 304.517Z" fill="#333333" fill-opacity="1.000000" fill-rule="evenodd"/>
		<path id="tata@mail.com" d="M565.56 306.22L568.474 306.22L568.474 300.892L572.129 300.892L572.129 306.22L575.043 306.22L575.043 309.785L572.129 309.785L572.129 322L568.474 322L568.474 309.785L565.56 309.785L565.56 306.22ZM576.471 311.215C576.531 310.554 576.68 309.923 576.917 309.323C577.155 308.723 577.5 308.195 577.954 307.741C578.413 307.287 578.984 306.921 579.665 306.644C580.346 306.361 581.13 306.22 582.018 306.22L583.88 306.22C584.809 306.22 585.619 306.376 586.31 306.689C587.006 306.997 587.581 307.406 588.035 307.915C588.489 308.42 588.83 308.998 589.057 309.648C589.284 310.299 589.398 310.955 589.398 311.616L589.398 322L580.596 322C579.909 322 579.296 321.871 578.757 321.614C578.222 321.357 577.773 321.016 577.409 320.592C577.051 320.168 576.784 319.666 576.607 319.086C576.431 318.506 576.342 317.885 576.342 317.224C576.342 316.584 576.436 315.986 576.622 315.431C576.809 314.871 577.076 314.389 577.424 313.985C577.778 313.581 578.217 313.261 578.741 313.024C579.271 312.787 579.867 312.668 580.528 312.668L585.833 312.668L585.833 312.358C585.833 311.985 585.8 311.639 585.735 311.321C585.674 310.998 585.56 310.723 585.394 310.496C585.233 310.269 584.985 310.09 584.652 309.959C584.324 309.823 583.88 309.754 583.32 309.754L582.548 309.754C581.721 309.754 581.13 309.873 580.777 310.11C580.429 310.347 580.192 310.716 580.066 311.215L576.471 311.215ZM579.665 317.224C579.665 317.764 579.773 318.163 579.99 318.42C580.207 318.677 580.449 318.806 580.717 318.806L585.833 318.806L585.833 315.643L580.717 315.643C580.449 315.643 580.207 315.779 579.99 316.051C579.773 316.319 579.665 316.71 579.665 317.224ZM591.104 306.22L594.018 306.22L594.018 300.892L597.673 300.892L597.673 306.22L600.587 306.22L600.587 309.785L597.673 309.785L597.673 322L594.018 322L594.018 309.785L591.104 309.785L591.104 306.22ZM602.015 311.215C602.075 310.554 602.224 309.923 602.461 309.323C602.699 308.723 603.044 308.195 603.498 307.741C603.957 307.287 604.528 306.921 605.209 306.644C605.89 306.361 606.674 306.22 607.562 306.22L609.424 306.22C610.353 306.22 611.163 306.376 611.854 306.689C612.55 306.997 613.125 307.406 613.579 307.915C614.033 308.42 614.374 308.998 614.601 309.648C614.828 310.299 614.942 310.955 614.942 311.616L614.942 322L606.14 322C605.453 322 604.84 321.871 604.301 321.614C603.766 321.357 603.317 321.016 602.953 320.592C602.595 320.168 602.328 319.666 602.151 319.086C601.975 318.506 601.886 317.885 601.886 317.224C601.886 316.584 601.98 315.986 602.166 315.431C602.353 314.871 602.62 314.389 602.969 313.985C603.322 313.581 603.761 313.261 604.285 313.024C604.815 312.787 605.411 312.668 606.072 312.668L611.377 312.668L611.377 312.358C611.377 311.985 611.344 311.639 611.279 311.321C611.218 310.998 611.104 310.723 610.938 310.496C610.777 310.269 610.529 310.09 610.196 309.959C609.868 309.823 609.424 309.754 608.864 309.754L608.092 309.754C607.265 309.754 606.674 309.873 606.321 310.11C605.973 310.347 605.736 310.716 605.61 311.215L602.015 311.215ZM605.209 317.224C605.209 317.764 605.317 318.163 605.534 318.42C605.751 318.677 605.993 318.806 606.261 318.806L611.377 318.806L611.377 315.643L606.261 315.643C605.993 315.643 605.751 315.779 605.534 316.051C605.317 316.319 605.209 316.71 605.209 317.224ZM634.873 318.216C634.419 318.508 633.975 318.604 633.541 318.503C633.107 318.397 632.6 318.138 632.019 317.724C631.752 317.557 631.49 317.381 631.232 317.194C630.975 317.007 630.733 316.811 630.506 316.604C629.759 317.245 628.972 317.565 628.144 317.565L625.67 317.565C625.17 317.565 624.703 317.462 624.269 317.255C623.835 317.048 623.457 316.765 623.134 316.407C622.816 316.044 622.564 315.625 622.377 315.151C622.196 314.676 622.105 314.169 622.105 313.629L622.105 311.026C622.105 310.673 622.175 310.279 622.317 309.845C622.463 309.411 622.68 309.015 622.968 308.657C623.26 308.294 623.619 307.988 624.042 307.741C624.466 307.494 624.956 307.37 625.511 307.37L627.342 307.37C627.796 307.37 628.192 307.423 628.53 307.529C628.873 307.63 629.108 307.761 629.234 307.923L629.234 307.06L631.709 307.06L631.709 313.478C631.709 313.685 631.853 313.927 632.141 314.205C632.433 314.482 632.736 314.724 633.049 314.931C633.129 314.992 633.225 315.04 633.336 315.075C633.452 315.105 633.551 315.027 633.631 314.84L633.631 309.724C633.631 309.023 633.493 308.362 633.215 307.741C632.938 307.121 632.564 306.578 632.095 306.114C631.631 305.65 631.089 305.279 630.468 305.001C629.852 304.719 629.201 304.578 628.515 304.578L625.45 304.578C624.789 304.578 624.153 304.724 623.543 305.017C622.932 305.304 622.395 305.685 621.931 306.159C621.467 306.634 621.093 307.181 620.811 307.802C620.533 308.422 620.394 309.063 620.394 309.724L620.394 314.75C620.394 315.491 620.523 316.162 620.78 316.763C621.043 317.363 621.391 317.88 621.825 318.314C622.259 318.748 622.768 319.084 623.354 319.321C623.944 319.558 624.56 319.677 625.2 319.677L628.485 319.677L634.752 319.646L634.752 322.53L624.769 322.53C623.654 322.53 622.62 322.323 621.666 321.909C620.717 321.495 619.907 320.928 619.236 320.206C618.565 319.48 618.038 318.637 617.655 317.678C617.271 316.715 617.079 315.685 617.079 314.591L617.079 309.293C617.079 308.218 617.317 307.196 617.791 306.228C618.265 305.254 618.906 304.406 619.713 303.685C620.521 302.958 621.451 302.388 622.506 301.974C623.56 301.56 624.645 301.354 625.76 301.354L628.243 301.354C629.378 301.354 630.455 301.56 631.474 301.974C632.499 302.388 633.399 302.958 634.176 303.685C634.953 304.406 635.569 305.254 636.023 306.228C636.477 307.196 636.704 308.218 636.704 309.293L636.704 313.349C636.704 314.051 636.689 314.646 636.659 315.135C636.629 315.62 636.56 316.044 636.454 316.407C636.354 316.765 636.177 317.086 635.925 317.368C635.677 317.646 635.327 317.928 634.873 318.216ZM628.924 311.646C628.924 311.132 628.783 310.703 628.5 310.36C628.223 310.017 627.794 309.845 627.214 309.845L626.381 309.845C625.907 309.845 625.518 310.017 625.215 310.36C624.918 310.703 624.769 311.132 624.769 311.646L624.769 313.137C624.769 313.299 624.794 313.478 624.845 313.675C624.895 313.872 624.983 314.053 625.109 314.22C625.236 314.386 625.39 314.522 625.571 314.628C625.758 314.729 626.008 314.78 626.32 314.78L627.562 314.78C627.809 314.78 628.023 314.724 628.205 314.613C628.392 314.497 628.535 314.356 628.636 314.189C628.742 314.023 628.815 313.841 628.856 313.645C628.901 313.448 628.924 313.279 628.924 313.137L628.924 311.646ZM654.991 309.754C654.456 309.754 654.022 309.823 653.689 309.959C653.361 310.09 653.109 310.269 652.932 310.496C652.756 310.723 652.637 310.993 652.577 311.306C652.516 311.614 652.486 311.954 652.486 312.328L652.486 322L648.853 322L648.853 312.358C648.853 311.985 648.823 311.639 648.762 311.321C648.702 310.998 648.583 310.723 648.406 310.496C648.23 310.269 647.975 310.09 647.642 309.959C647.314 309.823 646.87 309.754 646.31 309.754L645.568 309.754C645.033 309.754 644.594 309.823 644.251 309.959C643.908 310.09 643.643 310.269 643.457 310.496C643.275 310.723 643.146 310.998 643.071 311.321C643 311.639 642.965 311.985 642.965 312.358L642.965 322L639.339 322L639.339 306.22L642.965 306.22L642.965 306.689C643.772 306.376 644.63 306.22 645.538 306.22L646.9 306.22C647.728 306.22 648.462 306.344 649.103 306.591C649.743 306.838 650.291 307.179 650.745 307.613C651.24 307.179 651.817 306.838 652.478 306.591C653.144 306.344 653.888 306.22 654.711 306.22L656.323 306.22C657.236 306.22 658.043 306.376 658.745 306.689C659.446 306.997 660.029 307.406 660.493 307.915C660.957 308.42 661.308 308.998 661.545 309.648C661.787 310.299 661.908 310.955 661.908 311.616L661.908 322L658.313 322L658.313 312.358C658.313 311.985 658.281 311.639 658.215 311.321C658.154 310.998 658.031 310.723 657.844 310.496C657.657 310.269 657.398 310.09 657.065 309.959C656.737 309.823 656.305 309.754 655.77 309.754L654.991 309.754ZM664.046 311.215C664.106 310.554 664.255 309.923 664.492 309.323C664.73 308.723 665.075 308.195 665.529 307.741C665.988 307.287 666.559 306.921 667.24 306.644C667.921 306.361 668.706 306.22 669.594 306.22L671.455 306.22C672.384 306.22 673.194 306.376 673.885 306.689C674.581 306.997 675.156 307.406 675.61 307.915C676.064 308.42 676.405 308.998 676.632 309.648C676.859 310.299 676.973 310.955 676.973 311.616L676.973 322L668.171 322C667.484 322 666.871 321.871 666.332 321.614C665.797 321.357 665.348 321.016 664.984 320.592C664.626 320.168 664.359 319.666 664.182 319.086C664.006 318.506 663.917 317.885 663.917 317.224C663.917 316.584 664.011 315.986 664.197 315.431C664.384 314.871 664.651 314.389 665 313.985C665.353 313.581 665.792 313.261 666.316 313.024C666.846 312.787 667.442 312.668 668.103 312.668L673.408 312.668L673.408 312.358C673.408 311.985 673.375 311.639 673.31 311.321C673.249 310.998 673.135 310.723 672.969 310.496C672.808 310.269 672.56 310.09 672.227 309.959C671.899 309.823 671.455 309.754 670.895 309.754L670.123 309.754C669.296 309.754 668.706 309.873 668.352 310.11C668.004 310.347 667.767 310.716 667.641 311.215L664.046 311.215ZM667.24 317.224C667.24 317.764 667.348 318.163 667.565 318.42C667.782 318.677 668.024 318.806 668.292 318.806L673.408 318.806L673.408 315.643L668.292 315.643C668.024 315.643 667.782 315.779 667.565 316.051C667.348 316.319 667.24 316.71 667.24 317.224ZM683.144 322L679.481 322L679.481 306.22L683.144 306.22L683.144 322ZM683.144 304.517L679.481 304.517L679.481 300.892L683.144 300.892L683.144 304.517ZM685.966 300.892L689.621 300.892L689.621 322L685.966 322L685.966 300.892ZM692.662 322.711L692.662 319.147L696.347 319.147L696.347 322.711L692.662 322.711ZM705.212 318.435C705.706 318.435 706.13 318.317 706.483 318.08C706.836 317.842 707.063 317.517 707.164 317.103L710.858 317.103C710.671 318.592 710.091 319.78 709.117 320.668C708.148 321.556 706.846 322 705.212 322L703.94 322C703.052 322 702.245 321.866 701.518 321.599C700.797 321.331 700.189 320.945 699.694 320.441C699.2 319.931 698.811 319.321 698.529 318.609C698.251 317.893 698.112 317.101 698.112 316.233L698.112 311.987C698.112 311.099 698.251 310.304 698.529 309.603C698.811 308.897 699.2 308.296 699.694 307.802C700.189 307.307 700.797 306.921 701.518 306.644C702.245 306.361 703.052 306.22 703.94 306.22L705.212 306.22C706.887 306.22 708.209 306.664 709.177 307.552C710.151 308.44 710.711 309.661 710.858 311.215L707.194 311.215C707.073 310.756 706.846 310.403 706.513 310.156C706.185 309.908 705.751 309.785 705.212 309.785L703.94 309.785C703.279 309.785 702.737 309.997 702.313 310.42C701.889 310.844 701.677 311.397 701.677 312.078L701.677 316.112C701.677 316.793 701.889 317.35 702.313 317.784C702.737 318.218 703.279 318.435 703.94 318.435L705.212 318.435ZM719.351 306.22C720.26 306.22 721.069 306.361 721.781 306.644C722.497 306.921 723.108 307.307 723.612 307.802C724.117 308.296 724.503 308.897 724.77 309.603C725.043 310.304 725.179 311.099 725.179 311.987L725.179 316.233C725.179 317.101 725.043 317.893 724.77 318.609C724.503 319.321 724.117 319.931 723.612 320.441C723.108 320.945 722.497 321.331 721.781 321.599C721.069 321.866 720.26 322 719.351 322L718.08 322C717.192 322 716.385 321.866 715.658 321.599C714.937 321.331 714.321 320.945 713.811 320.441C713.307 319.931 712.926 319.321 712.669 318.609C712.411 317.893 712.283 317.101 712.283 316.233L712.283 311.987C712.283 311.099 712.411 310.304 712.669 309.603C712.926 308.897 713.307 308.296 713.811 307.802C714.321 307.307 714.937 306.921 715.658 306.644C716.385 306.361 717.192 306.22 718.08 306.22L719.351 306.22ZM718.08 309.785C717.439 309.785 716.897 309.997 716.453 310.42C716.009 310.844 715.787 311.397 715.787 312.078L715.787 316.112C715.787 316.793 716.009 317.35 716.453 317.784C716.897 318.218 717.439 318.435 718.08 318.435L719.351 318.435C720.012 318.435 720.555 318.218 720.979 317.784C721.402 317.35 721.614 316.793 721.614 316.112L721.614 312.078C721.614 311.397 721.402 310.844 720.979 310.42C720.555 309.997 720.012 309.785 719.351 309.785L718.08 309.785ZM743.341 309.754C742.806 309.754 742.372 309.823 742.039 309.959C741.711 310.09 741.459 310.269 741.282 310.496C741.106 310.723 740.987 310.993 740.927 311.306C740.866 311.614 740.836 311.954 740.836 312.328L740.836 322L737.203 322L737.203 312.358C737.203 311.985 737.173 311.639 737.112 311.321C737.052 310.998 736.933 310.723 736.756 310.496C736.58 310.269 736.325 310.09 735.992 309.959C735.664 309.823 735.22 309.754 734.66 309.754L733.918 309.754C733.383 309.754 732.944 309.823 732.601 309.959C732.258 310.09 731.993 310.269 731.807 310.496C731.625 310.723 731.496 310.998 731.421 311.321C731.35 311.639 731.315 311.985 731.315 312.358L731.315 322L727.69 322L727.69 306.22L731.315 306.22L731.315 306.689C732.122 306.376 732.98 306.22 733.888 306.22L735.25 306.22C736.078 306.22 736.812 306.344 737.453 306.591C738.094 306.838 738.641 307.179 739.095 307.613C739.589 307.179 740.167 306.838 740.828 306.591C741.494 306.344 742.238 306.22 743.061 306.22L744.673 306.22C745.586 306.22 746.393 306.376 747.095 306.689C747.796 306.997 748.379 307.406 748.843 307.915C749.307 308.42 749.658 308.998 749.895 309.648C750.137 310.299 750.258 310.955 750.258 311.616L750.258 322L746.663 322L746.663 312.358C746.663 311.985 746.631 311.639 746.565 311.321C746.504 310.998 746.381 310.723 746.194 310.496C746.007 310.269 745.748 310.09 745.415 309.959C745.087 309.823 744.655 309.754 744.12 309.754L743.341 309.754Z" fill="#69AE94" fill-opacity="1.000000" fill-rule="evenodd"/>
		<rect id="фрейм 12" width="625.000000" height="62.000000" transform="translate(187.500000 281.500000)" stroke="#9BE5C9" stroke-opacity="1.000000" stroke-width="1.000000"/>
		<path id="Tory" d="M220.949 367.797L215.56 367.797L215.56 363.892L230.19 363.892L230.19 367.797L224.733 367.797L224.733 385L220.949 385L220.949 367.797ZM238.655 369.22C239.564 369.22 240.374 369.361 241.085 369.644C241.801 369.921 242.412 370.307 242.916 370.802C243.421 371.296 243.807 371.897 244.074 372.603C244.347 373.304 244.483 374.099 244.483 374.987L244.483 379.233C244.483 380.101 244.347 380.893 244.074 381.609C243.807 382.321 243.421 382.931 242.916 383.441C242.412 383.945 241.801 384.331 241.085 384.599C240.374 384.866 239.564 385 238.655 385L237.384 385C236.496 385 235.689 384.866 234.962 384.599C234.241 384.331 233.625 383.945 233.115 383.441C232.611 382.931 232.23 382.321 231.973 381.609C231.715 380.893 231.587 380.101 231.587 379.233L231.587 374.987C231.587 374.099 231.715 373.304 231.973 372.603C232.23 371.897 232.611 371.296 233.115 370.802C233.625 370.307 234.241 369.921 234.962 369.644C235.689 369.361 236.496 369.22 237.384 369.22L238.655 369.22ZM237.384 372.785C236.743 372.785 236.201 372.997 235.757 373.42C235.313 373.844 235.091 374.397 235.091 375.078L235.091 379.112C235.091 379.793 235.313 380.35 235.757 380.784C236.201 381.218 236.743 381.435 237.384 381.435L238.655 381.435C239.316 381.435 239.859 381.218 240.283 380.784C240.707 380.35 240.918 379.793 240.918 379.112L240.918 375.078C240.918 374.397 240.707 373.844 240.283 373.42C239.859 372.997 239.316 372.785 238.655 372.785L237.384 372.785ZM250.649 372.444C250.937 371.97 251.323 371.554 251.807 371.195C252.296 370.832 252.834 370.527 253.419 370.28C254.009 370.027 254.635 369.841 255.296 369.719C255.962 369.593 256.626 369.53 257.286 369.53L257.688 369.53L257.688 373.375L257.286 373.375C256.54 373.375 255.773 373.526 254.986 373.829C254.204 374.127 253.487 374.518 252.836 375.002C252.185 375.487 251.658 376.029 251.255 376.629C250.851 377.23 250.649 377.83 250.649 378.431L250.649 385L246.804 385L246.804 369.099L250.649 369.099L250.649 372.444ZM265.808 390.396L262.402 390.396L263.984 384.939L259.208 369.22L262.644 369.22L265.656 379.293L268.631 369.22L272.105 369.22L265.808 390.396Z" fill="#333333" fill-opacity="1.000000" fill-rule="evenodd"/>
		<path id="23" d="M470.571 380.323C472.019 379.223 473.419 378.085 474.772 376.909C476.124 375.729 477.421 374.561 478.662 373.405C478.99 373.098 479.272 372.815 479.509 372.558C479.752 372.295 479.943 372.03 480.085 371.763C480.231 371.496 480.339 371.203 480.41 370.885C480.486 370.562 480.524 370.163 480.524 369.689C480.524 369.356 480.46 369.031 480.334 368.713C480.208 368.39 480.027 368.115 479.789 367.888C479.552 367.661 479.282 367.482 478.98 367.351C478.682 367.214 478.369 367.146 478.041 367.146L476.308 367.146C475.955 367.146 475.622 367.214 475.309 367.351C475.001 367.482 474.734 367.661 474.507 367.888C474.28 368.115 474.098 368.39 473.962 368.713C473.831 369.031 473.765 369.356 473.765 369.689L473.765 370.431L470.352 370.431L470.352 369.069C470.352 368.302 470.495 367.583 470.783 366.912C471.076 366.241 471.474 365.658 471.979 365.163C472.488 364.664 473.079 364.27 473.75 363.983C474.421 363.695 475.137 363.551 475.899 363.551L478.601 363.551C479.363 363.551 480.08 363.695 480.751 363.983C481.422 364.27 482.004 364.664 482.499 365.163C482.998 365.658 483.392 366.241 483.68 366.912C483.972 367.583 484.118 368.302 484.118 369.069L484.118 369.53C484.118 370.151 484.091 370.721 484.035 371.241C483.985 371.755 483.876 372.245 483.71 372.709C483.548 373.173 483.306 373.617 482.983 374.041C482.665 374.465 482.257 374.914 481.757 375.388C480.582 376.528 479.348 377.651 478.056 378.756C476.765 379.861 475.458 380.888 474.136 381.836L483.748 381.836L483.748 385L470.571 385L470.571 380.323ZM499.366 367.517C499.74 368.612 499.828 369.682 499.631 370.726C499.434 371.771 498.892 372.694 498.004 373.496L497.822 373.716L498.004 373.905C498.564 374.48 498.978 375.108 499.245 375.789C500.032 377.671 500.032 379.553 499.245 381.435C498.978 382.096 498.599 382.692 498.11 383.221C497.625 383.746 497.063 384.152 496.422 384.44C495.948 384.667 495.473 384.828 494.999 384.924C494.525 385.015 494.048 385.076 493.569 385.106C493.094 385.136 492.62 385.146 492.146 385.136C491.672 385.126 491.175 385.121 490.655 385.121C489.913 385.121 489.212 384.977 488.551 384.69C487.89 384.402 487.31 384.006 486.81 383.501C486.316 382.992 485.93 382.402 485.652 381.73C485.375 381.059 485.236 380.35 485.236 379.604L485.236 378.983L488.581 378.983C488.581 379.336 488.642 379.657 488.763 379.944C488.889 380.298 489.086 380.578 489.353 380.784C489.626 380.991 489.936 381.158 490.284 381.284C490.637 381.405 490.998 381.481 491.366 381.511C491.74 381.541 492.083 381.546 492.396 381.526C492.83 381.486 493.269 381.425 493.713 381.344C494.157 381.259 494.565 381.082 494.939 380.815C495.393 380.462 495.685 379.965 495.817 379.324C495.953 378.683 495.938 378.055 495.771 377.439C495.484 376.365 494.719 375.714 493.478 375.487C492.983 375.36 492.323 375.297 491.495 375.297L490.413 375.297L490.413 372.104L491.495 372.104C492.323 372.104 492.983 372.04 493.478 371.914C494.099 371.834 494.585 371.649 494.939 371.362C495.186 371.155 495.38 370.903 495.521 370.605C495.668 370.302 495.746 369.987 495.756 369.659C495.766 369.326 495.703 369 495.567 368.683C495.436 368.36 495.226 368.065 494.939 367.797C494.712 367.59 494.396 367.426 493.993 367.305C493.589 367.179 493.153 367.106 492.683 367.086C492.219 367.06 491.74 367.086 491.245 367.161C490.751 367.232 490.307 367.371 489.913 367.578C489.52 367.785 489.199 368.065 488.952 368.418C488.705 368.766 488.581 369.19 488.581 369.689L485.236 369.689L485.236 369.038C485.236 368.145 485.42 367.353 485.789 366.662C486.162 365.971 486.649 365.398 487.249 364.944C487.85 364.49 488.536 364.144 489.308 363.907C490.085 363.67 490.864 363.551 491.646 363.551C492.04 363.551 492.355 363.551 492.592 363.551C492.83 363.551 493.011 363.556 493.137 363.566C493.264 363.577 493.352 363.582 493.402 363.582C493.453 363.582 493.478 363.582 493.478 363.582C493.725 363.602 493.977 363.622 494.235 363.642C494.497 363.662 494.752 363.693 494.999 363.733C495.453 363.839 495.912 364 496.377 364.217C496.841 364.434 497.25 364.697 497.603 365.004C497.996 365.337 498.347 365.721 498.655 366.155C498.968 366.589 499.205 367.043 499.366 367.517Z" fill="#333333" fill-opacity="1.000000" fill-rule="evenodd"/>
		<path id="tory@mail.com" d="M565.56 369.22L568.474 369.22L568.474 363.892L572.129 363.892L572.129 369.22L575.043 369.22L575.043 372.785L572.129 372.785L572.129 385L568.474 385L568.474 372.785L565.56 372.785L565.56 369.22ZM583.509 369.22C584.418 369.22 585.227 369.361 585.939 369.644C586.655 369.921 587.266 370.307 587.77 370.802C588.275 371.296 588.661 371.897 588.928 372.603C589.201 373.304 589.337 374.099 589.337 374.987L589.337 379.233C589.337 380.101 589.201 380.893 588.928 381.609C588.661 382.321 588.275 382.931 587.77 383.441C587.266 383.945 586.655 384.331 585.939 384.599C585.227 384.866 584.418 385 583.509 385L582.238 385C581.35 385 580.543 384.866 579.816 384.599C579.095 384.331 578.479 383.945 577.969 383.441C577.465 382.931 577.084 382.321 576.827 381.609C576.569 380.893 576.441 380.101 576.441 379.233L576.441 374.987C576.441 374.099 576.569 373.304 576.827 372.603C577.084 371.897 577.465 371.296 577.969 370.802C578.479 370.307 579.095 369.921 579.816 369.644C580.543 369.361 581.35 369.22 582.238 369.22L583.509 369.22ZM582.238 372.785C581.597 372.785 581.055 372.997 580.611 373.42C580.167 373.844 579.945 374.397 579.945 375.078L579.945 379.112C579.945 379.793 580.167 380.35 580.611 380.784C581.055 381.218 581.597 381.435 582.238 381.435L583.509 381.435C584.17 381.435 584.713 381.218 585.137 380.784C585.56 380.35 585.772 379.793 585.772 379.112L585.772 375.078C585.772 374.397 585.56 373.844 585.137 373.42C584.713 372.997 584.17 372.785 583.509 372.785L582.238 372.785ZM595.503 372.444C595.791 371.97 596.177 371.554 596.661 371.195C597.15 370.832 597.688 370.527 598.273 370.28C598.863 370.027 599.489 369.841 600.15 369.719C600.816 369.593 601.479 369.53 602.141 369.53L602.542 369.53L602.542 373.375L602.141 373.375C601.394 373.375 600.627 373.526 599.84 373.829C599.058 374.127 598.341 374.518 597.69 375.002C597.039 375.487 596.512 376.029 596.109 376.629C595.705 377.23 595.503 377.83 595.503 378.431L595.503 385L591.658 385L591.658 369.099L595.503 369.099L595.503 372.444ZM610.662 390.396L607.256 390.396L608.838 384.939L604.062 369.22L607.498 369.22L610.51 379.293L613.485 369.22L616.959 369.22L610.662 390.396ZM636.082 381.216C635.628 381.508 635.184 381.604 634.75 381.503C634.316 381.397 633.809 381.138 633.228 380.724C632.961 380.557 632.699 380.381 632.441 380.194C632.184 380.007 631.942 379.811 631.715 379.604C630.968 380.245 630.181 380.565 629.353 380.565L626.879 380.565C626.379 380.565 625.912 380.462 625.478 380.255C625.044 380.048 624.666 379.765 624.343 379.407C624.025 379.044 623.773 378.625 623.586 378.151C623.405 377.676 623.314 377.169 623.314 376.629L623.314 374.026C623.314 373.673 623.384 373.279 623.526 372.845C623.672 372.411 623.889 372.015 624.177 371.657C624.469 371.294 624.828 370.988 625.251 370.741C625.675 370.494 626.165 370.37 626.72 370.37L628.551 370.37C629.005 370.37 629.401 370.423 629.739 370.529C630.082 370.63 630.317 370.761 630.443 370.923L630.443 370.06L632.918 370.06L632.918 376.478C632.918 376.685 633.062 376.927 633.349 377.205C633.642 377.482 633.945 377.724 634.258 377.931C634.338 377.992 634.434 378.04 634.545 378.075C634.661 378.105 634.76 378.027 634.84 377.84L634.84 372.724C634.84 372.023 634.702 371.362 634.424 370.741C634.147 370.121 633.773 369.578 633.304 369.114C632.84 368.65 632.297 368.279 631.677 368.001C631.061 367.719 630.41 367.578 629.724 367.578L626.659 367.578C625.998 367.578 625.362 367.724 624.752 368.017C624.141 368.304 623.604 368.685 623.14 369.159C622.676 369.634 622.302 370.181 622.02 370.802C621.742 371.422 621.603 372.063 621.603 372.724L621.603 377.75C621.603 378.491 621.732 379.162 621.989 379.763C622.252 380.363 622.6 380.88 623.034 381.314C623.468 381.748 623.977 382.084 624.563 382.321C625.153 382.558 625.768 382.677 626.409 382.677L629.694 382.677L635.961 382.646L635.961 385.53L625.978 385.53C624.863 385.53 623.828 385.323 622.875 384.909C621.926 384.495 621.117 383.928 620.445 383.206C619.774 382.48 619.247 381.637 618.864 380.678C618.48 379.715 618.288 378.685 618.288 377.591L618.288 372.293C618.288 371.218 618.526 370.196 619 369.228C619.474 368.254 620.115 367.406 620.922 366.685C621.73 365.958 622.66 365.388 623.715 364.974C624.769 364.56 625.854 364.354 626.969 364.354L629.452 364.354C630.587 364.354 631.664 364.56 632.683 364.974C633.708 365.388 634.608 365.958 635.385 366.685C636.162 367.406 636.778 368.254 637.232 369.228C637.686 370.196 637.913 371.218 637.913 372.293L637.913 376.349C637.913 377.051 637.898 377.646 637.868 378.135C637.838 378.62 637.769 379.044 637.663 379.407C637.563 379.765 637.386 380.086 637.134 380.368C636.886 380.646 636.536 380.928 636.082 381.216ZM630.133 374.646C630.133 374.132 629.992 373.703 629.709 373.36C629.432 373.017 629.003 372.845 628.422 372.845L627.59 372.845C627.116 372.845 626.727 373.017 626.424 373.36C626.127 373.703 625.978 374.132 625.978 374.646L625.978 376.137C625.978 376.299 626.003 376.478 626.054 376.675C626.104 376.872 626.192 377.053 626.318 377.22C626.445 377.386 626.599 377.522 626.78 377.628C626.967 377.729 627.217 377.78 627.529 377.78L628.771 377.78C629.018 377.78 629.232 377.724 629.414 377.613C629.601 377.497 629.744 377.356 629.845 377.189C629.951 377.023 630.024 376.841 630.065 376.645C630.11 376.448 630.133 376.279 630.133 376.137L630.133 374.646ZM656.2 372.754C655.665 372.754 655.231 372.823 654.898 372.959C654.57 373.09 654.318 373.269 654.141 373.496C653.965 373.723 653.846 373.993 653.786 374.306C653.725 374.614 653.695 374.954 653.695 375.328L653.695 385L650.062 385L650.062 375.358C650.062 374.985 650.032 374.639 649.971 374.321C649.911 373.998 649.792 373.723 649.615 373.496C649.439 373.269 649.184 373.09 648.851 372.959C648.523 372.823 648.079 372.754 647.519 372.754L646.777 372.754C646.242 372.754 645.803 372.823 645.46 372.959C645.117 373.09 644.852 373.269 644.666 373.496C644.484 373.723 644.355 373.998 644.28 374.321C644.209 374.639 644.174 374.985 644.174 375.358L644.174 385L640.549 385L640.549 369.22L644.174 369.22L644.174 369.689C644.981 369.376 645.839 369.22 646.747 369.22L648.109 369.22C648.937 369.22 649.671 369.344 650.312 369.591C650.952 369.838 651.5 370.179 651.954 370.613C652.448 370.179 653.026 369.838 653.687 369.591C654.353 369.344 655.097 369.22 655.92 369.22L657.532 369.22C658.445 369.22 659.252 369.376 659.954 369.689C660.655 369.997 661.238 370.406 661.702 370.915C662.166 371.42 662.517 371.998 662.754 372.648C662.996 373.299 663.117 373.955 663.117 374.616L663.117 385L659.522 385L659.522 375.358C659.522 374.985 659.49 374.639 659.424 374.321C659.363 373.998 659.24 373.723 659.053 373.496C658.866 373.269 658.607 373.09 658.274 372.959C657.946 372.823 657.514 372.754 656.979 372.754L656.2 372.754ZM665.255 374.215C665.315 373.554 665.464 372.923 665.701 372.323C665.939 371.723 666.284 371.195 666.738 370.741C667.197 370.287 667.768 369.921 668.449 369.644C669.13 369.361 669.914 369.22 670.802 369.22L672.664 369.22C673.593 369.22 674.403 369.376 675.094 369.689C675.79 369.997 676.365 370.406 676.819 370.915C677.273 371.42 677.614 371.998 677.841 372.648C678.068 373.299 678.182 373.955 678.182 374.616L678.182 385L669.38 385C668.693 385 668.08 384.871 667.541 384.614C667.006 384.357 666.557 384.016 666.193 383.592C665.835 383.168 665.568 382.666 665.391 382.086C665.215 381.506 665.126 380.885 665.126 380.224C665.126 379.584 665.22 378.986 665.406 378.431C665.593 377.871 665.86 377.389 666.208 376.985C666.562 376.581 667.001 376.261 667.525 376.024C668.055 375.787 668.651 375.668 669.312 375.668L674.617 375.668L674.617 375.358C674.617 374.985 674.584 374.639 674.519 374.321C674.458 373.998 674.344 373.723 674.178 373.496C674.017 373.269 673.769 373.09 673.436 372.959C673.108 372.823 672.664 372.754 672.104 372.754L671.332 372.754C670.505 372.754 669.914 372.873 669.561 373.11C669.213 373.347 668.976 373.716 668.85 374.215L665.255 374.215ZM668.449 380.224C668.449 380.764 668.557 381.163 668.774 381.42C668.991 381.677 669.233 381.806 669.501 381.806L674.617 381.806L674.617 378.643L669.501 378.643C669.233 378.643 668.991 378.779 668.774 379.051C668.557 379.319 668.449 379.71 668.449 380.224ZM684.353 385L680.69 385L680.69 369.22L684.353 369.22L684.353 385ZM684.353 367.517L680.69 367.517L680.69 363.892L684.353 363.892L684.353 367.517ZM687.175 363.892L690.83 363.892L690.83 385L687.175 385L687.175 363.892ZM693.871 385.711L693.871 382.147L697.556 382.147L697.556 385.711L693.871 385.711ZM706.421 381.435C706.915 381.435 707.339 381.317 707.692 381.08C708.045 380.842 708.272 380.517 708.373 380.103L712.067 380.103C711.88 381.592 711.3 382.78 710.326 383.668C709.357 384.556 708.055 385 706.421 385L705.149 385C704.261 385 703.454 384.866 702.727 384.599C702.006 384.331 701.398 383.945 700.903 383.441C700.409 382.931 700.02 382.321 699.738 381.609C699.46 380.893 699.321 380.101 699.321 379.233L699.321 374.987C699.321 374.099 699.46 373.304 699.738 372.603C700.02 371.897 700.409 371.296 700.903 370.802C701.398 370.307 702.006 369.921 702.727 369.644C703.454 369.361 704.261 369.22 705.149 369.22L706.421 369.22C708.096 369.22 709.418 369.664 710.386 370.552C711.36 371.44 711.92 372.661 712.067 374.215L708.403 374.215C708.282 373.756 708.055 373.403 707.722 373.156C707.394 372.908 706.96 372.785 706.421 372.785L705.149 372.785C704.488 372.785 703.946 372.997 703.522 373.42C703.098 373.844 702.886 374.397 702.886 375.078L702.886 379.112C702.886 379.793 703.098 380.35 703.522 380.784C703.946 381.218 704.488 381.435 705.149 381.435L706.421 381.435ZM720.56 369.22C721.469 369.22 722.279 369.361 722.99 369.644C723.706 369.921 724.317 370.307 724.821 370.802C725.326 371.296 725.712 371.897 725.979 372.603C726.252 373.304 726.388 374.099 726.388 374.987L726.388 379.233C726.388 380.101 726.252 380.893 725.979 381.609C725.712 382.321 725.326 382.931 724.821 383.441C724.317 383.945 723.706 384.331 722.99 384.599C722.279 384.866 721.469 385 720.56 385L719.289 385C718.401 385 717.594 384.866 716.867 384.599C716.146 384.331 715.53 383.945 715.02 383.441C714.516 382.931 714.135 382.321 713.878 381.609C713.62 380.893 713.492 380.101 713.492 379.233L713.492 374.987C713.492 374.099 713.62 373.304 713.878 372.603C714.135 371.897 714.516 371.296 715.02 370.802C715.53 370.307 716.146 369.921 716.867 369.644C717.594 369.361 718.401 369.22 719.289 369.22L720.56 369.22ZM719.289 372.785C718.648 372.785 718.106 372.997 717.662 373.42C717.218 373.844 716.996 374.397 716.996 375.078L716.996 379.112C716.996 379.793 717.218 380.35 717.662 380.784C718.106 381.218 718.648 381.435 719.289 381.435L720.56 381.435C721.221 381.435 721.764 381.218 722.188 380.784C722.612 380.35 722.823 379.793 722.823 379.112L722.823 375.078C722.823 374.397 722.612 373.844 722.188 373.42C721.764 372.997 721.221 372.785 720.56 372.785L719.289 372.785ZM744.55 372.754C744.015 372.754 743.581 372.823 743.248 372.959C742.92 373.09 742.668 373.269 742.491 373.496C742.315 373.723 742.196 373.993 742.136 374.306C742.075 374.614 742.045 374.954 742.045 375.328L742.045 385L738.412 385L738.412 375.358C738.412 374.985 738.382 374.639 738.321 374.321C738.261 373.998 738.142 373.723 737.965 373.496C737.789 373.269 737.534 373.09 737.201 372.959C736.873 372.823 736.429 372.754 735.869 372.754L735.127 372.754C734.592 372.754 734.153 372.823 733.81 372.959C733.467 373.09 733.202 373.269 733.016 373.496C732.834 373.723 732.705 373.998 732.63 374.321C732.559 374.639 732.524 374.985 732.524 375.358L732.524 385L728.898 385L728.898 369.22L732.524 369.22L732.524 369.689C733.331 369.376 734.189 369.22 735.097 369.22L736.459 369.22C737.287 369.22 738.021 369.344 738.662 369.591C739.302 369.838 739.85 370.179 740.304 370.613C740.798 370.179 741.376 369.838 742.037 369.591C742.703 369.344 743.447 369.22 744.27 369.22L745.882 369.22C746.795 369.22 747.602 369.376 748.304 369.689C749.005 369.997 749.588 370.406 750.052 370.915C750.516 371.42 750.867 371.998 751.104 372.648C751.346 373.299 751.467 373.955 751.467 374.616L751.467 385L747.872 385L747.872 375.358C747.872 374.985 747.84 374.639 747.774 374.321C747.713 373.998 747.59 373.723 747.403 373.496C747.216 373.269 746.957 373.09 746.624 372.959C746.296 372.823 745.864 372.754 745.329 372.754L744.55 372.754Z" fill="#69AE94" fill-opacity="1.000000" fill-rule="evenodd"/>
		<rect id="фрейм 8" width="625.000000" height="62.000000" transform="translate(187.500000 344.500000)" stroke="#9BE5C9" stroke-opacity="1.000000" stroke-width="1.000000"/>
	</g>
</svg>
