<svg width="1000.000000" height="562.000000" viewBox="0 0 1000 562" fill="none" xmlns="http://www.w3.org/2000/svg" xmlns:xlink="http://www.w3.org/1999/xlink">
	<desc>
			Created with Pixso.
	</desc>
	<defs>
		<clipPath id="clip19_289">
			<rect id="toggle" width="1000.000000" height="562.000000" fill="white" fill-opacity="0"/>
		</clipPath>
	</defs>
	<rect id="toggle" width="1000.000000" height="562.000000" fill="#FFE5B5" fill-opacity="1.000000"/>
	<g clip-path="url(#clip19_289)">
		<rect id="фрейм 2" width="346.000000" height="140.000000" transform="translate(327.000000 211.000000)" fill="#FFFFFF" fill-opacity="0"/>
		<rect id="фрейм 1" width="346.000000" height="60.000000" transform="translate(327.000000 211.000000)" fill="#FFFFFF" fill-opacity="0"/>
		<rect id="Прямоугольник 2" x="330.000000" y="214.000000" rx="27.000000" width="114.000000" height="54.000000" fill="#FFFFFF" fill-opacity="1.000000"/>
		<rect id="Прямоугольник 2" x="330.000000" y="214.000000" rx="27.000000" width="114.000000" height="54.000000" stroke="#F1D298" stroke-opacity="0" stroke-width="6.000000"/>
		<circle id="Эллипс 3" cx="358.000000" cy="241.000000" r="21.000000" fill="#F1D298" fill-opacity="1.000000"/>
		<path id="No checked" d="M474.616 234.874L474.616 254.5L469.245 254.5L469.245 224.54L474.616 224.54L484.778 244.338L484.778 224.54L490.01 224.54L490.01 254.5L484.778 254.5L474.616 234.874ZM503.172 232.103Q505.105 232.103 506.62 232.704Q508.145 233.295 509.219 234.348Q510.294 235.4 510.863 236.904Q511.443 238.397 511.443 240.288L511.443 246.314Q511.443 248.162 510.863 249.688Q510.294 251.202 509.219 252.287Q508.145 253.361 506.62 253.931Q505.105 254.5 503.172 254.5L501.367 254.5Q499.476 254.5 497.929 253.931Q496.393 253.361 495.308 252.287Q494.234 251.202 493.686 249.688Q493.138 248.162 493.138 246.314L493.138 240.288Q493.138 238.397 493.686 236.904Q494.234 235.4 495.308 234.348Q496.393 233.295 497.929 232.704Q499.476 232.103 501.367 232.103L503.172 232.103ZM501.367 237.162Q500.003 237.162 499.057 238.064Q498.112 238.967 498.112 240.417L498.112 246.143Q498.112 247.593 499.057 248.517Q500.003 249.44 501.367 249.44L503.172 249.44Q504.579 249.44 505.481 248.517Q506.383 247.593 506.383 246.143L506.383 240.417Q506.383 238.967 505.481 238.064Q504.579 237.162 503.172 237.162L501.367 237.162ZM536.265 249.44Q537.318 249.44 538.07 248.936Q538.822 248.431 539.036 247.55L544.279 247.55Q543.881 250.719 541.808 252.609Q539.745 254.5 536.265 254.5L534.46 254.5Q532.57 254.5 531.023 253.931Q529.487 253.361 528.434 252.287Q527.381 251.202 526.78 249.688Q526.189 248.162 526.189 246.314L526.189 240.288Q526.189 238.397 526.78 236.904Q527.381 235.4 528.434 234.348Q529.487 233.295 531.023 232.704Q532.57 232.103 534.46 232.103L536.265 232.103Q539.831 232.103 541.894 233.993Q543.967 235.884 544.279 239.192L539.079 239.192Q538.822 238.215 538.113 237.688Q537.414 237.162 536.265 237.162L534.46 237.162Q533.053 237.162 532.151 238.064Q531.248 238.967 531.248 240.417L531.248 246.143Q531.248 247.593 532.151 248.517Q533.053 249.44 534.46 249.44L536.265 249.44ZM555.54 237.119Q554.39 237.119 553.66 237.409Q552.94 237.688 552.543 238.172Q552.156 238.655 551.995 239.343Q551.844 240.02 551.844 240.814L551.844 254.5L546.914 254.5L546.914 224.54L551.844 224.54L551.844 232.586Q552.5 232.371 553.219 232.242Q553.95 232.103 554.788 232.103L557.43 232.103Q559.364 232.103 560.836 232.769Q562.318 233.424 563.306 234.509Q564.294 235.583 564.778 236.969Q565.261 238.354 565.261 239.762L565.261 254.5L560.288 254.5L560.288 240.814Q560.288 240.02 560.159 239.343Q560.03 238.655 559.611 238.172Q559.192 237.688 558.483 237.409Q557.785 237.119 556.635 237.119L555.54 237.119ZM568.166 240.073Q568.166 238.44 568.779 237.012Q569.402 235.583 570.411 234.487Q571.421 233.381 572.742 232.747Q574.064 232.103 575.385 232.103L580.402 232.103Q582.12 232.103 583.452 232.833Q584.795 233.553 585.698 234.681Q586.6 235.798 587.105 237.184Q587.62 238.569 587.62 239.891L587.62 245.573L573.355 245.573L573.355 246.755Q573.355 248.345 574.236 249Q575.116 249.655 576.567 249.655L586.825 249.655L586.825 254.586L575.428 254.586Q573.935 254.586 572.614 253.995Q571.292 253.404 570.304 252.395Q569.316 251.374 568.736 249.967Q568.166 248.56 568.166 246.884L568.166 240.073ZM573.398 241.384L582.507 241.384L582.507 241.169Q582.507 239.45 581.626 238.333Q580.756 237.205 579.252 237.205L576.524 237.205Q575.825 237.205 575.245 237.538Q574.676 237.871 574.279 238.397Q573.892 238.924 573.645 239.654Q573.398 240.374 573.398 241.169L573.398 241.384ZM600.109 249.44Q601.162 249.44 601.914 248.936Q602.666 248.431 602.88 247.55L608.123 247.55Q607.725 250.719 605.652 252.609Q603.589 254.5 600.109 254.5L598.304 254.5Q596.414 254.5 594.867 253.931Q593.331 253.361 592.278 252.287Q591.225 251.202 590.624 249.688Q590.033 248.162 590.033 246.314L590.033 240.288Q590.033 238.397 590.624 236.904Q591.225 235.4 592.278 234.348Q593.331 233.295 594.867 232.704Q596.414 232.103 598.304 232.103L600.109 232.103Q603.675 232.103 605.738 233.993Q607.811 235.884 608.123 239.192L602.923 239.192Q602.666 238.215 601.957 237.688Q601.258 237.162 600.109 237.162L598.304 237.162Q596.897 237.162 595.995 238.064Q595.092 238.967 595.092 240.417L595.092 246.143Q595.092 247.593 595.995 248.517Q596.897 249.44 598.304 249.44L600.109 249.44ZM629.288 254.5L623.476 254.5L615.903 245.96L615.903 254.5L610.715 254.5L610.715 224.54L615.903 224.54L615.903 239.192L623.036 232.103L629.148 232.103L618.374 242.447L629.288 254.5ZM630.69 240.073Q630.69 238.44 631.303 237.012Q631.926 235.583 632.935 234.487Q633.945 233.381 635.266 232.747Q636.588 232.103 637.909 232.103L642.926 232.103Q644.644 232.103 645.976 232.833Q647.319 233.553 648.221 234.681Q649.124 235.798 649.629 237.184Q650.144 238.569 650.144 239.891L650.144 245.573L635.879 245.573L635.879 246.755Q635.879 248.345 636.76 249Q637.64 249.655 639.091 249.655L649.349 249.655L649.349 254.586L637.952 254.586Q636.459 254.586 635.138 253.995Q633.816 253.404 632.828 252.395Q631.84 251.374 631.26 249.967Q630.69 248.56 630.69 246.884L630.69 240.073ZM635.922 241.384L645.031 241.384L645.031 241.169Q645.031 239.45 644.15 238.333Q643.28 237.205 641.776 237.205L639.048 237.205Q638.349 237.205 637.769 237.538Q637.2 237.871 636.803 238.397Q636.416 238.924 636.169 239.654Q635.922 240.374 635.922 241.169L635.922 241.384ZM661.14 254.5Q659.206 254.5 657.681 253.931Q656.166 253.361 655.081 252.287Q654.007 251.202 653.438 249.688Q652.868 248.162 652.868 246.314L652.868 240.288Q652.868 238.397 653.438 236.904Q654.007 235.4 655.081 234.348Q656.166 233.295 657.681 232.704Q659.206 232.103 661.14 232.103L662.901 232.103Q664.749 232.103 666.242 232.629L666.242 224.54L671.173 224.54L671.173 254.5L661.14 254.5ZM666.242 249.44L666.242 240.417Q666.242 238.967 665.276 238.064Q664.309 237.162 662.901 237.162L661.14 237.162Q659.733 237.162 658.744 238.064Q657.756 238.967 657.756 240.417L657.756 246.143Q657.756 247.593 658.744 248.517Q659.733 249.44 661.14 249.44L666.242 249.44Z" fill="#333333" fill-opacity="1.000000" fill-rule="evenodd"/>
		<rect id="фрейм 1" width="292.000000" height="60.000000" transform="translate(327.000000 291.000000)" fill="#FFFFFF" fill-opacity="0"/>
		<rect id="Прямоугольник 2" x="330.000000" y="294.000000" rx="27.000000" width="114.000000" height="54.000000" fill="#F1D298" fill-opacity="1.000000"/>
		<rect id="Прямоугольник 2" x="330.000000" y="294.000000" rx="27.000000" width="114.000000" height="54.000000" stroke="#F1D298" stroke-opacity="0" stroke-width="6.000000"/>
		<circle id="Эллипс 3" cx="416.000000" cy="321.000000" r="21.000000" fill="#FFFFFF" fill-opacity="1.000000"/>
		<path id="Checked" d="M481.384 329.312Q482.662 329.312 483.253 328.538Q483.854 327.765 484.155 326.669L489.709 326.669Q489.526 328.291 488.86 329.73Q488.205 331.159 487.131 332.212Q486.057 333.265 484.574 333.888Q483.103 334.5 481.427 334.5L477.646 334.5Q475.884 334.5 474.294 333.823Q472.715 333.136 471.522 331.954Q470.341 330.762 469.653 329.183Q468.977 327.593 468.977 325.788L468.977 313.295Q468.977 311.49 469.653 309.89Q470.341 308.278 471.522 307.097Q472.715 305.904 474.294 305.228Q475.884 304.54 477.646 304.54L481.427 304.54Q483.146 304.54 484.596 305.152Q486.057 305.765 487.131 306.85Q488.205 307.924 488.86 309.374Q489.526 310.824 489.709 312.5L484.155 312.5Q483.94 311.361 483.317 310.566Q482.705 309.771 481.384 309.771L477.688 309.771Q476.152 309.771 475.25 310.878Q474.348 311.974 474.348 313.553L474.348 325.477Q474.348 327.066 475.25 328.194Q476.152 329.312 477.688 329.312L481.384 329.312ZM501.717 317.119Q500.567 317.119 499.837 317.409Q499.117 317.688 498.72 318.172Q498.333 318.655 498.172 319.343Q498.021 320.02 498.021 320.814L498.021 334.5L493.091 334.5L493.091 304.54L498.021 304.54L498.021 312.586Q498.677 312.371 499.396 312.242Q500.127 312.103 500.965 312.103L503.607 312.103Q505.541 312.103 507.013 312.769Q508.495 313.424 509.483 314.509Q510.471 315.583 510.955 316.969Q511.438 318.354 511.438 319.762L511.438 334.5L506.465 334.5L506.465 320.814Q506.465 320.02 506.336 319.343Q506.207 318.655 505.788 318.172Q505.369 317.688 504.66 317.409Q503.962 317.119 502.812 317.119L501.717 317.119ZM514.343 320.073Q514.343 318.44 514.956 317.012Q515.579 315.583 516.588 314.487Q517.598 313.381 518.919 312.747Q520.241 312.103 521.562 312.103L526.579 312.103Q528.297 312.103 529.629 312.833Q530.972 313.553 531.875 314.681Q532.777 315.798 533.282 317.184Q533.797 318.569 533.797 319.891L533.797 325.573L519.532 325.573L519.532 326.755Q519.532 328.345 520.413 329Q521.293 329.655 522.744 329.655L533.002 329.655L533.002 334.586L521.605 334.586Q520.112 334.586 518.79 333.995Q517.469 333.404 516.481 332.395Q515.493 331.374 514.913 329.967Q514.343 328.56 514.343 326.884L514.343 320.073ZM519.575 321.384L528.684 321.384L528.684 321.169Q528.684 319.45 527.803 318.333Q526.933 317.205 525.429 317.205L522.701 317.205Q522.002 317.205 521.422 317.538Q520.853 317.871 520.456 318.397Q520.069 318.924 519.822 319.654Q519.575 320.374 519.575 321.169L519.575 321.384ZM546.286 329.44Q547.339 329.44 548.091 328.936Q548.843 328.431 549.057 327.55L554.3 327.55Q553.902 330.719 551.829 332.609Q549.766 334.5 546.286 334.5L544.481 334.5Q542.591 334.5 541.044 333.931Q539.508 333.361 538.455 332.287Q537.402 331.202 536.801 329.688Q536.21 328.162 536.21 326.314L536.21 320.288Q536.21 318.397 536.801 316.904Q537.402 315.4 538.455 314.348Q539.508 313.295 541.044 312.704Q542.591 312.103 544.481 312.103L546.286 312.103Q549.852 312.103 551.915 313.993Q553.988 315.884 554.3 319.192L549.1 319.192Q548.843 318.215 548.134 317.688Q547.435 317.162 546.286 317.162L544.481 317.162Q543.074 317.162 542.172 318.064Q541.269 318.967 541.269 320.417L541.269 326.143Q541.269 327.593 542.172 328.517Q543.074 329.44 544.481 329.44L546.286 329.44ZM575.465 334.5L569.653 334.5L562.08 325.96L562.08 334.5L556.892 334.5L556.892 304.54L562.08 304.54L562.08 319.192L569.213 312.103L575.325 312.103L564.551 322.447L575.465 334.5ZM576.867 320.073Q576.867 318.44 577.48 317.012Q578.103 315.583 579.112 314.487Q580.122 313.381 581.443 312.747Q582.765 312.103 584.086 312.103L589.103 312.103Q590.821 312.103 592.153 312.833Q593.496 313.553 594.398 314.681Q595.301 315.798 595.806 317.184Q596.321 318.569 596.321 319.891L596.321 325.573L582.056 325.573L582.056 326.755Q582.056 328.345 582.937 329Q583.817 329.655 585.268 329.655L595.526 329.655L595.526 334.586L584.129 334.586Q582.636 334.586 581.315 333.995Q579.993 333.404 579.005 332.395Q578.017 331.374 577.437 329.967Q576.867 328.56 576.867 326.884L576.867 320.073ZM582.099 321.384L591.208 321.384L591.208 321.169Q591.208 319.45 590.327 318.333Q589.457 317.205 587.953 317.205L585.225 317.205Q584.526 317.205 583.946 317.538Q583.377 317.871 582.98 318.397Q582.593 318.924 582.346 319.654Q582.099 320.374 582.099 321.169L582.099 321.384ZM607.317 334.5Q605.383 334.5 603.858 333.931Q602.343 333.361 601.258 332.287Q600.184 331.202 599.615 329.688Q599.045 328.162 599.045 326.314L599.045 320.288Q599.045 318.397 599.615 316.904Q600.184 315.4 601.258 314.348Q602.343 313.295 603.858 312.704Q605.383 312.103 607.317 312.103L609.078 312.103Q610.926 312.103 612.419 312.629L612.419 304.54L617.35 304.54L617.35 334.5L607.317 334.5ZM612.419 329.44L612.419 320.417Q612.419 318.967 611.453 318.064Q610.486 317.162 609.078 317.162L607.317 317.162Q605.91 317.162 604.921 318.064Q603.933 318.967 603.933 320.417L603.933 326.143Q603.933 327.593 604.921 328.517Q605.91 329.44 607.317 329.44L612.419 329.44Z" fill="#333333" fill-opacity="1.000000" fill-rule="evenodd"/>
	</g>
</svg>
