<svg width="32" height="32" viewBox="0 0 32 32" fill="none" xmlns="http://www.w3.org/2000/svg">
<path d="M7.99998 29.3333C7.26665 29.3333 6.63887 29.0722 6.11665 28.55C5.59442 28.0278 5.33331 27.4 5.33331 26.6667V10.6667C5.33331 9.42221 5.71109 8.33332 6.46665 7.39999C7.2222 6.46666 8.17776 5.84443 9.33331 5.53332V3.99999C9.33331 3.62221 9.46109 3.30555 9.71665 3.04999C9.9722 2.79443 10.2889 2.66666 10.6666 2.66666H12C12.3778 2.66666 12.6944 2.79443 12.95 3.04999C13.2055 3.30555 13.3333 3.62221 13.3333 3.99999V5.33332H18.6666V3.99999C18.6666 3.62221 18.7944 3.30555 19.05 3.04999C19.3055 2.79443 19.6222 2.66666 20 2.66666H21.3333C21.7111 2.66666 22.0278 2.79443 22.2833 3.04999C22.5389 3.30555 22.6666 3.62221 22.6666 3.99999V5.53332C23.8222 5.84443 24.7778 6.46666 25.5333 7.39999C26.2889 8.33332 26.6666 9.42221 26.6666 10.6667V26.6667C26.6666 27.4 26.4055 28.0278 25.8833 28.55C25.3611 29.0722 24.7333 29.3333 24 29.3333H7.99998ZM7.99998 26.6667H24V10.6667C24 9.93332 23.7389 9.30554 23.2166 8.78332C22.6944 8.2611 22.0666 7.99999 21.3333 7.99999H10.6666C9.93331 7.99999 9.30554 8.2611 8.78331 8.78332C8.26109 9.30554 7.99998 9.93332 7.99998 10.6667V26.6667ZM19.3333 18.6667V20C19.3333 20.3778 19.4611 20.6944 19.7166 20.95C19.9722 21.2055 20.2889 21.3333 20.6666 21.3333C21.0444 21.3333 21.3611 21.2055 21.6166 20.95C21.8722 20.6944 22 20.3778 22 20V17.3333C22 16.9555 21.8722 16.6389 21.6166 16.3833C21.3611 16.1278 21.0444 16 20.6666 16H11.3333C10.9555 16 10.6389 16.1278 10.3833 16.3833C10.1278 16.6389 9.99998 16.9555 9.99998 17.3333C9.99998 17.7111 10.1278 18.0278 10.3833 18.2833C10.6389 18.5389 10.9555 18.6667 11.3333 18.6667H19.3333Z" fill="#C1C1C1"/>
</svg>
