<svg width="17" height="10" viewBox="0 0 17 10" fill="none" xmlns="http://www.w3.org/2000/svg">
<path d="M4.65988 0C5.13371 0 5.56047 0.0405237 5.94958 0.124688C6.33869 0.205736 6.66818 0.342893 6.94745 0.529925C7.22359 0.716958 7.43698 0.966334 7.59387 1.27805C7.7445 1.58666 7.81981 1.97319 7.81981 2.43142C7.81981 2.92706 7.70684 3.33853 7.48091 3.66895C7.25184 3.99938 6.91921 4.26746 6.47362 4.47943C7.08239 4.65399 7.53112 4.95948 7.83236 5.39277C8.1336 5.82918 8.27795 6.35287 8.27795 6.97008C8.27795 7.46883 8.18067 7.89589 7.98926 8.25748C7.7947 8.6222 7.53112 8.91833 7.2079 9.14589C6.88156 9.37656 6.505 9.54489 6.08451 9.65399C5.66716 9.76309 5.23726 9.8192 4.79167 9.8192H0V0H4.65988ZM4.37746 3.96509C4.76343 3.96509 5.0835 3.87469 5.33454 3.69077C5.58558 3.50998 5.70482 3.21072 5.70482 2.79925C5.70482 2.5717 5.66403 2.38155 5.58244 2.23504C5.49771 2.08853 5.38789 1.97319 5.24668 1.89214C5.10861 1.80798 4.95171 1.75187 4.76657 1.7207C4.5877 1.68641 4.39943 1.67082 4.20801 1.67082H2.17461V3.96509H4.37746ZM4.4967 8.14526C4.71008 8.14526 4.91405 8.12656 5.10547 8.08292C5.30002 8.03928 5.47261 7.97382 5.61696 7.87406C5.7613 7.77743 5.88368 7.64963 5.97155 7.4813C6.05941 7.31609 6.1002 7.10412 6.1002 6.84539C6.1002 6.3404 5.95586 5.9788 5.6703 5.7606C5.38475 5.54551 5.00505 5.43953 4.53436 5.43953H2.17461V8.14215H4.4967V8.14526ZM11.3783 8.11097C11.6732 8.39776 12.0969 8.54115 12.6491 8.54115C13.0445 8.54115 13.3897 8.4414 13.6752 8.2419C13.9608 8.04239 14.1334 7.83042 14.1993 7.61222H15.9314C15.6522 8.46945 15.2317 9.07731 14.6543 9.44514C14.0863 9.81297 13.3897 10 12.5832 10C12.0184 10 11.5132 9.9096 11.0582 9.73192C10.6032 9.55112 10.2235 9.29863 9.90342 8.96821C9.59276 8.63778 9.348 8.24501 9.17541 7.78367C9.00596 7.32544 8.9181 6.81733 8.9181 6.2687C8.9181 5.73566 9.00596 5.24003 9.18168 4.7818C9.36055 4.32045 9.60531 3.92456 9.93166 3.59102C10.258 3.25748 10.6408 2.99252 11.0927 2.79925C11.5414 2.60599 12.0372 2.50935 12.5864 2.50935C13.192 2.50935 13.7223 2.62469 14.1773 2.8616C14.6292 3.09539 15.0026 3.41022 15.2944 3.80299C15.5863 4.19576 15.7934 4.64776 15.922 5.15274C16.0507 5.65773 16.0946 6.18454 16.0601 6.73628H10.8919C10.8919 7.29426 11.0802 7.82731 11.3783 8.11097ZM13.6345 4.37656C13.4022 4.12095 13.0037 3.98067 12.5236 3.98067C12.2098 3.98067 11.9494 4.03367 11.7423 4.13965C11.5383 4.24564 11.372 4.37656 11.2433 4.53242C11.1178 4.68828 11.0299 4.85661 10.9797 5.03429C10.9295 5.20574 10.8982 5.36471 10.8887 5.50187H14.0895C14.0424 5.00312 13.8698 4.63529 13.6345 4.37656ZM10.4871 0.791771H14.4943V1.76122H10.4871V0.791771Z" fill="white"/>
</svg>
