<svg width="14" height="14" viewBox="0 0 14 14" fill="none" xmlns="http://www.w3.org/2000/svg">
<path d="M13.7705 4.51333C13.7131 4.45584 13.6557 4.39832 13.5984 4.34085L7.28687 0.0862411C7.05737 -0.028747 6.77049 -0.028747 6.54097 0.0862411L0.286872 4.28337C0.229505 4.34085 0.172102 4.39838 0.114753 4.45584C0.0573854 4.57085 0 4.68582 0 4.85831V9.11292C0 9.22791 0.0573854 9.40038 0.114753 9.51539C0.17212 9.57288 0.229523 9.6304 0.286872 9.68786L6.59836 13.885C6.71313 13.9425 6.82786 14 7 14C7.17214 14 7.28687 13.9425 7.40164 13.885L13.7131 9.68786C13.7705 9.63038 13.8279 9.57286 13.8852 9.51539C13.9426 9.40038 14 9.28542 14 9.11292V4.85831C13.8852 4.7433 13.8852 4.62833 13.7705 4.51333ZM7.57373 1.86858L12.0492 4.85833L10.0983 6.18072L7.63109 4.51336V1.8686L7.57373 1.86858ZM6.9426 5.66323L8.89343 6.98562L6.9426 8.30801L4.99177 6.98562L6.9426 5.66323ZM6.25406 1.86858V4.45586L3.78684 6.12322L1.83601 4.80083L6.25406 1.86858ZM1.26224 6.12322L2.58192 6.98564L1.26224 7.84806V6.12322ZM6.25406 12.1027L1.77864 9.11292L3.72947 7.79053L6.19669 9.45789V12.1027L6.25406 12.1027ZM7.57373 12.1027V9.51539L10.041 7.84804L11.9918 9.17043L7.57373 12.1027ZM12.5655 7.84806L11.3032 6.98564L12.6229 6.12322V7.84807H12.5656L12.5655 7.84806Z" fill="black"/>
</svg>
