<svg width="16" height="17" viewBox="0 0 16 17" fill="none" xmlns="http://www.w3.org/2000/svg">
<path d="M8 14.55C6.32222 14.55 4.90278 13.9694 3.74167 12.8083C2.58056 11.6472 2 10.2278 2 8.54999C2 7.01665 2.5 5.6861 3.5 4.55832C4.5 3.43054 5.77778 2.77221 7.33333 2.58332C7.47778 2.5611 7.60556 2.58054 7.71667 2.64165C7.82778 2.70277 7.91667 2.78332 7.98333 2.88332C8.05 2.98332 8.08611 3.09999 8.09167 3.23332C8.09722 3.36665 8.05556 3.49443 7.96667 3.61665C7.77778 3.90554 7.63611 4.2111 7.54167 4.53332C7.44722 4.85554 7.4 5.19443 7.4 5.54999C7.4 6.54999 7.75 7.39999 8.45 8.09999C9.15 8.79999 10 9.14999 11 9.14999C11.3444 9.14999 11.6861 9.09999 12.025 8.99999C12.3639 8.89999 12.6667 8.7611 12.9333 8.58332C13.0556 8.50554 13.1806 8.46943 13.3083 8.47499C13.4361 8.48054 13.55 8.5111 13.65 8.56665C13.7611 8.62221 13.8472 8.70554 13.9083 8.81665C13.9694 8.92777 13.9889 9.0611 13.9667 9.21665C13.8111 10.75 13.1583 12.0222 12.0083 13.0333C10.8583 14.0444 9.52222 14.55 8 14.55ZM8 13.2167C8.97778 13.2167 9.85556 12.9472 10.6333 12.4083C11.4111 11.8694 11.9778 11.1667 12.3333 10.3C12.1111 10.3555 11.8889 10.4 11.6667 10.4333C11.4444 10.4667 11.2222 10.4833 11 10.4833C9.63333 10.4833 8.46944 10.0028 7.50833 9.04165C6.54722 8.08054 6.06667 6.91666 6.06667 5.54999C6.06667 5.32777 6.08333 5.10554 6.11667 4.88332C6.15 4.6611 6.19444 4.43888 6.25 4.21665C5.38333 4.57221 4.68056 5.13888 4.14167 5.91665C3.60278 6.69443 3.33333 7.57221 3.33333 8.54999C3.33333 9.83888 3.78889 10.9389 4.7 11.85C5.61111 12.7611 6.71111 13.2167 8 13.2167Z" fill="#404040"/>
</svg>
