<svg width="14" height="14" viewBox="0 0 14 14" fill="none" xmlns="http://www.w3.org/2000/svg">
<path d="M7.00012 1.86804e-05C3.13456 1.86804e-05 0 3.2132 0 7.17721C0 10.3483 2.00572 13.0386 4.78702 13.9877C5.13684 14.0541 5.26543 13.8319 5.26543 13.6424C5.26543 13.4713 5.25887 12.9058 5.25591 12.3061C3.30838 12.7404 2.89746 11.4593 2.89746 11.4593C2.57914 10.6298 2.12024 10.4091 2.12024 10.4091C1.48515 9.96368 2.16822 9.97284 2.16822 9.97284C2.87095 10.0234 3.24113 10.7125 3.24113 10.7125C3.86555 11.8097 4.8787 11.4925 5.2783 11.3091C5.34103 10.8453 5.52237 10.5286 5.72273 10.3493C4.16781 10.1679 2.5334 9.55243 2.5334 6.80234C2.5334 6.01876 2.80689 5.37848 3.25473 4.87586C3.18205 4.69503 2.94226 3.96508 3.32243 2.97642C3.32243 2.97642 3.91042 2.78364 5.24798 3.71224C5.80629 3.55316 6.40512 3.47343 7.00008 3.47066C7.59483 3.47344 8.19413 3.55318 8.75358 3.71224C10.0898 2.78363 10.6766 2.97642 10.6766 2.97642C11.0577 3.96508 10.8181 4.69503 10.7455 4.87586C11.1942 5.3785 11.4659 6.01878 11.4659 6.80234C11.4659 9.55903 9.82829 10.166 8.26954 10.3436C8.52062 10.5664 8.74429 11.0031 8.74429 11.6727C8.74429 12.6331 8.73614 13.4059 8.73614 13.6423C8.73614 13.8334 8.86221 14.0572 9.21701 13.9867C11.9968 13.0366 14 10.3473 14 7.1772C14 3.21318 10.8659 0 7.0001 0L7.00012 1.86804e-05Z" fill="white"/>
</svg>
