<svg width="16" height="17" viewBox="0 0 16 17" fill="none" xmlns="http://www.w3.org/2000/svg">
<path d="M8.00008 10.55C8.55564 10.55 9.02786 10.3555 9.41675 9.96665C9.80564 9.57776 10.0001 9.10553 10.0001 8.54998C10.0001 7.99442 9.80564 7.5222 9.41675 7.13331C9.02786 6.74442 8.55564 6.54998 8.00008 6.54998C7.44453 6.54998 6.9723 6.74442 6.58342 7.13331C6.19453 7.5222 6.00008 7.99442 6.00008 8.54998C6.00008 9.10553 6.19453 9.57776 6.58342 9.96665C6.9723 10.3555 7.44453 10.55 8.00008 10.55ZM8.00008 11.8833C7.07786 11.8833 6.29175 11.5583 5.64175 10.9083C4.99175 10.2583 4.66675 9.4722 4.66675 8.54998C4.66675 7.62776 4.99175 6.84165 5.64175 6.19165C6.29175 5.54164 7.07786 5.21664 8.00008 5.21664C8.9223 5.21664 9.70842 5.54164 10.3584 6.19165C11.0084 6.84165 11.3334 7.62776 11.3334 8.54998C11.3334 9.4722 11.0084 10.2583 10.3584 10.9083C9.70842 11.5583 8.9223 11.8833 8.00008 11.8833ZM1.33341 9.21665C1.14453 9.21665 0.986193 9.15276 0.858415 9.02498C0.730637 8.8972 0.666748 8.73887 0.666748 8.54998C0.666748 8.36109 0.730637 8.20276 0.858415 8.07498C0.986193 7.9472 1.14453 7.88331 1.33341 7.88331H2.66675C2.85564 7.88331 3.01397 7.9472 3.14175 8.07498C3.26953 8.20276 3.33342 8.36109 3.33342 8.54998C3.33342 8.73887 3.26953 8.8972 3.14175 9.02498C3.01397 9.15276 2.85564 9.21665 2.66675 9.21665H1.33341ZM13.3334 9.21665C13.1445 9.21665 12.9862 9.15276 12.8584 9.02498C12.7306 8.8972 12.6668 8.73887 12.6668 8.54998C12.6668 8.36109 12.7306 8.20276 12.8584 8.07498C12.9862 7.9472 13.1445 7.88331 13.3334 7.88331H14.6668C14.8556 7.88331 15.014 7.9472 15.1418 8.07498C15.2695 8.20276 15.3334 8.36109 15.3334 8.54998C15.3334 8.73887 15.2695 8.8972 15.1418 9.02498C15.014 9.15276 14.8556 9.21665 14.6668 9.21665H13.3334ZM8.00008 3.88331C7.81119 3.88331 7.65286 3.81942 7.52508 3.69164C7.3973 3.56387 7.33342 3.40553 7.33342 3.21664V1.88331C7.33342 1.69442 7.3973 1.53609 7.52508 1.40831C7.65286 1.28053 7.81119 1.21664 8.00008 1.21664C8.18897 1.21664 8.3473 1.28053 8.47508 1.40831C8.60286 1.53609 8.66675 1.69442 8.66675 1.88331V3.21664C8.66675 3.40553 8.60286 3.56387 8.47508 3.69164C8.3473 3.81942 8.18897 3.88331 8.00008 3.88331ZM8.00008 15.8833C7.81119 15.8833 7.65286 15.8194 7.52508 15.6916C7.3973 15.5639 7.33342 15.4055 7.33342 15.2166V13.8833C7.33342 13.6944 7.3973 13.5361 7.52508 13.4083C7.65286 13.2805 7.81119 13.2166 8.00008 13.2166C8.18897 13.2166 8.3473 13.2805 8.47508 13.4083C8.60286 13.5361 8.66675 13.6944 8.66675 13.8833V15.2166C8.66675 15.4055 8.60286 15.5639 8.47508 15.6916C8.3473 15.8194 8.18897 15.8833 8.00008 15.8833ZM3.76675 5.24998L3.05008 4.54998C2.91675 4.42776 2.85286 4.2722 2.85842 4.08331C2.86397 3.89442 2.92786 3.73331 3.05008 3.59998C3.18342 3.46664 3.34453 3.39998 3.53342 3.39998C3.7223 3.39998 3.87786 3.46664 4.00008 3.59998L4.70008 4.31664C4.8223 4.44998 4.88342 4.60553 4.88342 4.78331C4.88342 4.96109 4.8223 5.11664 4.70008 5.24998C4.57786 5.38331 4.42508 5.4472 4.24175 5.44164C4.05842 5.43609 3.90008 5.3722 3.76675 5.24998ZM12.0001 13.5L11.3001 12.7833C11.1779 12.65 11.1167 12.4916 11.1167 12.3083C11.1167 12.125 11.1779 11.9722 11.3001 11.85C11.4223 11.7166 11.5751 11.6528 11.7584 11.6583C11.9417 11.6639 12.1001 11.7278 12.2334 11.85L12.9501 12.55C13.0834 12.6722 13.1473 12.8278 13.1418 13.0166C13.1362 13.2055 13.0723 13.3666 12.9501 13.5C12.8168 13.6333 12.6556 13.7 12.4667 13.7C12.2779 13.7 12.1223 13.6333 12.0001 13.5ZM11.3001 5.24998C11.1667 5.12776 11.1029 4.97498 11.1084 4.79164C11.114 4.60831 11.1779 4.44998 11.3001 4.31664L12.0001 3.59998C12.1223 3.46664 12.2779 3.40276 12.4667 3.40831C12.6556 3.41387 12.8168 3.47776 12.9501 3.59998C13.0834 3.73331 13.1501 3.89442 13.1501 4.08331C13.1501 4.2722 13.0834 4.42776 12.9501 4.54998L12.2334 5.24998C12.1001 5.3722 11.9445 5.43331 11.7667 5.43331C11.589 5.43331 11.4334 5.3722 11.3001 5.24998ZM3.05008 13.5C2.91675 13.3666 2.85008 13.2055 2.85008 13.0166C2.85008 12.8278 2.91675 12.6722 3.05008 12.55L3.76675 11.85C3.90008 11.7278 4.05842 11.6666 4.24175 11.6666C4.42508 11.6666 4.57786 11.7278 4.70008 11.85C4.83342 11.9722 4.8973 12.125 4.89175 12.3083C4.88619 12.4916 4.8223 12.65 4.70008 12.7833L4.00008 13.5C3.87786 13.6333 3.7223 13.6972 3.53342 13.6916C3.34453 13.6861 3.18342 13.6222 3.05008 13.5Z" fill="#ECECEC"/>
</svg>
