<svg width="32" height="32" viewBox="0 0 32 32" fill="none" xmlns="http://www.w3.org/2000/svg">
<path d="M16 20.6667C16.7334 20.6667 17.3611 20.4055 17.8834 19.8833C18.4056 19.3611 18.6667 18.7333 18.6667 18C18.6667 17.2667 18.4056 16.6389 17.8834 16.1167C17.3611 15.5944 16.7334 15.3333 16 15.3333C15.2667 15.3333 14.6389 15.5944 14.1167 16.1167C13.5945 16.6389 13.3334 17.2667 13.3334 18C13.3334 18.7333 13.5945 19.3611 14.1167 19.8833C14.6389 20.4055 15.2667 20.6667 16 20.6667ZM5.33335 28C4.60002 28 3.97224 27.7389 3.45002 27.2167C2.9278 26.6944 2.66669 26.0667 2.66669 25.3333V10.6667C2.66669 9.93332 2.9278 9.30555 3.45002 8.78332C3.97224 8.2611 4.60002 7.99999 5.33335 7.99999H10.6667V5.33332C10.6667 4.59999 10.9278 3.97221 11.45 3.44999C11.9722 2.92777 12.6 2.66666 13.3334 2.66666H18.6667C19.4 2.66666 20.0278 2.92777 20.55 3.44999C21.0722 3.97221 21.3334 4.59999 21.3334 5.33332V7.99999H26.6667C27.4 7.99999 28.0278 8.2611 28.55 8.78332C29.0722 9.30555 29.3334 9.93332 29.3334 10.6667V25.3333C29.3334 26.0667 29.0722 26.6944 28.55 27.2167C28.0278 27.7389 27.4 28 26.6667 28H5.33335ZM5.33335 25.3333H26.6667V10.6667H5.33335V25.3333ZM13.3334 7.99999H18.6667V5.33332H13.3334V7.99999Z" fill="#C1C1C1"/>
</svg>
