<svg width="32" height="32" viewBox="0 0 32 32" fill="none" xmlns="http://www.w3.org/2000/svg">
<path d="M16 19.3L18.5333 20.8333C18.7778 20.9889 19.0222 20.9833 19.2667 20.8167C19.5111 20.65 19.6 20.4222 19.5333 20.1333L18.8667 17.2333L21.1333 15.2667C21.3556 15.0667 21.4222 14.8278 21.3333 14.55C21.2444 14.2722 21.0444 14.1222 20.7333 14.1L17.7667 13.8667L16.6 11.1333C16.4889 10.8667 16.2889 10.7333 16 10.7333C15.7111 10.7333 15.5111 10.8667 15.4 11.1333L14.2333 13.8667L11.2667 14.1C10.9556 14.1222 10.7556 14.2722 10.6667 14.55C10.5778 14.8278 10.6444 15.0667 10.8667 15.2667L13.1333 17.2333L12.4667 20.1333C12.4 20.4222 12.4889 20.65 12.7333 20.8167C12.9778 20.9833 13.2222 20.9889 13.4667 20.8333L16 19.3ZM11.5333 26.6667H8C7.26667 26.6667 6.63889 26.4056 6.11667 25.8833C5.59444 25.3611 5.33333 24.7333 5.33333 24V20.4667L2.76667 17.8667C2.52222 17.6 2.33333 17.3056 2.2 16.9833C2.06667 16.6611 2 16.3333 2 16C2 15.6667 2.06667 15.3389 2.2 15.0167C2.33333 14.6944 2.52222 14.4 2.76667 14.1333L5.33333 11.5333V8C5.33333 7.26667 5.59444 6.63889 6.11667 6.11667C6.63889 5.59444 7.26667 5.33333 8 5.33333H11.5333L14.1333 2.76667C14.4 2.52222 14.6944 2.33333 15.0167 2.2C15.3389 2.06667 15.6667 2 16 2C16.3333 2 16.6611 2.06667 16.9833 2.2C17.3056 2.33333 17.6 2.52222 17.8667 2.76667L20.4667 5.33333H24C24.7333 5.33333 25.3611 5.59444 25.8833 6.11667C26.4056 6.63889 26.6667 7.26667 26.6667 8V11.5333L29.2333 14.1333C29.4778 14.4 29.6667 14.6944 29.8 15.0167C29.9333 15.3389 30 15.6667 30 16C30 16.3333 29.9333 16.6611 29.8 16.9833C29.6667 17.3056 29.4778 17.6 29.2333 17.8667L26.6667 20.4667V24C26.6667 24.7333 26.4056 25.3611 25.8833 25.8833C25.3611 26.4056 24.7333 26.6667 24 26.6667H20.4667L17.8667 29.2333C17.6 29.4778 17.3056 29.6667 16.9833 29.8C16.6611 29.9333 16.3333 30 16 30C15.6667 30 15.3389 29.9333 15.0167 29.8C14.6944 29.6667 14.4 29.4778 14.1333 29.2333L11.5333 26.6667ZM12.6667 24L16 27.3333L19.3333 24H24V19.3333L27.3333 16L24 12.6667V8H19.3333L16 4.66667L12.6667 8H8V12.6667L4.66667 16L8 19.3333V24H12.6667Z" fill="#C1C1C1"/>
</svg>
