<svg width="13" height="10" viewBox="0 0 13 10" fill="none" xmlns="http://www.w3.org/2000/svg">
<path fill-rule="evenodd" clip-rule="evenodd" d="M0.85931 4.30494C4.21475 2.8937 6.45223 1.96333 7.57176 1.51383C10.7682 0.230387 11.4324 0.00744034 11.8654 7.84937e-05C11.9606 -0.00154066 12.1735 0.0212387 12.3114 0.12926C12.4278 0.220471 12.4599 0.343685 12.4752 0.430163C12.4905 0.516641 12.5096 0.713641 12.4944 0.867571C12.3212 2.6245 11.5717 6.8881 11.1904 8.8559C11.0291 9.68854 10.7114 9.96772 10.4038 9.99505C9.73537 10.0544 9.22781 9.56862 8.58042 9.15896C7.56738 8.51792 6.99507 8.11887 6.01174 7.49333C4.87533 6.77042 5.61202 6.37309 6.25966 5.72375C6.42915 5.55381 9.3742 2.96792 9.4312 2.73334C9.43833 2.704 9.44494 2.59464 9.37764 2.5369C9.31034 2.47915 9.21101 2.4989 9.13933 2.5146C9.03772 2.53687 7.41938 3.56945 4.28429 5.61236C3.82493 5.91686 3.40885 6.06522 3.03606 6.05745C2.62509 6.04887 1.83455 5.83313 1.24686 5.64872C0.526037 5.42253 -0.0468581 5.30294 0.00302824 4.91881C0.0290121 4.71872 0.314439 4.5141 0.85931 4.30494Z" fill="white"/>
</svg>
