<svg width="24" height="30" viewBox="0 0 24 30" fill="none" xmlns="http://www.w3.org/2000/svg">
<g clip-path="url(#clip0_1096_620)">
<path d="M23.9766 14.7441C23.976 14.9642 23.754 15.0787 23.4808 14.9996L0.487614 8.34831C0.218226 8.27028 -0.000157821 8.0298 8.55787e-08 7.8111L0.00268422 0.280716C0.00284213 0.0617007 0.221385 -0.0532551 0.491088 0.0241189L23.5026 6.62238C23.7761 6.70086 23.9973 6.94308 23.9967 7.1637L23.9766 14.7441Z" fill="url(#paint0_linear_1096_620)"/>
<path d="M23.98 28.8129C23.9794 29.033 23.7574 29.1475 23.4842 29.0684L0.491033 22.4171C0.221644 22.3391 0.00326013 22.0986 0.00341805 21.8799L0.00610218 14.3495C0.00626007 14.1305 0.224802 14.0156 0.494507 14.0929L23.506 20.6913C23.7795 20.7698 24.0007 21.0121 24.0001 21.2327L23.98 28.8129Z" fill="url(#paint1_linear_1096_620)"/>
<path d="M0.0200553 22.1012C0.0206869 22.3213 0.242703 22.4358 0.515879 22.3567L23.5091 15.7053C23.7784 15.6273 23.9968 15.3868 23.9967 15.1681L23.994 7.63776C23.9938 7.41873 23.7753 7.30377 23.5056 7.38114L0.49409 13.9796C0.220596 14.0581 -0.000630277 14.3003 1.34916e-06 14.5209L0.0200553 22.1012Z" fill="#40B4EA"/>
</g>
<defs>
<linearGradient id="paint0_linear_1096_620" x1="11.9983" y1="-1.04118e-08" x2="11.9983" y2="15.0247" gradientUnits="userSpaceOnUse">
<stop stop-color="#40B4EA"/>
<stop offset="1" stop-color="#45C4FF"/>
</linearGradient>
<linearGradient id="paint1_linear_1096_620" x1="12.0017" y1="14.0688" x2="12.0017" y2="29.0935" gradientUnits="userSpaceOnUse">
<stop stop-color="#45C4FF"/>
<stop offset="1" stop-color="#40B4EA"/>
</linearGradient>
<clipPath id="clip0_1096_620">
<rect width="24" height="29.1" fill="white"/>
</clipPath>
</defs>
</svg>
