<svg width="1000.000000" height="562.000000" viewBox="0 0 1000 562" fill="none" xmlns="http://www.w3.org/2000/svg" xmlns:xlink="http://www.w3.org/1999/xlink">
	<desc>
			Created with Pixso.
	</desc>
	<defs>
		<clipPath id="clip263_432">
			<rect id="ancore" width="1000.000000" height="562.000000" fill="white" fill-opacity="0"/>
		</clipPath>
	</defs>
	<rect id="ancore" width="1000.000000" height="562.000000" fill="#C0C088" fill-opacity="1.000000"/>
	<g clip-path="url(#clip263_432)">
		<path id="path" d="M627.24 294.42C617.18 284.77 606.97 275.28 596.73 265.8C592.49 261.87 588.17 262.83 585.8 268.14C583.88 272.41 582.05 276.72 580.19 281.01C576.78 288.88 573.26 296.72 570.04 304.67C569.48 306.05 569.62 308.4 570.47 309.49C571.31 310.56 573.44 310.9 575.06 311.04C576.66 311.17 578.33 310.7 579.95 310.39C582.23 309.95 584.45 309.69 586.19 311.64C587.99 313.65 587.22 315.83 586.47 317.99C583.41 326.79 577.84 333.76 571.04 339.99C559.55 350.5 541.58 346.04 536.61 331.34C534.39 324.79 531.91 318.34 529.51 311.85C525.38 300.72 521.2 289.6 517.07 278.47C513.49 268.8 510 259.09 506.35 249.44C504.3 244.01 506.57 239.07 512.13 237.55C518.14 235.9 524.24 234.52 530.17 232.63C534.79 231.16 538.7 231.25 543.15 233.84C550.64 238.19 560.32 235.47 565.81 228.32C570.86 221.76 570.43 211.61 564.84 205.31C556.27 195.64 541.38 197.3 534.82 208.5C533.72 210.37 531.92 212.52 530 213.11C521.26 215.81 512.37 218.05 503.5 220.34C499.36 221.41 495.66 219.44 494.09 215.41C492.43 211.15 491.1 206.75 489.31 202.55C486.82 196.75 487.89 191.78 491.92 187.16C500.65 177.12 502.53 165.64 497.31 153.62C492.37 142.23 483 136.2 470.59 135.13C468.49 134.95 466.37 134.88 464.26 134.77L458.05 136.43C457.32 136.89 456.63 137.45 455.85 137.79C440.87 144.49 433.75 162.88 440.14 177.95C443.96 186.97 450.51 192.86 459.65 196.01C464.75 197.77 468.17 201 469.18 206.45C469.98 210.86 470.69 215.29 471.53 219.69C472.67 225.62 470.46 229.21 464.59 230.8C457.82 232.63 450.97 234.22 444.29 236.32C439.73 237.75 435.91 237.58 431.58 235.08C424.12 230.77 415.6 232.66 409.87 239.02C404.24 245.26 403.53 254.39 407.99 261.5C414.94 272.58 432.48 273.84 439.86 260.42C440.86 258.59 442.54 256.44 444.36 255.88C452.16 253.41 460.1 251.41 468.04 249.41C472.44 248.3 476.97 251.21 477.78 255.61C479.71 266.15 481.52 276.72 483.34 287.28C485.43 299.28 487.51 311.28 489.55 323.28C490.85 330.96 492.43 338.62 493.23 346.36C494.25 356.16 486.18 367.08 475.96 367.89C462.41 368.97 451.04 363.8 441.31 354.71C438.87 352.44 439.82 348.64 442.91 347.2C444.76 346.34 446.85 345.94 448.56 344.88C450.17 343.89 451.9 342.54 452.68 340.92C453.71 338.77 451.68 337.38 450.12 336.22C439.91 328.54 429.69 320.88 419.46 313.24C414.1 309.25 410.03 310.62 408.02 317.08C404.2 329.36 400.39 341.65 396.58 353.94C395.79 356.51 394.35 359.19 396.89 361.55C399.45 363.91 401.91 362.16 404.47 361.25C410.73 359.02 413.5 356.92 419.13 365.86C428.84 381.24 442.38 392.21 459.13 399.24C473.92 405.43 489.4 407.74 505.33 407.46C513.16 407.31 519.78 410.05 525.22 415.7C527.18 417.74 529.04 419.89 531.2 421.7C533.09 423.27 535.32 424.44 537.4 425.77L539.66 425.17C540.6 423.72 541.85 422.38 542.41 420.8C543.31 418.24 543.88 415.54 544.37 412.86C545.97 404.22 550.27 397.56 558.02 393.15C562.41 390.66 566.74 387.99 570.84 385.06C588.89 372.19 602.48 355.81 608.46 334.12C610.55 326.58 611.08 318.6 612.12 310.79C612.67 306.67 614.59 303.96 618.22 303.26C620.32 302.85 622.44 302.4 624.56 302.3C626.8 302.2 628.68 301.31 628.91 299.25C629.09 297.7 628.35 295.49 627.24 294.42ZM472.94 180.63C464.82 182.81 456.81 178.07 454.69 169.83C452.59 161.65 457.09 153.99 465.28 151.81C473.46 149.62 481.19 154.07 483.39 162.21C485.6 170.42 481.05 178.45 472.94 180.63Z" fill="#E3E39B" fill-opacity="1.000000" fill-rule="nonzero"/>
	</g>
</svg>
