<svg width="1000.000000" height="562.000000" viewBox="0 0 1000 562" fill="none" xmlns="http://www.w3.org/2000/svg" xmlns:xlink="http://www.w3.org/1999/xlink">
	<desc>
			Created with Pixso.
	</desc>
	<defs>
		<clipPath id="clip263_288">
			<rect id="button" width="1000.000000" height="562.000000" fill="white" fill-opacity="0"/>
		</clipPath>
	</defs>
	<rect id="button" width="1000.000000" height="562.000000" fill="#858EBB" fill-opacity="1.000000"/>
	<g clip-path="url(#clip263_288)">
		<rect id="фрейм 6" rx="16.000000" width="239.000000" height="71.000000" transform="translate(380.000000 245.000000)" fill="#FF5E5E" fill-opacity="1.000000"/>
		<path id="Button" d="M462.19 274.84Q462.26 274.32 462.26 273.8L462.26 271.38Q462.26 269.75 461.73 268.39Q461.22 267.07 460.32 266.12Q460.29 266.09 460.26 266.06Q460.06 265.85 459.84 265.67Q459.03 264.98 457.99 264.56Q456.67 264.04 455.09 264.04L441.84 264.04L441.84 294L455.49 294Q457.06 294 458.36 293.47Q459.11 293.17 459.74 292.71Q460.21 292.36 460.61 291.93Q461.56 290.91 462.08 289.42Q462.61 287.93 462.61 286.08L462.61 284.23Q462.61 283.44 462.45 282.68Q462.31 282 462.04 281.34Q461.92 281.06 461.77 280.79Q461.2 279.76 460.15 278.99Q460.24 278.9 460.32 278.8Q461.17 277.85 461.68 276.61Q462.05 275.74 462.19 274.84ZM490.33 271.6L486.2 271.6L486.2 276.66L490.33 276.66L490.33 294L495.52 294L495.52 276.66L499.66 276.66L499.66 271.6L495.52 271.6L495.52 264.04L490.33 264.04L490.33 271.6ZM505.29 271.6L501.16 271.6L501.16 276.66L505.29 276.66L505.29 294L510.48 294L510.48 276.66L514.62 276.66L514.62 271.6L510.48 271.6L510.48 264.04L505.29 264.04L505.29 271.6ZM454.16 276.49L447.03 276.49L447.03 269.49L454.16 269.49Q454.35 269.49 454.54 269.52Q454.91 269.58 455.26 269.76Q455.3 269.78 455.34 269.8Q455.82 270.05 456.21 270.48Q456.49 270.79 456.68 271.15Q456.77 271.33 456.84 271.51Q457.06 272.08 457.06 272.79L457.06 273.23Q457.06 273.66 456.97 274.07Q456.92 274.28 456.84 274.49Q456.69 274.9 456.44 275.24Q456.33 275.39 456.21 275.52Q455.89 275.85 455.52 276.08Q455.39 276.16 455.26 276.23Q454.92 276.39 454.57 276.45Q454.37 276.49 454.16 276.49ZM476.76 288.72Q476.08 288.98 474.97 288.98L474.01 288.98Q472.82 288.98 472.12 288.7Q471.41 288.41 471.01 287.9Q470.92 287.79 470.84 287.66Q470.59 287.25 470.48 286.74Q470.35 286.08 470.35 285.28L470.35 271.6L465.25 271.6L465.25 286.34Q465.25 286.5 465.26 286.67Q465.31 287.91 465.76 289.13Q466.06 289.97 466.53 290.69Q466.85 291.17 467.23 291.6Q468.19 292.67 469.67 293.34Q471.15 294 473.13 294L475.37 294Q476.29 294 477.11 293.87Q477.93 293.73 478.63 293.43L478.63 294L483.77 294L483.77 271.6L478.63 271.6L478.63 285.64Q478.63 286.34 478.44 286.96Q478.32 287.38 478.09 287.73Q477.98 287.88 477.85 288.01Q477.44 288.45 476.76 288.72ZM530.08 272.2Q528.57 271.6 526.64 271.6L524.83 271.6Q522.94 271.6 521.39 272.2Q519.86 272.79 518.77 273.84Q518.57 274.04 518.39 274.26Q517.59 275.18 517.15 276.4Q516.6 277.89 516.6 279.78L516.6 285.81Q516.6 287.66 517.15 289.18Q517.58 290.37 518.33 291.3Q518.54 291.55 518.77 291.78Q518.9 291.91 519.03 292.02Q520.03 292.92 521.39 293.43Q522.94 294 524.83 294L526.64 294Q528.57 294 530.08 293.43Q531.42 292.93 532.4 292.04Q532.55 291.92 532.68 291.78Q532.87 291.59 533.04 291.39Q533.86 290.44 534.33 289.18Q534.91 287.66 534.91 285.81L534.91 279.78Q534.91 277.89 534.33 276.4Q533.84 275.12 532.99 274.16Q532.84 274 532.68 273.84L532.67 273.84Q531.6 272.79 530.08 272.2ZM545.44 276.9Q546.17 276.61 547.31 276.61L548.36 276.61Q549.56 276.61 550.25 276.9Q550.96 277.18 551.34 277.67Q551.71 278.15 551.84 278.84Q551.97 279.51 551.97 280.31L551.97 294L557.13 294L557.13 279.26Q557.13 279.1 557.12 278.94Q557.07 277.69 556.61 276.46Q556.33 275.68 555.88 274.99Q555.55 274.47 555.12 274Q554.13 272.92 552.63 272.26Q551.13 271.6 549.2 271.6L546.91 271.6Q545.15 271.6 543.62 272.17L543.62 271.6L538.47 271.6L538.47 294L543.62 294L543.62 280.31Q543.62 279.51 543.77 278.84Q543.93 278.15 544.31 277.67Q544.71 277.18 545.44 276.9ZM523.39 276.96Q524.04 276.66 524.83 276.66L526.64 276.66Q527.57 276.66 528.28 277.06Q528.64 277.26 528.94 277.56Q529.2 277.82 529.39 278.12Q529.85 278.88 529.85 279.91L529.85 285.64Q529.85 286.65 529.4 287.41Q529.21 287.73 528.94 288.01Q528.62 288.34 528.23 288.56Q527.54 288.94 526.64 288.94L524.83 288.94Q524.07 288.94 523.44 288.65Q522.94 288.42 522.52 288.01Q522.19 287.69 521.98 287.31Q521.58 286.58 521.58 285.64L521.58 279.91Q521.58 278.95 521.99 278.22Q522.2 277.86 522.52 277.56Q522.92 277.18 523.39 276.96ZM457.36 284.02Q457.46 284.42 457.46 284.84L457.46 285.15Q457.46 285.82 457.24 286.41Q457.23 286.43 457.22 286.45Q456.98 287.04 456.58 287.49Q456.46 287.62 456.32 287.74Q456.02 288.01 455.64 288.19Q455.19 288.41 454.73 288.44Q454.62 288.45 454.52 288.45L447.03 288.45L447.03 281.59L454.52 281.59Q454.61 281.59 454.71 281.6Q455.18 281.63 455.64 281.86Q455.98 282.02 456.27 282.25Q456.43 282.39 456.58 282.56Q456.98 283 457.22 283.6Q457.3 283.81 457.36 284.02Z" fill="#FFFFFF" fill-opacity="1.000000" fill-rule="evenodd"/>
	</g>
</svg>
