<svg width="1000.000000" height="562.000000" viewBox="0 0 1000 562" fill="none" xmlns="http://www.w3.org/2000/svg" xmlns:xlink="http://www.w3.org/1999/xlink">
	<desc>
			Created with Pixso.
	</desc>
	<defs>
		<clipPath id="clip275_294">
			<rect id="control" width="1000.000000" height="562.000000" fill="white" fill-opacity="0"/>
		</clipPath>
	</defs>
	<rect id="control" width="1000.000000" height="562.000000" fill="#CF5FC7" fill-opacity="1.000000"/>
	<g clip-path="url(#clip275_294)">
		<rect id="фрейм 18" width="540.000000" height="80.000000" transform="translate(230.000000 241.000000)" fill="#FFFFFF" fill-opacity="0"/>
		<rect id="фрейм 6" rx="37.000000" width="134.000000" height="74.000000" transform="translate(593.000000 244.000000)" stroke="#FFFFFF" stroke-opacity="1.000000" stroke-width="6.000000"/>
		<rect id="фрейм 6" rx="17.000000" width="34.000000" height="34.000000" transform="translate(613.000000 264.000000)" fill="#FFFFFF" fill-opacity="1.000000"/>
		<rect id="фрейм 6" rx="17.000000" width="34.000000" height="34.000000" transform="translate(613.000000 264.000000)" stroke="#FFFFFF" stroke-opacity="1.000000" stroke-width="6.000000"/>
		<rect id="фрейм 6" rx="13.000000" width="74.000000" height="74.000000" transform="translate(433.000000 244.000000)" stroke="#FFFFFF" stroke-opacity="1.000000" stroke-width="6.000000"/>
		<path id="path" d="M463.13 289.45L485.78 266.8C486.31 266.26 486.94 266 487.65 266C488.36 266 488.99 266.26 489.52 266.8C490.05 267.33 490.32 267.97 490.32 268.7C490.32 269.44 490.05 270.07 489.52 270.6L465 295.19C464.46 295.73 463.84 296 463.13 296C462.42 296 461.79 295.73 461.26 295.19L449.77 283.7C449.23 283.17 448.97 282.53 449 281.8C449.02 281.06 449.3 280.43 449.83 279.89C450.37 279.36 451 279.09 451.74 279.09C452.47 279.09 453.11 279.36 453.64 279.89L463.13 289.45Z" fill="#FFFFFF" fill-opacity="1.000000" fill-rule="nonzero"/>
		<path id="path" d="M485.78 266.8C486.31 266.26 486.94 266 487.65 266C488.36 266 488.99 266.26 489.52 266.8C490.05 267.33 490.32 267.97 490.32 268.7C490.32 269.44 490.05 270.07 489.52 270.6L465 295.19C464.46 295.73 463.84 296 463.13 296C462.42 296 461.79 295.73 461.26 295.19L449.77 283.7C449.23 283.17 448.97 282.53 449 281.8C449.02 281.06 449.3 280.43 449.83 279.89C450.37 279.36 451 279.09 451.74 279.09C452.47 279.09 453.11 279.36 453.64 279.89L463.13 289.45L485.78 266.8Z" stroke="#FFFFFF" stroke-opacity="1.000000" stroke-width="3.000000"/>
		<rect id="фрейм 6" rx="37.000000" width="74.000000" height="74.000000" transform="translate(273.000000 244.000000)" stroke="#FFFFFF" stroke-opacity="1.000000" stroke-width="6.000000"/>
		<rect id="фрейм 6" rx="17.000000" width="34.000000" height="34.000000" transform="translate(293.000000 264.000000)" fill="#FFFFFF" fill-opacity="1.000000"/>
		<rect id="фрейм 6" rx="17.000000" width="34.000000" height="34.000000" transform="translate(293.000000 264.000000)" stroke="#FFFFFF" stroke-opacity="1.000000" stroke-width="6.000000"/>
	</g>
</svg>
