<svg width="1000.000000" height="562.000000" viewBox="0 0 1000 562" fill="none" xmlns="http://www.w3.org/2000/svg" xmlns:xlink="http://www.w3.org/1999/xlink">
	<desc>
			Created with Pixso.
	</desc>
	<defs>
		<clipPath id="clip19_314">
			<rect id="length" width="1000.000000" height="562.000000" fill="white" fill-opacity="0"/>
		</clipPath>
	</defs>
	<rect id="length" width="1000.000000" height="562.000000" fill="#B5FFBC" fill-opacity="1.000000"/>
	<g clip-path="url(#clip19_314)">
		<path id="Lorem ipsum dolor sit amet" d="M250.821 289.94L267.053 289.94L267.053 295L245.536 295L245.536 265.04L250.821 265.04L250.821 289.94ZM279.6 272.603Q281.533 272.603 283.048 273.204Q284.573 273.795 285.647 274.848Q286.722 275.9 287.291 277.404Q287.871 278.897 287.871 280.788L287.871 286.814Q287.871 288.662 287.291 290.188Q286.722 291.702 285.647 292.787Q284.573 293.861 283.048 294.431Q281.533 295 279.6 295L277.795 295Q275.904 295 274.357 294.431Q272.821 293.861 271.736 292.787Q270.662 291.702 270.114 290.188Q269.566 288.662 269.566 286.814L269.566 280.788Q269.566 278.897 270.114 277.404Q270.662 275.9 271.736 274.848Q272.821 273.795 274.357 273.204Q275.904 272.603 277.795 272.603L279.6 272.603ZM277.795 277.662Q276.431 277.662 275.485 278.564Q274.54 279.467 274.54 280.917L274.54 286.643Q274.54 288.093 275.485 289.017Q276.431 289.94 277.795 289.94L279.6 289.94Q281.007 289.94 281.909 289.017Q282.811 288.093 282.811 286.643L282.811 280.917Q282.811 279.467 281.909 278.564Q281.007 277.662 279.6 277.662L277.795 277.662ZM296.623 277.179Q297.235 276.169 298.266 275.406Q299.308 274.633 300.554 274.106Q301.811 273.569 303.218 273.312Q304.636 273.043 306.044 273.043L306.613 273.043L306.613 278.5L306.044 278.5Q304.454 278.5 302.778 279.145Q301.113 279.778 299.727 280.81Q298.341 281.841 297.482 283.119Q296.623 284.397 296.623 285.676L296.623 295L291.166 295L291.166 272.431L296.623 272.431L296.623 277.179ZM309.383 280.573Q309.383 278.94 309.996 277.512Q310.619 276.083 311.628 274.987Q312.638 273.881 313.959 273.247Q315.281 272.603 316.602 272.603L321.619 272.603Q323.337 272.603 324.669 273.333Q326.012 274.053 326.914 275.181Q327.817 276.298 328.322 277.684Q328.837 279.069 328.837 280.391L328.837 286.073L314.572 286.073L314.572 287.255Q314.572 288.845 315.453 289.5Q316.333 290.155 317.784 290.155L328.042 290.155L328.042 295.086L316.645 295.086Q315.152 295.086 313.831 294.495Q312.509 293.904 311.521 292.895Q310.533 291.874 309.953 290.467Q309.383 289.06 309.383 287.384L309.383 280.573ZM314.615 281.884L323.724 281.884L323.724 281.669Q323.724 279.95 322.843 278.833Q321.973 277.705 320.469 277.705L317.741 277.705Q317.042 277.705 316.462 278.038Q315.893 278.371 315.496 278.897Q315.109 279.424 314.862 280.154Q314.615 280.874 314.615 281.669L314.615 281.884ZM354.657 277.619Q353.518 277.619 352.809 277.909Q352.111 278.188 351.735 278.672Q351.359 279.155 351.23 279.821Q351.101 280.477 351.101 281.271L351.101 295L345.945 295L345.945 281.314Q345.945 280.52 345.816 279.843Q345.687 279.155 345.311 278.672Q344.935 278.188 344.226 277.909Q343.528 277.619 342.336 277.619L341.283 277.619Q340.144 277.619 339.414 277.909Q338.683 278.188 338.286 278.672Q337.899 279.155 337.738 279.843Q337.588 280.52 337.588 281.314L337.588 295L332.442 295L332.442 272.603L337.588 272.603L337.588 273.269Q339.306 272.603 341.24 272.603L343.174 272.603Q344.935 272.603 346.3 273.129Q347.664 273.655 348.631 274.579Q349.683 273.655 351.091 273.129Q352.509 272.603 354.26 272.603L356.548 272.603Q358.492 272.603 359.985 273.269Q361.478 273.924 362.467 275.009Q363.455 276.083 363.96 277.469Q364.475 278.854 364.475 280.262L364.475 295L359.373 295L359.373 281.314Q359.373 280.52 359.233 279.843Q359.104 279.155 358.707 278.672Q358.309 278.188 357.6 277.909Q356.902 277.619 355.763 277.619L354.657 277.619ZM385.696 295L380.497 295L380.497 272.603L385.696 272.603L385.696 295ZM385.696 270.186L380.497 270.186L380.497 265.04L385.696 265.04L385.696 270.186ZM399.153 272.603Q401.087 272.603 402.602 273.204Q404.127 273.795 405.201 274.848Q406.286 275.9 406.856 277.404Q407.425 278.897 407.425 280.788L407.425 286.814Q407.425 288.662 406.856 290.188Q406.286 291.702 405.201 292.787Q404.127 293.861 402.602 294.431Q401.087 295 399.153 295L397.746 295Q395.813 295 394.223 294.388L394.223 302.659L389.12 302.659L389.12 272.603L399.153 272.603ZM394.223 277.662L394.223 286.643Q394.223 288.093 395.104 289.017Q395.984 289.94 397.392 289.94L399.153 289.94Q400.561 289.94 401.484 289.017Q402.408 288.093 402.408 286.643L402.408 280.917Q402.408 279.467 401.484 278.564Q400.561 277.662 399.153 277.662L394.223 277.662ZM425.997 276.964L417.242 276.964Q416.662 276.964 416.286 277.168Q415.921 277.361 415.652 277.716Q415.394 278.06 415.255 278.479Q415.126 278.897 415.126 279.295Q415.126 280.133 415.674 280.82Q416.232 281.497 417.016 281.497L421.947 281.497Q423.483 281.497 424.643 282.023Q425.814 282.55 426.588 283.474Q427.361 284.397 427.726 285.676Q428.102 286.943 428.102 288.404L428.102 288.533Q428.102 289.983 427.64 291.176Q427.179 292.357 426.341 293.195Q425.513 294.033 424.364 294.517Q423.225 295 421.947 295L411.302 295L411.302 290.639L420.454 290.639Q421.464 290.639 422.323 290.069Q423.182 289.5 423.225 288.361L423.225 288.404Q423.225 287.738 422.978 287.298Q422.742 286.857 422.345 286.578Q421.947 286.288 421.464 286.159Q420.98 286.02 420.454 286.02L416.49 286.02Q414.556 286.02 413.3 285.407Q412.043 284.795 411.312 283.828Q410.593 282.861 410.324 281.626Q410.066 280.391 410.066 279.112Q410.066 277.791 410.464 276.566Q410.861 275.331 411.624 274.386Q412.397 273.44 413.536 272.914Q414.685 272.388 416.136 272.388L425.997 272.388L425.997 276.964ZM441.084 289.983Q442.191 289.983 442.868 289.726Q443.555 289.457 443.963 289.017Q444.382 288.576 444.554 287.964Q444.737 287.341 444.737 286.643L444.737 272.603L449.882 272.603L449.882 295L444.737 295L444.737 294.431Q444.038 294.731 443.222 294.871Q442.406 295 441.482 295L439.237 295Q437.26 295 435.778 294.345Q434.306 293.679 433.339 292.604Q432.372 291.52 431.868 290.134Q431.363 288.748 431.363 287.341L431.363 272.603L436.465 272.603L436.465 286.288Q436.465 287.083 436.594 287.749Q436.734 288.404 437.12 288.909Q437.518 289.414 438.227 289.704Q438.936 289.983 440.118 289.983L441.084 289.983ZM475.932 277.619Q474.793 277.619 474.084 277.909Q473.386 278.188 473.01 278.672Q472.634 279.155 472.505 279.821Q472.376 280.477 472.376 281.271L472.376 295L467.22 295L467.22 281.314Q467.22 280.52 467.091 279.843Q466.962 279.155 466.586 278.672Q466.21 278.188 465.501 277.909Q464.803 277.619 463.611 277.619L462.558 277.619Q461.419 277.619 460.689 277.909Q459.958 278.188 459.561 278.672Q459.174 279.155 459.013 279.843Q458.863 280.52 458.863 281.314L458.863 295L453.717 295L453.717 272.603L458.863 272.603L458.863 273.269Q460.581 272.603 462.515 272.603L464.449 272.603Q466.21 272.603 467.575 273.129Q468.939 273.655 469.906 274.579Q470.958 273.655 472.366 273.129Q473.784 272.603 475.535 272.603L477.823 272.603Q479.767 272.603 481.26 273.269Q482.753 273.924 483.742 275.009Q484.73 276.083 485.235 277.469Q485.75 278.854 485.75 280.262L485.75 295L480.648 295L480.648 281.314Q480.648 280.52 480.508 279.843Q480.379 279.155 479.982 278.672Q479.584 278.188 478.875 277.909Q478.177 277.619 477.038 277.619L475.932 277.619ZM509.431 295Q507.497 295 505.972 294.431Q504.457 293.861 503.372 292.787Q502.298 291.702 501.729 290.188Q501.159 288.662 501.159 286.814L501.159 280.788Q501.159 278.897 501.729 277.404Q502.298 275.9 503.372 274.848Q504.457 273.795 505.972 273.204Q507.497 272.603 509.431 272.603L511.193 272.603Q513.04 272.603 514.533 273.129L514.533 265.04L519.464 265.04L519.464 295L509.431 295ZM514.533 289.94L514.533 280.917Q514.533 279.467 513.567 278.564Q512.6 277.662 511.193 277.662L509.431 277.662Q508.024 277.662 507.035 278.564Q506.047 279.467 506.047 280.917L506.047 286.643Q506.047 288.093 507.035 289.017Q508.024 289.94 509.431 289.94L514.533 289.94ZM532.094 272.603Q534.027 272.603 535.542 273.204Q537.067 273.795 538.141 274.848Q539.216 275.9 539.785 277.404Q540.365 278.897 540.365 280.788L540.365 286.814Q540.365 288.662 539.785 290.188Q539.216 291.702 538.141 292.787Q537.067 293.861 535.542 294.431Q534.027 295 532.094 295L530.289 295Q528.398 295 526.851 294.431Q525.315 293.861 524.23 292.787Q523.156 291.702 522.608 290.188Q522.06 288.662 522.06 286.814L522.06 280.788Q522.06 278.897 522.608 277.404Q523.156 275.9 524.23 274.848Q525.315 273.795 526.851 273.204Q528.398 272.603 530.289 272.603L532.094 272.603ZM530.289 277.662Q528.925 277.662 527.979 278.564Q527.034 279.467 527.034 280.917L527.034 286.643Q527.034 288.093 527.979 289.017Q528.925 289.94 530.289 289.94L532.094 289.94Q533.501 289.94 534.403 289.017Q535.305 288.093 535.305 286.643L535.305 280.917Q535.305 279.467 534.403 278.564Q533.501 277.662 532.094 277.662L530.289 277.662ZM543.799 265.04L548.988 265.04L548.988 295L543.799 295L543.799 265.04ZM562.542 272.603Q564.475 272.603 565.99 273.204Q567.515 273.795 568.589 274.848Q569.664 275.9 570.233 277.404Q570.813 278.897 570.813 280.788L570.813 286.814Q570.813 288.662 570.233 290.188Q569.664 291.702 568.589 292.787Q567.515 293.861 565.99 294.431Q564.475 295 562.542 295L560.737 295Q558.846 295 557.299 294.431Q555.763 293.861 554.678 292.787Q553.604 291.702 553.056 290.188Q552.508 288.662 552.508 286.814L552.508 280.788Q552.508 278.897 553.056 277.404Q553.604 275.9 554.678 274.848Q555.763 273.795 557.299 273.204Q558.846 272.603 560.737 272.603L562.542 272.603ZM560.737 277.662Q559.373 277.662 558.427 278.564Q557.482 279.467 557.482 280.917L557.482 286.643Q557.482 288.093 558.427 289.017Q559.373 289.94 560.737 289.94L562.542 289.94Q563.949 289.94 564.851 289.017Q565.753 288.093 565.753 286.643L565.753 280.917Q565.753 279.467 564.851 278.564Q563.949 277.662 562.542 277.662L560.737 277.662ZM579.565 277.179Q580.177 276.169 581.208 275.406Q582.25 274.633 583.496 274.106Q584.753 273.569 586.16 273.312Q587.578 273.043 588.985 273.043L589.555 273.043L589.555 278.5L588.985 278.5Q587.396 278.5 585.72 279.145Q584.055 279.778 582.669 280.81Q581.283 281.841 580.424 283.119Q579.565 284.397 579.565 285.676L579.565 295L574.108 295L574.108 272.431L579.565 272.431L579.565 277.179ZM620.631 276.964L611.876 276.964Q611.296 276.964 610.92 277.168Q610.555 277.361 610.286 277.716Q610.028 278.06 609.889 278.479Q609.76 278.897 609.76 279.295Q609.76 280.133 610.308 280.82Q610.866 281.497 611.65 281.497L616.581 281.497Q618.117 281.497 619.277 282.023Q620.448 282.55 621.222 283.474Q621.995 284.397 622.36 285.676Q622.736 286.943 622.736 288.404L622.736 288.533Q622.736 289.983 622.274 291.176Q621.812 292.357 620.975 293.195Q620.147 294.033 618.998 294.517Q617.859 295 616.581 295L605.936 295L605.936 290.639L615.088 290.639Q616.098 290.639 616.957 290.069Q617.816 289.5 617.859 288.361L617.859 288.404Q617.859 287.738 617.612 287.298Q617.376 286.857 616.979 286.578Q616.581 286.288 616.098 286.159Q615.614 286.02 615.088 286.02L611.124 286.02Q609.19 286.02 607.934 285.407Q606.677 284.795 605.946 283.828Q605.227 282.861 604.958 281.626Q604.7 280.391 604.7 279.112Q604.7 277.791 605.098 276.566Q605.495 275.331 606.258 274.386Q607.031 273.44 608.17 272.914Q609.319 272.388 610.77 272.388L620.631 272.388L620.631 276.964ZM631.282 295L626.083 295L626.083 272.603L631.282 272.603L631.282 295ZM631.282 270.186L626.083 270.186L626.083 265.04L631.282 265.04L631.282 270.186ZM634.008 272.603L638.144 272.603L638.144 265.04L643.332 265.04L643.332 272.603L647.468 272.603L647.468 277.662L643.332 277.662L643.332 295L638.144 295L638.144 277.662L634.008 277.662L634.008 272.603ZM661.869 279.692Q661.998 278.285 662.503 277.007Q663.008 275.729 663.975 274.762Q664.952 273.795 666.402 273.204Q667.853 272.603 669.743 272.603L672.386 272.603Q674.362 272.603 675.834 273.269Q677.317 273.924 678.283 275.009Q679.25 276.083 679.734 277.469Q680.217 278.854 680.217 280.262L680.217 295L667.724 295Q666.263 295 665.113 294.452Q663.975 293.904 663.201 293.002Q662.439 292.1 662.063 290.864Q661.687 289.629 661.687 288.222Q661.687 286.857 662.084 285.676Q662.482 284.483 663.223 283.624Q663.975 282.765 665.092 282.26Q666.22 281.755 667.627 281.755L675.157 281.755L675.157 281.314Q675.157 280.52 675.018 279.843Q674.889 279.155 674.534 278.672Q674.191 278.188 673.482 277.909Q672.783 277.619 671.591 277.619L670.495 277.619Q668.734 277.619 667.982 278.124Q667.24 278.629 666.972 279.692L661.869 279.692ZM666.402 288.222Q666.402 289.371 666.864 289.919Q667.326 290.467 667.896 290.467L675.157 290.467L675.157 285.977L667.896 285.977Q667.326 285.977 666.864 286.557Q666.402 287.126 666.402 288.222ZM706.261 277.619Q705.122 277.619 704.413 277.909Q703.715 278.188 703.339 278.672Q702.963 279.155 702.834 279.821Q702.705 280.477 702.705 281.271L702.705 295L697.549 295L697.549 281.314Q697.549 280.52 697.42 279.843Q697.291 279.155 696.915 278.672Q696.539 278.188 695.83 277.909Q695.132 277.619 693.94 277.619L692.887 277.619Q691.748 277.619 691.018 277.909Q690.287 278.188 689.89 278.672Q689.503 279.155 689.342 279.843Q689.192 280.52 689.192 281.314L689.192 295L684.046 295L684.046 272.603L689.192 272.603L689.192 273.269Q690.91 272.603 692.844 272.603L694.778 272.603Q696.539 272.603 697.904 273.129Q699.268 273.655 700.235 274.579Q701.287 273.655 702.695 273.129Q704.112 272.603 705.863 272.603L708.152 272.603Q710.096 272.603 711.589 273.269Q713.082 273.924 714.07 275.009Q715.059 276.083 715.564 277.469Q716.079 278.854 716.079 280.262L716.079 295L710.977 295L710.977 281.314Q710.977 280.52 710.837 279.843Q710.708 279.155 710.311 278.672Q709.913 278.188 709.204 277.909Q708.506 277.619 707.367 277.619L706.261 277.619ZM719.199 280.573Q719.199 278.94 719.811 277.512Q720.435 276.083 721.444 274.987Q722.454 273.881 723.775 273.247Q725.097 272.603 726.418 272.603L731.435 272.603Q733.153 272.603 734.485 273.333Q735.828 274.053 736.73 275.181Q737.633 276.298 738.138 277.684Q738.653 279.069 738.653 280.391L738.653 286.073L724.388 286.073L724.388 287.255Q724.388 288.845 725.268 289.5Q726.149 290.155 727.6 290.155L737.858 290.155L737.858 295.086L726.461 295.086Q724.968 295.086 723.646 294.495Q722.325 293.904 721.337 292.895Q720.349 291.874 719.768 290.467Q719.199 289.06 719.199 287.384L719.199 280.573ZM724.431 281.884L733.54 281.884L733.54 281.669Q733.54 279.95 732.659 278.833Q731.789 277.705 730.285 277.705L727.557 277.705Q726.858 277.705 726.278 278.038Q725.709 278.371 725.311 278.897Q724.925 279.424 724.678 280.154Q724.431 280.874 724.431 281.669L724.431 281.884ZM740.851 272.603L744.987 272.603L744.987 265.04L750.175 265.04L750.175 272.603L754.311 272.603L754.311 277.662L750.175 277.662L750.175 295L744.987 295L744.987 277.662L740.851 277.662L740.851 272.603Z" fill="#333333" fill-opacity="1.000000" fill-rule="evenodd"/>
		<path id="фрейм 3" d="M669 205L702 205C708.627 205 714 210.373 714 217L714 243C714 249.627 708.627 255 702 255L657 255L657 217C657 210.373 662.373 205 669 205Z" fill="#92D899" fill-opacity="1.000000" fill-rule="evenodd"/>
		<path id="25" d="M673.697 233.379Q675.379 232.102 676.949 230.736Q678.52 229.365 679.961 228.023Q680.342 227.666 680.617 227.367Q680.898 227.062 681.062 226.752Q681.232 226.441 681.314 226.072Q681.402 225.697 681.402 225.146Q681.402 224.76 681.256 224.391Q681.109 224.016 680.834 223.752Q680.559 223.488 680.207 223.336Q679.861 223.178 679.48 223.178L678.139 223.178Q677.729 223.178 677.365 223.336Q677.008 223.488 676.744 223.752Q676.48 224.016 676.322 224.391Q676.17 224.76 676.17 225.146L676.17 225.721L673.527 225.721L673.527 224.666Q673.527 223.775 673.861 222.996Q674.201 222.217 674.787 221.643Q675.379 221.062 676.158 220.729Q676.938 220.395 677.822 220.395L679.914 220.395Q680.799 220.395 681.578 220.729Q682.357 221.062 682.932 221.643Q683.512 222.217 683.846 222.996Q684.186 223.775 684.186 224.666L684.186 225.023Q684.186 225.744 684.121 226.348Q684.062 226.945 683.869 227.484Q683.682 228.023 683.307 228.516Q682.938 229.008 682.357 229.559Q680.992 230.883 679.492 232.166Q677.992 233.449 676.457 234.551L683.898 234.551L683.898 237L673.697 237L673.697 233.379ZM690.998 226.154Q692.299 226.154 693.33 226.529Q694.361 226.898 695.082 227.607Q695.803 228.311 696.184 229.371Q696.57 230.426 696.57 231.744Q696.57 234.357 695.152 235.846Q693.734 237.334 690.857 237.334Q689.609 237.334 688.56 237.012Q687.518 236.689 686.785 236.045Q686.059 235.395 685.66 234.398Q685.262 233.402 685.262 232.055L687.998 232.055Q687.998 233.209 688.648 233.918Q689.299 234.621 690.758 234.621Q692.105 234.621 692.908 233.883Q693.711 233.139 693.711 231.768Q693.711 230.977 693.482 230.438Q693.254 229.898 692.832 229.576Q692.416 229.248 691.865 229.107Q691.314 228.961 690.664 228.961Q689.129 228.961 688.455 229.705L685.648 229.705L685.648 220.752L695.773 220.752L695.773 223.605L688.672 223.605L688.672 226.605Q689.029 226.365 689.691 226.26Q690.353 226.154 690.998 226.154Z" fill="#FFFFFF" fill-opacity="1.000000" fill-rule="evenodd"/>
		<path id="Многоугольник 1" d="M657 267L668.782 255L657 255L657 267Z" fill="#92D899" fill-opacity="1.000000" fill-rule="evenodd"/>
	</g>
</svg>
