<svg width="1000.000000" height="562.000000" viewBox="0 0 1000 562" fill="none" xmlns="http://www.w3.org/2000/svg" xmlns:xlink="http://www.w3.org/1999/xlink">
	<desc>
			Created with Pixso.
	</desc>
	<defs>
		<clipPath id="clip64_314">
			<rect id="scroll" width="1000.000000" height="562.000000" fill="white" fill-opacity="0"/>
		</clipPath>
	</defs>
	<rect id="scroll" width="1000.000000" height="562.000000" fill="#F9D48E" fill-opacity="1.000000"/>
	<g clip-path="url(#clip64_314)">
		<rect id="фрейм 15" width="800.000000" height="216.012497" transform="translate(100.000000 176.000000)" fill="#FFFFFF" fill-opacity="0"/>
		<rect id="Прямоугольник 6" x="100.000000" y="176.000000" rx="12.000000" width="800.000000" height="80.000000" fill="#FFFFFF" fill-opacity="1.000000"/>
		<path id="Header" d="M457.838 230L452.295 230L452.295 217.507L442.659 217.507L442.659 230L437.073 230L437.073 200.04L442.659 200.04L442.659 212.49L452.295 212.49L452.295 200.04L457.838 200.04L457.838 230ZM461.355 215.573Q461.355 213.94 461.968 212.512Q462.591 211.083 463.6 209.987Q464.61 208.881 465.931 208.247Q467.253 207.603 468.574 207.603L473.591 207.603Q475.309 207.603 476.641 208.333Q477.984 209.053 478.886 210.181Q479.789 211.298 480.294 212.684Q480.809 214.069 480.809 215.391L480.809 221.073L466.544 221.073L466.544 222.255Q466.544 223.845 467.425 224.5Q468.305 225.155 469.756 225.155L480.014 225.155L480.014 230.086L468.617 230.086Q467.124 230.086 465.802 229.495Q464.481 228.904 463.493 227.895Q462.505 226.874 461.925 225.467Q461.355 224.06 461.355 222.384L461.355 215.573ZM466.587 216.884L475.696 216.884L475.696 216.669Q475.696 214.95 474.815 213.833Q473.945 212.705 472.441 212.705L469.713 212.705Q469.014 212.705 468.434 213.038Q467.865 213.371 467.468 213.897Q467.081 214.424 466.834 215.154Q466.587 215.874 466.587 216.669L466.587 216.884ZM483.533 214.692Q483.662 213.285 484.167 212.007Q484.672 210.729 485.639 209.762Q486.616 208.795 488.066 208.204Q489.517 207.603 491.407 207.603L494.05 207.603Q496.026 207.603 497.498 208.269Q498.981 208.924 499.947 210.009Q500.914 211.083 501.398 212.469Q501.881 213.854 501.881 215.262L501.881 230L489.388 230Q487.927 230 486.777 229.452Q485.639 228.904 484.865 228.002Q484.103 227.1 483.727 225.864Q483.351 224.629 483.351 223.222Q483.351 221.857 483.748 220.676Q484.146 219.483 484.887 218.624Q485.639 217.765 486.756 217.26Q487.884 216.755 489.291 216.755L496.821 216.755L496.821 216.314Q496.821 215.52 496.682 214.843Q496.553 214.155 496.198 213.672Q495.855 213.188 495.146 212.909Q494.447 212.619 493.255 212.619L492.159 212.619Q490.398 212.619 489.646 213.124Q488.904 213.629 488.636 214.692L483.533 214.692ZM488.066 223.222Q488.066 224.371 488.528 224.919Q488.99 225.467 489.56 225.467L496.821 225.467L496.821 220.977L489.56 220.977Q488.99 220.977 488.528 221.557Q488.066 222.126 488.066 223.222ZM513.101 230Q511.167 230 509.642 229.431Q508.127 228.861 507.042 227.787Q505.968 226.702 505.399 225.188Q504.829 223.662 504.829 221.814L504.829 215.788Q504.829 213.897 505.399 212.404Q505.968 210.9 507.042 209.848Q508.127 208.795 509.642 208.204Q511.167 207.603 513.101 207.603L514.862 207.603Q516.71 207.603 518.203 208.129L518.203 200.04L523.134 200.04L523.134 230L513.101 230ZM518.203 224.94L518.203 215.917Q518.203 214.467 517.237 213.564Q516.27 212.662 514.862 212.662L513.101 212.662Q511.694 212.662 510.705 213.564Q509.717 214.467 509.717 215.917L509.717 221.643Q509.717 223.093 510.705 224.017Q511.694 224.94 513.101 224.94L518.203 224.94ZM525.859 215.573Q525.859 213.94 526.472 212.512Q527.095 211.083 528.104 209.987Q529.114 208.881 530.435 208.247Q531.757 207.603 533.078 207.603L538.095 207.603Q539.813 207.603 541.145 208.333Q542.488 209.053 543.391 210.181Q544.293 211.298 544.798 212.684Q545.313 214.069 545.313 215.391L545.313 221.073L531.048 221.073L531.048 222.255Q531.048 223.845 531.929 224.5Q532.809 225.155 534.26 225.155L544.518 225.155L544.518 230.086L533.121 230.086Q531.628 230.086 530.307 229.495Q528.985 228.904 527.997 227.895Q527.009 226.874 526.429 225.467Q525.859 224.06 525.859 222.384L525.859 215.573ZM531.091 216.884L540.2 216.884L540.2 216.669Q540.2 214.95 539.319 213.833Q538.449 212.705 536.945 212.705L534.217 212.705Q533.518 212.705 532.938 213.038Q532.369 213.371 531.972 213.897Q531.585 214.424 531.338 215.154Q531.091 215.874 531.091 216.669L531.091 216.884ZM554.107 212.179Q554.719 211.169 555.75 210.406Q556.792 209.633 558.038 209.106Q559.295 208.569 560.702 208.312Q562.12 208.043 563.528 208.043L564.097 208.043L564.097 213.5L563.528 213.5Q561.938 213.5 560.262 214.145Q558.597 214.778 557.211 215.81Q555.825 216.841 554.966 218.119Q554.107 219.397 554.107 220.676L554.107 230L548.65 230L548.65 207.431L554.107 207.431L554.107 212.179Z" fill="#333333" fill-opacity="1.000000" fill-rule="evenodd"/>
		<rect id="фрейм 14" width="55.000000" height="96.012497" transform="translate(472.500000 296.000000)" fill="#FFFFFF" fill-opacity="0"/>
		<path id="scroll" d="M481.957 308.162L477.182 308.162Q476.865 308.162 476.66 308.273Q476.461 308.379 476.314 308.572Q476.174 308.76 476.098 308.988Q476.027 309.217 476.027 309.434Q476.027 309.891 476.326 310.266Q476.631 310.635 477.059 310.635L479.748 310.635Q480.586 310.635 481.219 310.922Q481.857 311.209 482.279 311.713Q482.701 312.217 482.9 312.914Q483.105 313.605 483.105 314.402L483.105 314.473Q483.105 315.264 482.854 315.914Q482.602 316.559 482.145 317.016Q481.693 317.473 481.066 317.736Q480.445 318 479.748 318L473.941 318L473.941 315.621L478.934 315.621Q479.484 315.621 479.953 315.311Q480.422 315 480.445 314.379L480.445 314.402Q480.445 314.039 480.311 313.799Q480.182 313.559 479.965 313.406Q479.748 313.248 479.484 313.178Q479.221 313.102 478.934 313.102L476.771 313.102Q475.717 313.102 475.031 312.768Q474.346 312.434 473.947 311.906Q473.555 311.379 473.408 310.705Q473.268 310.031 473.268 309.334Q473.268 308.613 473.484 307.945Q473.701 307.271 474.117 306.756Q474.539 306.24 475.16 305.953Q475.787 305.666 476.578 305.666L481.957 305.666L481.957 308.162ZM489.923 315.24Q490.497 315.24 490.907 314.965Q491.317 314.689 491.435 314.209L494.294 314.209Q494.077 315.938 492.946 316.969Q491.821 318 489.923 318L488.939 318Q487.907 318 487.064 317.689Q486.226 317.379 485.651 316.793Q485.077 316.201 484.749 315.375Q484.427 314.543 484.427 313.535L484.427 310.248Q484.427 309.217 484.749 308.402Q485.077 307.582 485.651 307.008Q486.226 306.434 487.064 306.111Q487.907 305.783 488.939 305.783L489.923 305.783Q491.868 305.783 492.993 306.814Q494.124 307.846 494.294 309.65L491.458 309.65Q491.317 309.117 490.931 308.83Q490.55 308.543 489.923 308.543L488.939 308.543Q488.171 308.543 487.679 309.035Q487.187 309.527 487.187 310.318L487.187 313.441Q487.187 314.232 487.679 314.736Q488.171 315.24 488.939 315.24L489.923 315.24ZM498.731 308.279Q499.065 307.729 499.628 307.312Q500.196 306.891 500.876 306.604Q501.561 306.311 502.329 306.17Q503.102 306.023 503.87 306.023L504.18 306.023L504.18 309L503.87 309Q503.003 309 502.089 309.352Q501.18 309.697 500.425 310.26Q499.669 310.822 499.2 311.52Q498.731 312.217 498.731 312.914L498.731 318L495.755 318L495.755 305.689L498.731 305.689L498.731 308.279ZM511.094 305.783Q512.149 305.783 512.975 306.111Q513.807 306.434 514.393 307.008Q514.979 307.582 515.289 308.402Q515.606 309.217 515.606 310.248L515.606 313.535Q515.606 314.543 515.289 315.375Q514.979 316.201 514.393 316.793Q513.807 317.379 512.975 317.689Q512.149 318 511.094 318L510.11 318Q509.078 318 508.235 317.689Q507.397 317.379 506.805 316.793Q506.219 316.201 505.92 315.375Q505.621 314.543 505.621 313.535L505.621 310.248Q505.621 309.217 505.92 308.402Q506.219 307.582 506.805 307.008Q507.397 306.434 508.235 306.111Q509.078 305.783 510.11 305.783L511.094 305.783ZM510.11 308.543Q509.365 308.543 508.85 309.035Q508.334 309.527 508.334 310.318L508.334 313.441Q508.334 314.232 508.85 314.736Q509.365 315.24 510.11 315.24L511.094 315.24Q511.862 315.24 512.354 314.736Q512.846 314.232 512.846 313.441L512.846 310.318Q512.846 309.527 512.354 309.035Q511.862 308.543 511.094 308.543L510.11 308.543ZM517.479 301.658L520.309 301.658L520.309 318L517.479 318L517.479 301.658ZM522.663 301.658L525.493 301.658L525.493 318L522.663 318L522.663 301.658Z" fill="#D4B57C" fill-opacity="1.000000" fill-rule="evenodd"/>
		<path id="path" d="M519.09 374.15L502.12 391.12C500.93 392.31 499.07 392.31 497.88 391.12L480.91 374.15C479.72 372.96 479.72 371.1 480.91 369.91C482.1 368.72 483.96 368.72 485.15 369.91L497 381.76L497 349C497 347.32 498.32 346 500 346C501.68 346 503 347.32 503 349L503 381.76L514.85 369.91C516.04 368.72 517.9 368.72 519.09 369.91C520.28 371.1 520.28 372.96 519.09 374.15Z" fill="#D4B57C" fill-opacity="1.000000" fill-rule="evenodd"/>
	</g>
</svg>
