<svg width="1000.000000" height="562.000000" viewBox="0 0 1000 562" fill="none" xmlns="http://www.w3.org/2000/svg" xmlns:xlink="http://www.w3.org/1999/xlink">
	<desc>
			Created with Pixso.
	</desc>
	<defs>
		<clipPath id="clip263_380">
			<rect id="select" width="1000.000000" height="562.000000" fill="white" fill-opacity="0"/>
		</clipPath>
	</defs>
	<rect id="select" width="1000.000000" height="562.000000" fill="#FFB5D4" fill-opacity="1.000000"/>
	<g clip-path="url(#clip263_380)">
		<rect id="Прямоугольник 1" x="220.000000" y="241.000000" rx="8.000000" width="560.000000" height="80.000000" fill="#FFFFFF" fill-opacity="1.000000"/>
		<rect id="Прямоугольник 1" x="223.000000" y="244.000000" rx="8.000000" width="554.000000" height="74.000000" stroke="#E688AF" stroke-opacity="1.000000" stroke-width="6.000000"/>
		<path id="Select" d="M262.4 276.89Q261.07 276.42 259.57 276.42L254.16 276.42Q253.16 276.42 252.48 275.95Q252.29 275.82 252.13 275.66Q251.79 275.3 251.6 274.88Q251.39 274.38 251.39 273.79Q251.39 272.82 251.69 272.25Q251.87 271.91 252.15 271.67Q252.34 271.51 252.57 271.39Q253.15 271.1 253.89 271Q254.64 270.88 255.52 270.88L265.6 270.88L265.6 265.04L253.23 265.04Q251.62 265.04 250.27 265.63Q250.14 265.68 250.02 265.74Q248.95 266.26 248.12 267.04Q247.82 267.31 247.56 267.61Q246.55 268.77 245.97 270.32Q245.64 271.21 245.5 272.13Q245.4 272.8 245.4 273.48Q245.4 275.81 246.1 277.49Q246.72 278.94 247.77 279.93Q247.92 280.08 248.09 280.21Q249.37 281.27 251.21 281.75Q253.06 282.23 255.31 282.23L258.86 282.23Q260.12 282.23 261.06 282.78Q261.38 282.96 261.66 283.2Q261.99 283.49 262.23 283.84Q262.78 284.68 262.78 285.89Q262.78 286.81 262.43 287.48Q262.18 287.93 261.83 288.29Q261.68 288.44 261.51 288.57Q260.94 289.01 260.12 289.24Q259.3 289.45 258.42 289.45L246.37 289.45L246.37 295L260.01 295Q261.86 295 263.35 294.3Q264.32 293.84 265.11 293.18Q265.56 292.82 265.95 292.39Q267.05 291.17 267.64 289.5Q268.24 287.82 268.24 285.89Q268.24 283.82 267.6 282.08Q266.98 280.39 265.85 279.16Q265.82 279.13 265.79 279.1Q265.41 278.69 264.98 278.33Q264.1 277.61 263.02 277.13Q262.72 277 262.4 276.89ZM299.17 265.04L293.98 265.04L293.98 295L299.17 295L299.17 265.04ZM348.45 272.6L344.32 272.6L344.32 277.66L348.45 277.66L348.45 295L353.64 295L353.64 277.66L357.78 277.66L357.78 272.6L353.64 272.6L353.64 265.04L348.45 265.04L348.45 272.6ZM271.45 278.09Q271.05 279.26 271.05 280.57L271.05 287.38Q271.05 289.06 271.62 290.46Q272.19 291.83 273.14 292.83Q273.16 292.86 273.19 292.89Q273.52 293.22 273.88 293.51Q274.61 294.09 275.5 294.49Q275.93 294.68 276.37 294.81Q277.3 295.08 278.32 295.08L289.71 295.08L289.71 290.15L279.46 290.15Q278 290.15 277.12 289.5Q277.04 289.43 276.96 289.36Q276.24 288.68 276.24 287.25L276.24 286.07L290.51 286.07L290.51 280.39Q290.51 279.06 289.99 277.68Q289.62 276.65 289.02 275.76Q288.82 275.46 288.59 275.18Q288.43 274.98 288.26 274.79Q287.45 273.92 286.34 273.33Q286.3 273.31 286.27 273.29Q284.96 272.6 283.29 272.6L278.27 272.6Q276.95 272.6 275.63 273.24Q275.17 273.46 274.74 273.74Q273.96 274.26 273.3 274.98Q273.2 275.09 273.1 275.2Q272.23 276.22 271.67 277.51Q271.54 277.79 271.45 278.09ZM303.21 278.09Q302.82 279.26 302.82 280.57L302.82 287.38Q302.82 289.06 303.39 290.46Q303.96 291.83 304.91 292.83Q304.93 292.86 304.96 292.89Q305.28 293.22 305.64 293.51Q306.38 294.09 307.27 294.49Q307.7 294.68 308.14 294.81Q309.07 295.08 310.08 295.08L321.48 295.08L321.48 290.15L311.22 290.15Q309.77 290.15 308.89 289.5Q308.8 289.43 308.73 289.36Q308.01 288.68 308.01 287.25L308.01 286.07L322.28 286.07L322.28 280.39Q322.28 279.06 321.76 277.68Q321.38 276.65 320.79 275.76Q320.58 275.46 320.35 275.18Q320.2 274.98 320.03 274.79Q319.22 273.92 318.11 273.33Q318.07 273.31 318.04 273.29Q316.73 272.6 315.06 272.6L310.04 272.6Q308.72 272.6 307.4 273.24Q306.94 273.46 306.51 273.74Q305.72 274.26 305.07 274.98Q304.97 275.09 304.87 275.2Q304 276.22 303.44 277.51Q303.31 277.79 303.21 278.09ZM336.44 289.51Q335.73 289.94 334.77 289.94L332.96 289.94Q332.06 289.94 331.36 289.56Q330.98 289.34 330.65 289.01Q330.38 288.73 330.19 288.41Q329.75 287.65 329.75 286.64L329.75 280.91Q329.75 279.88 330.21 279.12Q330.39 278.82 330.65 278.56Q330.95 278.26 331.31 278.06Q332.03 277.66 332.96 277.66L334.77 277.66Q335.91 277.66 336.61 278.18Q336.76 278.29 336.88 278.42Q337.37 278.91 337.58 279.69L342.78 279.69Q342.53 277.01 341.12 275.26Q340.79 274.85 340.39 274.49Q340.23 274.34 340.05 274.19Q338.04 272.6 334.77 272.6L332.96 272.6Q331.07 272.6 329.52 273.2Q327.99 273.79 326.93 274.84Q325.88 275.9 325.28 277.4Q324.69 278.89 324.69 280.78L324.69 286.81Q324.69 288.66 325.28 290.18Q325.87 291.66 326.89 292.73Q326.91 292.76 326.93 292.78Q327.01 292.86 327.08 292.93Q328.09 293.9 329.52 294.43Q331.07 295 332.96 295L334.77 295Q337.84 295 339.81 293.52Q340.07 293.32 340.31 293.1Q340.8 292.65 341.2 292.13Q342.48 290.46 342.78 288.04L337.54 288.04Q337.43 288.49 337.19 288.83Q336.94 289.18 336.57 289.43Q336.51 289.47 336.44 289.51ZM285.4 281.88L276.29 281.88L276.29 281.66Q276.29 280.95 276.48 280.3Q276.51 280.22 276.53 280.15Q276.78 279.42 277.17 278.89Q277.37 278.63 277.61 278.41Q277.85 278.2 278.13 278.03Q278.33 277.92 278.54 277.85Q278.95 277.7 279.41 277.7L282.14 277.7Q283 277.7 283.65 278.07Q284.14 278.34 284.51 278.83Q284.6 278.93 284.67 279.04Q285.4 280.1 285.4 281.66L285.4 281.88ZM317.16 281.88L308.05 281.88L308.05 281.66Q308.05 280.95 308.25 280.3Q308.28 280.22 308.3 280.15Q308.55 279.42 308.94 278.89Q309.13 278.63 309.38 278.41Q309.62 278.2 309.9 278.03Q310.1 277.92 310.31 277.85Q310.72 277.7 311.18 277.7L313.91 277.7Q314.76 277.7 315.42 278.07Q315.91 278.34 316.28 278.83Q316.36 278.93 316.44 279.04Q317.16 280.1 317.16 281.66L317.16 281.88Z" fill="#333333" fill-opacity="1.000000" fill-rule="evenodd"/>
		<path id="path" d="M740.91 283.54L749.94 274.62C750.36 274.21 750.9 274 751.56 274C752.21 274 752.76 274.21 753.18 274.62C753.6 275.04 753.82 275.58 753.82 276.22C753.82 276.87 753.6 277.41 753.18 277.82L742.53 288.34C742.3 288.57 742.04 288.73 741.77 288.82C741.5 288.92 741.21 288.97 740.91 288.97C740.6 288.97 740.31 288.92 740.04 288.82C739.77 288.73 739.52 288.57 739.28 288.34L728.63 277.82C728.21 277.41 728 276.87 728 276.22C728 275.58 728.21 275.04 728.63 274.62C729.06 274.21 729.6 274 730.25 274C730.91 274 731.45 274.21 731.87 274.62L740.91 283.54Z" fill="#E688AF" fill-opacity="1.000000" fill-rule="nonzero"/>
	</g>
</svg>
