<svg width="1000.000000" height="562.000000" viewBox="0 0 1000 562" fill="none" xmlns="http://www.w3.org/2000/svg" xmlns:xlink="http://www.w3.org/1999/xlink">
	<desc>
			Created with Pixso.
	</desc>
	<defs>
		<clipPath id="clip263_463">
			<rect id="tabs" width="1000.000000" height="562.000000" fill="white" fill-opacity="0"/>
		</clipPath>
	</defs>
	<rect id="tabs" width="1000.000000" height="562.000000" fill="#B193D1" fill-opacity="1.000000"/>
	<g clip-path="url(#clip263_463)">
		<rect id="фрейм 8" width="466.000000" height="55.000000" transform="translate(267.000000 142.000000)" fill="#FFFFFF" fill-opacity="0"/>
		<g opacity="0.320000">
			<path id="JQUERY" d="M607.28 176.86Q607.66 175.63 607.66 174.28L607.66 153.03L602.21 153.03L602.21 173.97Q602.21 174.77 601.94 175.45Q601.74 175.97 601.43 176.4Q601.33 176.53 601.22 176.66Q600.97 176.94 600.68 177.16Q600.42 177.35 600.13 177.5Q599.52 177.81 598.73 177.81L596.88 177.81Q595.97 177.81 595.36 177.38Q595.14 177.23 594.97 177.03Q594.9 176.96 594.84 176.88Q594.26 176.15 594.02 175.16L588.61 175.16Q588.71 176.38 589.11 177.49Q589.24 177.87 589.4 178.23Q589.92 179.33 590.68 180.2Q590.91 180.47 591.16 180.71Q591.49 181.02 591.84 181.29Q592.68 181.94 593.69 182.38Q595.13 183 596.84 183L599 183Q600.15 183 601.22 182.71Q601.79 182.55 602.34 182.32Q603.53 181.8 604.5 181Q604.82 180.74 605.11 180.45Q605.55 180.01 605.92 179.51Q606.55 178.67 606.98 177.68Q607.15 177.28 607.28 176.86ZM625.82 153.45Q624.56 153.03 623.15 153.03L619.67 153.03Q618.61 153.03 617.61 153.28Q616.95 153.45 616.32 153.72Q615.33 154.15 614.49 154.78Q613.99 155.15 613.55 155.59Q613.34 155.8 613.15 156.03Q612.25 157.06 611.68 158.39Q611.5 158.81 611.37 159.24Q611 160.46 611 161.79L611 174.28Q611 175.67 611.4 176.93Q611.52 177.31 611.68 177.68Q612.15 178.76 612.86 179.67Q613.18 180.08 613.55 180.45Q613.92 180.82 614.33 181.14Q615.23 181.85 616.32 182.32Q616.92 182.58 617.55 182.73Q618.58 183 619.67 183L623.15 183Q624.6 183 625.88 182.56Q626.84 182.23 627.67 181.7Q627.95 181.52 628.21 181.32L629.53 183L634.68 183L630.9 178.2Q631.3 177.32 631.55 176.34Q631.62 176.09 631.67 175.84Q631.82 175.08 631.82 174.28L631.82 161.79Q631.82 160.5 631.47 159.31Q631.33 158.84 631.13 158.39Q630.57 157.04 629.66 155.99Q629.48 155.79 629.29 155.59Q628.99 155.28 628.66 155.01Q627.72 154.23 626.54 153.72Q626.19 153.57 625.82 153.45ZM657.62 177.01Q658.04 175.71 658.04 174.28L658.04 153.03L652.68 153.03L652.68 173.97Q652.68 174.6 652.49 175.16Q652.43 175.31 652.37 175.45Q652.08 176.08 651.65 176.58Q651.61 176.62 651.57 176.66Q651.49 176.74 651.41 176.82Q650.98 177.24 650.4 177.5Q650.05 177.66 649.67 177.74Q649.33 177.81 648.98 177.81L646.34 177.81Q645.98 177.81 645.64 177.74Q645.26 177.66 644.9 177.5Q644.46 177.29 644.09 177Q643.9 176.84 643.72 176.66Q643.51 176.43 643.33 176.18Q643.09 175.84 642.93 175.45Q642.91 175.42 642.9 175.39Q642.65 174.73 642.65 173.97L642.65 153.03L637.23 153.03L637.23 174.28Q637.23 175.67 637.63 176.93Q637.75 177.31 637.91 177.68Q638.33 178.65 638.95 179.48Q639.34 179.99 639.8 180.45Q640.25 180.89 640.75 181.26Q641.6 181.89 642.59 182.32Q642.96 182.48 643.34 182.6Q644.6 183 645.99 183L649.37 183Q650.82 183 652.11 182.56Q652.44 182.45 652.76 182.32Q653.95 181.8 654.92 181Q655.23 180.74 655.53 180.45Q656.01 179.96 656.41 179.41Q656.99 178.61 657.37 177.68Q657.51 177.35 657.62 177.01ZM682.69 177.94L667.76 177.94L667.76 170.5L682.69 170.5L682.69 165.49L667.76 165.49L667.76 158.1L682.69 158.1L682.69 153.03L662.09 153.03L662.09 183L682.69 183L682.69 177.94ZM692.76 183L692.76 170.9L702.31 183L708.69 183L698.53 170.59L700.02 170.59Q701.59 170.59 702.96 170.08Q703.1 170.03 703.23 169.98Q704.36 169.5 705.25 168.75Q705.54 168.51 705.8 168.24Q706.14 167.88 706.44 167.49Q707.09 166.64 707.52 165.64Q707.68 165.27 707.8 164.88Q708.16 163.74 708.16 162.49L708.16 161.17Q708.16 160.1 707.9 159.1Q707.75 158.54 707.52 158.01Q706.96 156.68 706.04 155.66Q705.92 155.53 705.8 155.41Q705.6 155.21 705.39 155.02Q704.45 154.19 703.23 153.67Q703.02 153.58 702.8 153.5Q701.49 153.03 700.02 153.03L687.17 153.03L687.17 183L692.76 183ZM710.63 153.03L718.19 169.35L718.19 183L723.56 183L723.56 169.4L731.39 153.03L725.76 153.03L723.47 157.83Q722.85 159.06 722.28 160.25Q721.71 161.44 721.19 162.57L720.92 162.57L716.3 153.03L710.63 153.03ZM626.41 162.05L626.41 172.56L624.25 169.79L618.97 169.79L624.92 177.23Q624.57 177.48 624.19 177.62Q623.68 177.81 623.11 177.81L619.71 177.81Q618.81 177.81 618.12 177.42Q617.65 177.15 617.28 176.69Q617.02 176.37 616.84 176.01Q616.38 175.11 616.38 173.97L616.38 162.05Q616.38 160.9 616.85 160Q617.03 159.67 617.28 159.37Q617.64 158.93 618.1 158.66Q618.8 158.27 619.71 158.27L623.11 158.27Q623.81 158.27 624.4 158.53Q624.43 158.54 624.46 158.56Q624.72 158.67 624.95 158.84Q625.27 159.06 625.53 159.37Q625.61 159.47 625.69 159.58Q626.01 160.03 626.18 160.59Q626.41 161.26 626.41 162.05ZM692.76 165.36L692.76 158.27L699.14 158.27Q700.95 158.27 701.83 159.17Q701.87 159.21 701.91 159.25Q702.05 159.41 702.17 159.59Q702.79 160.5 702.79 161.83Q702.79 163.38 702.03 164.3Q701.97 164.37 701.91 164.43Q701.03 165.36 699.14 165.36L692.76 165.36Z" fill="#333333" fill-opacity="1.000000" fill-rule="evenodd"/>
		</g>
		<g opacity="0.320000">
			<path id="SCSS" d="M444.4 164.89Q443.07 164.42 441.57 164.42L436.16 164.42Q435.16 164.42 434.48 163.95Q434.29 163.82 434.13 163.66Q433.79 163.3 433.6 162.88Q433.39 162.38 433.39 161.79Q433.39 160.82 433.69 160.25Q433.87 159.91 434.15 159.67Q434.34 159.51 434.57 159.39Q435.15 159.1 435.89 159Q436.64 158.88 437.52 158.88L447.6 158.88L447.6 153.03L435.23 153.03Q433.62 153.03 432.27 153.63Q432.14 153.68 432.02 153.74Q430.95 154.26 430.12 155.03Q429.82 155.31 429.56 155.61Q428.55 156.77 427.97 158.32Q427.64 159.21 427.5 160.13Q427.4 160.8 427.4 161.48Q427.4 163.81 428.1 165.49Q428.72 166.94 429.77 167.93Q429.92 168.08 430.09 168.21Q431.37 169.27 433.21 169.75Q435.06 170.23 437.31 170.23L440.86 170.23Q442.12 170.23 443.06 170.78Q443.38 170.96 443.66 171.2Q443.99 171.49 444.23 171.84Q444.78 172.68 444.78 173.89Q444.78 174.81 444.43 175.48Q444.18 175.93 443.83 176.29Q443.68 176.44 443.51 176.57Q442.94 177.01 442.12 177.24Q441.3 177.45 440.42 177.45L428.37 177.45L428.37 183L442.01 183Q443.86 183 445.35 182.3Q446.32 181.84 447.11 181.18Q447.56 180.82 447.95 180.39Q449.05 179.17 449.64 177.5Q450.24 175.82 450.24 173.89Q450.24 171.82 449.6 170.08Q448.98 168.39 447.85 167.16Q447.82 167.13 447.79 167.1Q447.41 166.69 446.98 166.33Q446.1 165.61 445.02 165.13Q444.72 165 444.4 164.89ZM467.67 177.29Q467.08 177.81 466.03 177.81L462.34 177.81Q461.43 177.81 460.74 177.42Q460.27 177.15 459.9 176.69Q459.64 176.37 459.46 176.01Q459 175.11 459 173.97L459 162.05Q459 160.9 459.47 160Q459.65 159.67 459.9 159.37Q460.26 158.93 460.72 158.66Q461.42 158.27 462.34 158.27L466.03 158.27Q467.12 158.27 467.73 158.81Q467.86 158.92 467.96 159.06Q468.59 159.86 468.8 161L474.36 161Q474.17 159.32 473.51 157.87Q472.95 156.63 472.08 155.67Q471.93 155.5 471.78 155.35Q471.5 155.06 471.19 154.81Q470.32 154.1 469.24 153.65Q467.79 153.03 466.07 153.03L462.29 153.03Q461.23 153.03 460.23 153.28Q459.57 153.45 458.94 153.72Q457.95 154.15 457.11 154.78Q456.61 155.15 456.17 155.59Q455.96 155.8 455.77 156.03Q454.87 157.06 454.3 158.39Q454.12 158.81 453.99 159.24Q453.62 160.46 453.62 161.79L453.62 174.28Q453.62 175.67 454.02 176.93Q454.14 177.31 454.3 177.68Q454.77 178.76 455.48 179.67Q455.8 180.08 456.17 180.45Q456.54 180.82 456.95 181.14Q457.85 181.85 458.94 182.32Q459.54 182.58 460.17 182.73Q461.2 183 462.29 183L466.07 183Q467.45 183 468.69 182.58Q468.96 182.49 469.22 182.38Q470.65 181.78 471.69 180.79Q471.74 180.75 471.78 180.71Q471.96 180.53 472.13 180.34Q472.96 179.41 473.51 178.23Q473.66 177.91 473.78 177.58Q474.21 176.43 474.36 175.16L468.8 175.16Q468.5 176.26 467.9 177.03Q467.79 177.17 467.67 177.29ZM494.25 164.89Q492.92 164.42 491.42 164.42L486.01 164.42Q485.01 164.42 484.33 163.95Q484.14 163.82 483.98 163.66Q483.64 163.3 483.45 162.88Q483.24 162.38 483.24 161.79Q483.24 160.82 483.54 160.25Q483.73 159.91 484.01 159.67Q484.19 159.51 484.42 159.39Q485 159.1 485.74 159Q486.49 158.88 487.37 158.88L497.45 158.88L497.45 153.03L485.09 153.03Q483.47 153.03 482.12 153.63Q482 153.68 481.87 153.74Q480.8 154.26 479.97 155.03Q479.68 155.31 479.41 155.61Q478.4 156.77 477.82 158.32Q477.49 159.21 477.36 160.13Q477.25 160.8 477.25 161.48Q477.25 163.81 477.95 165.49Q478.57 166.94 479.62 167.93Q479.78 168.08 479.94 168.21Q481.22 169.27 483.07 169.75Q484.91 170.23 487.16 170.23L490.71 170.23Q491.97 170.23 492.92 170.78Q493.23 170.96 493.51 171.2Q493.84 171.49 494.08 171.84Q494.64 172.68 494.64 173.89Q494.64 174.81 494.28 175.48Q494.03 175.93 493.68 176.29Q493.53 176.44 493.36 176.57Q492.79 177.01 491.97 177.24Q491.16 177.45 490.27 177.45L478.22 177.45L478.22 183L491.86 183Q493.71 183 495.2 182.3Q496.17 181.84 496.97 181.18Q497.41 180.82 497.8 180.39Q498.9 179.17 499.49 177.5Q500.09 175.82 500.09 173.89Q500.09 171.82 499.45 170.08Q498.83 168.39 497.7 167.16Q497.67 167.13 497.64 167.1Q497.26 166.69 496.83 166.33Q495.96 165.61 494.87 165.13Q494.57 165 494.25 164.89ZM519.91 164.89Q518.57 164.42 517.08 164.42L511.66 164.42Q510.66 164.42 509.98 163.95Q509.79 163.82 509.63 163.66Q509.29 163.3 509.11 162.88Q508.89 162.38 508.89 161.79Q508.89 160.82 509.19 160.25Q509.38 159.91 509.66 159.67Q509.84 159.51 510.07 159.39Q510.65 159.1 511.39 159Q512.15 158.88 513.03 158.88L523.1 158.88L523.1 153.03L510.74 153.03Q509.13 153.03 507.77 153.63Q507.65 153.68 507.53 153.74Q506.45 154.26 505.62 155.03Q505.33 155.31 505.07 155.61Q504.06 156.77 503.48 158.32Q503.15 159.21 503.01 160.13Q502.91 160.8 502.91 161.48Q502.91 163.81 503.6 165.49Q504.22 166.94 505.27 167.93Q505.43 168.08 505.59 168.21Q506.87 169.27 508.72 169.75Q510.57 170.23 512.81 170.23L516.37 170.23Q517.62 170.23 518.57 170.78Q518.88 170.96 519.16 171.2Q519.49 171.49 519.73 171.84Q520.29 172.68 520.29 173.89Q520.29 174.81 519.93 175.48Q519.68 175.93 519.33 176.29Q519.18 176.44 519.01 176.57Q518.44 177.01 517.62 177.24Q516.81 177.45 515.93 177.45L503.87 177.45L503.87 183L517.52 183Q519.36 183 520.86 182.3Q521.82 181.84 522.62 181.18Q523.06 180.82 523.46 180.39Q524.55 179.17 525.14 177.5Q525.74 175.82 525.74 173.89Q525.74 171.82 525.1 170.08Q524.48 168.39 523.35 167.16Q523.32 167.13 523.3 167.1Q522.92 166.69 522.49 166.33Q521.61 165.61 520.52 165.13Q520.22 165 519.91 164.89Z" fill="#333333" fill-opacity="1.000000" fill-rule="evenodd"/>
		</g>
		<path id="HTML" d="M284.29 183L289.83 183L289.83 153.03L284.29 153.03L284.29 165.49L274.65 165.49L274.65 153.03L269.07 153.03L269.07 183L274.65 183L274.65 170.5L284.29 170.5L284.29 183ZM292.74 158.58L300.39 158.58L300.39 183L305.76 183L305.76 158.58L313.5 158.58L313.5 153.03L292.74 153.03L292.74 158.58ZM363.88 177.94L347.65 177.94L347.65 153.03L342.36 153.03L342.36 183L363.88 183L363.88 177.94ZM327.85 174.68L327.54 174.68L322.75 153.08L316.45 153.08L316.45 183L320.8 183L320.8 163.6L321.11 163.6L325.21 183.04L330 183Q331.02 178.15 332.16 173.3Q333.31 168.43 334.36 163.55L334.63 163.55L334.63 183L338.94 183L338.94 153.08L332.64 153.08Q331.46 158.49 330.25 163.89Q329.03 169.27 327.85 174.68Z" fill="#333333" fill-opacity="1.000000" fill-rule="evenodd"/>
		<rect id="Прямоугольник 10" x="267.000000" y="237.000000" rx="8.000000" width="144.000000" height="184.000000" fill="#EAD5FF" fill-opacity="1.000000"/>
		<rect id="фрейм 9" width="291.000000" height="128.000000" transform="translate(439.000000 237.000000)" fill="#FFFFFF" fill-opacity="0"/>
		<rect id="Прямоугольник 14" x="439.000000" y="349.000000" rx="8.000000" width="208.000000" height="16.000000" fill="#EAD5FF" fill-opacity="1.000000"/>
		<rect id="Прямоугольник 13" x="439.000000" y="321.000000" rx="8.000000" width="172.000000" height="16.000000" fill="#EAD5FF" fill-opacity="1.000000"/>
		<rect id="Прямоугольник 12" x="439.000000" y="293.000000" rx="8.000000" width="268.000000" height="16.000000" fill="#EAD5FF" fill-opacity="1.000000"/>
		<rect id="Прямоугольник 11" x="439.000000" y="265.000000" rx="8.000000" width="232.000000" height="16.000000" fill="#EAD5FF" fill-opacity="1.000000"/>
		<rect id="Прямоугольник 12" x="439.000000" y="237.000000" rx="8.000000" width="291.000000" height="16.000000" fill="#EAD5FF" fill-opacity="1.000000"/>
	</g>
</svg>
