<svg width="80" height="97" viewBox="0 0 80 97" fill="none" xmlns="http://www.w3.org/2000/svg">
<path d="M79.9219 49.1471C79.9198 49.8808 79.1798 50.2624 78.2692 49.9987L1.62521 27.8277C0.727249 27.5676 -0.000696775 26.766 -0.000170421 26.037L0.00877669 0.935721C0.00930305 0.205669 0.737778 -0.177517 1.63679 0.0803963L78.3418 22.0746C79.2534 22.3362 79.9909 23.1436 79.9888 23.879L79.9219 49.1471Z" fill="url(#paint0_linear_1154_1848)"/>
<path d="M79.9331 96.0431C79.931 96.7768 79.191 97.1584 78.2804 96.8947L1.63645 74.7237C0.738488 74.4636 0.0105417 73.662 0.0110681 72.933L0.0200152 47.8317C0.0205415 47.1017 0.749016 46.7185 1.64803 46.9764L78.353 68.9711C79.2647 69.2327 80.0021 70.0402 80 70.7755L79.9331 96.0431Z" fill="url(#paint1_linear_1154_1848)"/>
<path d="M0.066684 73.6705C0.0687894 74.4043 0.808842 74.7859 1.71943 74.5222L78.3634 52.3511C79.2613 52.0911 79.9893 51.2894 79.9888 50.5604L79.9798 25.4592C79.9793 24.7291 79.2508 24.3459 78.3518 24.6038L1.6468 46.5986C0.735153 46.8602 -0.00226781 47.6676 -0.00016239 48.4029L0.066684 73.6705Z" fill="#40B4EA"/>
<defs>
<linearGradient id="paint0_linear_1154_1848" x1="39.9943" y1="0" x2="39.9943" y2="50.0822" gradientUnits="userSpaceOnUse">
<stop stop-color="#40B4EA"/>
<stop offset="1" stop-color="#45C4FF"/>
</linearGradient>
<linearGradient id="paint1_linear_1154_1848" x1="40.0055" y1="46.896" x2="40.0055" y2="96.9783" gradientUnits="userSpaceOnUse">
<stop stop-color="#45C4FF"/>
<stop offset="1" stop-color="#40B4EA"/>
</linearGradient>
</defs>
</svg>
