<svg width="840" height="480" viewBox="0 0 840 480" fill="none" xmlns="http://www.w3.org/2000/svg">
<rect width="840" height="480" fill="#24272D"/>
<g clip-path="url(#clip0_1556_973)">
<path d="M535.302 241.868C535.296 243.986 533.163 245.087 530.539 244.326L309.684 180.327C307.096 179.577 304.998 177.263 305 175.158L305.026 102.701C305.027 100.594 307.126 99.4876 309.717 100.232L530.749 163.72C533.375 164.476 535.501 166.806 535.495 168.929L535.302 241.868Z" fill="url(#paint0_linear_1556_973)"/>
<path d="M535.334 377.238C535.328 379.356 533.195 380.457 530.571 379.696L309.716 315.697C307.128 314.947 305.03 312.633 305.032 310.528L305.058 238.071C305.059 235.964 307.158 234.858 309.749 235.602L530.78 299.092C533.408 299.847 535.532 302.178 535.526 304.3L535.334 377.238Z" fill="url(#paint1_linear_1556_973)"/>
<path d="M305.192 312.657C305.198 314.775 307.331 315.877 309.955 315.116L530.81 251.117C533.398 250.366 535.495 248.052 535.494 245.948L535.468 173.49C535.467 171.383 533.367 170.277 530.777 171.021L309.745 234.511C307.118 235.267 304.993 237.597 305 239.72L305.192 312.657Z" fill="#40B4EA"/>
</g>
<defs>
<linearGradient id="paint0_linear_1556_973" x1="420.247" y1="100" x2="420.247" y2="244.567" gradientUnits="userSpaceOnUse">
<stop stop-color="#40B4EA"/>
<stop offset="1" stop-color="#45C4FF"/>
</linearGradient>
<linearGradient id="paint1_linear_1556_973" x1="420.279" y1="235.37" x2="420.279" y2="379.937" gradientUnits="userSpaceOnUse">
<stop stop-color="#45C4FF"/>
<stop offset="1" stop-color="#40B4EA"/>
</linearGradient>
<clipPath id="clip0_1556_973">
<rect width="230.526" height="280" fill="white" transform="translate(305 100)"/>
</clipPath>
</defs>
</svg>
